<svg width="91" height="91" viewBox="0 0 91 91" fill="none" xmlns="http://www.w3.org/2000/svg">
<rect x="2.5" y="2.5" width="86" height="86" rx="43" fill="white"/>
<rect x="2.5" y="2.5" width="86" height="86" rx="43" stroke="white" stroke-width="5"/>
<path d="M65.75 13.3531C59.8016 9.68281 52.9672 7.53125 45.5 7.53125V13.3531H65.75Z" fill="#ED4C5C"/>
<path d="M45.5 19.1749H72.8375C70.6859 17.0233 68.2812 14.9983 65.75 13.353H45.5V19.1749Z" fill="white"/>
<path d="M45.5 24.9967H77.5203C76.1281 22.8451 74.6094 20.9467 72.9641 19.1748H45.5V24.9967Z" fill="#ED4C5C"/>
<path d="M45.5 30.8189H80.5578C79.6719 28.7939 78.6594 26.7689 77.5203 24.9971H45.5V30.8189Z" fill="white"/>
<path d="M45.5 36.6407H82.4562C81.95 34.6157 81.3172 32.7173 80.5578 30.8188H45.5V36.6407Z" fill="#ED4C5C"/>
<path d="M45.5 42.589H83.3422C83.2156 40.564 82.8359 38.6655 82.4562 36.7671H45.5V42.589Z" fill="white"/>
<path d="M83.3422 42.5889H45.5V45.4998H7.53125C7.53125 46.5123 7.53125 47.3982 7.65781 48.4107H83.3422C83.4688 47.3982 83.4688 46.5123 83.4688 45.4998C83.4688 44.4873 83.4688 43.4748 83.3422 42.5889Z" fill="#ED4C5C"/>
<path d="M8.54414 54.233H82.4566C82.9629 52.3346 83.216 50.4361 83.3426 48.4111H7.6582C7.78477 50.3096 8.03789 52.3346 8.54414 54.233Z" fill="white"/>
<path d="M10.4424 60.0548H80.558C81.3174 58.1563 81.9502 56.2579 82.4564 54.2329H8.54395C9.0502 56.2579 9.68301 58.1563 10.4424 60.0548Z" fill="#ED4C5C"/>
<path d="M13.4799 65.8766H77.5205C78.6596 63.9781 79.6721 62.0797 80.558 60.0547H10.4424C11.3283 62.0797 12.3408 63.9781 13.4799 65.8766Z" fill="white"/>
<path d="M18.0357 71.6983H72.9639C74.6092 69.9265 76.2545 67.9015 77.5201 65.8765H13.4795C14.7451 68.028 16.3904 69.9265 18.0357 71.6983Z" fill="#ED4C5C"/>
<path d="M25.1236 77.5201H65.8768C68.5346 75.8748 70.8127 73.8498 72.9643 71.6982H18.0361C20.1877 73.9764 22.5924 75.8748 25.1236 77.5201Z" fill="white"/>
<path d="M45.4996 83.4689C52.9668 83.4689 59.9277 81.3174 65.8762 77.5205H25.123C31.0715 81.3174 38.0324 83.4689 45.4996 83.4689Z" fill="#ED4C5C"/>
<path d="M25.25 13.3531C22.5922 14.9984 20.1875 17.0234 18.0359 19.175C16.2641 20.9469 14.7453 22.9719 13.4797 24.9969C12.3406 26.8953 11.2016 28.7937 10.4422 30.8188C9.68281 32.7172 9.05 34.6156 8.54375 36.6406C8.0375 38.5391 7.78437 40.4375 7.65781 42.4625C7.53125 43.475 7.53125 44.4875 7.53125 45.5H45.5V7.53125C38.0328 7.53125 31.1984 9.68281 25.25 13.3531Z" fill="#428BC1"/>
<path d="M36.6402 8.79688L37.273 10.6953H39.1715L37.6527 11.9609L38.159 13.8594L36.6402 12.7203L35.1215 13.8594L35.6277 11.9609L34.109 10.6953H36.0074L36.6402 8.79688ZM41.7027 16.3906L42.3355 18.2891H44.234L42.7152 19.5547L43.2215 21.4531L41.7027 20.3141L40.184 21.4531L40.6902 19.5547L39.1715 18.2891H41.0699L41.7027 16.3906ZM31.5777 16.3906L32.2105 18.2891H34.109L32.5902 19.5547L33.0965 21.4531L31.5777 20.3141L30.059 21.4531L30.5652 19.5547L29.0465 18.2891H30.9449L31.5777 16.3906ZM36.6402 23.9844L37.273 25.8828H39.1715L37.6527 27.1484L38.159 29.0469L36.6402 27.9078L35.1215 29.0469L35.6277 27.1484L34.109 25.8828H36.0074L36.6402 23.9844ZM26.5152 23.9844L27.148 25.8828H29.0465L27.5277 27.1484L28.034 29.0469L26.5152 27.9078L24.9965 29.0469L25.5027 27.1484L23.984 25.8828H25.8824L26.5152 23.9844ZM16.3902 23.9844L17.023 25.8828H18.9215L17.4027 27.1484L17.909 29.0469L16.3902 27.9078L14.8715 29.0469L15.3777 27.1484L13.859 25.8828H15.7574L16.3902 23.9844ZM41.7027 31.5781L42.3355 33.4766H44.234L42.7152 34.7422L43.2215 36.6406L41.7027 35.5016L40.184 36.6406L40.6902 34.7422L39.1715 33.4766H41.0699L41.7027 31.5781ZM31.5777 31.5781L32.2105 33.4766H34.109L32.5902 34.7422L33.0965 36.6406L31.5777 35.5016L30.059 36.6406L30.5652 34.7422L29.0465 33.4766H30.9449L31.5777 31.5781ZM21.4527 31.5781L22.0855 33.4766H23.984L22.4652 34.7422L22.9715 36.6406L21.4527 35.5016L19.934 36.6406L20.4402 34.7422L18.9215 33.4766H20.8199L21.4527 31.5781ZM36.6402 39.1719L37.273 41.0703H39.1715L37.6527 42.3359L38.159 44.2344L36.6402 43.0953L35.1215 44.2344L35.6277 42.3359L34.109 41.0703H36.0074L36.6402 39.1719ZM26.5152 39.1719L27.148 41.0703H29.0465L27.5277 42.3359L28.034 44.2344L26.5152 43.0953L24.9965 44.2344L25.5027 42.3359L23.984 41.0703H25.8824L26.5152 39.1719ZM16.3902 39.1719L17.023 41.0703H18.9215L17.4027 42.3359L17.909 44.2344L16.3902 43.0953L14.8715 44.2344L15.3777 42.3359L13.859 41.0703H15.7574L16.3902 39.1719ZM19.934 21.4531L21.4527 20.3141L22.9715 21.4531L22.3387 19.5547L23.8574 18.2891H21.959L21.4527 16.3906L20.8199 18.2891H19.048L20.5668 19.4281L19.934 21.4531ZM9.80898 36.6406L11.3277 35.5016L12.8465 36.6406L12.2137 34.7422L13.7324 33.4766H11.9605L11.3277 31.5781L10.6949 33.4766H9.4293C9.4293 33.6031 9.30273 33.7297 9.30273 33.8562L10.3152 34.6156L9.80898 36.6406Z" fill="white"/>
</svg>
