<svg width="18" height="18" viewBox="0 0 18 18" fill="none" xmlns="http://www.w3.org/2000/svg">
<path fill-rule="evenodd" clip-rule="evenodd" d="M0.900146 9.89996H1.80012V11.6999V16.1998C1.80012 17.1925 2.6074 17.9997 3.60007 17.9997H6.3H11.6999H14.3998C15.3925 17.9997 16.1997 17.1925 16.1997 16.1998V11.6999V9.89996H17.0997C17.4633 9.89996 17.7927 9.68036 17.9313 9.34467C18.0708 9.00808 17.9934 8.62109 17.736 8.3637L9.63621 0.263918C9.28432 -0.0879726 8.71553 -0.0879726 8.36364 0.263918L0.263863 8.3637C0.00647015 8.62109 -0.0709277 9.00808 0.0685685 9.34467C0.207165 9.68036 0.536556 9.89996 0.900146 9.89996ZM7.19998 16.1998V11.6999H10.7999V16.1998H7.19998ZM8.99993 2.17277L14.3998 7.57262V11.6999L14.4007 16.1998H12.5998V11.6999C12.5998 10.7072 11.7926 9.89996 10.7999 9.89996H7.19998C6.2073 9.89996 5.40002 10.7072 5.40002 11.6999V16.1998H3.60007V11.6999V8.99998V7.57262L8.99993 2.17277Z" fill="#013E44"/>
</svg>
