<svg width="97" height="13" viewBox="0 0 97 13" fill="none" xmlns="http://www.w3.org/2000/svg">
<path d="M0 9.84986V0.29848H3.22732C3.97352 0.29848 4.58603 0.425957 5.06484 0.680909C5.54365 0.932751 5.8981 1.27942 6.12818 1.72093C6.35826 2.16243 6.4733 2.66456 6.4733 3.22732C6.4733 3.79008 6.35826 4.2891 6.12818 4.72439C5.8981 5.15967 5.54521 5.50168 5.06951 5.75041C4.5938 5.99604 3.98596 6.11885 3.24598 6.11885H0.634271V5.07417H3.20867C3.71857 5.07417 4.12898 4.99955 4.4399 4.85031C4.75392 4.70107 4.98089 4.48965 5.12081 4.21604C5.26383 3.93932 5.33534 3.60975 5.33534 3.22732C5.33534 2.84489 5.26383 2.51066 5.12081 2.22461C4.97779 1.93857 4.74926 1.71782 4.43523 1.56236C4.12121 1.40379 3.70613 1.32451 3.19001 1.32451H1.15661V9.84986H0ZM4.49586 5.5592L6.8464 9.84986H5.50324L3.19001 5.5592H4.49586Z" fill="#969696"/>
<path d="M11.1779 9.9991C10.4876 9.9991 9.89222 9.84675 9.39164 9.54205C8.89418 9.23424 8.51019 8.80518 8.2397 8.25485C7.97231 7.70142 7.83861 7.05782 7.83861 6.32406C7.83861 5.59029 7.97231 4.94358 8.2397 4.38393C8.51019 3.82117 8.8864 3.38278 9.36833 3.06875C9.85336 2.75162 10.4192 2.59305 11.0659 2.59305C11.439 2.59305 11.8075 2.65523 12.1712 2.7796C12.535 2.90397 12.8661 3.10606 13.1646 3.38589C13.4631 3.66261 13.701 4.02949 13.8782 4.48654C14.0554 4.94358 14.144 5.50635 14.144 6.17482V6.64119H8.62212V5.68979H13.0247C13.0247 5.28559 12.9439 4.92493 12.7822 4.60779C12.6236 4.29066 12.3967 4.04037 12.1013 3.85693C11.809 3.67349 11.4639 3.58177 11.0659 3.58177C10.6275 3.58177 10.2482 3.69059 9.92798 3.90823C9.61084 4.12276 9.36677 4.40259 9.19577 4.74771C9.02476 5.09282 8.93926 5.46282 8.93926 5.85768V6.49195C8.93926 7.03295 9.03254 7.49155 9.21909 7.86776C9.40875 8.24086 9.67147 8.52535 10.0073 8.72123C10.3431 8.914 10.7333 9.01038 11.1779 9.01038C11.467 9.01038 11.7282 8.96996 11.9614 8.88912C12.1977 8.80518 12.4013 8.68081 12.5723 8.51602C12.7433 8.34813 12.8755 8.13981 12.9687 7.89108L14.0321 8.18956C13.9202 8.55023 13.732 8.86736 13.4678 9.14097C13.2035 9.41147 12.877 9.62289 12.4884 9.77524C12.0997 9.92448 11.6629 9.9991 11.1779 9.9991Z" fill="#969696"/>
<path d="M18.7098 12.6854C18.1782 12.6854 17.7211 12.617 17.3387 12.4802C16.9563 12.3465 16.6376 12.1693 16.3826 11.9486C16.1308 11.7309 15.9302 11.4977 15.781 11.249L16.6578 10.6334C16.7573 10.764 16.8832 10.9132 17.0355 11.0811C17.1879 11.2521 17.3962 11.3998 17.6605 11.5241C17.9279 11.6516 18.2777 11.7154 18.7098 11.7154C19.2881 11.7154 19.7654 11.5755 20.1416 11.2956C20.5178 11.0158 20.7059 10.5774 20.7059 9.98044V8.52535H20.6126C20.5318 8.65594 20.4168 8.81761 20.2675 9.01038C20.1214 9.20004 19.91 9.36949 19.6333 9.51873C19.3597 9.66486 18.9897 9.73793 18.5233 9.73793C17.945 9.73793 17.4257 9.60113 16.9656 9.32752C16.5085 9.05391 16.1463 8.65594 15.8789 8.1336C15.6147 7.61125 15.4825 6.97698 15.4825 6.23078C15.4825 5.49702 15.6115 4.85808 15.8696 4.31398C16.1277 3.76676 16.4868 3.34392 16.9469 3.04543C17.4071 2.74385 17.9388 2.59305 18.5419 2.59305C19.0083 2.59305 19.3783 2.67078 19.6519 2.82624C19.9286 2.97859 20.1401 3.1527 20.2862 3.34858C20.4354 3.54135 20.5505 3.69992 20.6313 3.82428H20.7432V2.68632H21.8066V10.0551C21.8066 10.6707 21.6667 11.1713 21.3868 11.5568C21.1101 11.9454 20.737 12.2299 20.2675 12.4103C19.8012 12.5937 19.2819 12.6854 18.7098 12.6854ZM18.6725 8.74921C19.114 8.74921 19.4871 8.64816 19.7918 8.44607C20.0965 8.24397 20.3282 7.95326 20.4867 7.57394C20.6453 7.19463 20.7246 6.74069 20.7246 6.21213C20.7246 5.696 20.6469 5.24051 20.4914 4.84565C20.3359 4.45078 20.1059 4.14142 19.8012 3.91756C19.4965 3.6937 19.1202 3.58177 18.6725 3.58177C18.2062 3.58177 17.8175 3.69992 17.5066 3.93621C17.1988 4.17251 16.9671 4.48965 16.8117 4.88762C16.6593 5.28559 16.5832 5.7271 16.5832 6.21213C16.5832 6.70959 16.6609 7.14954 16.8163 7.53197C16.9749 7.91129 17.2081 8.20977 17.5159 8.42741C17.8268 8.64194 18.2124 8.74921 18.6725 8.74921Z" fill="#969696"/>
<path d="M23.8213 9.84986V2.68632H24.922V9.84986H23.8213ZM24.381 1.4924C24.1664 1.4924 23.9814 1.41934 23.826 1.27321C23.6736 1.12707 23.5975 0.951407 23.5975 0.746202C23.5975 0.540996 23.6736 0.365328 23.826 0.219197C23.9814 0.0730656 24.1664 0 24.381 0C24.5955 0 24.7789 0.0730656 24.9313 0.219197C25.0867 0.365328 25.1645 0.540996 25.1645 0.746202C25.1645 0.951407 25.0867 1.12707 24.9313 1.27321C24.7789 1.41934 24.5955 1.4924 24.381 1.4924Z" fill="#969696"/>
<path d="M32.012 4.29066L31.0233 4.57048C30.9611 4.4057 30.8694 4.24558 30.7482 4.09012C30.63 3.93155 30.4683 3.80096 30.2631 3.69836C30.0579 3.59576 29.7952 3.54446 29.475 3.54446C29.0366 3.54446 28.6712 3.6455 28.379 3.8476C28.0898 4.04659 27.9452 4.29999 27.9452 4.60779C27.9452 4.8814 28.0447 5.09749 28.2437 5.25606C28.4427 5.41462 28.7536 5.54676 29.1765 5.65248L30.2398 5.91365C30.8803 6.0691 31.3576 6.30696 31.6716 6.6272C31.9856 6.94434 32.1426 7.35319 32.1426 7.85377C32.1426 8.26418 32.0245 8.63106 31.7882 8.95442C31.555 9.27777 31.2285 9.53272 30.8088 9.71927C30.3891 9.90582 29.9009 9.9991 29.3444 9.9991C28.6137 9.9991 28.009 9.84053 27.5302 9.5234C27.0514 9.20626 26.7482 8.74299 26.6207 8.1336L27.6654 7.87243C27.7649 8.25796 27.953 8.54712 28.2297 8.73988C28.5096 8.93265 28.8749 9.02904 29.3257 9.02904C29.8387 9.02904 30.246 8.92022 30.5476 8.70257C30.8523 8.48182 31.0047 8.21754 31.0047 7.90973C31.0047 7.661 30.9176 7.45269 30.7435 7.28479C30.5694 7.11379 30.302 6.98631 29.9413 6.90236L28.7474 6.62254C28.0914 6.46708 27.6095 6.22612 27.3016 5.89966C26.9969 5.57008 26.8446 5.15812 26.8446 4.66376C26.8446 4.25957 26.9581 3.90201 27.1851 3.59109C27.4151 3.28018 27.7276 3.03611 28.1225 2.85888C28.5204 2.68166 28.9713 2.59305 29.475 2.59305C30.1838 2.59305 30.7404 2.74851 31.1446 3.05942C31.5519 3.37034 31.841 3.78075 32.012 4.29066Z" fill="#969696"/>
<path d="M36.9148 2.68632V3.61908H33.2025V2.68632H36.9148ZM34.2845 0.970062H35.3851V7.79781C35.3851 8.10872 35.4302 8.34191 35.5204 8.49737C35.6136 8.64972 35.7318 8.75232 35.8748 8.80518C36.0209 8.85492 36.1748 8.8798 36.3365 8.8798C36.4578 8.8798 36.5573 8.87358 36.635 8.86114C36.7127 8.8456 36.7749 8.83316 36.8215 8.82383L37.0454 9.81255C36.9708 9.84053 36.8666 9.86851 36.7329 9.8965C36.5992 9.92759 36.4298 9.94313 36.2246 9.94313C35.9137 9.94313 35.609 9.87629 35.3105 9.74259C35.0151 9.6089 34.7695 9.40525 34.5736 9.13164C34.3808 8.85803 34.2845 8.51291 34.2845 8.09629V0.970062Z" fill="#969696"/>
<path d="M40.6785 10.0178C40.2245 10.0178 39.8126 9.93225 39.4426 9.76125C39.0726 9.58713 38.7788 9.33685 38.5611 9.01038C38.3435 8.68081 38.2347 8.28284 38.2347 7.81646C38.2347 7.40605 38.3155 7.07337 38.4772 6.81842C38.6389 6.56035 38.8549 6.35826 39.1254 6.21213C39.3959 6.066 39.6944 5.95718 40.0209 5.88566C40.3505 5.81104 40.6816 5.75197 41.0143 5.70844C41.4495 5.65248 41.8024 5.6105 42.0729 5.58252C42.3465 5.55143 42.5455 5.50013 42.6699 5.42862C42.7974 5.3571 42.8611 5.23274 42.8611 5.05551V5.0182C42.8611 4.55805 42.7352 4.20049 42.4833 3.94554C42.2346 3.69059 41.8568 3.56311 41.3501 3.56311C40.8246 3.56311 40.4126 3.67815 40.1142 3.90823C39.8157 4.13831 39.6058 4.38393 39.4846 4.6451L38.4399 4.272C38.6264 3.83672 38.8752 3.49782 39.1861 3.2553C39.5001 3.00968 39.8421 2.83867 40.2121 2.74229C40.5852 2.6428 40.9521 2.59305 41.3127 2.59305C41.5428 2.59305 41.8071 2.62103 42.1056 2.677C42.4072 2.72985 42.6979 2.84023 42.9777 3.00812C43.2606 3.17602 43.4954 3.42942 43.6819 3.76832C43.8685 4.10722 43.9618 4.56116 43.9618 5.13013V9.84986H42.8611V8.8798H42.8051C42.7305 9.03526 42.6062 9.2016 42.432 9.37882C42.2579 9.55604 42.0263 9.70684 41.7371 9.8312C41.448 9.95557 41.0951 10.0178 40.6785 10.0178ZM40.8464 9.02904C41.2817 9.02904 41.6485 8.94353 41.947 8.77253C42.2486 8.60153 42.4756 8.38078 42.6279 8.11028C42.7834 7.83978 42.8611 7.55529 42.8611 7.25681V6.24944C42.8145 6.3054 42.7119 6.3567 42.5533 6.40334C42.3978 6.44687 42.2175 6.48573 42.0123 6.51993C41.8102 6.55103 41.6128 6.57901 41.42 6.60388C41.2303 6.62565 41.0764 6.6443 40.9583 6.65985C40.6723 6.69716 40.4049 6.75779 40.1561 6.84173C39.9105 6.92257 39.7115 7.04539 39.5592 7.21017C39.4099 7.37185 39.3353 7.5926 39.3353 7.87243C39.3353 8.25485 39.4768 8.54401 39.7597 8.73988C40.0458 8.93265 40.408 9.02904 40.8464 9.02904Z" fill="#969696"/>
<path d="M49.0861 2.68632V3.61908H45.3737V2.68632H49.0861ZM46.4557 0.970062H47.5564V7.79781C47.5564 8.10872 47.6014 8.34191 47.6916 8.49737C47.7849 8.64972 47.903 8.75232 48.046 8.80518C48.1922 8.85492 48.3461 8.8798 48.5078 8.8798C48.629 8.8798 48.7285 8.87358 48.8062 8.86114C48.884 8.8456 48.9462 8.83316 48.9928 8.82383L49.2167 9.81255C49.142 9.84053 49.0379 9.86851 48.9042 9.8965C48.7705 9.92759 48.601 9.94313 48.3958 9.94313C48.0849 9.94313 47.7802 9.87629 47.4817 9.74259C47.1864 9.6089 46.9407 9.40525 46.7449 9.13164C46.5521 8.85803 46.4557 8.51291 46.4557 8.09629V0.970062Z" fill="#969696"/>
<path d="M53.0176 5.07417C53.0176 4.56427 53.142 4.09944 53.3907 3.67971C53.6394 3.25997 53.9737 2.92573 54.3934 2.677C54.8132 2.42826 55.278 2.3039 55.7879 2.3039C56.2294 2.3039 56.6367 2.39873 57.0098 2.58839C57.386 2.77805 57.6969 3.03766 57.9425 3.36723C58.1882 3.6937 58.3405 4.06369 58.3996 4.47721H57.271C57.2088 4.15696 57.0362 3.89579 56.7533 3.6937C56.4703 3.48849 56.1485 3.38589 55.7879 3.38589C55.477 3.38589 55.194 3.46206 54.9391 3.61441C54.6841 3.76676 54.4805 3.97041 54.3281 4.22537C54.1758 4.48032 54.0996 4.76325 54.0996 5.07417C54.0996 5.38509 54.1758 5.66802 54.3281 5.92297C54.4805 6.17793 54.6841 6.38158 54.9391 6.53393C55.194 6.68628 55.477 6.76245 55.7879 6.76245C56.1485 6.76245 56.4533 6.6614 56.702 6.45931C56.9538 6.2541 57.1124 5.99138 57.1777 5.67113H58.3063C58.2472 6.08465 58.1027 6.4562 57.8726 6.78577C57.6425 7.11223 57.3471 7.37029 56.9865 7.55995C56.6289 7.74961 56.2294 7.84444 55.7879 7.84444C55.278 7.84444 54.8132 7.72008 54.3934 7.47134C53.9737 7.22261 53.6394 6.88837 53.3907 6.46863C53.142 6.04889 53.0176 5.58407 53.0176 5.07417ZM55.7412 9.9991C55.0634 9.9991 54.4261 9.87162 53.8291 9.61667C53.2353 9.36172 52.7114 9.00883 52.2574 8.558C51.8066 8.10406 51.4521 7.58016 51.1941 6.98631C50.9391 6.39246 50.8132 5.75508 50.8163 5.07417C50.8194 4.39326 50.9485 3.75588 51.2034 3.16203C51.4615 2.56818 51.8159 2.04584 52.2667 1.59501C52.7176 1.14107 53.2399 0.78662 53.8338 0.531668C54.4276 0.276716 55.0634 0.14924 55.7412 0.14924C56.4222 0.14924 57.0595 0.276716 57.6534 0.531668C58.2504 0.78662 58.7727 1.14107 59.2204 1.59501C59.6712 2.04584 60.0241 2.56818 60.2791 3.16203C60.534 3.75588 60.6631 4.39326 60.6662 5.07417C60.6693 5.75508 60.5434 6.39246 60.2884 6.98631C60.0335 7.58016 59.6806 8.10406 59.2297 8.558C58.7789 9.00883 58.255 9.36172 57.6581 9.61667C57.0611 9.87162 56.4222 9.9991 55.7412 9.9991ZM55.7412 8.91711C56.2729 8.91711 56.7719 8.81761 57.2383 8.61863C57.7047 8.41964 58.1135 8.14448 58.4649 7.79314C58.8162 7.4418 59.0914 7.0345 59.2904 6.57124C59.4894 6.10486 59.5873 5.60739 59.5842 5.07883C59.5811 4.54716 59.48 4.04814 59.281 3.58177C59.0821 3.11539 58.8069 2.70653 58.4556 2.3552C58.1042 2.00386 57.6969 1.7287 57.2337 1.52971C56.7704 1.33073 56.2729 1.23123 55.7412 1.23123C55.2127 1.23123 54.7168 1.33073 54.2535 1.52971C53.7902 1.7287 53.3829 2.00542 53.0316 2.35986C52.6803 2.7112 52.4036 3.12005 52.2015 3.58643C52.0025 4.0497 51.9014 4.54716 51.8983 5.07883C51.8952 5.60428 51.9931 6.1002 52.1921 6.56657C52.3911 7.02984 52.6663 7.43714 53.0176 7.78848C53.3721 8.13981 53.7809 8.41653 54.2442 8.61863C54.7106 8.81761 55.2096 8.91711 55.7412 8.91711Z" fill="#969696"/>
<path d="M66.4341 9.84986V9.01038L69.5868 5.5592C69.9568 5.15501 70.2615 4.80367 70.5009 4.50519C70.7403 4.2036 70.9175 3.92067 71.0325 3.65639C71.1507 3.389 71.2098 3.10917 71.2098 2.81691C71.2098 2.48112 71.1289 2.19041 70.9673 1.94479C70.8087 1.69916 70.591 1.5095 70.3143 1.37581C70.0376 1.24211 69.7267 1.17527 69.3816 1.17527C69.0147 1.17527 68.6944 1.25144 68.4208 1.40379C68.1503 1.55303 67.9405 1.7629 67.7912 2.0334C67.6451 2.3039 67.572 2.62103 67.572 2.98481H66.4714C66.4714 2.42515 66.6004 1.93391 66.8585 1.51106C67.1165 1.08821 67.4679 0.758638 67.9125 0.522341C68.3602 0.286044 68.8623 0.167895 69.4189 0.167895C69.9785 0.167895 70.4744 0.286044 70.9066 0.522341C71.3388 0.758638 71.6777 1.07733 71.9233 1.47841C72.1689 1.87949 72.2918 2.32566 72.2918 2.81691C72.2918 3.16825 72.228 3.51181 72.1005 3.8476C71.9762 4.18028 71.7585 4.55183 71.4476 4.96224C71.1398 5.36954 70.7123 5.86701 70.1651 6.45464L68.0198 8.74921V8.82383H72.4597V9.84986H66.4341Z" fill="#969696"/>
<path d="M77.5012 9.98044C76.7985 9.98044 76.2 9.78923 75.7056 9.4068C75.2113 9.02126 74.8335 8.46317 74.5723 7.73251C74.3112 6.99875 74.1806 6.11263 74.1806 5.07417C74.1806 4.04192 74.3112 3.16047 74.5723 2.42982C74.8366 1.69605 75.2159 1.1364 75.7103 0.750865C76.2078 0.362218 76.8047 0.167895 77.5012 0.167895C78.1976 0.167895 78.793 0.362218 79.2874 0.750865C79.7849 1.1364 80.1642 1.69605 80.4254 2.42982C80.6896 3.16047 80.8218 4.04192 80.8218 5.07417C80.8218 6.11263 80.6912 6.99875 80.43 7.73251C80.1688 8.46317 79.7911 9.02126 79.2967 9.4068C78.8024 9.78923 78.2039 9.98044 77.5012 9.98044ZM77.5012 8.95442C78.1976 8.95442 78.7386 8.61863 79.1242 7.94705C79.5097 7.27546 79.7025 6.31784 79.7025 5.07417C79.7025 4.24713 79.6139 3.5429 79.4366 2.96149C79.2625 2.38007 79.0107 1.93701 78.6811 1.63232C78.3546 1.32762 77.9613 1.17527 77.5012 1.17527C76.8109 1.17527 76.2715 1.51572 75.8829 2.19663C75.4942 2.87443 75.2999 3.83361 75.2999 5.07417C75.2999 5.90121 75.3869 6.60388 75.5611 7.18219C75.7352 7.76049 75.9855 8.20044 76.3119 8.50203C76.6415 8.80362 77.0379 8.95442 77.5012 8.95442Z" fill="#969696"/>
<path d="M82.594 9.84986V9.01038L85.7467 5.5592C86.1167 5.15501 86.4214 4.80367 86.6608 4.50519C86.9002 4.2036 87.0774 3.92067 87.1925 3.65639C87.3106 3.389 87.3697 3.10917 87.3697 2.81691C87.3697 2.48112 87.2889 2.19041 87.1272 1.94479C86.9686 1.69916 86.751 1.5095 86.4743 1.37581C86.1975 1.24211 85.8866 1.17527 85.5415 1.17527C85.1746 1.17527 84.8544 1.25144 84.5808 1.40379C84.3103 1.55303 84.1004 1.7629 83.9512 2.0334C83.805 2.3039 83.732 2.62103 83.732 2.98481H82.6313C82.6313 2.42515 82.7603 1.93391 83.0184 1.51106C83.2765 1.08821 83.6278 0.758638 84.0724 0.522341C84.5201 0.286044 85.0223 0.167895 85.5788 0.167895C86.1385 0.167895 86.6344 0.286044 87.0665 0.522341C87.4987 0.758638 87.8376 1.07733 88.0832 1.47841C88.3289 1.87949 88.4517 2.32566 88.4517 2.81691C88.4517 3.16825 88.3879 3.51181 88.2605 3.8476C88.1361 4.18028 87.9185 4.55183 87.6075 4.96224C87.2997 5.36954 86.8722 5.86701 86.325 6.45464L84.1797 8.74921V8.82383H88.6196V9.84986H82.594Z" fill="#969696"/>
<path d="M93.773 9.98044C93.1574 9.98044 92.6086 9.87473 92.1267 9.66331C91.6479 9.45189 91.267 9.15807 90.9841 8.78186C90.7043 8.40254 90.5519 7.96259 90.5271 7.46201H91.7023C91.7272 7.76982 91.8329 8.03566 92.0195 8.25952C92.206 8.48027 92.4501 8.65127 92.7517 8.77253C93.0533 8.89379 93.3875 8.95442 93.7544 8.95442C94.1648 8.95442 94.5286 8.88291 94.8457 8.73988C95.1628 8.59686 95.4116 8.39788 95.5919 8.14292C95.7722 7.88797 95.8624 7.5926 95.8624 7.25681C95.8624 6.90547 95.7753 6.59611 95.6012 6.32872C95.4271 6.05822 95.1722 5.8468 94.8364 5.69445C94.5006 5.5421 94.0902 5.46593 93.6051 5.46593H92.8403V4.4399H93.6051C93.9845 4.4399 94.3171 4.3715 94.6032 4.23469C94.8923 4.09789 95.1178 3.90512 95.2794 3.65639C95.4442 3.40765 95.5266 3.11539 95.5266 2.7796C95.5266 2.45625 95.4551 2.17487 95.3121 1.93546C95.1691 1.69605 94.967 1.5095 94.7058 1.37581C94.4477 1.24211 94.143 1.17527 93.7917 1.17527C93.4621 1.17527 93.1512 1.2359 92.8589 1.35715C92.5698 1.4753 92.3335 1.64786 92.15 1.87483C91.9666 2.09869 91.8671 2.36919 91.8516 2.68632H90.7323C90.7509 2.18575 90.9017 1.74735 91.1846 1.37114C91.4676 0.991826 91.8376 0.696454 92.2946 0.485031C92.7548 0.273607 93.26 0.167895 93.8103 0.167895C94.4011 0.167895 94.9079 0.287598 95.3307 0.527005C95.7536 0.763302 96.0785 1.07577 96.3055 1.46442C96.5324 1.85307 96.6459 2.27281 96.6459 2.72364C96.6459 3.26152 96.5044 3.72012 96.2215 4.09944C95.9417 4.47876 95.5608 4.74149 95.0789 4.88762V4.96224C95.6821 5.06173 96.1531 5.31824 96.492 5.73176C96.8309 6.14217 97.0004 6.65052 97.0004 7.25681C97.0004 7.77604 96.8589 8.24242 96.576 8.65594C96.2961 9.06635 95.9137 9.3897 95.4287 9.626C94.9436 9.8623 94.3918 9.98044 93.773 9.98044Z" fill="#969696"/>
</svg>
