<svg width="109" height="11" viewBox="0 0 109 11" fill="none" xmlns="http://www.w3.org/2000/svg">
<path d="M3.68321 8.07218C2.92598 8.07218 2.27168 7.90676 1.7203 7.57594C1.17627 7.23776 0.75355 6.77092 0.45213 6.17544C0.15071 5.5726 0 4.87418 0 4.0802C0 3.29357 0.15071 2.60251 0.45213 2.00702C0.75355 1.40418 1.17627 0.933667 1.7203 0.595488C2.27168 0.25731 2.92598 0.0882203 3.68321 0.0882203C4.56541 0.0882203 5.2822 0.30142 5.83358 0.727819C6.39231 1.14687 6.74887 1.735 6.90326 2.49223H5.87769C5.76007 2.01437 5.51746 1.63208 5.14987 1.34536C4.78964 1.05129 4.30075 0.90426 3.68321 0.90426C3.13183 0.90426 2.65029 1.03292 2.2386 1.29022C1.8269 1.54018 1.5071 1.90409 1.2792 2.38195C1.05865 2.85246 0.948371 3.41854 0.948371 4.0802C0.948371 4.74185 1.05865 5.31161 1.2792 5.78947C1.5071 6.25998 1.8269 6.62389 2.2386 6.8812C2.65029 7.13116 3.13183 7.25614 3.68321 7.25614C4.30075 7.25614 4.78964 7.11645 5.14987 6.83709C5.51746 6.55037 5.76007 6.17176 5.87769 5.70125H6.90326C6.74887 6.44377 6.39231 7.02456 5.83358 7.44361C5.2822 7.86265 4.56541 8.07218 3.68321 8.07218Z" fill="white"/>
<path d="M8.50024 7.93985V0H9.42656V7.93985H8.50024Z" fill="white"/>
<path d="M11.828 1.25714C11.6442 1.25714 11.4899 1.19833 11.3649 1.0807C11.2472 0.955722 11.1884 0.801336 11.1884 0.617543C11.1884 0.441102 11.2472 0.294068 11.3649 0.176441C11.4899 0.0588135 11.6442 0 11.828 0C12.0045 0 12.1552 0.0588135 12.2802 0.176441C12.4051 0.294068 12.4676 0.441102 12.4676 0.617543C12.4676 0.801336 12.4051 0.955722 12.2802 1.0807C12.1552 1.19833 12.0045 1.25714 11.828 1.25714ZM11.3649 7.93985V2.47017H12.2912V7.93985H11.3649Z" fill="white"/>
<path d="M16.7391 8.07218C16.2172 8.07218 15.7467 7.95455 15.3276 7.7193C14.9159 7.47669 14.5888 7.14219 14.3462 6.71579C14.1109 6.28204 13.9933 5.77844 13.9933 5.20501C13.9933 4.63158 14.1109 4.13166 14.3462 3.70526C14.5888 3.27151 14.9159 2.93701 15.3276 2.70175C15.7467 2.45915 16.2172 2.33784 16.7391 2.33784C17.3861 2.33784 17.9301 2.50693 18.3712 2.84511C18.8197 3.18329 19.1027 3.63542 19.2203 4.2015H18.272C18.1985 3.86332 18.0183 3.60234 17.7316 3.41854C17.4449 3.2274 17.1104 3.13183 16.7281 3.13183C16.4193 3.13183 16.129 3.20902 15.8569 3.36341C15.5849 3.51779 15.3644 3.74937 15.1953 4.05814C15.0262 4.36692 14.9417 4.74921 14.9417 5.20501C14.9417 5.66082 15.0262 6.04311 15.1953 6.35188C15.3644 6.66065 15.5849 6.8959 15.8569 7.05764C16.129 7.21203 16.4193 7.28922 16.7281 7.28922C17.1104 7.28922 17.4449 7.19732 17.7316 7.01353C18.0183 6.82239 18.1985 6.55405 18.272 6.20852H19.2203C19.1101 6.7599 18.8307 7.20835 18.3823 7.55388C17.9338 7.89941 17.3861 8.07218 16.7391 8.07218Z" fill="white"/>
<path d="M20.8348 7.93985V0H21.7611V4.77494L23.9997 2.47017H25.1356L22.7095 4.94035L25.4443 7.93985H24.2644L21.7611 5.10576V7.93985H20.8348Z" fill="white"/>
<path d="M29.9517 7.93985V0H30.878V3.40752C31.0618 3.06934 31.3228 2.80835 31.661 2.62456C31.9992 2.43342 32.3668 2.33784 32.7637 2.33784C33.396 2.33784 33.9033 2.53634 34.2855 2.93333C34.6678 3.32297 34.859 3.92581 34.859 4.74185V7.93985H33.9437V4.8411C33.9437 3.70159 33.4842 3.13183 32.5652 3.13183C32.0874 3.13183 31.6867 3.30459 31.3632 3.65012C31.0398 3.9883 30.878 4.47352 30.878 5.10576V7.93985H29.9517Z" fill="white"/>
<path d="M39.0424 8.07218C38.5204 8.07218 38.0572 7.95455 37.6529 7.7193C37.2485 7.47669 36.9287 7.14219 36.6935 6.71579C36.4656 6.28939 36.3516 5.7858 36.3516 5.20501C36.3516 4.63158 36.4656 4.13166 36.6935 3.70526C36.9214 3.27151 37.2375 2.93701 37.6419 2.70175C38.0536 2.45915 38.5277 2.33784 39.0644 2.33784C39.5937 2.33784 40.0495 2.45915 40.4318 2.70175C40.8215 2.93701 41.1192 3.24946 41.3251 3.6391C41.5309 4.02874 41.6338 4.44778 41.6338 4.89624C41.6338 4.97711 41.6302 5.05798 41.6228 5.13885C41.6228 5.21971 41.6228 5.31161 41.6228 5.41453H37.2669C37.289 5.83358 37.3846 6.18279 37.5536 6.46215C37.7301 6.73417 37.947 6.94001 38.2043 7.0797C38.4689 7.21938 38.7483 7.28922 39.0424 7.28922C39.4247 7.28922 39.7444 7.201 40.0018 7.02456C40.2591 6.84812 40.4465 6.60919 40.5642 6.30777H41.4795C41.3324 6.81504 41.0494 7.23776 40.6303 7.57594C40.2186 7.90676 39.6893 8.07218 39.0424 8.07218ZM39.0424 3.1208C38.6013 3.1208 38.2079 3.25681 37.8624 3.52882C37.5242 3.79348 37.3294 4.18312 37.278 4.69774H40.7185C40.6965 4.20518 40.5274 3.81921 40.2113 3.53985C39.8952 3.26048 39.5055 3.1208 39.0424 3.1208Z" fill="white"/>
<path d="M43.1824 7.93985V2.47017H44.0205L44.0977 3.51779C44.2668 3.15756 44.5241 2.87084 44.8696 2.65764C45.2152 2.44444 45.6415 2.33784 46.1488 2.33784V3.30827H45.8952C45.5717 3.30827 45.274 3.36708 45.002 3.48471C44.7299 3.59499 44.5131 3.78613 44.3513 4.05814C44.1896 4.33016 44.1087 4.70509 44.1087 5.18296V7.93985H43.1824Z" fill="white"/>
<path d="M49.7638 8.07218C49.2419 8.07218 48.7787 7.95455 48.3744 7.7193C47.97 7.47669 47.6502 7.14219 47.415 6.71579C47.1871 6.28939 47.0731 5.7858 47.0731 5.20501C47.0731 4.63158 47.1871 4.13166 47.415 3.70526C47.6429 3.27151 47.959 2.93701 48.3633 2.70175C48.775 2.45915 49.2492 2.33784 49.7859 2.33784C50.3152 2.33784 50.771 2.45915 51.1533 2.70175C51.543 2.93701 51.8407 3.24946 52.0466 3.6391C52.2524 4.02874 52.3553 4.44778 52.3553 4.89624C52.3553 4.97711 52.3516 5.05798 52.3443 5.13885C52.3443 5.21971 52.3443 5.31161 52.3443 5.41453H47.9884C48.0105 5.83358 48.106 6.18279 48.2751 6.46215C48.4516 6.73417 48.6684 6.94001 48.9258 7.0797C49.1904 7.21938 49.4698 7.28922 49.7638 7.28922C50.1461 7.28922 50.4659 7.201 50.7232 7.02456C50.9806 6.84812 51.168 6.60919 51.2857 6.30777H52.2009C52.0539 6.81504 51.7709 7.23776 51.3518 7.57594C50.9401 7.90676 50.4108 8.07218 49.7638 8.07218ZM49.7638 3.1208C49.3227 3.1208 48.9294 3.25681 48.5839 3.52882C48.2457 3.79348 48.0509 4.18312 47.9994 4.69774H51.44C51.418 4.20518 51.2489 3.81921 50.9328 3.53985C50.6166 3.26048 50.227 3.1208 49.7638 3.1208Z" fill="white"/>
<path d="M59.3045 7.93985C58.8046 7.93985 58.4113 7.81854 58.1246 7.57594C57.8379 7.33333 57.6945 6.8959 57.6945 6.26366V3.25313H56.7461V2.47017H57.6945L57.8158 1.15789H58.6208V2.47017H60.2308V3.25313H58.6208V6.26366C58.6208 6.60919 58.6907 6.84444 58.8303 6.96942C58.97 7.08705 59.2163 7.14586 59.5692 7.14586H60.1426V7.93985H59.3045Z" fill="white"/>
<path d="M64.0699 8.07218C63.5553 8.07218 63.0922 7.95455 62.6805 7.7193C62.2688 7.48404 61.9416 7.15321 61.699 6.72681C61.4638 6.29306 61.3461 5.7858 61.3461 5.20501C61.3461 4.62423 61.4674 4.12063 61.7101 3.69423C61.9527 3.26048 62.2798 2.92598 62.6915 2.69073C63.1106 2.45547 63.5774 2.33784 64.092 2.33784C64.6066 2.33784 65.0698 2.45547 65.4815 2.69073C65.8932 2.92598 66.2167 3.26048 66.4519 3.69423C66.6945 4.12063 66.8158 4.62423 66.8158 5.20501C66.8158 5.7858 66.6945 6.29306 66.4519 6.72681C66.2093 7.15321 65.8785 7.48404 65.4594 7.7193C65.0477 7.95455 64.5846 8.07218 64.0699 8.07218ZM64.0699 7.27819C64.3861 7.27819 64.6801 7.201 64.9522 7.04661C65.2242 6.89223 65.4447 6.66065 65.6138 6.35188C65.7829 6.04311 65.8674 5.66082 65.8674 5.20501C65.8674 4.74921 65.7829 4.36692 65.6138 4.05814C65.4521 3.74937 65.2352 3.51779 64.9632 3.36341C64.6912 3.20902 64.4008 3.13183 64.092 3.13183C63.7759 3.13183 63.4818 3.20902 63.2098 3.36341C62.9378 3.51779 62.7172 3.74937 62.5481 4.05814C62.3791 4.36692 62.2945 4.74921 62.2945 5.20501C62.2945 5.66082 62.3791 6.04311 62.5481 6.35188C62.7172 6.66065 62.9341 6.89223 63.1988 7.04661C63.4708 7.201 63.7612 7.27819 64.0699 7.27819Z" fill="white"/>
<path d="M73.7591 8.07218C73.1048 8.07218 72.5607 7.90676 72.127 7.57594C71.6932 7.24511 71.4396 6.79666 71.3661 6.23057H72.3145C72.3733 6.51729 72.524 6.76725 72.7666 6.98045C73.0166 7.1863 73.3511 7.28922 73.7701 7.28922C74.1597 7.28922 74.4465 7.20835 74.6303 7.04661C74.814 6.87752 74.9059 6.67903 74.9059 6.45113C74.9059 6.1203 74.7846 5.89975 74.542 5.78947C74.3068 5.6792 73.9723 5.57995 73.5385 5.49173C73.2444 5.43291 72.9504 5.34837 72.6563 5.23809C72.3622 5.12782 72.116 4.97343 71.9175 4.77494C71.719 4.56909 71.6197 4.30075 71.6197 3.96992C71.6197 3.49206 71.7962 3.10242 72.1491 2.801C72.5093 2.49223 72.9945 2.33784 73.6047 2.33784C74.1855 2.33784 74.6597 2.48488 75.0272 2.77895C75.4022 3.06566 75.6191 3.47736 75.6779 4.01403H74.7626C74.7258 3.73467 74.6045 3.51779 74.3987 3.36341C74.2002 3.20167 73.9318 3.1208 73.5937 3.1208C73.2628 3.1208 73.0055 3.19064 72.8217 3.33032C72.6453 3.47001 72.5571 3.6538 72.5571 3.8817C72.5571 4.10225 72.671 4.27502 72.8989 4.4C73.1342 4.52498 73.4503 4.63158 73.8473 4.7198C74.1855 4.79332 74.5053 4.88521 74.8067 4.99549C75.1155 5.09841 75.3654 5.25647 75.5566 5.46967C75.7551 5.67552 75.8543 5.97694 75.8543 6.37393C75.8617 6.8665 75.6742 7.27452 75.2919 7.59799C74.917 7.91412 74.406 8.07218 73.7591 8.07218Z" fill="white"/>
<path d="M78.0608 1.25714C77.877 1.25714 77.7226 1.19833 77.5977 1.0807C77.48 0.955722 77.4212 0.801336 77.4212 0.617543C77.4212 0.441102 77.48 0.294068 77.5977 0.176441C77.7226 0.0588135 77.877 0 78.0608 0C78.2373 0 78.388 0.0588135 78.513 0.176441C78.6379 0.294068 78.7004 0.441102 78.7004 0.617543C78.7004 0.801336 78.6379 0.955722 78.513 1.0807C78.388 1.19833 78.2373 1.25714 78.0608 1.25714ZM77.5977 7.93985V2.47017H78.524V7.93985H77.5977Z" fill="white"/>
<path d="M82.6191 6.21955C82.3103 6.21955 82.0272 6.17911 81.7699 6.09824L81.2186 6.61654C81.2994 6.67535 81.3987 6.72681 81.5163 6.77092C81.6413 6.80768 81.8177 6.84444 82.0456 6.8812C82.2735 6.91061 82.5933 6.94369 83.005 6.98045C83.7402 7.03191 84.2658 7.201 84.582 7.48772C84.8981 7.77443 85.0561 8.14937 85.0561 8.61253C85.0561 8.92865 84.9679 9.23007 84.7915 9.51679C84.6224 9.80351 84.3577 10.0388 83.9975 10.2226C83.6446 10.4063 83.1888 10.4982 82.6301 10.4982C82.1375 10.4982 81.7001 10.4321 81.3178 10.2997C80.9355 10.1748 80.6378 9.97995 80.4246 9.71528C80.2114 9.45797 80.1048 9.13082 80.1048 8.73383C80.1048 8.52798 80.1599 8.30376 80.2702 8.06115C80.3805 7.8259 80.5863 7.60167 80.8877 7.38847C80.726 7.3223 80.5863 7.25246 80.4687 7.17895C80.3584 7.09808 80.2555 7.00986 80.1599 6.91428V6.66065L81.0973 5.73433C80.6635 5.36675 80.4466 4.88154 80.4466 4.27869C80.4466 3.91846 80.5312 3.59131 80.7003 3.29724C80.8693 3.00317 81.1156 2.77159 81.4391 2.60251C81.7626 2.42606 82.1559 2.33784 82.6191 2.33784C82.9352 2.33784 83.2219 2.38195 83.4792 2.47017H85.4973V3.16491L84.4717 3.20902C84.6849 3.51779 84.7915 3.87435 84.7915 4.27869C84.7915 4.63893 84.7033 4.96608 84.5268 5.26015C84.3577 5.55422 84.1115 5.78947 83.788 5.96591C83.4719 6.135 83.0822 6.21955 82.6191 6.21955ZM82.6191 5.45864C83.0087 5.45864 83.3175 5.3594 83.5454 5.1609C83.7806 4.95505 83.8983 4.66098 83.8983 4.27869C83.8983 3.90376 83.7806 3.61704 83.5454 3.41854C83.3175 3.2127 83.0087 3.10977 82.6191 3.10977C82.2221 3.10977 81.9059 3.2127 81.6707 3.41854C81.4428 3.61704 81.3288 3.90376 81.3288 4.27869C81.3288 4.66098 81.4428 4.95505 81.6707 5.1609C81.9059 5.3594 82.2221 5.45864 82.6191 5.45864ZM81.009 8.64561C81.009 9.0132 81.1634 9.28521 81.4722 9.46165C81.781 9.64544 82.1669 9.73734 82.6301 9.73734C83.0859 9.73734 83.4498 9.63809 83.7218 9.4396C84.0012 9.2411 84.1409 8.97644 84.1409 8.64561C84.1409 8.41036 84.0453 8.20451 83.8541 8.02807C83.663 7.85898 83.3101 7.75973 82.7955 7.73032C82.3912 7.70092 82.0419 7.66416 81.7479 7.62005C81.4465 7.78179 81.248 7.95455 81.1524 8.13834C81.0568 8.32949 81.009 8.49858 81.009 8.64561Z" fill="white"/>
<path d="M86.863 7.93985V2.47017H87.7011L87.7562 3.45163C87.9327 3.1061 88.1863 2.83408 88.5171 2.63559C88.848 2.43709 89.2229 2.33784 89.6419 2.33784C90.2889 2.33784 90.8035 2.53634 91.1858 2.93333C91.5754 3.32297 91.7703 3.92581 91.7703 4.74185V7.93985H90.844V4.8411C90.844 3.70159 90.3734 3.13183 89.4324 3.13183C88.9619 3.13183 88.5686 3.30459 88.2525 3.65012C87.9437 3.9883 87.7893 4.47352 87.7893 5.10576V7.93985H86.863Z" fill="white"/>
<path d="M98.7297 8.07218C98.0828 8.07218 97.5681 7.87736 97.1859 7.48772C96.8036 7.09072 96.6124 6.48421 96.6124 5.66817V2.47017H97.5387V5.56892C97.5387 6.70844 98.0056 7.27819 98.9392 7.27819C99.4171 7.27819 99.8104 7.1091 100.119 6.77092C100.435 6.42539 100.593 5.93651 100.593 5.30426V2.47017H101.52V7.93985H100.682L100.615 6.95839C100.446 7.30392 100.193 7.57594 99.8545 7.77443C99.5237 7.97293 99.1488 8.07218 98.7297 8.07218Z" fill="white"/>
<path d="M103.365 10.3659V2.47017H104.203L104.292 3.37443C104.468 3.10977 104.718 2.87084 105.041 2.65764C105.372 2.44444 105.791 2.33784 106.299 2.33784C106.843 2.33784 107.317 2.46282 107.721 2.71278C108.125 2.96274 108.438 3.30459 108.658 3.73834C108.886 4.1721 109 4.66466 109 5.21604C109 5.76742 108.886 6.25998 108.658 6.69373C108.438 7.12013 108.122 7.45831 107.71 7.70827C107.306 7.95087 106.832 8.07218 106.288 8.07218C105.839 8.07218 105.438 7.98028 105.086 7.79649C104.74 7.6127 104.475 7.35539 104.292 7.02456V10.3659H103.365ZM106.188 7.26716C106.556 7.26716 106.879 7.18262 107.159 7.01353C107.438 6.83709 107.659 6.59448 107.82 6.28571C107.982 5.97694 108.063 5.61671 108.063 5.20501C108.063 4.79332 107.982 4.43308 107.82 4.12431C107.659 3.81554 107.438 3.57661 107.159 3.40752C106.879 3.23108 106.556 3.14286 106.188 3.14286C105.821 3.14286 105.497 3.23108 105.218 3.40752C104.938 3.57661 104.718 3.81554 104.556 4.12431C104.394 4.43308 104.314 4.79332 104.314 5.20501C104.314 5.61671 104.394 5.97694 104.556 6.28571C104.718 6.59448 104.938 6.83709 105.218 7.01353C105.497 7.18262 105.821 7.26716 106.188 7.26716Z" fill="white"/>
</svg>
