<svg width="97" height="97" viewBox="0 0 97 97" fill="none" xmlns="http://www.w3.org/2000/svg">
<g filter="url(#filter0_d_793_4605)">
<rect x="8" y="4" width="81" height="81" rx="40.5" fill="white"/>
<rect x="6" y="2" width="85" height="85" rx="42.5" stroke="white" stroke-width="4"/>
<path d="M10.5312 44.4998C10.5312 61.0795 21.1625 75.1279 35.8438 80.317V8.68262C21.1625 13.8717 10.5312 27.9201 10.5312 44.4998ZM86.4688 44.4998C86.4688 27.9201 75.9641 13.8717 61.1562 8.68262V80.317C75.9641 75.1279 86.4688 61.0795 86.4688 44.4998Z" fill="#83BF4F"/>
<path d="M35.8438 80.3172C39.7672 81.7094 44.0703 82.4688 48.5 82.4688C52.9297 82.4688 57.2328 81.7094 61.1562 80.3172V8.68281C57.2328 7.29062 52.9297 6.53125 48.5 6.53125C44.0703 6.53125 39.7672 7.29062 35.8438 8.68281V80.3172Z" fill="#F9F9F9"/>
</g>
<defs>
<filter id="filter0_d_793_4605" x="0" y="0" width="97" height="97" filterUnits="userSpaceOnUse" color-interpolation-filters="sRGB">
<feFlood flood-opacity="0" result="BackgroundImageFix"/>
<feColorMatrix in="SourceAlpha" type="matrix" values="0 0 0 0 0 0 0 0 0 0 0 0 0 0 0 0 0 0 127 0" result="hardAlpha"/>
<feOffset dy="4"/>
<feGaussianBlur stdDeviation="2"/>
<feComposite in2="hardAlpha" operator="out"/>
<feColorMatrix type="matrix" values="0 0 0 0 0 0 0 0 0 0 0 0 0 0 0 0 0 0 0.25 0"/>
<feBlend mode="normal" in2="BackgroundImageFix" result="effect1_dropShadow_793_4605"/>
<feBlend mode="normal" in="SourceGraphic" in2="effect1_dropShadow_793_4605" result="shape"/>
</filter>
</defs>
</svg>
