<svg width="28" height="28" viewBox="0 0 28 28" fill="none" xmlns="http://www.w3.org/2000/svg">
<g clip-path="url(#clip0_1711_3725)">
<path fill-rule="evenodd" clip-rule="evenodd" d="M19.4482 15.3183C21.0466 16.4033 22.1666 17.8733 22.1666 19.8333V23.3333H25.6666C26.3082 23.3333 26.8332 22.8083 26.8332 22.1666V19.8333C26.8332 17.29 22.6682 15.785 19.4482 15.3183Z" fill="white"/>
<path d="M10.4997 14C13.077 14 15.1663 11.9106 15.1663 9.33329C15.1663 6.75596 13.077 4.66663 10.4997 4.66663C7.92235 4.66663 5.83301 6.75596 5.83301 9.33329C5.83301 11.9106 7.92235 14 10.4997 14Z" fill="white"/>
<path fill-rule="evenodd" clip-rule="evenodd" d="M17.4999 14C20.0782 14 22.1666 11.9116 22.1666 9.33329C22.1666 6.75496 20.0782 4.66663 17.4999 4.66663C16.9516 4.66663 16.4382 4.78329 15.9482 4.94663C16.9166 6.14829 17.4999 7.67663 17.4999 9.33329C17.4999 10.99 16.9166 12.5183 15.9482 13.72C16.4382 13.8833 16.9516 14 17.4999 14Z" fill="white"/>
<path fill-rule="evenodd" clip-rule="evenodd" d="M10.4998 15.1666C7.38484 15.1666 1.1665 16.73 1.1665 19.8333V22.1666C1.1665 22.8083 1.6915 23.3333 2.33317 23.3333H18.6665C19.3082 23.3333 19.8332 22.8083 19.8332 22.1666V19.8333C19.8332 16.73 13.6148 15.1666 10.4998 15.1666Z" fill="white"/>
</g>
<defs>
<clipPath id="clip0_1711_3725">
<rect width="28" height="28" fill="white"/>
</clipPath>
</defs>
</svg>
