<svg width="49" height="10" viewBox="0 0 49 10" fill="none" xmlns="http://www.w3.org/2000/svg">
<path d="M0 9.75544V0.295619H1.14553V8.73925H5.54287V9.75544H0Z" fill="#E2E2E2"/>
<path d="M7.16877 9.75544V2.66058H8.25887V9.75544H7.16877ZM7.72306 1.4781C7.51058 1.4781 7.32736 1.40573 7.17339 1.261C7.0225 1.11627 6.94706 0.942287 6.94706 0.739049C6.94706 0.53581 7.0225 0.361826 7.17339 0.217095C7.32736 0.0723653 7.51058 0 7.72306 0C7.93554 0 8.11722 0.0723653 8.26811 0.217095C8.42208 0.361826 8.49906 0.53581 8.49906 0.739049C8.49906 0.942287 8.42208 1.11627 8.26811 1.261C8.11722 1.40573 7.93554 1.4781 7.72306 1.4781Z" fill="#E2E2E2"/>
<path d="M11.3456 5.48744V9.75544H10.2555V2.66058H11.3086V3.76915H11.401C11.5673 3.40886 11.8198 3.1194 12.1585 2.90077C12.4972 2.67905 12.9345 2.56819 13.4703 2.56819C13.9507 2.56819 14.371 2.66673 14.7313 2.86381C15.0916 3.05781 15.3718 3.35343 15.572 3.75067C15.7721 4.14483 15.8722 4.64369 15.8722 5.24725V9.75544H14.7821V5.32115C14.7821 4.76379 14.6374 4.32959 14.3479 4.01858C14.0585 3.70448 13.6612 3.54743 13.1562 3.54743C12.8083 3.54743 12.4972 3.62288 12.2232 3.77377C11.9522 3.92466 11.7382 4.14483 11.5811 4.43429C11.4241 4.72375 11.3456 5.0748 11.3456 5.48744Z" fill="#E2E2E2"/>
<path d="M18.8804 7.16877L18.8619 5.82001H19.0836L22.1876 2.66058H23.5364L20.2292 6.00477H20.1368L18.8804 7.16877ZM17.8642 9.75544V0.295619H18.9543V9.75544H17.8642ZM22.3724 9.75544L19.601 6.24496L20.377 5.48744L23.7581 9.75544H22.3724Z" fill="#E2E2E2"/>
<path d="M27.6219 9.90325C26.9383 9.90325 26.3486 9.75236 25.8528 9.45059C25.3602 9.14573 24.9798 8.72078 24.7119 8.17573C24.4471 7.6276 24.3147 6.99017 24.3147 6.26344C24.3147 5.53671 24.4471 4.8962 24.7119 4.34191C24.9798 3.78455 25.3525 3.35035 25.8298 3.03934C26.3101 2.72524 26.8706 2.56819 27.5111 2.56819C27.8806 2.56819 28.2455 2.62978 28.6058 2.75296C28.9661 2.87613 29.294 3.07629 29.5897 3.35343C29.8853 3.6275 30.1209 3.99086 30.2964 4.44353C30.4719 4.8962 30.5597 5.45356 30.5597 6.11563V6.57753H25.0907V5.63525H29.4511C29.4511 5.23493 29.371 4.87772 29.2109 4.56363C29.0539 4.24953 28.8291 4.00164 28.5365 3.81996C28.2471 3.63828 27.9053 3.54743 27.5111 3.54743C27.0769 3.54743 26.7012 3.65521 26.384 3.87077C26.0699 4.08324 25.8282 4.36039 25.6588 4.7022C25.4895 5.04401 25.4048 5.41045 25.4048 5.80153V6.42972C25.4048 6.96553 25.4972 7.41974 25.6819 7.79235C25.8698 8.16187 26.13 8.44363 26.4626 8.63763C26.7951 8.82855 27.1816 8.92401 27.6219 8.92401C27.9083 8.92401 28.167 8.88398 28.398 8.80392C28.632 8.72078 28.8337 8.5976 29.003 8.43439C29.1724 8.26811 29.3033 8.06179 29.3957 7.81544L30.4488 8.11106C30.338 8.46827 30.1517 8.78236 29.8899 9.05335C29.6282 9.32125 29.3048 9.53065 28.9199 9.68154C28.535 9.82935 28.1023 9.90325 27.6219 9.90325Z" fill="#E2E2E2"/>
<path d="M34.897 9.90325C34.3057 9.90325 33.7838 9.7539 33.3311 9.45521C32.8784 9.15343 32.5243 8.72847 32.2687 8.18035C32.0131 7.62914 31.8853 6.97785 31.8853 6.22649C31.8853 5.48128 32.0131 4.83461 32.2687 4.28648C32.5243 3.73836 32.88 3.31494 33.3357 3.01624C33.7915 2.71754 34.318 2.56819 34.9154 2.56819C35.3773 2.56819 35.7422 2.64518 36.0102 2.79915C36.2811 2.95004 36.4875 3.12248 36.6291 3.31648C36.7738 3.5074 36.8862 3.66445 36.9663 3.78762H37.0587V0.295619H38.1488V9.75544H37.0956V8.66535H36.9663C36.8862 8.79468 36.7723 8.95789 36.6245 9.15497C36.4767 9.34897 36.2657 9.52295 35.9917 9.67692C35.7176 9.82781 35.3527 9.90325 34.897 9.90325ZM35.0448 8.92401C35.482 8.92401 35.8516 8.81008 36.1533 8.5822C36.4551 8.35125 36.6845 8.03254 36.8416 7.62606C36.9986 7.2165 37.0772 6.74382 37.0772 6.20801C37.0772 5.67836 37.0002 5.21491 36.8462 4.81767C36.6922 4.41736 36.4644 4.10634 36.1626 3.88463C35.8608 3.65983 35.4882 3.54743 35.0448 3.54743C34.5829 3.54743 34.1979 3.66599 33.89 3.9031C33.5851 4.13713 33.3557 4.45585 33.2018 4.85925C33.0509 5.25956 32.9754 5.70915 32.9754 6.20801C32.9754 6.71303 33.0524 7.17185 33.2064 7.58449C33.3634 7.99404 33.5944 8.32046 33.8992 8.56373C34.2072 8.80392 34.589 8.92401 35.0448 8.92401Z" fill="#E2E2E2"/>
<path d="M40.2966 9.75544V2.66058H41.3867V9.75544H40.2966ZM40.8509 1.4781C40.6384 1.4781 40.4552 1.40573 40.3013 1.261C40.1504 1.11627 40.0749 0.942287 40.0749 0.739049C40.0749 0.53581 40.1504 0.361826 40.3013 0.217095C40.4552 0.0723653 40.6384 0 40.8509 0C41.0634 0 41.2451 0.0723653 41.396 0.217095C41.5499 0.361826 41.6269 0.53581 41.6269 0.739049C41.6269 0.942287 41.5499 1.11627 41.396 1.261C41.2451 1.40573 41.0634 1.4781 40.8509 1.4781Z" fill="#E2E2E2"/>
<path d="M44.4734 5.48744V9.75544H43.3833V2.66058H44.4365V3.76915H44.5288C44.6951 3.40886 44.9476 3.1194 45.2864 2.90077C45.6251 2.67905 46.0624 2.56819 46.5982 2.56819C47.0786 2.56819 47.4989 2.66673 47.8592 2.86381C48.2195 3.05781 48.4997 3.35343 48.6999 3.75067C48.9 4.14483 49.0001 4.64369 49.0001 5.24725V9.75544H47.91V5.32115C47.91 4.76379 47.7653 4.32959 47.4758 4.01858C47.1863 3.70448 46.7891 3.54743 46.2841 3.54743C45.9361 3.54743 45.6251 3.62288 45.351 3.77377C45.0801 3.92466 44.866 4.14483 44.709 4.43429C44.5519 4.72375 44.4734 5.0748 44.4734 5.48744Z" fill="#E2E2E2"/>
</svg>
