<svg width="71" height="74" viewBox="0 0 71 74" fill="none" xmlns="http://www.w3.org/2000/svg">
<g clip-path="url(#clip0_772_2876)">
<path d="M6.90234 27.8733L9.86067 26.0644V32.8889H61.1385V26.1261L64.0573 27.8733C64.5081 28.1191 65.0325 28.1738 65.521 28.0261C66.0096 27.8784 66.4244 27.5396 66.679 27.0806C66.9336 26.6216 67.0081 26.0778 66.8871 25.5629C66.7661 25.0479 66.4588 24.6016 66.0296 24.3172L35.4996 6.0022L4.93012 24.3172C4.69443 24.4457 4.48611 24.6226 4.31771 24.8372C4.1493 25.0517 4.02428 25.2996 3.95017 25.5659C3.87606 25.8321 3.85439 26.1112 3.88646 26.3865C3.91854 26.6617 4.00369 26.9273 4.1368 27.1673C4.26992 27.4073 4.44824 27.6168 4.66104 27.7831C4.87384 27.9494 5.11673 28.0692 5.37508 28.1351C5.63343 28.2011 5.90192 28.2119 6.16438 28.1669C6.42685 28.1219 6.67787 28.022 6.90234 27.8733ZM35.2037 14.615C35.4436 14.4706 35.7157 14.3947 35.9926 14.3947C36.2696 14.3947 36.5417 14.4706 36.7815 14.615L50.0348 22.6111H43.6843L35.9926 18.0066L28.301 22.6111H21.9701L35.2037 14.615Z" fill="#013E44"/>
<path d="M63.8431 56.2606H62.1667V54.5133C62.1667 53.8864 61.9277 53.2851 61.5024 52.8418C61.077 52.3985 60.5001 52.1494 59.8986 52.1494H54.2778V37H46.3889V52.1494H38.5V37H30.6111V52.1494H22.7222V37H14.8333V52.1494H9.2125C8.61097 52.1494 8.03409 52.3985 7.60874 52.8418C7.1834 53.2851 6.94444 53.8864 6.94444 54.5133V56.2606H5.26806C4.66653 56.2606 4.08964 56.5096 3.6643 56.9529C3.23896 57.3962 3 57.9975 3 58.6244V64.4828H66.1111V58.6244C66.1111 57.9975 65.8722 57.3962 65.4468 56.9529C65.0215 56.5096 64.4446 56.2606 63.8431 56.2606Z" fill="#013E44"/>
</g>
<defs>
<clipPath id="clip0_772_2876">
<rect width="71" height="74" fill="white"/>
</clipPath>
</defs>
</svg>
