<svg width="1043" height="47" viewBox="0 0 1043 47" fill="none" xmlns="http://www.w3.org/2000/svg">
<path d="M3.64 5.44001V33.32H0V5.44001H3.64Z" fill="white"/>
<path d="M20.5237 11C23.1904 11 25.3504 11.8133 27.0038 13.44C28.6571 15.04 29.4837 17.36 29.4837 20.4V33.32H25.8837V20.92C25.8837 18.7333 25.3371 17.0667 24.2437 15.92C23.1504 14.7467 21.6571 14.16 19.7637 14.16C17.8437 14.16 16.3104 14.76 15.1637 15.96C14.0437 17.16 13.4837 18.9067 13.4837 21.2V33.32H9.84375V11.4H13.4837V14.52C14.2037 13.4 15.1771 12.5333 16.4037 11.92C17.6571 11.3067 19.0304 11 20.5237 11Z" fill="white"/>
<path d="M34.0697 22.32C34.0697 20.0533 34.523 18.08 35.4297 16.4C36.3364 14.6933 37.5897 13.3733 39.1897 12.44C40.8163 11.5067 42.6697 11.04 44.7497 11.04C47.443 11.04 49.6563 11.6933 51.3897 13C53.1497 14.3067 54.3097 16.12 54.8697 18.44H50.9497C50.5764 17.1067 49.843 16.0533 48.7497 15.28C47.683 14.5067 46.3497 14.12 44.7497 14.12C42.6697 14.12 40.9897 14.84 39.7097 16.28C38.4297 17.6933 37.7897 19.7067 37.7897 22.32C37.7897 24.96 38.4297 27 39.7097 28.44C40.9897 29.88 42.6697 30.6 44.7497 30.6C46.3497 30.6 47.683 30.2267 48.7497 29.48C49.8163 28.7333 50.5497 27.6667 50.9497 26.28H54.8697C54.283 28.52 53.1097 30.32 51.3497 31.68C49.5897 33.0133 47.3897 33.68 44.7497 33.68C42.6697 33.68 40.8163 33.2133 39.1897 32.28C37.5897 31.3467 36.3364 30.0267 35.4297 28.32C34.523 26.6133 34.0697 24.6133 34.0697 22.32Z" fill="white"/>
<path d="M69.2866 33.68C67.2332 33.68 65.3666 33.2133 63.6866 32.28C62.0332 31.3467 60.7266 30.0267 59.7666 28.32C58.8332 26.5867 58.3666 24.5867 58.3666 22.32C58.3666 20.08 58.8466 18.1067 59.8066 16.4C60.7932 14.6667 62.1266 13.3467 63.8066 12.44C65.4866 11.5067 67.3666 11.04 69.4466 11.04C71.5266 11.04 73.4066 11.5067 75.0866 12.44C76.7666 13.3467 78.0866 14.6533 79.0466 16.36C80.0332 18.0667 80.5266 20.0533 80.5266 22.32C80.5266 24.5867 80.0199 26.5867 79.0066 28.32C78.0199 30.0267 76.6732 31.3467 74.9666 32.28C73.2599 33.2133 71.3666 33.68 69.2866 33.68ZM69.2866 30.48C70.5932 30.48 71.8199 30.1733 72.9666 29.56C74.1132 28.9467 75.0332 28.0267 75.7266 26.8C76.4466 25.5733 76.8066 24.08 76.8066 22.32C76.8066 20.56 76.4599 19.0667 75.7666 17.84C75.0732 16.6133 74.1666 15.7067 73.0466 15.12C71.9266 14.5067 70.7132 14.2 69.4066 14.2C68.0732 14.2 66.8466 14.5067 65.7266 15.12C64.6332 15.7067 63.7532 16.6133 63.0866 17.84C62.4199 19.0667 62.0866 20.56 62.0866 22.32C62.0866 24.1067 62.4066 25.6133 63.0466 26.84C63.7132 28.0667 64.5932 28.9867 65.6866 29.6C66.7799 30.1867 67.9799 30.48 69.2866 30.48Z" fill="white"/>
<path d="M88.9525 14.96C89.5925 13.7067 90.4992 12.7333 91.6725 12.04C92.8725 11.3467 94.3258 11 96.0325 11V14.76H95.0725C90.9925 14.76 88.9525 16.9733 88.9525 21.4V33.32H85.3125V11.4H88.9525V14.96Z" fill="white"/>
<path d="M103.874 15.44C104.594 14.1867 105.661 13.1467 107.074 12.32C108.514 11.4667 110.181 11.04 112.074 11.04C114.021 11.04 115.781 11.5067 117.354 12.44C118.954 13.3733 120.208 14.6933 121.114 16.4C122.021 18.08 122.474 20.04 122.474 22.28C122.474 24.4933 122.021 26.4667 121.114 28.2C120.208 29.9333 118.954 31.28 117.354 32.24C115.781 33.2 114.021 33.68 112.074 33.68C110.208 33.68 108.554 33.2667 107.114 32.44C105.701 31.5867 104.621 30.5333 103.874 29.28V43.72H100.234V11.4H103.874V15.44ZM118.754 22.28C118.754 20.6267 118.421 19.1867 117.754 17.96C117.088 16.7333 116.181 15.8 115.034 15.16C113.914 14.52 112.674 14.2 111.314 14.2C109.981 14.2 108.741 14.5333 107.594 15.2C106.474 15.84 105.568 16.7867 104.874 18.04C104.208 19.2667 103.874 20.6933 103.874 22.32C103.874 23.9733 104.208 25.4267 104.874 26.68C105.568 27.9067 106.474 28.8533 107.594 29.52C108.741 30.16 109.981 30.48 111.314 30.48C112.674 30.48 113.914 30.16 115.034 29.52C116.181 28.8533 117.088 27.9067 117.754 26.68C118.421 25.4267 118.754 23.96 118.754 22.28Z" fill="white"/>
<path d="M136.826 33.68C134.772 33.68 132.906 33.2133 131.226 32.28C129.572 31.3467 128.266 30.0267 127.306 28.32C126.372 26.5867 125.906 24.5867 125.906 22.32C125.906 20.08 126.386 18.1067 127.346 16.4C128.332 14.6667 129.666 13.3467 131.346 12.44C133.026 11.5067 134.906 11.04 136.986 11.04C139.066 11.04 140.946 11.5067 142.626 12.44C144.306 13.3467 145.626 14.6533 146.586 16.36C147.572 18.0667 148.066 20.0533 148.066 22.32C148.066 24.5867 147.559 26.5867 146.546 28.32C145.559 30.0267 144.212 31.3467 142.506 32.28C140.799 33.2133 138.906 33.68 136.826 33.68ZM136.826 30.48C138.132 30.48 139.359 30.1733 140.506 29.56C141.652 28.9467 142.572 28.0267 143.266 26.8C143.986 25.5733 144.346 24.08 144.346 22.32C144.346 20.56 143.999 19.0667 143.306 17.84C142.612 16.6133 141.706 15.7067 140.586 15.12C139.466 14.5067 138.252 14.2 136.946 14.2C135.612 14.2 134.386 14.5067 133.266 15.12C132.172 15.7067 131.292 16.6133 130.626 17.84C129.959 19.0667 129.626 20.56 129.626 22.32C129.626 24.1067 129.946 25.6133 130.586 26.84C131.252 28.0667 132.132 28.9867 133.226 29.6C134.319 30.1867 135.519 30.48 136.826 30.48Z" fill="white"/>
<path d="M156.492 14.96C157.132 13.7067 158.038 12.7333 159.212 12.04C160.412 11.3467 161.865 11 163.572 11V14.76H162.612C158.532 14.76 156.492 16.9733 156.492 21.4V33.32H152.852V11.4H156.492V14.96Z" fill="white"/>
<path d="M166.413 22.28C166.413 20.04 166.867 18.08 167.773 16.4C168.68 14.6933 169.92 13.3733 171.493 12.44C173.093 11.5067 174.867 11.04 176.813 11.04C178.733 11.04 180.4 11.4533 181.813 12.28C183.227 13.1067 184.28 14.1467 184.973 15.4V11.4H188.653V33.32H184.973V29.24C184.253 30.52 183.173 31.5867 181.733 32.44C180.32 33.2667 178.667 33.68 176.773 33.68C174.827 33.68 173.067 33.2 171.493 32.24C169.92 31.28 168.68 29.9333 167.773 28.2C166.867 26.4667 166.413 24.4933 166.413 22.28ZM184.973 22.32C184.973 20.6667 184.64 19.2267 183.973 18C183.307 16.7733 182.4 15.84 181.253 15.2C180.133 14.5333 178.893 14.2 177.533 14.2C176.173 14.2 174.933 14.52 173.813 15.16C172.693 15.8 171.8 16.7333 171.133 17.96C170.467 19.1867 170.133 20.6267 170.133 22.28C170.133 23.96 170.467 25.4267 171.133 26.68C171.8 27.9067 172.693 28.8533 173.813 29.52C174.933 30.16 176.173 30.48 177.533 30.48C178.893 30.48 180.133 30.16 181.253 29.52C182.4 28.8533 183.307 27.9067 183.973 26.68C184.64 25.4267 184.973 23.9733 184.973 22.32Z" fill="white"/>
<path d="M199.245 14.4V27.32C199.245 28.3867 199.471 29.1467 199.925 29.6C200.378 30.0267 201.165 30.24 202.285 30.24H204.965V33.32H201.685C199.658 33.32 198.138 32.8533 197.125 31.92C196.111 30.9867 195.605 29.4533 195.605 27.32V14.4H192.765V11.4H195.605V5.88H199.245V11.4H204.965V14.4H199.245Z" fill="white"/>
<path d="M229.375 21.52C229.375 22.2133 229.335 22.9467 229.255 23.72H211.735C211.868 25.88 212.602 27.5733 213.935 28.8C215.295 30 216.935 30.6 218.855 30.6C220.428 30.6 221.735 30.24 222.775 29.52C223.842 28.7733 224.588 27.7867 225.015 26.56H228.935C228.348 28.6667 227.175 30.3867 225.415 31.72C223.655 33.0267 221.468 33.68 218.855 33.68C216.775 33.68 214.908 33.2133 213.255 32.28C211.628 31.3467 210.348 30.0267 209.415 28.32C208.482 26.5867 208.015 24.5867 208.015 22.32C208.015 20.0533 208.468 18.0667 209.375 16.36C210.282 14.6533 211.548 13.3467 213.175 12.44C214.828 11.5067 216.722 11.04 218.855 11.04C220.935 11.04 222.775 11.4933 224.375 12.4C225.975 13.3067 227.202 14.56 228.055 16.16C228.935 17.7333 229.375 19.52 229.375 21.52ZM225.615 20.76C225.615 19.3733 225.308 18.1867 224.695 17.2C224.082 16.1867 223.242 15.4267 222.175 14.92C221.135 14.3867 219.975 14.12 218.695 14.12C216.855 14.12 215.282 14.7067 213.975 15.88C212.695 17.0533 211.962 18.68 211.775 20.76H225.615Z" fill="white"/>
<path d="M263.724 11.4L250.524 43.64H246.764L251.084 33.08L242.244 11.4H246.284L253.164 29.16L259.964 11.4H263.724Z" fill="white"/>
<path d="M276.943 33.68C274.889 33.68 273.023 33.2133 271.343 32.28C269.69 31.3467 268.383 30.0267 267.423 28.32C266.489 26.5867 266.023 24.5867 266.023 22.32C266.023 20.08 266.503 18.1067 267.463 16.4C268.449 14.6667 269.783 13.3467 271.463 12.44C273.143 11.5067 275.023 11.04 277.103 11.04C279.183 11.04 281.063 11.5067 282.743 12.44C284.423 13.3467 285.743 14.6533 286.703 16.36C287.689 18.0667 288.183 20.0533 288.183 22.32C288.183 24.5867 287.676 26.5867 286.663 28.32C285.676 30.0267 284.329 31.3467 282.623 32.28C280.916 33.2133 279.023 33.68 276.943 33.68ZM276.943 30.48C278.249 30.48 279.476 30.1733 280.623 29.56C281.769 28.9467 282.689 28.0267 283.383 26.8C284.103 25.5733 284.463 24.08 284.463 22.32C284.463 20.56 284.116 19.0667 283.423 17.84C282.729 16.6133 281.823 15.7067 280.703 15.12C279.583 14.5067 278.369 14.2 277.063 14.2C275.729 14.2 274.503 14.5067 273.383 15.12C272.289 15.7067 271.409 16.6133 270.743 17.84C270.076 19.0667 269.743 20.56 269.743 22.32C269.743 24.1067 270.063 25.6133 270.703 26.84C271.369 28.0667 272.25 28.9867 273.343 29.6C274.436 30.1867 275.636 30.48 276.943 30.48Z" fill="white"/>
<path d="M312.409 11.4V33.32H308.769V30.08C308.075 31.2 307.102 32.08 305.849 32.72C304.622 33.3333 303.262 33.64 301.769 33.64C300.062 33.64 298.529 33.2933 297.169 32.6C295.809 31.88 294.729 30.8133 293.929 29.4C293.155 27.9867 292.769 26.2667 292.769 24.24V11.4H296.369V23.76C296.369 25.92 296.915 27.5867 298.009 28.76C299.102 29.9067 300.595 30.48 302.489 30.48C304.435 30.48 305.969 29.88 307.089 28.68C308.209 27.48 308.769 25.7333 308.769 23.44V11.4H312.409Z" fill="white"/>
<path d="M322.195 14.96C322.835 13.7067 323.741 12.7333 324.915 12.04C326.115 11.3467 327.568 11 329.275 11V14.76H328.315C324.235 14.76 322.195 16.9733 322.195 21.4V33.32H318.555V11.4H322.195V14.96Z" fill="white"/>
<path d="M347.781 15.48C348.527 14.1733 349.621 13.1067 351.061 12.28C352.501 11.4533 354.141 11.04 355.981 11.04C357.954 11.04 359.727 11.5067 361.301 12.44C362.874 13.3733 364.114 14.6933 365.021 16.4C365.927 18.08 366.381 20.04 366.381 22.28C366.381 24.4933 365.927 26.4667 365.021 28.2C364.114 29.9333 362.861 31.28 361.261 32.24C359.687 33.2 357.927 33.68 355.981 33.68C354.087 33.68 352.421 33.2667 350.981 32.44C349.567 31.6133 348.501 30.56 347.781 29.28V33.32H344.141V3.72001H347.781V15.48ZM362.661 22.28C362.661 20.6267 362.327 19.1867 361.661 17.96C360.994 16.7333 360.087 15.8 358.941 15.16C357.821 14.52 356.581 14.2 355.221 14.2C353.887 14.2 352.647 14.5333 351.501 15.2C350.381 15.84 349.474 16.7867 348.781 18.04C348.114 19.2667 347.781 20.6933 347.781 22.32C347.781 23.9733 348.114 25.4267 348.781 26.68C349.474 27.9067 350.381 28.8533 351.501 29.52C352.647 30.16 353.887 30.48 355.221 30.48C356.581 30.48 357.821 30.16 358.941 29.52C360.087 28.8533 360.994 27.9067 361.661 26.68C362.327 25.4267 362.661 23.96 362.661 22.28Z" fill="white"/>
<path d="M390.612 11.4V33.32H386.972V30.08C386.279 31.2 385.305 32.08 384.052 32.72C382.825 33.3333 381.465 33.64 379.972 33.64C378.265 33.64 376.732 33.2933 375.372 32.6C374.012 31.88 372.932 30.8133 372.132 29.4C371.359 27.9867 370.972 26.2667 370.972 24.24V11.4H374.572V23.76C374.572 25.92 375.119 27.5867 376.212 28.76C377.305 29.9067 378.799 30.48 380.692 30.48C382.639 30.48 384.172 29.88 385.292 28.68C386.412 27.48 386.972 25.7333 386.972 23.44V11.4H390.612Z" fill="white"/>
<path d="M404.518 33.68C402.838 33.68 401.331 33.4 399.998 32.84C398.664 32.2533 397.611 31.4533 396.838 30.44C396.064 29.4 395.638 28.2133 395.558 26.88H399.318C399.424 27.9733 399.931 28.8667 400.838 29.56C401.771 30.2533 402.984 30.6 404.478 30.6C405.864 30.6 406.958 30.2933 407.758 29.68C408.558 29.0667 408.958 28.2933 408.958 27.36C408.958 26.4 408.531 25.6933 407.678 25.24C406.824 24.76 405.504 24.2933 403.718 23.84C402.091 23.4133 400.758 22.9867 399.718 22.56C398.704 22.1067 397.824 21.4533 397.078 20.6C396.358 19.72 395.998 18.5733 395.998 17.16C395.998 16.04 396.331 15.0133 396.998 14.08C397.664 13.1467 398.611 12.4133 399.838 11.88C401.064 11.32 402.464 11.04 404.038 11.04C406.464 11.04 408.424 11.6533 409.918 12.88C411.411 14.1067 412.211 15.7867 412.318 17.92H408.678C408.598 16.7733 408.131 15.8533 407.278 15.16C406.451 14.4667 405.331 14.12 403.918 14.12C402.611 14.12 401.571 14.4 400.798 14.96C400.024 15.52 399.638 16.2533 399.638 17.16C399.638 17.88 399.864 18.48 400.318 18.96C400.798 19.4133 401.384 19.7867 402.078 20.08C402.798 20.3467 403.784 20.6533 405.038 21C406.611 21.4267 407.891 21.8533 408.878 22.28C409.864 22.68 410.704 23.2933 411.398 24.12C412.118 24.9467 412.491 26.0267 412.518 27.36C412.518 28.56 412.184 29.64 411.518 30.6C410.851 31.56 409.904 32.32 408.678 32.88C407.478 33.4133 406.091 33.68 404.518 33.68Z" fill="white"/>
<path d="M419.536 7.84C418.843 7.84 418.256 7.60001 417.776 7.12001C417.296 6.64001 417.056 6.05334 417.056 5.36C417.056 4.66667 417.296 4.08001 417.776 3.60001C418.256 3.12 418.843 2.88 419.536 2.88C420.203 2.88 420.763 3.12 421.216 3.60001C421.696 4.08001 421.936 4.66667 421.936 5.36C421.936 6.05334 421.696 6.64001 421.216 7.12001C420.763 7.60001 420.203 7.84 419.536 7.84ZM421.296 11.4V33.32H417.656V11.4H421.296Z" fill="white"/>
<path d="M438.18 11C440.847 11 443.007 11.8133 444.66 13.44C446.313 15.04 447.14 17.36 447.14 20.4V33.32H443.54V20.92C443.54 18.7333 442.993 17.0667 441.9 15.92C440.807 14.7467 439.313 14.16 437.42 14.16C435.5 14.16 433.967 14.76 432.82 15.96C431.7 17.16 431.14 18.9067 431.14 21.2V33.32H427.5V11.4H431.14V14.52C431.86 13.4 432.833 12.5333 434.06 11.92C435.313 11.3067 436.687 11 438.18 11Z" fill="white"/>
<path d="M473.086 21.52C473.086 22.2133 473.046 22.9467 472.966 23.72H455.446C455.579 25.88 456.313 27.5733 457.646 28.8C459.006 30 460.646 30.6 462.566 30.6C464.139 30.6 465.446 30.24 466.486 29.52C467.553 28.7733 468.299 27.7867 468.726 26.56H472.646C472.059 28.6667 470.886 30.3867 469.126 31.72C467.366 33.0267 465.179 33.68 462.566 33.68C460.486 33.68 458.619 33.2133 456.966 32.28C455.339 31.3467 454.059 30.0267 453.126 28.32C452.193 26.5867 451.726 24.5867 451.726 22.32C451.726 20.0533 452.179 18.0667 453.086 16.36C453.993 14.6533 455.259 13.3467 456.886 12.44C458.539 11.5067 460.433 11.04 462.566 11.04C464.646 11.04 466.486 11.4933 468.086 12.4C469.686 13.3067 470.913 14.56 471.766 16.16C472.646 17.7333 473.086 19.52 473.086 21.52ZM469.326 20.76C469.326 19.3733 469.019 18.1867 468.406 17.2C467.793 16.1867 466.953 15.4267 465.886 14.92C464.846 14.3867 463.686 14.12 462.406 14.12C460.566 14.12 458.993 14.7067 457.686 15.88C456.406 17.0533 455.673 18.68 455.486 20.76H469.326Z" fill="white"/>
<path d="M485.651 33.68C483.971 33.68 482.464 33.4 481.131 32.84C479.797 32.2533 478.744 31.4533 477.971 30.44C477.197 29.4 476.771 28.2133 476.691 26.88H480.451C480.557 27.9733 481.064 28.8667 481.971 29.56C482.904 30.2533 484.117 30.6 485.611 30.6C486.997 30.6 488.091 30.2933 488.891 29.68C489.691 29.0667 490.091 28.2933 490.091 27.36C490.091 26.4 489.664 25.6933 488.811 25.24C487.957 24.76 486.637 24.2933 484.851 23.84C483.224 23.4133 481.891 22.9867 480.851 22.56C479.837 22.1067 478.957 21.4533 478.211 20.6C477.491 19.72 477.131 18.5733 477.131 17.16C477.131 16.04 477.464 15.0133 478.131 14.08C478.797 13.1467 479.744 12.4133 480.971 11.88C482.197 11.32 483.597 11.04 485.171 11.04C487.597 11.04 489.557 11.6533 491.051 12.88C492.544 14.1067 493.344 15.7867 493.451 17.92H489.811C489.731 16.7733 489.264 15.8533 488.411 15.16C487.584 14.4667 486.464 14.12 485.051 14.12C483.744 14.12 482.704 14.4 481.931 14.96C481.157 15.52 480.771 16.2533 480.771 17.16C480.771 17.88 480.997 18.48 481.451 18.96C481.931 19.4133 482.517 19.7867 483.211 20.08C483.931 20.3467 484.917 20.6533 486.171 21C487.744 21.4267 489.024 21.8533 490.011 22.28C490.997 22.68 491.837 23.2933 492.531 24.12C493.251 24.9467 493.624 26.0267 493.651 27.36C493.651 28.56 493.317 29.64 492.651 30.6C491.984 31.56 491.037 32.32 489.811 32.88C488.611 33.4133 487.224 33.68 485.651 33.68Z" fill="white"/>
<path d="M506.549 33.68C504.869 33.68 503.362 33.4 502.029 32.84C500.696 32.2533 499.642 31.4533 498.869 30.44C498.096 29.4 497.669 28.2133 497.589 26.88H501.349C501.456 27.9733 501.962 28.8667 502.869 29.56C503.802 30.2533 505.016 30.6 506.509 30.6C507.896 30.6 508.989 30.2933 509.789 29.68C510.589 29.0667 510.989 28.2933 510.989 27.36C510.989 26.4 510.562 25.6933 509.709 25.24C508.856 24.76 507.536 24.2933 505.749 23.84C504.122 23.4133 502.789 22.9867 501.749 22.56C500.736 22.1067 499.856 21.4533 499.109 20.6C498.389 19.72 498.029 18.5733 498.029 17.16C498.029 16.04 498.362 15.0133 499.029 14.08C499.696 13.1467 500.642 12.4133 501.869 11.88C503.096 11.32 504.496 11.04 506.069 11.04C508.496 11.04 510.456 11.6533 511.949 12.88C513.442 14.1067 514.242 15.7867 514.349 17.92H510.709C510.629 16.7733 510.162 15.8533 509.309 15.16C508.482 14.4667 507.362 14.12 505.949 14.12C504.642 14.12 503.602 14.4 502.829 14.96C502.056 15.52 501.669 16.2533 501.669 17.16C501.669 17.88 501.896 18.48 502.349 18.96C502.829 19.4133 503.416 19.7867 504.109 20.08C504.829 20.3467 505.816 20.6533 507.069 21C508.642 21.4267 509.922 21.8533 510.909 22.28C511.896 22.68 512.736 23.2933 513.429 24.12C514.149 24.9467 514.522 26.0267 514.549 27.36C514.549 28.56 514.216 29.64 513.549 30.6C512.882 31.56 511.936 32.32 510.709 32.88C509.509 33.4133 508.122 33.68 506.549 33.68Z" fill="white"/>
<path d="M559.552 11.4L552.712 33.32H548.952L543.672 15.92L538.392 33.32H534.632L527.752 11.4H531.472L536.512 29.8L541.952 11.4H545.672L550.992 29.84L555.952 11.4H559.552Z" fill="white"/>
<path d="M565.044 7.84C564.351 7.84 563.764 7.60001 563.284 7.12001C562.804 6.64001 562.564 6.05334 562.564 5.36C562.564 4.66667 562.804 4.08001 563.284 3.60001C563.764 3.12 564.351 2.88 565.044 2.88C565.711 2.88 566.271 3.12 566.724 3.60001C567.204 4.08001 567.444 4.66667 567.444 5.36C567.444 6.05334 567.204 6.64001 566.724 7.12001C566.271 7.60001 565.711 7.84 565.044 7.84ZM566.804 11.4V33.32H563.164V11.4H566.804Z" fill="white"/>
<path d="M577.448 14.4V27.32C577.448 28.3867 577.674 29.1467 578.128 29.6C578.581 30.0267 579.368 30.24 580.488 30.24H583.168V33.32H579.888C577.861 33.32 576.341 32.8533 575.328 31.92C574.315 30.9867 573.808 29.4533 573.808 27.32V14.4H570.968V11.4H573.808V5.88H577.448V11.4H583.168V14.4H577.448Z" fill="white"/>
<path d="M598.458 11C600.111 11 601.605 11.36 602.938 12.08C604.271 12.7733 605.311 13.8267 606.058 15.24C606.831 16.6533 607.218 18.3733 607.218 20.4V33.32H603.618V20.92C603.618 18.7333 603.071 17.0667 601.978 15.92C600.885 14.7467 599.391 14.16 597.498 14.16C595.578 14.16 594.045 14.76 592.898 15.96C591.778 17.16 591.218 18.9067 591.218 21.2V33.32H587.578V3.72001H591.218V14.52C591.938 13.4 592.925 12.5333 594.178 11.92C595.458 11.3067 596.885 11 598.458 11Z" fill="white"/>
<path d="M638.508 33.32L631.868 21.92H627.468V33.32H623.828V5.44001H632.828C634.935 5.44001 636.708 5.8 638.148 6.52001C639.615 7.24001 640.708 8.21334 641.428 9.44001C642.148 10.6667 642.508 12.0667 642.508 13.64C642.508 15.56 641.948 17.2533 640.828 18.72C639.735 20.1867 638.081 21.16 635.868 21.64L642.868 33.32H638.508ZM627.468 19H632.828C634.801 19 636.281 18.52 637.268 17.56C638.255 16.5733 638.748 15.2667 638.748 13.64C638.748 11.9867 638.255 10.7067 637.268 9.80001C636.308 8.89334 634.828 8.44001 632.828 8.44001H627.468V19Z" fill="white"/>
<path d="M668.164 21.52C668.164 22.2133 668.124 22.9467 668.044 23.72H650.524C650.657 25.88 651.391 27.5733 652.724 28.8C654.084 30 655.724 30.6 657.644 30.6C659.217 30.6 660.524 30.24 661.564 29.52C662.631 28.7733 663.377 27.7867 663.804 26.56H667.724C667.137 28.6667 665.964 30.3867 664.204 31.72C662.444 33.0267 660.257 33.68 657.644 33.68C655.564 33.68 653.697 33.2133 652.044 32.28C650.417 31.3467 649.137 30.0267 648.204 28.32C647.271 26.5867 646.804 24.5867 646.804 22.32C646.804 20.0533 647.257 18.0667 648.164 16.36C649.071 14.6533 650.337 13.3467 651.964 12.44C653.617 11.5067 655.511 11.04 657.644 11.04C659.724 11.04 661.564 11.4933 663.164 12.4C664.764 13.3067 665.991 14.56 666.844 16.16C667.724 17.7333 668.164 19.52 668.164 21.52ZM664.404 20.76C664.404 19.3733 664.097 18.1867 663.484 17.2C662.871 16.1867 662.031 15.4267 660.964 14.92C659.924 14.3867 658.764 14.12 657.484 14.12C655.644 14.12 654.071 14.7067 652.764 15.88C651.484 17.0533 650.751 18.68 650.564 20.76H664.404Z" fill="white"/>
<path d="M682.009 11.04C683.902 11.04 685.555 11.4533 686.969 12.28C688.409 13.1067 689.475 14.1467 690.169 15.4V11.4H693.849V33.8C693.849 35.8 693.422 37.5733 692.569 39.12C691.715 40.6933 690.489 41.92 688.889 42.8C687.315 43.68 685.475 44.12 683.369 44.12C680.489 44.12 678.089 43.44 676.169 42.08C674.249 40.72 673.115 38.8667 672.769 36.52H676.369C676.769 37.8533 677.595 38.92 678.849 39.72C680.102 40.5467 681.609 40.96 683.369 40.96C685.369 40.96 686.995 40.3333 688.249 39.08C689.529 37.8267 690.169 36.0667 690.169 33.8V29.2C689.449 30.48 688.382 31.5467 686.969 32.4C685.555 33.2533 683.902 33.68 682.009 33.68C680.062 33.68 678.289 33.2 676.689 32.24C675.115 31.28 673.875 29.9333 672.969 28.2C672.062 26.4667 671.609 24.4933 671.609 22.28C671.609 20.04 672.062 18.08 672.969 16.4C673.875 14.6933 675.115 13.3733 676.689 12.44C678.289 11.5067 680.062 11.04 682.009 11.04ZM690.169 22.32C690.169 20.6667 689.835 19.2267 689.169 18C688.502 16.7733 687.595 15.84 686.449 15.2C685.329 14.5333 684.089 14.2 682.729 14.2C681.369 14.2 680.129 14.52 679.009 15.16C677.889 15.8 676.995 16.7333 676.329 17.96C675.662 19.1867 675.329 20.6267 675.329 22.28C675.329 23.96 675.662 25.4267 676.329 26.68C676.995 27.9067 677.889 28.8533 679.009 29.52C680.129 30.16 681.369 30.48 682.729 30.48C684.089 30.48 685.329 30.16 686.449 29.52C687.595 28.8533 688.502 27.9067 689.169 26.68C689.835 25.4267 690.169 23.9733 690.169 22.32Z" fill="white"/>
<path d="M701.88 7.84C701.187 7.84 700.6 7.60001 700.12 7.12001C699.64 6.64001 699.4 6.05334 699.4 5.36C699.4 4.66667 699.64 4.08001 700.12 3.60001C700.6 3.12 701.187 2.88 701.88 2.88C702.547 2.88 703.107 3.12 703.56 3.60001C704.04 4.08001 704.28 4.66667 704.28 5.36C704.28 6.05334 704.04 6.64001 703.56 7.12001C703.107 7.60001 702.547 7.84 701.88 7.84ZM703.64 11.4V33.32H700V11.4H703.64Z" fill="white"/>
<path d="M717.604 33.68C715.924 33.68 714.417 33.4 713.084 32.84C711.75 32.2533 710.697 31.4533 709.924 30.44C709.15 29.4 708.724 28.2133 708.644 26.88H712.404C712.51 27.9733 713.017 28.8667 713.924 29.56C714.857 30.2533 716.07 30.6 717.564 30.6C718.95 30.6 720.044 30.2933 720.844 29.68C721.644 29.0667 722.044 28.2933 722.044 27.36C722.044 26.4 721.617 25.6933 720.764 25.24C719.91 24.76 718.59 24.2933 716.804 23.84C715.177 23.4133 713.844 22.9867 712.804 22.56C711.79 22.1067 710.91 21.4533 710.164 20.6C709.444 19.72 709.084 18.5733 709.084 17.16C709.084 16.04 709.417 15.0133 710.084 14.08C710.75 13.1467 711.697 12.4133 712.924 11.88C714.15 11.32 715.55 11.04 717.124 11.04C719.55 11.04 721.51 11.6533 723.004 12.88C724.497 14.1067 725.297 15.7867 725.404 17.92H721.764C721.684 16.7733 721.217 15.8533 720.364 15.16C719.537 14.4667 718.417 14.12 717.004 14.12C715.697 14.12 714.657 14.4 713.884 14.96C713.11 15.52 712.724 16.2533 712.724 17.16C712.724 17.88 712.95 18.48 713.404 18.96C713.884 19.4133 714.47 19.7867 715.164 20.08C715.884 20.3467 716.87 20.6533 718.124 21C719.697 21.4267 720.977 21.8533 721.964 22.28C722.95 22.68 723.79 23.2933 724.484 24.12C725.204 24.9467 725.577 26.0267 725.604 27.36C725.604 28.56 725.27 29.64 724.604 30.6C723.937 31.56 722.99 32.32 721.764 32.88C720.564 33.4133 719.177 33.68 717.604 33.68Z" fill="white"/>
<path d="M735.182 14.4V27.32C735.182 28.3867 735.409 29.1467 735.862 29.6C736.315 30.0267 737.102 30.24 738.222 30.24H740.902V33.32H737.622C735.596 33.32 734.076 32.8533 733.062 31.92C732.049 30.9867 731.542 29.4533 731.542 27.32V14.4H728.702V11.4H731.542V5.88H735.182V11.4H740.902V14.4H735.182Z" fill="white"/>
<path d="M743.952 22.28C743.952 20.04 744.406 18.08 745.312 16.4C746.219 14.6933 747.459 13.3733 749.032 12.44C750.632 11.5067 752.406 11.04 754.352 11.04C756.272 11.04 757.939 11.4533 759.352 12.28C760.766 13.1067 761.819 14.1467 762.513 15.4V11.4H766.193V33.32H762.513V29.24C761.793 30.52 760.712 31.5867 759.272 32.44C757.859 33.2667 756.206 33.68 754.312 33.68C752.366 33.68 750.606 33.2 749.032 32.24C747.459 31.28 746.219 29.9333 745.312 28.2C744.406 26.4667 743.952 24.4933 743.952 22.28ZM762.513 22.32C762.513 20.6667 762.179 19.2267 761.513 18C760.846 16.7733 759.939 15.84 758.792 15.2C757.672 14.5333 756.432 14.2 755.073 14.2C753.713 14.2 752.472 14.52 751.352 15.16C750.232 15.8 749.339 16.7333 748.672 17.96C748.006 19.1867 747.672 20.6267 747.672 22.28C747.672 23.96 748.006 25.4267 748.672 26.68C749.339 27.9067 750.232 28.8533 751.352 29.52C752.472 30.16 753.713 30.48 755.073 30.48C756.432 30.48 757.672 30.16 758.792 29.52C759.939 28.8533 760.846 27.9067 761.513 26.68C762.179 25.4267 762.513 23.9733 762.513 22.32Z" fill="white"/>
<path d="M776.784 14.4V27.32C776.784 28.3867 777.01 29.1467 777.464 29.6C777.917 30.0267 778.704 30.24 779.824 30.24H782.504V33.32H779.224C777.197 33.32 775.677 32.8533 774.664 31.92C773.65 30.9867 773.144 29.4533 773.144 27.32V14.4H770.304V11.4H773.144V5.88H776.784V11.4H782.504V14.4H776.784Z" fill="white"/>
<rect x="834.504" width="208" height="47" rx="4" fill="white"/>
<path d="M874.232 21.953C873.98 21.4243 873.616 21.017 873.14 20.731C872.663 20.4363 872.108 20.289 871.476 20.289C870.843 20.289 870.271 20.4363 869.76 20.731C869.257 21.017 868.858 21.433 868.564 21.979C868.278 22.5163 868.135 23.1403 868.135 23.851C868.135 24.5617 868.278 25.1857 868.564 25.723C868.858 26.2603 869.257 26.6763 869.76 26.971C870.271 27.257 870.843 27.4 871.476 27.4C872.36 27.4 873.088 27.1357 873.66 26.607C874.232 26.0783 874.565 25.3633 874.661 24.462H871.047V23.5H875.922V24.41C875.852 25.1553 875.618 25.84 875.22 26.464C874.821 27.0793 874.297 27.569 873.647 27.933C872.997 28.2883 872.273 28.466 871.476 28.466C870.635 28.466 869.868 28.271 869.175 27.881C868.481 27.4823 867.931 26.932 867.524 26.23C867.125 25.528 866.926 24.735 866.926 23.851C866.926 22.967 867.125 22.174 867.524 21.472C867.931 20.7613 868.481 20.211 869.175 19.821C869.868 19.4223 870.635 19.223 871.476 19.223C872.438 19.223 873.287 19.4613 874.024 19.938C874.769 20.4147 875.311 21.0863 875.649 21.953H874.232Z" fill="#013E44"/>
<path d="M883.986 24.553C883.986 24.7783 883.973 25.0167 883.947 25.268H878.253C878.296 25.97 878.535 26.5203 878.968 26.919C879.41 27.309 879.943 27.504 880.567 27.504C881.078 27.504 881.503 27.387 881.841 27.153C882.188 26.9103 882.43 26.5897 882.569 26.191H883.843C883.652 26.8757 883.271 27.4347 882.699 27.868C882.127 28.2927 881.416 28.505 880.567 28.505C879.891 28.505 879.284 28.3533 878.747 28.05C878.218 27.7467 877.802 27.3177 877.499 26.763C877.196 26.1997 877.044 25.5497 877.044 24.813C877.044 24.0763 877.191 23.4307 877.486 22.876C877.781 22.3213 878.192 21.8967 878.721 21.602C879.258 21.2987 879.874 21.147 880.567 21.147C881.243 21.147 881.841 21.2943 882.361 21.589C882.881 21.8837 883.28 22.291 883.557 22.811C883.843 23.3223 883.986 23.903 883.986 24.553ZM882.764 24.306C882.764 23.8553 882.664 23.4697 882.465 23.149C882.266 22.8197 881.993 22.5727 881.646 22.408C881.308 22.2347 880.931 22.148 880.515 22.148C879.917 22.148 879.406 22.3387 878.981 22.72C878.565 23.1013 878.327 23.63 878.266 24.306H882.764Z" fill="#013E44"/>
<path d="M886.99 22.239V26.438C886.99 26.7847 887.064 27.0317 887.211 27.179C887.359 27.3177 887.614 27.387 887.978 27.387H888.849V28.388H887.783C887.125 28.388 886.631 28.2363 886.301 27.933C885.972 27.6297 885.807 27.1313 885.807 26.438V22.239H884.884V21.264H885.807V19.47H886.99V21.264H888.849V22.239H886.99Z" fill="#013E44"/>
<path d="M896.271 28.505C895.725 28.505 895.235 28.414 894.802 28.232C894.368 28.0413 894.026 27.7813 893.775 27.452C893.523 27.114 893.385 26.7283 893.359 26.295H894.581C894.615 26.6503 894.78 26.9407 895.075 27.166C895.378 27.3913 895.772 27.504 896.258 27.504C896.708 27.504 897.064 27.4043 897.324 27.205C897.584 27.0057 897.714 26.7543 897.714 26.451C897.714 26.139 897.575 25.9093 897.298 25.762C897.02 25.606 896.591 25.4543 896.011 25.307C895.482 25.1683 895.049 25.0297 894.711 24.891C894.381 24.7437 894.095 24.5313 893.853 24.254C893.619 23.968 893.502 23.5953 893.502 23.136C893.502 22.772 893.61 22.4383 893.827 22.135C894.043 21.8317 894.351 21.5933 894.75 21.42C895.148 21.238 895.603 21.147 896.115 21.147C896.903 21.147 897.54 21.3463 898.026 21.745C898.511 22.1437 898.771 22.6897 898.806 23.383H897.623C897.597 23.0103 897.445 22.7113 897.168 22.486C896.899 22.2607 896.535 22.148 896.076 22.148C895.651 22.148 895.313 22.239 895.062 22.421C894.81 22.603 894.685 22.8413 894.685 23.136C894.685 23.37 894.758 23.565 894.906 23.721C895.062 23.8683 895.252 23.9897 895.478 24.085C895.712 24.1717 896.032 24.2713 896.44 24.384C896.951 24.5227 897.367 24.6613 897.688 24.8C898.008 24.93 898.281 25.1293 898.507 25.398C898.741 25.6667 898.862 26.0177 898.871 26.451C898.871 26.841 898.762 27.192 898.546 27.504C898.329 27.816 898.021 28.063 897.623 28.245C897.233 28.4183 896.782 28.505 896.271 28.505Z" fill="#013E44"/>
<path d="M901.984 22.239V26.438C901.984 26.7847 902.057 27.0317 902.205 27.179C902.352 27.3177 902.608 27.387 902.972 27.387H903.843V28.388H902.777C902.118 28.388 901.624 28.2363 901.295 27.933C900.965 27.6297 900.801 27.1313 900.801 26.438V22.239H899.878V21.264H900.801V19.47H901.984V21.264H903.843V22.239H901.984Z" fill="#013E44"/>
<path d="M904.834 24.8C904.834 24.072 904.981 23.435 905.276 22.889C905.571 22.3343 905.974 21.9053 906.485 21.602C907.005 21.2987 907.581 21.147 908.214 21.147C908.838 21.147 909.38 21.2813 909.839 21.55C910.298 21.8187 910.641 22.1567 910.866 22.564V21.264H912.062V28.388H910.866V27.062C910.632 27.478 910.281 27.8247 909.813 28.102C909.354 28.3707 908.816 28.505 908.201 28.505C907.568 28.505 906.996 28.349 906.485 28.037C905.974 27.725 905.571 27.2873 905.276 26.724C904.981 26.1607 904.834 25.5193 904.834 24.8ZM910.866 24.813C910.866 24.2757 910.758 23.8077 910.541 23.409C910.324 23.0103 910.03 22.707 909.657 22.499C909.293 22.2823 908.89 22.174 908.448 22.174C908.006 22.174 907.603 22.278 907.239 22.486C906.875 22.694 906.585 22.9973 906.368 23.396C906.151 23.7947 906.043 24.2627 906.043 24.8C906.043 25.346 906.151 25.8227 906.368 26.23C906.585 26.6287 906.875 26.9363 907.239 27.153C907.603 27.361 908.006 27.465 908.448 27.465C908.89 27.465 909.293 27.361 909.657 27.153C910.03 26.9363 910.324 26.6287 910.541 26.23C910.758 25.8227 910.866 25.3503 910.866 24.813Z" fill="#013E44"/>
<path d="M915.244 22.421C915.452 22.0137 915.747 21.6973 916.128 21.472C916.518 21.2467 916.99 21.134 917.545 21.134V22.356H917.233C915.907 22.356 915.244 23.0753 915.244 24.514V28.388H914.061V21.264H915.244V22.421Z" fill="#013E44"/>
<path d="M920.354 22.239V26.438C920.354 26.7847 920.427 27.0317 920.575 27.179C920.722 27.3177 920.978 27.387 921.342 27.387H922.213V28.388H921.147C920.488 28.388 919.994 28.2363 919.665 27.933C919.335 27.6297 919.171 27.1313 919.171 26.438V22.239H918.248V21.264H919.171V19.47H920.354V21.264H922.213V22.239H920.354Z" fill="#013E44"/>
<path d="M930.146 24.553C930.146 24.7783 930.133 25.0167 930.107 25.268H924.413C924.456 25.97 924.695 26.5203 925.128 26.919C925.57 27.309 926.103 27.504 926.727 27.504C927.238 27.504 927.663 27.387 928.001 27.153C928.348 26.9103 928.59 26.5897 928.729 26.191H930.003C929.812 26.8757 929.431 27.4347 928.859 27.868C928.287 28.2927 927.576 28.505 926.727 28.505C926.051 28.505 925.444 28.3533 924.907 28.05C924.378 27.7467 923.962 27.3177 923.659 26.763C923.356 26.1997 923.204 25.5497 923.204 24.813C923.204 24.0763 923.351 23.4307 923.646 22.876C923.941 22.3213 924.352 21.8967 924.881 21.602C925.418 21.2987 926.034 21.147 926.727 21.147C927.403 21.147 928.001 21.2943 928.521 21.589C929.041 21.8837 929.44 22.291 929.717 22.811C930.003 23.3223 930.146 23.903 930.146 24.553ZM928.924 24.306C928.924 23.8553 928.824 23.4697 928.625 23.149C928.426 22.8197 928.153 22.5727 927.806 22.408C927.468 22.2347 927.091 22.148 926.675 22.148C926.077 22.148 925.566 22.3387 925.141 22.72C924.725 23.1013 924.487 23.63 924.426 24.306H928.924Z" fill="#013E44"/>
<path d="M931.266 24.8C931.266 24.072 931.413 23.435 931.708 22.889C932.002 22.3343 932.405 21.9053 932.917 21.602C933.437 21.2987 934.017 21.147 934.659 21.147C935.213 21.147 935.729 21.277 936.206 21.537C936.682 21.7883 937.046 22.122 937.298 22.538V18.768H938.494V28.388H937.298V27.049C937.064 27.4737 936.717 27.8247 936.258 28.102C935.798 28.3707 935.261 28.505 934.646 28.505C934.013 28.505 933.437 28.349 932.917 28.037C932.405 27.725 932.002 27.2873 931.708 26.724C931.413 26.1607 931.266 25.5193 931.266 24.8ZM937.298 24.813C937.298 24.2757 937.189 23.8077 936.973 23.409C936.756 23.0103 936.461 22.707 936.089 22.499C935.725 22.2823 935.322 22.174 934.88 22.174C934.438 22.174 934.035 22.278 933.671 22.486C933.307 22.694 933.016 22.9973 932.8 23.396C932.583 23.7947 932.475 24.2627 932.475 24.8C932.475 25.346 932.583 25.8227 932.8 26.23C933.016 26.6287 933.307 26.9363 933.671 27.153C934.035 27.361 934.438 27.465 934.88 27.465C935.322 27.465 935.725 27.361 936.089 27.153C936.461 26.9363 936.756 26.6287 936.973 26.23C937.189 25.8227 937.298 25.3503 937.298 24.813Z" fill="#013E44"/>
<path d="M944.57 20.107C944.344 20.107 944.154 20.029 943.998 19.873C943.842 19.717 943.764 19.5263 943.764 19.301C943.764 19.0757 943.842 18.885 943.998 18.729C944.154 18.573 944.344 18.495 944.57 18.495C944.786 18.495 944.968 18.573 945.116 18.729C945.272 18.885 945.35 19.0757 945.35 19.301C945.35 19.5263 945.272 19.717 945.116 19.873C944.968 20.029 944.786 20.107 944.57 20.107ZM945.142 21.264V28.388H943.959V21.264H945.142Z" fill="#013E44"/>
<path d="M950.629 21.134C951.495 21.134 952.197 21.3983 952.735 21.927C953.272 22.447 953.541 23.201 953.541 24.189V28.388H952.371V24.358C952.371 23.6473 952.193 23.1057 951.838 22.733C951.482 22.3517 950.997 22.161 950.382 22.161C949.758 22.161 949.259 22.356 948.887 22.746C948.523 23.136 948.341 23.7037 948.341 24.449V28.388H947.158V21.264H948.341V22.278C948.575 21.914 948.891 21.6323 949.29 21.433C949.697 21.2337 950.143 21.134 950.629 21.134Z" fill="#013E44"/>
<path d="M967.506 21.134C968.061 21.134 968.555 21.251 968.988 21.485C969.421 21.7103 969.764 22.0527 970.015 22.512C970.266 22.9713 970.392 23.5303 970.392 24.189V28.388H969.222V24.358C969.222 23.6473 969.044 23.1057 968.689 22.733C968.342 22.3517 967.87 22.161 967.272 22.161C966.657 22.161 966.167 22.3603 965.803 22.759C965.439 23.149 965.257 23.7167 965.257 24.462V28.388H964.087V24.358C964.087 23.6473 963.909 23.1057 963.554 22.733C963.207 22.3517 962.735 22.161 962.137 22.161C961.522 22.161 961.032 22.3603 960.668 22.759C960.304 23.149 960.122 23.7167 960.122 24.462V28.388H958.939V21.264H960.122V22.291C960.356 21.9183 960.668 21.6323 961.058 21.433C961.457 21.2337 961.894 21.134 962.371 21.134C962.969 21.134 963.498 21.2683 963.957 21.537C964.416 21.8057 964.759 22.2 964.984 22.72C965.183 22.2173 965.513 21.8273 965.972 21.55C966.431 21.2727 966.943 21.134 967.506 21.134Z" fill="#013E44"/>
<path d="M972.944 20.107C972.718 20.107 972.528 20.029 972.372 19.873C972.216 19.717 972.138 19.5263 972.138 19.301C972.138 19.0757 972.216 18.885 972.372 18.729C972.528 18.573 972.718 18.495 972.944 18.495C973.16 18.495 973.342 18.573 973.49 18.729C973.646 18.885 973.724 19.0757 973.724 19.301C973.724 19.5263 973.646 19.717 973.49 19.873C973.342 20.029 973.16 20.107 972.944 20.107ZM973.516 21.264V28.388H972.333V21.264H973.516Z" fill="#013E44"/>
<path d="M979.003 21.134C979.87 21.134 980.572 21.3983 981.109 21.927C981.646 22.447 981.915 23.201 981.915 24.189V28.388H980.745V24.358C980.745 23.6473 980.567 23.1057 980.212 22.733C979.857 22.3517 979.371 22.161 978.756 22.161C978.132 22.161 977.634 22.356 977.261 22.746C976.897 23.136 976.715 23.7037 976.715 24.449V28.388H975.532V21.264H976.715V22.278C976.949 21.914 977.265 21.6323 977.664 21.433C978.071 21.2337 978.518 21.134 979.003 21.134Z" fill="#013E44"/>
<path d="M990.165 21.264V28.388H988.982V27.335C988.757 27.699 988.441 27.985 988.033 28.193C987.635 28.3923 987.193 28.492 986.707 28.492C986.153 28.492 985.654 28.3793 985.212 28.154C984.77 27.92 984.419 27.5733 984.159 27.114C983.908 26.6547 983.782 26.0957 983.782 25.437V21.264H984.952V25.281C984.952 25.983 985.13 26.5247 985.485 26.906C985.841 27.2787 986.326 27.465 986.941 27.465C987.574 27.465 988.072 27.27 988.436 26.88C988.8 26.49 988.982 25.9223 988.982 25.177V21.264H990.165Z" fill="#013E44"/>
<path d="M993.606 22.239V26.438C993.606 26.7847 993.679 27.0317 993.827 27.179C993.974 27.3177 994.23 27.387 994.594 27.387H995.465V28.388H994.399C993.74 28.388 993.246 28.2363 992.917 27.933C992.587 27.6297 992.423 27.1313 992.423 26.438V22.239H991.5V21.264H992.423V19.47H993.606V21.264H995.465V22.239H993.606Z" fill="#013E44"/>
<path d="M1003.4 24.553C1003.4 24.7783 1003.39 25.0167 1003.36 25.268H997.665C997.708 25.97 997.947 26.5203 998.38 26.919C998.822 27.309 999.355 27.504 999.979 27.504C1000.49 27.504 1000.92 27.387 1001.25 27.153C1001.6 26.9103 1001.84 26.5897 1001.98 26.191H1003.26C1003.06 26.8757 1002.68 27.4347 1002.11 27.868C1001.54 28.2927 1000.83 28.505 999.979 28.505C999.303 28.505 998.696 28.3533 998.159 28.05C997.63 27.7467 997.214 27.3177 996.911 26.763C996.608 26.1997 996.456 25.5497 996.456 24.813C996.456 24.0763 996.603 23.4307 996.898 22.876C997.193 22.3213 997.604 21.8967 998.133 21.602C998.67 21.2987 999.286 21.147 999.979 21.147C1000.66 21.147 1001.25 21.2943 1001.77 21.589C1002.29 21.8837 1002.69 22.291 1002.97 22.811C1003.26 23.3223 1003.4 23.903 1003.4 24.553ZM1002.18 24.306C1002.18 23.8553 1002.08 23.4697 1001.88 23.149C1001.68 22.8197 1001.4 22.5727 1001.06 22.408C1000.72 22.2347 1000.34 22.148 999.927 22.148C999.329 22.148 998.818 22.3387 998.393 22.72C997.977 23.1013 997.739 23.63 997.678 24.306H1002.18Z" fill="#013E44"/>
<path d="M1007.48 28.505C1006.94 28.505 1006.45 28.414 1006.01 28.232C1005.58 28.0413 1005.24 27.7813 1004.99 27.452C1004.73 27.114 1004.6 26.7283 1004.57 26.295H1005.79C1005.83 26.6503 1005.99 26.9407 1006.29 27.166C1006.59 27.3913 1006.98 27.504 1007.47 27.504C1007.92 27.504 1008.27 27.4043 1008.53 27.205C1008.79 27.0057 1008.92 26.7543 1008.92 26.451C1008.92 26.139 1008.79 25.9093 1008.51 25.762C1008.23 25.606 1007.8 25.4543 1007.22 25.307C1006.69 25.1683 1006.26 25.0297 1005.92 24.891C1005.59 24.7437 1005.31 24.5313 1005.06 24.254C1004.83 23.968 1004.71 23.5953 1004.71 23.136C1004.71 22.772 1004.82 22.4383 1005.04 22.135C1005.25 21.8317 1005.56 21.5933 1005.96 21.42C1006.36 21.238 1006.81 21.147 1007.33 21.147C1008.11 21.147 1008.75 21.3463 1009.24 21.745C1009.72 22.1437 1009.98 22.6897 1010.02 23.383H1008.83C1008.81 23.0103 1008.66 22.7113 1008.38 22.486C1008.11 22.2607 1007.75 22.148 1007.29 22.148C1006.86 22.148 1006.52 22.239 1006.27 22.421C1006.02 22.603 1005.9 22.8413 1005.9 23.136C1005.9 23.37 1005.97 23.565 1006.12 23.721C1006.27 23.8683 1006.46 23.9897 1006.69 24.085C1006.92 24.1717 1007.24 24.2713 1007.65 24.384C1008.16 24.5227 1008.58 24.6613 1008.9 24.8C1009.22 24.93 1009.49 25.1293 1009.72 25.398C1009.95 25.6667 1010.07 26.0177 1010.08 26.451C1010.08 26.841 1009.97 27.192 1009.76 27.504C1009.54 27.816 1009.23 28.063 1008.83 28.245C1008.44 28.4183 1007.99 28.505 1007.48 28.505Z" fill="#013E44"/>
</svg>
