<svg width="9" height="18" viewBox="0 0 9 18" fill="none" xmlns="http://www.w3.org/2000/svg">
<path d="M5.37836 17.4752C5.28288 17.6357 5.14965 17.7681 4.9913 17.86C4.83294 17.9518 4.65469 18 4.47345 18C4.2922 18 4.11396 17.9518 3.9556 17.86C3.79724 17.7681 3.66401 17.6357 3.56854 17.4752L0.161807 11.8051C0.0608935 11.6369 0.00512741 11.4436 0.00031922 11.2454C-0.00448897 11.0471 0.0418368 10.8511 0.134468 10.6778C0.227101 10.5045 0.36265 10.3603 0.526991 10.2602C0.691332 10.16 0.878451 10.1076 1.06885 10.1084H7.8823C8.07198 10.1092 8.25801 10.1627 8.42115 10.2635C8.58429 10.3643 8.71861 10.5087 8.81023 10.6817C8.90185 10.8547 8.94743 11.0501 8.94226 11.2476C8.93709 11.4451 8.88136 11.6376 8.78083 11.8051L5.37836 17.4752Z" fill="#A0A0A0"/>
<path d="M3.57499 0.524779C3.67047 0.364302 3.80369 0.231872 3.96205 0.140037C4.12041 0.0482009 4.29866 0 4.4799 0C4.66115 0 4.83939 0.0482009 4.99775 0.140037C5.15611 0.231872 5.28934 0.364302 5.38481 0.524779L8.79154 6.1949C8.89245 6.36308 8.94822 6.55638 8.95303 6.75465C8.95784 6.95292 8.91151 7.1489 8.81888 7.32218C8.72625 7.49546 8.5907 7.63969 8.42636 7.73984C8.26202 7.83999 8.0749 7.8924 7.8845 7.89161H1.07104C0.881369 7.89082 0.69534 7.83726 0.5322 7.73646C0.36906 7.63567 0.234734 7.4913 0.143117 7.3183C0.0515 7.1453 0.00591861 6.94994 0.0110879 6.75243C0.0162572 6.55493 0.0719895 6.36244 0.17252 6.1949L3.57499 0.524779Z" fill="#A0A0A0"/>
</svg>
