<svg width="60" height="10" viewBox="0 0 60 10" fill="none" xmlns="http://www.w3.org/2000/svg">
<path d="M0 9.59621V0H5.75398V1.03084H1.16204V4.27331H5.3229V5.30415H1.16204V9.59621H0Z" fill="#E2E2E2"/>
<path d="M9.71218 9.76489C9.25611 9.76489 8.84221 9.67899 8.47048 9.50718C8.09875 9.33225 7.80356 9.08079 7.58489 8.75279C7.36623 8.42167 7.2569 8.02183 7.2569 7.55327C7.2569 7.14093 7.33812 6.80669 7.50055 6.55054C7.66299 6.29126 7.88009 6.08822 8.15186 5.9414C8.42363 5.79459 8.72351 5.68525 9.0515 5.61341C9.38262 5.53844 9.7153 5.47909 10.0495 5.43535C10.4869 5.37912 10.8414 5.33695 11.1132 5.30884C11.3881 5.2776 11.588 5.22606 11.7129 5.15421C11.841 5.08237 11.9051 4.95742 11.9051 4.77936V4.74188C11.9051 4.27956 11.7785 3.92033 11.5255 3.66418C11.2756 3.40803 10.8961 3.27995 10.3869 3.27995C9.85899 3.27995 9.4451 3.39553 9.14522 3.62669C8.84533 3.85785 8.63448 4.10463 8.51265 4.36702L7.46307 3.99217C7.65049 3.55485 7.90039 3.21436 8.21277 2.9707C8.52827 2.72392 8.87188 2.55212 9.24361 2.45528C9.61846 2.35532 9.98707 2.30534 10.3494 2.30534C10.5806 2.30534 10.8461 2.33345 11.146 2.38968C11.449 2.44278 11.7411 2.55368 12.0222 2.72236C12.3065 2.89104 12.5423 3.14563 12.7297 3.48612C12.9172 3.82661 13.0109 4.28268 13.0109 4.85433V9.59621H11.9051V8.62159H11.8488C11.7739 8.77778 11.6489 8.9449 11.474 9.12296C11.2991 9.30101 11.0663 9.45252 10.7758 9.57747C10.4853 9.70242 10.1308 9.76489 9.71218 9.76489ZM9.88086 8.77153C10.3182 8.77153 10.6868 8.68563 10.9867 8.51382C11.2897 8.34202 11.5177 8.12023 11.6708 7.84846C11.827 7.57669 11.9051 7.29087 11.9051 6.99099V5.97889C11.8582 6.03512 11.7551 6.08666 11.5958 6.13351C11.4396 6.17725 11.2584 6.21629 11.0523 6.25065C10.8492 6.28189 10.6509 6.31001 10.4572 6.335C10.2666 6.35686 10.112 6.37561 9.99332 6.39122C9.70593 6.42871 9.43729 6.48962 9.18739 6.57397C8.94061 6.65518 8.74069 6.77857 8.58762 6.94413C8.43768 7.10657 8.36271 7.32836 8.36271 7.60949C8.36271 7.99372 8.50484 8.28423 8.78911 8.48102C9.07649 8.6747 9.44041 8.77153 9.88086 8.77153Z" fill="#E2E2E2"/>
<path d="M17.9531 9.74615C17.2783 9.74615 16.6973 9.58684 16.21 9.26821C15.7227 8.94959 15.3478 8.5107 15.0854 7.95155C14.823 7.39239 14.6919 6.75358 14.6919 6.03512C14.6919 5.30415 14.8262 4.6591 15.0948 4.09994C15.3666 3.53767 15.7446 3.09878 16.2287 2.78328C16.7161 2.46465 17.2846 2.30534 17.9343 2.30534C18.4404 2.30534 18.8964 2.39905 19.3025 2.58648C19.7086 2.7739 20.0413 3.0363 20.3006 3.37367C20.5598 3.71103 20.7207 4.10463 20.7832 4.55445H19.6774C19.593 4.22645 19.4056 3.93595 19.1151 3.68292C18.8277 3.42677 18.4404 3.2987 17.9531 3.2987C17.522 3.2987 17.144 3.41115 16.8191 3.63606C16.4974 3.85785 16.2459 4.17179 16.0647 4.57788C15.8867 4.98084 15.7977 5.45409 15.7977 5.99763C15.7977 6.55366 15.8851 7.03784 16.0601 7.45018C16.2381 7.86252 16.488 8.1827 16.8098 8.41074C17.1346 8.63877 17.5157 8.75279 17.9531 8.75279C18.2405 8.75279 18.5013 8.70281 18.7356 8.60285C18.9698 8.50289 19.1682 8.3592 19.3306 8.17177C19.4931 7.98435 19.6087 7.75943 19.6774 7.49704H20.7832C20.7207 7.92187 20.5661 8.30453 20.3193 8.64502C20.0757 8.98239 19.7524 9.25103 19.3494 9.45095C18.9495 9.64775 18.4841 9.74615 17.9531 9.74615Z" fill="#E2E2E2"/>
<path d="M25.4173 9.74615C24.7238 9.74615 24.1256 9.59309 23.6227 9.28696C23.1229 8.9777 22.7371 8.54662 22.4653 7.99372C22.1967 7.43769 22.0624 6.79107 22.0624 6.05386C22.0624 5.31665 22.1967 4.66691 22.4653 4.10463C22.7371 3.53923 23.1151 3.09878 23.5993 2.78328C24.0866 2.46465 24.6551 2.30534 25.3048 2.30534C25.6797 2.30534 26.0499 2.36781 26.4153 2.49277C26.7808 2.61772 27.1135 2.82076 27.4134 3.1019C27.7133 3.37991 27.9522 3.74852 28.1303 4.20771C28.3083 4.66691 28.3974 5.23231 28.3974 5.90392V6.37248H22.8496V5.41661H27.2728C27.2728 5.01052 27.1916 4.64816 27.0292 4.32954C26.8699 4.01092 26.6418 3.75945 26.3451 3.57515C26.0514 3.39085 25.7047 3.2987 25.3048 3.2987C24.8644 3.2987 24.4833 3.40803 24.1615 3.62669C23.8429 3.84223 23.5977 4.12337 23.4259 4.47011C23.2541 4.81685 23.1682 5.18857 23.1682 5.58529V6.22254C23.1682 6.76608 23.2619 7.22683 23.4493 7.60481C23.6399 7.97966 23.9038 8.26548 24.2412 8.46228C24.5786 8.65595 24.9706 8.75279 25.4173 8.75279C25.7078 8.75279 25.9702 8.71218 26.2045 8.63096C26.4419 8.54662 26.6465 8.42167 26.8183 8.25611C26.9901 8.08743 27.1229 7.87814 27.2166 7.62824L28.2849 7.92812C28.1725 8.29048 27.9835 8.6091 27.718 8.88399C27.4524 9.15576 27.1244 9.36817 26.734 9.52124C26.3435 9.67118 25.9046 9.74615 25.4173 9.74615Z" fill="#E2E2E2"/>
<path d="M30.2295 9.59621V0H31.3353V3.54235H31.429C31.5102 3.4174 31.6227 3.25809 31.7664 3.06441C31.9132 2.86762 32.1225 2.69269 32.3942 2.53962C32.6691 2.38343 33.0409 2.30534 33.5094 2.30534C34.1154 2.30534 34.6496 2.45684 35.1119 2.75985C35.5742 3.06285 35.935 3.49237 36.1943 4.0484C36.4536 4.60443 36.5832 5.26042 36.5832 6.01637C36.5832 6.77857 36.4536 7.43925 36.1943 7.9984C35.935 8.55443 35.5758 8.98551 35.1166 9.29164C34.6574 9.59465 34.1279 9.74615 33.5282 9.74615C33.0658 9.74615 32.6957 9.66962 32.4177 9.51655C32.1396 9.36036 31.9257 9.18387 31.7757 8.98707C31.6258 8.78715 31.5102 8.62159 31.429 8.4904H31.2978V9.59621H30.2295ZM31.3165 5.99763C31.3165 6.54117 31.3962 7.02066 31.5555 7.43613C31.7148 7.84846 31.9475 8.17177 32.2537 8.40605C32.5598 8.63721 32.9346 8.75279 33.3782 8.75279C33.8405 8.75279 34.2263 8.63096 34.5356 8.38731C34.8479 8.14053 35.0822 7.80941 35.2384 7.39395C35.3977 6.97537 35.4774 6.50993 35.4774 5.99763C35.4774 5.49158 35.3993 5.03551 35.2431 4.62942C35.09 4.22021 34.8573 3.8969 34.5449 3.65949C34.2357 3.41896 33.8468 3.2987 33.3782 3.2987C32.9284 3.2987 32.5504 3.41271 32.2443 3.64075C31.9382 3.86566 31.707 4.18116 31.5508 4.58725C31.3946 4.99022 31.3165 5.46034 31.3165 5.99763Z" fill="#E2E2E2"/>
<path d="M41.1986 9.74615C40.5488 9.74615 39.9787 9.59152 39.4883 9.28227C39.001 8.97302 38.6199 8.54038 38.345 7.98435C38.0732 7.42832 37.9374 6.77857 37.9374 6.03512C37.9374 5.28541 38.0732 4.63098 38.345 4.07183C38.6199 3.51267 39.001 3.07847 39.4883 2.76922C39.9787 2.45997 40.5488 2.30534 41.1986 2.30534C41.8483 2.30534 42.4168 2.45997 42.9041 2.76922C43.3946 3.07847 43.7757 3.51267 44.0474 4.07183C44.3223 4.63098 44.4598 5.28541 44.4598 6.03512C44.4598 6.77857 44.3223 7.42832 44.0474 7.98435C43.7757 8.54038 43.3946 8.97302 42.9041 9.28227C42.4168 9.59152 41.8483 9.74615 41.1986 9.74615ZM41.1986 8.75279C41.6921 8.75279 42.0982 8.62628 42.4168 8.37325C42.7355 8.12023 42.9713 7.78755 43.1244 7.37521C43.2774 6.96287 43.354 6.51618 43.354 6.03512C43.354 5.55406 43.2774 5.10579 43.1244 4.69033C42.9713 4.27487 42.7355 3.93907 42.4168 3.68292C42.0982 3.42677 41.6921 3.2987 41.1986 3.2987C40.705 3.2987 40.2989 3.42677 39.9803 3.68292C39.6617 3.93907 39.4258 4.27487 39.2728 4.69033C39.1197 5.10579 39.0432 5.55406 39.0432 6.03512C39.0432 6.51618 39.1197 6.96287 39.2728 7.37521C39.4258 7.78755 39.6617 8.12023 39.9803 8.37325C40.2989 8.62628 40.705 8.75279 41.1986 8.75279Z" fill="#E2E2E2"/>
<path d="M49.0716 9.74615C48.4219 9.74615 47.8518 9.59152 47.3614 9.28227C46.8741 8.97302 46.493 8.54038 46.2181 7.98435C45.9463 7.42832 45.8104 6.77857 45.8104 6.03512C45.8104 5.28541 45.9463 4.63098 46.2181 4.07183C46.493 3.51267 46.8741 3.07847 47.3614 2.76922C47.8518 2.45997 48.4219 2.30534 49.0716 2.30534C49.7214 2.30534 50.2899 2.45997 50.7772 2.76922C51.2676 3.07847 51.6487 3.51267 51.9205 4.07183C52.1954 4.63098 52.3328 5.28541 52.3328 6.03512C52.3328 6.77857 52.1954 7.42832 51.9205 7.98435C51.6487 8.54038 51.2676 8.97302 50.7772 9.28227C50.2899 9.59152 49.7214 9.74615 49.0716 9.74615ZM49.0716 8.75279C49.5652 8.75279 49.9713 8.62628 50.2899 8.37325C50.6085 8.12023 50.8444 7.78755 50.9974 7.37521C51.1505 6.96287 51.227 6.51618 51.227 6.03512C51.227 5.55406 51.1505 5.10579 50.9974 4.69033C50.8444 4.27487 50.6085 3.93907 50.2899 3.68292C49.9713 3.42677 49.5652 3.2987 49.0716 3.2987C48.5781 3.2987 48.172 3.42677 47.8534 3.68292C47.5347 3.93907 47.2989 4.27487 47.1458 4.69033C46.9928 5.10579 46.9162 5.55406 46.9162 6.03512C46.9162 6.51618 46.9928 6.96287 47.1458 7.37521C47.2989 7.78755 47.5347 8.12023 47.8534 8.37325C48.172 8.62628 48.5781 8.75279 49.0716 8.75279Z" fill="#E2E2E2"/>
<path d="M55.0517 6.97225L55.0329 5.60404H55.2579L58.4066 2.39905H59.7748L56.4199 5.79146H56.3262L55.0517 6.97225ZM54.0208 9.59621V0H55.1267V9.59621H54.0208ZM58.594 9.59621L55.7826 6.03512L56.5698 5.26667L59.9997 9.59621H58.594Z" fill="#E2E2E2"/>
</svg>
