<svg width="97" height="97" viewBox="0 0 97 97" fill="none" xmlns="http://www.w3.org/2000/svg">
<g filter="url(#filter0_d_817_4668)">
<rect x="8" y="4" width="81" height="81" rx="40.5" fill="white"/>
<rect x="6" y="2" width="85" height="85" rx="42.5" stroke="white" stroke-width="4"/>
<path d="M48.5 6.53125C32.9328 6.53125 19.5172 15.8969 13.6953 29.3125H83.3047C77.4828 15.8969 64.0672 6.53125 48.5 6.53125Z" fill="#3E4347"/>
<path d="M48.5 82.4688C64.0672 82.4688 77.4828 73.1031 83.3047 59.6875H13.6953C19.5172 73.1031 32.9328 82.4688 48.5 82.4688Z" fill="#75A843"/>
<path d="M86.4688 44.5C86.4688 40.9563 85.9625 37.5391 85.0766 34.375H11.9234C11.0375 37.5391 10.5312 40.9563 10.5312 44.5C10.5312 48.0437 11.0375 51.4609 11.9234 54.625H85.0766C85.9625 51.4609 86.4688 48.0437 86.4688 44.5Z" fill="#C94747"/>
<path d="M12.6832 57.1562C12.9363 58.0422 13.316 58.8016 13.6957 59.6875H83.3051C83.6848 58.8016 84.0645 58.0422 84.3176 57.1562C84.5707 56.2703 84.8238 55.5109 85.077 54.625H11.9238C12.177 55.5109 12.4301 56.2703 12.6832 57.1562ZM84.3176 31.8438C84.0645 30.9578 83.6848 30.1984 83.3051 29.3125H13.6957C13.316 30.1984 12.9363 30.9578 12.6832 31.8438C12.4301 32.7297 12.177 33.4891 11.9238 34.375H85.077C84.8238 33.4891 84.5707 32.7297 84.3176 31.8438Z" fill="white"/>
<path d="M33.5664 70.1921L34.4523 70.6983L58.8789 28.4265C60.2711 28.0468 61.0305 26.6546 61.9164 25.389C62.4227 24.503 64.5742 20.8327 65.4602 16.1499C61.7898 19.314 59.7648 22.8577 59.2586 23.8702C58.4992 25.2624 57.7398 26.528 58.1195 28.0468L33.5664 70.1921Z" fill="white"/>
<path d="M63.4348 70.1921L62.5488 70.6983L38.1223 28.4265C36.7301 28.0468 35.9707 26.6546 35.0848 25.389C34.5785 24.503 32.427 20.8327 31.541 16.1499C35.2113 19.314 37.2363 22.8577 37.7426 23.8702C38.502 25.2624 39.2613 26.528 38.8816 28.0468L63.4348 70.1921Z" fill="white"/>
<path d="M58.625 44.5C58.625 58.4219 48.5 69.8125 48.5 69.8125C48.5 69.8125 38.375 58.4219 38.375 44.5C38.375 30.5781 48.5 19.1875 48.5 19.1875C48.5 19.1875 58.625 30.5781 58.625 44.5Z" fill="#C94747"/>
<path d="M41.0328 54.625C43.1844 52.4734 44.7031 48.8031 44.7031 44.5C44.7031 40.1969 43.3109 36.5266 41.0328 34.375C40.1469 37.2859 39.6406 40.8297 39.6406 44.5C39.6406 48.1703 40.1469 51.7141 41.0328 54.625ZM55.9672 34.375C53.8156 36.5266 52.2969 40.1969 52.2969 44.5C52.2969 48.8031 53.6891 52.4734 55.9672 54.625C56.8531 51.7141 57.3594 48.1703 57.3594 44.5C57.3594 40.8297 56.8531 37.2859 55.9672 34.375Z" fill="#3E4347"/>
<path d="M48.4996 47.5374C49.618 47.5374 50.5246 46.1775 50.5246 44.4999C50.5246 42.8223 49.618 41.4624 48.4996 41.4624C47.3812 41.4624 46.4746 42.8223 46.4746 44.4999C46.4746 46.1775 47.3812 47.5374 48.4996 47.5374Z" fill="white"/>
<path d="M47.7402 20.0732C46.9809 22.2248 46.4746 26.2748 46.4746 30.7045C46.4746 35.2607 46.9809 39.1842 47.7402 41.3357C47.9934 38.1717 48.2465 34.6279 48.2465 30.7045C48.2465 26.9076 48.1199 23.2373 47.7402 20.0732ZM49.259 20.0732C50.0184 22.2248 50.5246 26.2748 50.5246 30.7045C50.5246 35.2607 50.0184 39.1842 49.259 41.3357C49.0059 38.1717 48.7527 34.6279 48.7527 30.7045C48.7527 26.9076 48.8793 23.2373 49.259 20.0732ZM47.7402 47.5373C46.9809 49.6889 46.4746 53.7389 46.4746 58.1686C46.4746 62.7248 46.9809 66.6482 47.7402 68.7998C47.9934 65.6357 48.2465 62.092 48.2465 58.1686C48.2465 54.3717 48.1199 50.7014 47.7402 47.5373ZM49.259 47.5373C50.0184 49.6889 50.5246 53.7389 50.5246 58.1686C50.5246 62.7248 50.0184 66.6482 49.259 68.7998C49.0059 65.6357 48.7527 62.092 48.7527 58.1686C48.7527 54.3717 48.8793 50.7014 49.259 47.5373Z" fill="white"/>
</g>
<defs>
<filter id="filter0_d_817_4668" x="0" y="0" width="97" height="97" filterUnits="userSpaceOnUse" color-interpolation-filters="sRGB">
<feFlood flood-opacity="0" result="BackgroundImageFix"/>
<feColorMatrix in="SourceAlpha" type="matrix" values="0 0 0 0 0 0 0 0 0 0 0 0 0 0 0 0 0 0 127 0" result="hardAlpha"/>
<feOffset dy="4"/>
<feGaussianBlur stdDeviation="2"/>
<feComposite in2="hardAlpha" operator="out"/>
<feColorMatrix type="matrix" values="0 0 0 0 0 0 0 0 0 0 0 0 0 0 0 0 0 0 0.25 0"/>
<feBlend mode="normal" in2="BackgroundImageFix" result="effect1_dropShadow_817_4668"/>
<feBlend mode="normal" in="SourceGraphic" in2="effect1_dropShadow_817_4668" result="shape"/>
</filter>
</defs>
</svg>
