<svg width="287" height="23" viewBox="0 0 287 23" fill="none" xmlns="http://www.w3.org/2000/svg">
<path d="M4.87756 17.588C3.35583 17.588 2.16247 17.1636 1.29748 16.3146C0.432493 15.4656 0 14.2883 0 12.7826H2.04233C2.04233 13.6315 2.25057 14.3444 2.66704 14.921C3.08352 15.4977 3.81235 15.786 4.85353 15.786C5.86268 15.786 6.55948 15.5057 6.94392 14.945C7.34437 14.3844 7.5446 13.6876 7.5446 12.8547V0.480547H9.5629V12.8547C9.5629 14.3444 9.14643 15.5057 8.31348 16.3386C7.49655 17.1716 6.35124 17.588 4.87756 17.588Z" fill="white"/>
<path d="M18.7499 17.588C17.6287 17.588 16.6195 17.3318 15.7225 16.8192C14.8255 16.3066 14.1126 15.5858 13.584 14.6567C13.0715 13.7116 12.8152 12.6064 12.8152 11.3409C12.8152 10.0755 13.0795 8.97823 13.6081 8.04918C14.1367 7.1041 14.8495 6.37527 15.7465 5.86268C16.6596 5.3501 17.6767 5.09381 18.798 5.09381C19.9193 5.09381 20.9284 5.3501 21.8254 5.86268C22.7225 6.37527 23.4273 7.1041 23.9399 8.04918C24.4685 8.97823 24.7328 10.0755 24.7328 11.3409C24.7328 12.6064 24.4685 13.7116 23.9399 14.6567C23.4112 15.5858 22.6904 16.3066 21.7774 16.8192C20.8804 17.3318 19.8712 17.588 18.7499 17.588ZM18.7499 15.8581C19.4387 15.8581 20.0794 15.6899 20.6721 15.3535C21.2648 15.0171 21.7453 14.5125 22.1138 13.8398C22.4822 13.167 22.6664 12.3341 22.6664 11.3409C22.6664 10.3478 22.4822 9.51485 22.1138 8.84208C21.7614 8.16931 21.2888 7.66474 20.6962 7.32835C20.1035 6.99197 19.4708 6.82378 18.798 6.82378C18.1092 6.82378 17.4685 6.99197 16.8758 7.32835C16.2831 7.66474 15.8026 8.16931 15.4342 8.84208C15.0657 9.51485 14.8815 10.3478 14.8815 11.3409C14.8815 12.3341 15.0657 13.167 15.4342 13.8398C15.8026 14.5125 16.2751 15.0171 16.8518 15.3535C17.4444 15.6899 18.0772 15.8581 18.7499 15.8581Z" fill="white"/>
<path d="M29.0848 2.73912C28.6844 2.73912 28.348 2.61098 28.0757 2.35468C27.8194 2.08237 27.6913 1.74599 27.6913 1.34553C27.6913 0.961096 27.8194 0.64073 28.0757 0.384438C28.348 0.128146 28.6844 0 29.0848 0C29.4693 0 29.7977 0.128146 30.07 0.384438C30.3423 0.64073 30.4784 0.961096 30.4784 1.34553C30.4784 1.74599 30.3423 2.08237 30.07 2.35468C29.7977 2.61098 29.4693 2.73912 29.0848 2.73912ZM28.0757 17.2997V5.38214H30.094V17.2997H28.0757Z" fill="white"/>
<path d="M33.9285 17.2997V5.38214H35.7546L35.8748 7.52057C36.2592 6.76772 36.8118 6.17504 37.5327 5.74255C38.2535 5.31005 39.0704 5.09381 39.9835 5.09381C41.3931 5.09381 42.5143 5.5263 43.3473 6.39129C44.1963 7.24025 44.6207 8.55375 44.6207 10.3318V17.2997H42.6024V10.548C42.6024 8.06519 41.5773 6.82378 39.5269 6.82378C38.5018 6.82378 37.6448 7.20021 36.956 7.95307C36.2832 8.68991 35.9469 9.74711 35.9469 11.1247V17.2997H33.9285Z" fill="white"/>
<path d="M54.7983 17.2997V0.480547H60.2285C61.542 0.480547 62.6152 0.696794 63.4481 1.12929C64.2811 1.56178 64.8978 2.15446 65.2982 2.90731C65.6987 3.66017 65.8989 4.49312 65.8989 5.40616C65.8989 6.46337 65.6106 7.41645 65.0339 8.26542C64.4733 9.11439 63.5923 9.71507 62.3909 10.0675L66.0671 17.2997H63.6884L60.2765 10.3558H60.1324H56.8166V17.2997H54.7983ZM56.8166 8.77H60.0843C61.3818 8.77 62.3269 8.45764 62.9195 7.83293C63.5122 7.20822 63.8085 6.4073 63.8085 5.43019C63.8085 4.43706 63.5122 3.65216 62.9195 3.07551C62.3429 2.48283 61.3898 2.18649 60.0603 2.18649H56.8166V8.77Z" fill="white"/>
<path d="M73.872 17.588C72.7347 17.588 71.7256 17.3318 70.8446 16.8192C69.9636 16.2906 69.2668 15.5617 68.7542 14.6327C68.2576 13.7036 68.0093 12.6064 68.0093 11.3409C68.0093 10.0915 68.2576 9.00226 68.7542 8.0732C69.2508 7.12813 69.9395 6.39929 70.8205 5.88671C71.7176 5.35811 72.7507 5.09381 73.9201 5.09381C75.0734 5.09381 76.0665 5.35811 76.8995 5.88671C77.7484 6.39929 78.3972 7.08007 78.8457 7.92904C79.2942 8.77801 79.5185 9.69105 79.5185 10.6682C79.5185 10.8444 79.5104 11.0206 79.4944 11.1968C79.4944 11.373 79.4944 11.5732 79.4944 11.7974H70.0036C70.0517 12.7105 70.2599 13.4714 70.6283 14.0801C71.0128 14.6727 71.4853 15.1212 72.0459 15.4256C72.6226 15.7299 73.2313 15.8821 73.872 15.8821C74.705 15.8821 75.4018 15.6899 75.9624 15.3054C76.523 14.921 76.9315 14.4004 77.1878 13.7437H79.1821C78.8617 14.8489 78.245 15.77 77.332 16.5068C76.4349 17.2276 75.2816 17.588 73.872 17.588ZM73.872 6.79975C72.9109 6.79975 72.0539 7.09609 71.3011 7.68876C70.5642 8.26542 70.1398 9.11439 70.0276 10.2357H77.5242C77.4761 9.16244 77.1077 8.32149 76.4189 7.71279C75.7301 7.1041 74.8812 6.79975 73.872 6.79975Z" fill="white"/>
<path d="M87.1529 13.5514C86.4801 13.5514 85.8634 13.4633 85.3028 13.2871L84.1014 14.4164C84.2776 14.5446 84.4939 14.6567 84.7502 14.7528C85.0225 14.8329 85.4069 14.913 85.9035 14.9931C86.4 15.0572 87.0968 15.1292 87.9939 15.2093C89.5957 15.3215 90.741 15.6899 91.4298 16.3146C92.1186 16.9393 92.463 17.7562 92.463 18.7654C92.463 19.4542 92.2707 20.1109 91.8863 20.7356C91.5179 21.3603 90.9412 21.8729 90.1563 22.2734C89.3875 22.6738 88.3943 22.8741 87.1769 22.8741C86.1037 22.8741 85.1506 22.7299 84.3177 22.4416C83.4847 22.1693 82.836 21.7448 82.3715 21.1681C81.9069 20.6075 81.6747 19.8947 81.6747 19.0297C81.6747 18.5812 81.7948 18.0926 82.0351 17.564C82.2753 17.0514 82.7239 16.5629 83.3806 16.0984C83.0282 15.9542 82.7239 15.802 82.4676 15.6418C82.2273 15.4656 82.003 15.2734 81.7948 15.0652V14.5125L83.8371 12.4942C82.892 11.6933 82.4195 10.6361 82.4195 9.32263C82.4195 8.53773 82.6037 7.82492 82.9721 7.18419C83.3406 6.54346 83.8772 6.03888 84.582 5.67046C85.2868 5.28603 86.1437 5.09381 87.1529 5.09381C87.8417 5.09381 88.4664 5.18992 89.027 5.38214H93.4241V6.89586L91.1895 6.99197C91.654 7.66474 91.8863 8.44162 91.8863 9.32263C91.8863 10.1075 91.6941 10.8203 91.3096 11.4611C90.9412 12.1018 90.4046 12.6144 89.6998 12.9988C89.011 13.3672 88.1621 13.5514 87.1529 13.5514ZM87.1529 11.8936C88.0019 11.8936 88.6746 11.6773 89.1712 11.2448C89.6838 10.7963 89.9401 10.1556 89.9401 9.32263C89.9401 8.5057 89.6838 7.88098 89.1712 7.44849C88.6746 6.99998 88.0019 6.77572 87.1529 6.77572C86.2879 6.77572 85.5991 6.99998 85.0865 7.44849C84.59 7.88098 84.3417 8.5057 84.3417 9.32263C84.3417 10.1556 84.59 10.7963 85.0865 11.2448C85.5991 11.6773 86.2879 11.8936 87.1529 11.8936ZM83.6449 18.8375C83.6449 19.6384 83.9813 20.2311 84.6541 20.6155C85.3268 21.016 86.1678 21.2162 87.1769 21.2162C88.1701 21.2162 88.963 20.9999 89.5556 20.5674C90.1643 20.135 90.4687 19.5583 90.4687 18.8375C90.4687 18.3249 90.2604 17.8764 89.844 17.4919C89.4275 17.1235 88.6586 16.9073 87.5373 16.8432C86.6563 16.7791 85.8955 16.699 85.2547 16.6029C84.598 16.9553 84.1655 17.3318 83.9573 17.7322C83.749 18.1487 83.6449 18.5171 83.6449 18.8375Z" fill="white"/>
<path d="M97.2466 2.73912C96.8461 2.73912 96.5098 2.61098 96.2374 2.35468C95.9812 2.08237 95.853 1.74599 95.853 1.34553C95.853 0.961096 95.9812 0.64073 96.2374 0.384438C96.5098 0.128146 96.8461 0 97.2466 0C97.631 0 97.9594 0.128146 98.2317 0.384438C98.504 0.64073 98.6402 0.961096 98.6402 1.34553C98.6402 1.74599 98.504 2.08237 98.2317 2.35468C97.9594 2.61098 97.631 2.73912 97.2466 2.73912ZM96.2374 17.2997V5.38214H98.2557V17.2997H96.2374Z" fill="white"/>
<path d="M106.656 17.588C105.23 17.588 104.045 17.2276 103.099 16.5068C102.154 15.786 101.602 14.8089 101.442 13.5755H103.508C103.636 14.2002 103.964 14.7448 104.493 15.2093C105.038 15.6578 105.766 15.8821 106.68 15.8821C107.529 15.8821 108.153 15.7059 108.554 15.3535C108.954 14.9851 109.154 14.5526 109.154 14.056C109.154 13.3352 108.89 12.8547 108.361 12.6144C107.849 12.3741 107.12 12.1579 106.175 11.9656C105.534 11.8375 104.894 11.6533 104.253 11.413C103.612 11.1727 103.075 10.8364 102.643 10.4039C102.21 9.95535 101.994 9.37068 101.994 8.64986C101.994 7.60867 102.379 6.75971 103.148 6.10296C103.932 5.43019 104.99 5.09381 106.319 5.09381C107.585 5.09381 108.618 5.41417 109.419 6.0549C110.236 6.67961 110.708 7.57664 110.836 8.74597H108.842C108.762 8.13728 108.498 7.66474 108.049 7.32835C107.617 6.97595 107.032 6.79975 106.295 6.79975C105.574 6.79975 105.014 6.95192 104.613 7.25627C104.229 7.56062 104.037 7.96107 104.037 8.45764C104.037 8.93819 104.285 9.31462 104.781 9.58693C105.294 9.85924 105.983 10.0915 106.848 10.2837C107.585 10.4439 108.281 10.6441 108.938 10.8844C109.611 11.1087 110.155 11.4531 110.572 11.9176C111.004 12.3661 111.221 13.0228 111.221 13.8878C111.237 14.9611 110.828 15.8501 109.995 16.5549C109.178 17.2437 108.065 17.588 106.656 17.588Z" fill="white"/>
<path d="M118.594 17.2997C117.505 17.2997 116.648 17.0354 116.023 16.5068C115.398 15.9782 115.086 15.0251 115.086 13.6476V7.08808H113.02V5.38214H115.086L115.35 2.52288H117.104V5.38214H120.612V7.08808H117.104V13.6476C117.104 14.4004 117.257 14.913 117.561 15.1853C117.865 15.4416 118.402 15.5697 119.171 15.5697H120.42V17.2997H118.594Z" fill="white"/>
<path d="M127.461 17.588C126.468 17.588 125.643 17.4199 124.987 17.0835C124.33 16.7471 123.841 16.2986 123.521 15.7379C123.201 15.1773 123.04 14.5686 123.04 13.9119C123.04 12.6945 123.505 11.7574 124.434 11.1007C125.363 10.4439 126.628 10.1155 128.23 10.1155H131.45V9.97137C131.45 8.93018 131.178 8.14528 130.633 7.61668C130.088 7.07206 129.36 6.79975 128.447 6.79975C127.662 6.79975 126.981 6.99998 126.404 7.40044C125.844 7.78487 125.491 8.35352 125.347 9.10638H123.281C123.361 8.24139 123.649 7.51256 124.146 6.91989C124.658 6.32721 125.291 5.8787 126.044 5.57435C126.797 5.25399 127.598 5.09381 128.447 5.09381C130.112 5.09381 131.362 5.54232 132.195 6.43934C133.044 7.32034 133.468 8.49769 133.468 9.97137V17.2997H131.666L131.546 15.1613C131.21 15.8341 130.713 16.4107 130.056 16.8913C129.416 17.3558 128.551 17.588 127.461 17.588ZM127.774 15.8821C128.543 15.8821 129.199 15.6819 129.744 15.2814C130.305 14.881 130.729 14.3604 131.017 13.7196C131.306 13.0789 131.45 12.4061 131.45 11.7013V11.6773H128.398C127.213 11.6773 126.372 11.8855 125.876 12.302C125.395 12.7025 125.155 13.2071 125.155 13.8157C125.155 14.4405 125.379 14.945 125.828 15.3295C126.292 15.6979 126.941 15.8821 127.774 15.8821Z" fill="white"/>
<path d="M141.197 17.2997C140.108 17.2997 139.251 17.0354 138.626 16.5068C138.002 15.9782 137.689 15.0251 137.689 13.6476V7.08808H135.623V5.38214H137.689L137.954 2.52288H139.708V5.38214H143.216V7.08808H139.708V13.6476C139.708 14.4004 139.86 14.913 140.164 15.1853C140.468 15.4416 141.005 15.5697 141.774 15.5697H143.023V17.2997H141.197Z" fill="white"/>
<path d="M145.235 5.83866L146.629 0.480547H148.887L146.677 5.83866H145.235Z" fill="white"/>
<path d="M155.069 17.588C153.643 17.588 152.458 17.2276 151.512 16.5068C150.567 15.786 150.015 14.8089 149.855 13.5755H151.921C152.049 14.2002 152.377 14.7448 152.906 15.2093C153.451 15.6578 154.18 15.8821 155.093 15.8821C155.942 15.8821 156.566 15.7059 156.967 15.3535C157.367 14.9851 157.567 14.5526 157.567 14.056C157.567 13.3352 157.303 12.8547 156.774 12.6144C156.262 12.3741 155.533 12.1579 154.588 11.9656C153.947 11.8375 153.306 11.6533 152.666 11.413C152.025 11.1727 151.488 10.8364 151.056 10.4039C150.623 9.95535 150.407 9.37068 150.407 8.64986C150.407 7.60867 150.792 6.75971 151.561 6.10296C152.345 5.43019 153.403 5.09381 154.732 5.09381C155.998 5.09381 157.031 5.41417 157.832 6.0549C158.649 6.67961 159.121 7.57664 159.249 8.74597H157.255C157.175 8.13728 156.911 7.66474 156.462 7.32835C156.03 6.97595 155.445 6.79975 154.708 6.79975C153.987 6.79975 153.427 6.95192 153.026 7.25627C152.642 7.56062 152.45 7.96107 152.45 8.45764C152.45 8.93819 152.698 9.31462 153.194 9.58693C153.707 9.85924 154.396 10.0915 155.261 10.2837C155.998 10.4439 156.694 10.6441 157.351 10.8844C158.024 11.1087 158.569 11.4531 158.985 11.9176C159.417 12.3661 159.634 13.0228 159.634 13.8878C159.65 14.9611 159.241 15.8501 158.408 16.5549C157.591 17.2437 156.478 17.588 155.069 17.588Z" fill="white"/>
<path d="M169.517 17.2997V5.38214H171.343L171.487 7.11211C171.871 6.47138 172.384 5.97481 173.025 5.62241C173.665 5.27001 174.386 5.09381 175.187 5.09381C176.132 5.09381 176.941 5.28603 177.614 5.67046C178.303 6.0549 178.831 6.63957 179.2 7.42446C179.616 6.70364 180.185 6.13499 180.906 5.71852C181.642 5.30204 182.435 5.09381 183.284 5.09381C184.71 5.09381 185.847 5.5263 186.696 6.39129C187.545 7.24025 187.97 8.55375 187.97 10.3318V17.2997H185.975V10.548C185.975 9.31462 185.727 8.38556 185.23 7.76085C184.734 7.13614 184.021 6.82378 183.092 6.82378C182.131 6.82378 181.33 7.20021 180.689 7.95307C180.065 8.68991 179.752 9.74711 179.752 11.1247V17.2997H177.734V10.548C177.734 9.31462 177.486 8.38556 176.989 7.76085C176.492 7.13614 175.78 6.82378 174.851 6.82378C173.906 6.82378 173.113 7.20021 172.472 7.95307C171.847 8.68991 171.535 9.74711 171.535 11.1247V17.2997H169.517Z" fill="white"/>
<path d="M195.295 17.588C194.302 17.588 193.477 17.4199 192.82 17.0835C192.163 16.7471 191.675 16.2986 191.354 15.7379C191.034 15.1773 190.874 14.5686 190.874 13.9119C190.874 12.6945 191.338 11.7574 192.267 11.1007C193.196 10.4439 194.462 10.1155 196.064 10.1155H199.283V9.97137C199.283 8.93018 199.011 8.14528 198.466 7.61668C197.922 7.07206 197.193 6.79975 196.28 6.79975C195.495 6.79975 194.814 6.99998 194.237 7.40044C193.677 7.78487 193.324 8.35352 193.18 9.10638H191.114C191.194 8.24139 191.482 7.51256 191.979 6.91989C192.491 6.32721 193.124 5.8787 193.877 5.57435C194.63 5.25399 195.431 5.09381 196.28 5.09381C197.946 5.09381 199.195 5.54232 200.028 6.43934C200.877 7.32034 201.302 8.49769 201.302 9.97137V17.2997H199.499L199.379 15.1613C199.043 15.8341 198.546 16.4107 197.89 16.8913C197.249 17.3558 196.384 17.588 195.295 17.588ZM195.607 15.8821C196.376 15.8821 197.033 15.6819 197.577 15.2814C198.138 14.881 198.562 14.3604 198.851 13.7196C199.139 13.0789 199.283 12.4061 199.283 11.7013V11.6773H196.232C195.046 11.6773 194.205 11.8855 193.709 12.302C193.228 12.7025 192.988 13.2071 192.988 13.8157C192.988 14.4405 193.212 14.945 193.661 15.3295C194.125 15.6979 194.774 15.8821 195.607 15.8821Z" fill="white"/>
<path d="M205.875 2.73912C205.475 2.73912 205.138 2.61098 204.866 2.35468C204.61 2.08237 204.482 1.74599 204.482 1.34553C204.482 0.961096 204.61 0.64073 204.866 0.384438C205.138 0.128146 205.475 0 205.875 0C206.26 0 206.588 0.128146 206.86 0.384438C207.133 0.64073 207.269 0.961096 207.269 1.34553C207.269 1.74599 207.133 2.08237 206.86 2.35468C206.588 2.61098 206.26 2.73912 205.875 2.73912ZM204.866 17.2997V5.38214H206.884V17.2997H204.866Z" fill="white"/>
<path d="M210.719 17.2997V0H212.737V17.2997H210.719Z" fill="white"/>
<path d="M217.591 2.73912C217.191 2.73912 216.854 2.61098 216.582 2.35468C216.326 2.08237 216.197 1.74599 216.197 1.34553C216.197 0.961096 216.326 0.64073 216.582 0.384438C216.854 0.128146 217.191 0 217.591 0C217.975 0 218.304 0.128146 218.576 0.384438C218.848 0.64073 218.985 0.961096 218.985 1.34553C218.985 1.74599 218.848 2.08237 218.576 2.35468C218.304 2.61098 217.975 2.73912 217.591 2.73912ZM216.582 17.2997V5.38214H218.6V17.2997H216.582Z" fill="white"/>
<path d="M222.435 17.2997V5.38214H224.261L224.381 7.52057C224.765 6.76772 225.318 6.17504 226.039 5.74255C226.76 5.31005 227.577 5.09381 228.49 5.09381C229.899 5.09381 231.02 5.5263 231.853 6.39129C232.702 7.24025 233.127 8.55375 233.127 10.3318V17.2997H231.109V10.548C231.109 8.06519 230.083 6.82378 228.033 6.82378C227.008 6.82378 226.151 7.20021 225.462 7.95307C224.789 8.68991 224.453 9.74711 224.453 11.1247V17.2997H222.435Z" fill="white"/>
<path d="M241.214 13.5514C240.542 13.5514 239.925 13.4633 239.364 13.2871L238.163 14.4164C238.339 14.5446 238.555 14.6567 238.812 14.7528C239.084 14.8329 239.468 14.913 239.965 14.9931C240.462 15.0572 241.158 15.1292 242.055 15.2093C243.657 15.3215 244.803 15.6899 245.491 16.3146C246.18 16.9393 246.525 17.7562 246.525 18.7654C246.525 19.4542 246.332 20.1109 245.948 20.7356C245.579 21.3603 245.003 21.8729 244.218 22.2734C243.449 22.6738 242.456 22.8741 241.238 22.8741C240.165 22.8741 239.212 22.7299 238.379 22.4416C237.546 22.1693 236.898 21.7448 236.433 21.1681C235.968 20.6075 235.736 19.8947 235.736 19.0297C235.736 18.5812 235.856 18.0926 236.097 17.564C236.337 17.0514 236.785 16.5629 237.442 16.0984C237.09 15.9542 236.785 15.802 236.529 15.6418C236.289 15.4656 236.065 15.2734 235.856 15.0652V14.5125L237.899 12.4942C236.954 11.6933 236.481 10.6361 236.481 9.32263C236.481 8.53773 236.665 7.82492 237.034 7.18419C237.402 6.54346 237.939 6.03888 238.644 5.67046C239.348 5.28603 240.205 5.09381 241.214 5.09381C241.903 5.09381 242.528 5.18992 243.089 5.38214H247.486V6.89586L245.251 6.99197C245.716 7.66474 245.948 8.44162 245.948 9.32263C245.948 10.1075 245.756 10.8203 245.371 11.4611C245.003 12.1018 244.466 12.6144 243.761 12.9988C243.073 13.3672 242.224 13.5514 241.214 13.5514ZM241.214 11.8936C242.063 11.8936 242.736 11.6773 243.233 11.2448C243.745 10.7963 244.002 10.1556 244.002 9.32263C244.002 8.5057 243.745 7.88098 243.233 7.44849C242.736 6.99998 242.063 6.77572 241.214 6.77572C240.349 6.77572 239.661 6.99998 239.148 7.44849C238.652 7.88098 238.403 8.5057 238.403 9.32263C238.403 10.1556 238.652 10.7963 239.148 11.2448C239.661 11.6773 240.349 11.8936 241.214 11.8936ZM237.706 18.8375C237.706 19.6384 238.043 20.2311 238.716 20.6155C239.388 21.016 240.229 21.2162 241.238 21.2162C242.232 21.2162 243.025 20.9999 243.617 20.5674C244.226 20.135 244.53 19.5583 244.53 18.8375C244.53 18.3249 244.322 17.8764 243.906 17.4919C243.489 17.1235 242.72 16.9073 241.599 16.8432C240.718 16.7791 239.957 16.699 239.316 16.6029C238.66 16.9553 238.227 17.3318 238.019 17.7322C237.811 18.1487 237.706 18.5171 237.706 18.8375Z" fill="white"/>
<path d="M256.762 17.2997V0H258.78V17.2997H256.762Z" fill="white"/>
<path d="M263.634 2.73912C263.234 2.73912 262.897 2.61098 262.625 2.35468C262.369 2.08237 262.24 1.74599 262.24 1.34553C262.24 0.961096 262.369 0.64073 262.625 0.384438C262.897 0.128146 263.234 0 263.634 0C264.019 0 264.347 0.128146 264.619 0.384438C264.892 0.64073 265.028 0.961096 265.028 1.34553C265.028 1.74599 264.892 2.08237 264.619 2.35468C264.347 2.61098 264.019 2.73912 263.634 2.73912ZM262.625 17.2997V5.38214H264.643V17.2997H262.625Z" fill="white"/>
<path d="M273.043 17.588C271.617 17.588 270.432 17.2276 269.487 16.5068C268.542 15.786 267.989 14.8089 267.829 13.5755H269.895C270.024 14.2002 270.352 14.7448 270.881 15.2093C271.425 15.6578 272.154 15.8821 273.067 15.8821C273.916 15.8821 274.541 15.7059 274.941 15.3535C275.342 14.9851 275.542 14.5526 275.542 14.056C275.542 13.3352 275.278 12.8547 274.749 12.6144C274.236 12.3741 273.508 12.1579 272.562 11.9656C271.922 11.8375 271.281 11.6533 270.64 11.413C270 11.1727 269.463 10.8364 269.03 10.4039C268.598 9.95535 268.382 9.37068 268.382 8.64986C268.382 7.60867 268.766 6.75971 269.535 6.10296C270.32 5.43019 271.377 5.09381 272.707 5.09381C273.972 5.09381 275.005 5.41417 275.806 6.0549C276.623 6.67961 277.096 7.57664 277.224 8.74597H275.229C275.149 8.13728 274.885 7.66474 274.437 7.32835C274.004 6.97595 273.419 6.79975 272.683 6.79975C271.962 6.79975 271.401 6.95192 271.001 7.25627C270.616 7.56062 270.424 7.96107 270.424 8.45764C270.424 8.93819 270.672 9.31462 271.169 9.58693C271.681 9.85924 272.37 10.0915 273.235 10.2837C273.972 10.4439 274.669 10.6441 275.326 10.8844C275.998 11.1087 276.543 11.4531 276.959 11.9176C277.392 12.3661 277.608 13.0228 277.608 13.8878C277.624 14.9611 277.216 15.8501 276.383 16.5549C275.566 17.2437 274.453 17.588 273.043 17.588Z" fill="white"/>
<path d="M284.982 17.2997C283.892 17.2997 283.035 17.0354 282.411 16.5068C281.786 15.9782 281.474 15.0251 281.474 13.6476V7.08808H279.407V5.38214H281.474L281.738 2.52288H283.492V5.38214H287V7.08808H283.492V13.6476C283.492 14.4004 283.644 14.913 283.948 15.1853C284.253 15.4416 284.789 15.5697 285.558 15.5697H286.808V17.2997H284.982Z" fill="white"/>
</svg>
