<svg width="15" height="9" viewBox="0 0 15 9" fill="none" xmlns="http://www.w3.org/2000/svg">
<path fill-rule="evenodd" clip-rule="evenodd" d="M8.54437 8.54385C8.25192 8.83594 7.85549 9 7.44216 9C7.02883 9 6.63239 8.83594 6.33994 8.54385L0.456615 2.6626C0.164152 2.37 -9.74591e-05 1.9732 4.33851e-08 1.5595C9.75459e-05 1.1458 0.164534 0.749079 0.457135 0.456616C0.749736 0.164152 1.14653 -9.74591e-05 1.56024 4.3385e-08C1.97394 9.75459e-05 2.37066 0.164534 2.66312 0.457135L7.44216 5.23617L12.2212 0.457135C12.5152 0.172875 12.9091 0.0154739 13.3181 0.0188335C13.7271 0.0221932 14.1184 0.186044 14.4077 0.475097C14.697 0.76415 14.8612 1.15528 14.865 1.56423C14.8687 1.97319 14.7117 2.36726 14.4277 2.66156L8.54541 8.54489L8.54437 8.54385Z" fill="#013E44"/>
</svg>
