<svg width="65" height="78" viewBox="0 0 65 78" fill="none" xmlns="http://www.w3.org/2000/svg">
<g clip-path="url(#clip0_772_2874)">
<path d="M49.2282 38.2645C52.4358 38.2645 55.039 40.9691 55.039 44.3014V58.1C55.039 59.7011 54.4268 61.2366 53.3371 62.3687C52.2473 63.5008 50.7693 64.1369 49.2282 64.1369H33.3731L33.207 63.9644C34.429 61.422 35.1163 58.5484 35.1163 55.5127C35.1163 51.4525 33.8877 47.6889 31.7959 44.6015V43.439H30.9425C29.4074 41.5078 27.5208 39.9101 25.3907 38.7371C26.0847 38.4336 26.8451 38.2645 27.6453 38.2645H49.2282ZM36.7765 53.7879V58.9624H49.2282C49.4484 58.9624 49.6595 58.8715 49.8152 58.7098C49.9709 58.5481 50.0583 58.3287 50.0583 58.1V53.7879H36.7765ZM50.0583 48.6135V44.3014C50.0583 44.0727 49.9709 43.8533 49.8152 43.6916C49.6595 43.5299 49.4484 43.439 49.2282 43.439H36.7765V48.6135H50.0583ZM58.3594 69.3113H38.3537L40.0538 71.081C40.9769 72.0365 41.5248 73.2405 41.6974 74.4858H58.3594C60.1207 74.4858 61.8099 73.7589 63.0553 72.465C64.3007 71.1712 65.0003 69.4163 65.0003 67.5865V32.4967C65 30.6671 64.3001 28.9125 63.0546 27.6189L43.6997 7.51441C43.6483 7.46483 43.594 7.41874 43.537 7.37643C43.4959 7.34348 43.456 7.30896 43.4174 7.27294C43.189 7.04895 42.946 6.84149 42.6902 6.652C42.6052 6.59502 42.5165 6.5443 42.4246 6.50022L42.2652 6.41742L42.0992 6.31738C41.9199 6.21045 41.7373 6.10006 41.548 6.01727C40.8868 5.74289 40.187 5.58211 39.4761 5.54121C39.4104 5.53677 39.345 5.52871 39.2801 5.51707C39.19 5.50261 39.099 5.49454 39.0079 5.49292H18.5141C16.7528 5.49292 15.0636 6.21981 13.8182 7.51367C12.5728 8.80754 11.8732 10.5624 11.8732 12.3922V37.2538C13.4938 36.7783 15.1699 36.538 16.8538 36.5397V12.3922C16.8538 11.9348 17.0288 11.496 17.3401 11.1726C17.6515 10.8491 18.0737 10.6674 18.5141 10.6674H38.4368V26.1908C38.4368 28.0206 39.1364 29.7754 40.3818 31.0693C41.6272 32.3632 43.3164 33.0901 45.0776 33.0901H60.0197V67.5865C60.0197 68.0439 59.8448 68.4827 59.5334 68.8061C59.222 69.1296 58.7998 69.3113 58.3594 69.3113ZM56.2941 27.9156H45.0776C44.6373 27.9156 44.215 27.7339 43.9037 27.4104C43.5923 27.0869 43.4174 26.6482 43.4174 26.1908V14.5344L56.2941 27.9156ZM16.8538 71.0361C19.9568 71.0408 22.9835 70.0373 25.5102 68.166L34.1866 77.1765C34.4146 77.4307 34.6895 77.6346 34.995 77.776C35.3005 77.9174 35.6302 77.9934 35.9646 77.9996C36.299 78.0057 36.6311 77.9418 36.9412 77.8117C37.2513 77.6815 37.533 77.4879 37.7695 77.2422C38.0059 76.9965 38.1924 76.7038 38.3176 76.3817C38.4429 76.0595 38.5044 75.7145 38.4985 75.3671C38.4926 75.0197 38.4194 74.6771 38.2833 74.3597C38.1472 74.0424 37.9509 73.7567 37.7063 73.5199L29.0332 64.506C30.9738 61.6695 31.9406 58.2379 31.7787 54.7621C31.6167 51.2863 30.3353 47.9678 28.1401 45.3393C25.9449 42.7109 22.9633 40.925 19.6739 40.2683C16.3845 39.6116 12.9781 40.1222 10.0015 41.7181C7.02499 43.314 4.65091 45.9027 3.26041 49.0686C1.86992 52.2345 1.54367 55.794 2.33404 59.1756C3.12441 62.5573 4.98555 65.565 7.61869 67.7158C10.2518 69.8667 13.5043 71.0361 16.8538 71.0361ZM16.8538 65.8617C14.2119 65.8617 11.6782 64.7713 9.8101 62.8305C7.94199 60.8897 6.89249 58.2575 6.89249 55.5127C6.89249 52.768 7.94199 50.1357 9.8101 48.1949C11.6782 46.2541 14.2119 45.1638 16.8538 45.1638C19.4957 45.1638 22.0295 46.2541 23.8976 48.1949C25.7657 50.1357 26.8152 52.768 26.8152 55.5127C26.8152 58.2575 25.7657 60.8897 23.8976 62.8305C22.0295 64.7713 19.4957 65.8617 16.8538 65.8617Z" fill="#013E44"/>
</g>
<defs>
<clipPath id="clip0_772_2874">
<rect width="65" height="78" fill="white"/>
</clipPath>
</defs>
</svg>
