<svg width="38" height="38" viewBox="0 0 38 38" fill="none" xmlns="http://www.w3.org/2000/svg">
<path d="M6.82403 15.1382L10.5204 16.7002C10.9627 15.8166 11.4208 14.9646 11.8947 14.1442C12.3686 13.3237 12.8898 12.5033 13.4585 11.6829L10.8047 11.1622L6.82403 15.1382ZM13.5533 19.0668L18.9556 24.4154C20.2825 23.9105 21.7042 23.1374 23.2207 22.0961C24.7371 21.0548 26.1588 19.8715 27.4857 18.5461C29.6972 16.3373 31.4272 13.8842 32.6757 11.1868C33.9243 8.48945 34.4689 6.00416 34.3097 3.73091C32.035 3.57313 29.5392 4.11778 26.8222 5.36484C24.1053 6.61191 21.641 8.33925 19.4295 10.5469C18.1026 11.8722 16.9179 13.2922 15.8754 14.8068C14.8328 16.3215 14.0588 17.7415 13.5533 19.0668ZM21.9886 15.9902C21.2619 15.2644 20.8986 14.3733 20.8986 13.3168C20.8986 12.2603 21.2619 11.3686 21.9886 10.6415C22.7152 9.91575 23.6156 9.55287 24.6897 9.55287C25.7639 9.55287 26.6643 9.91575 27.3909 10.6415C28.1175 11.3673 28.4809 12.2591 28.4809 13.3168C28.4809 14.3745 28.1175 15.2656 27.3909 15.9902C26.6643 16.7159 25.7639 17.0788 24.6897 17.0788C23.6156 17.0788 22.7152 16.7159 21.9886 15.9902ZM22.8889 31.184L26.8696 27.2081L26.3483 24.5574C25.5269 25.1254 24.7055 25.6379 23.8841 26.0948C23.0627 26.5517 22.2097 27.0017 21.3251 27.4447L22.8889 31.184ZM37.7217 0.2756C38.322 4.0938 37.9511 7.80975 36.609 11.4235C35.267 15.0372 32.9525 18.4837 29.6656 21.7629L30.6134 26.4508C30.7397 27.0819 30.7081 27.6972 30.5186 28.2967C30.329 28.8963 30.0131 29.417 29.5708 29.8587L21.6094 37.8107L17.6288 28.4861L9.52521 20.3921L0.189557 16.4162L8.10354 8.46421C8.54584 8.02243 9.07533 7.70688 9.69202 7.51755C10.3087 7.32822 10.9324 7.29666 11.5629 7.42288L16.2545 8.36954C19.5401 5.08779 22.9837 2.76847 26.5853 1.41159C30.1869 0.0547132 33.899 -0.323951 37.7217 0.2756ZM3.55418 26.4034C4.65993 25.299 6.01084 24.7392 7.6069 24.724C9.20297 24.7089 10.5532 25.2529 11.6577 26.3561C12.7635 27.4605 13.3088 28.8098 13.2936 30.404C13.2784 31.9982 12.7173 33.3469 11.6103 34.45C10.8205 35.2389 9.50183 35.9173 7.65429 36.4853C5.80675 37.0533 3.25532 37.5582 0 38C0.442298 34.7498 0.947782 32.2014 1.51645 30.3548C2.08512 28.5082 2.76437 27.191 3.55418 26.4034ZM6.25536 29.0541C5.93944 29.3696 5.62351 29.9458 5.30758 30.7827C4.99165 31.6195 4.7705 32.4633 4.64413 33.314C5.49714 33.1878 6.34256 32.9745 7.1804 32.6741C8.01824 32.3737 8.59449 32.0663 8.90915 31.752C9.28827 31.3734 9.49362 30.9158 9.52521 30.3794C9.5568 29.8429 9.38305 29.3854 9.00393 29.0067C8.62482 28.6281 8.16672 28.4463 7.62965 28.4615C7.09257 28.4766 6.63448 28.6741 6.25536 29.0541Z" fill="#FF7600"/>
</svg>
