<svg width="91" height="100" viewBox="0 0 91 100" fill="none" xmlns="http://www.w3.org/2000/svg">
<path d="M0 11.6735V0H1.41359V10.4195H6.83994V11.6735H0Z" fill="white"/>
<path d="M12.5171 11.8559C11.6735 11.8559 10.9458 11.6697 10.334 11.2973C9.72601 10.9211 9.25672 10.3967 8.92612 9.72412C8.59932 9.04772 8.43593 8.26113 8.43593 7.36434C8.43593 6.46754 8.59932 5.67715 8.92612 4.99316C9.25672 4.30536 9.71652 3.76957 10.3055 3.38577C10.8983 2.99817 11.5899 2.80438 12.3803 2.80438C12.8363 2.80438 13.2866 2.88038 13.7312 3.03237C14.1758 3.18437 14.5805 3.43137 14.9453 3.77337C15.3101 4.11156 15.6008 4.55996 15.8174 5.11856C16.034 5.67715 16.1423 6.36494 16.1423 7.18194V7.75193H9.39352V6.58914H14.7743C14.7743 6.09515 14.6755 5.65435 14.4779 5.26675C14.2841 4.87916 14.0067 4.57326 13.6457 4.34906C13.2885 4.12486 12.8667 4.01277 12.3803 4.01277C11.8445 4.01277 11.3809 4.14576 10.9895 4.41176C10.6019 4.67396 10.3036 5.01596 10.0946 5.43775C9.88561 5.85955 9.78112 6.31175 9.78112 6.79434V7.56953C9.78112 8.23073 9.89511 8.79122 10.1231 9.25102C10.3549 9.70702 10.676 10.0547 11.0864 10.2941C11.4968 10.5297 11.9737 10.6475 12.5171 10.6475C12.8705 10.6475 13.1897 10.5981 13.4747 10.4993C13.7635 10.3967 14.0124 10.2447 14.2214 10.0433C14.4304 9.83811 14.5919 9.58352 14.7059 9.27952L16.0055 9.64432C15.8687 10.0851 15.6388 10.4727 15.3158 10.8071C14.9928 11.1377 14.5938 11.3961 14.1188 11.5823C13.6438 11.7647 13.1099 11.8559 12.5171 11.8559Z" fill="white"/>
<path d="M21.7225 15.1391C21.0727 15.1391 20.5141 15.0555 20.0467 14.8883C19.5793 14.7249 19.1898 14.5083 18.8782 14.2385C18.5704 13.9725 18.3253 13.6875 18.1429 13.3835L19.2145 12.6311C19.3361 12.7907 19.49 12.9731 19.6762 13.1783C19.8624 13.3873 20.117 13.5678 20.44 13.7198C20.7668 13.8756 21.1943 13.9535 21.7225 13.9535C22.4293 13.9535 23.0126 13.7825 23.4724 13.4405C23.9322 13.0985 24.1621 12.5627 24.1621 11.8331V10.0547H24.0481C23.9493 10.2143 23.8087 10.4119 23.6263 10.6475C23.4477 10.8793 23.1893 11.0864 22.8511 11.2688C22.5167 11.4474 22.0645 11.5367 21.4945 11.5367C20.7877 11.5367 20.1531 11.3695 19.5907 11.0351C19.0321 10.7007 18.5894 10.2143 18.2626 9.57592C17.9396 8.93752 17.7781 8.16233 17.7781 7.25034C17.7781 6.35355 17.9358 5.57265 18.2512 4.90766C18.5666 4.23886 19.0055 3.72207 19.5679 3.35727C20.1303 2.98867 20.7801 2.80438 21.5173 2.80438C22.0873 2.80438 22.5395 2.89938 22.8739 3.08937C23.2121 3.27557 23.4705 3.48837 23.6491 3.72777C23.8315 3.96337 23.9721 4.15716 24.0709 4.30916H24.2077V2.91837H25.5073V11.9243C25.5073 12.6767 25.3363 13.2885 24.9943 13.7597C24.6561 14.2347 24.2001 14.5824 23.6263 14.8028C23.0563 15.027 22.4217 15.1391 21.7225 15.1391ZM21.6769 10.3283C22.2165 10.3283 22.6725 10.2048 23.0449 9.95781C23.4173 9.71082 23.7004 9.35552 23.8942 8.89192C24.088 8.42833 24.1849 7.87353 24.1849 7.22754C24.1849 6.59674 24.0899 6.04005 23.8999 5.55745C23.7099 5.07486 23.4287 4.69676 23.0563 4.42316C22.6839 4.14956 22.2241 4.01277 21.6769 4.01277C21.1069 4.01277 20.6319 4.15716 20.2519 4.44596C19.8757 4.73476 19.5926 5.12236 19.4026 5.60875C19.2164 6.09515 19.1233 6.63474 19.1233 7.22754C19.1233 7.83553 19.2183 8.37323 19.4083 8.84062C19.6021 9.30422 19.8871 9.66902 20.2633 9.93501C20.6433 10.1972 21.1145 10.3283 21.6769 10.3283Z" fill="white"/>
<path d="M30.546 11.8787C29.9912 11.8787 29.4877 11.7742 29.0355 11.5652C28.5834 11.3524 28.2243 11.0465 27.9583 10.6475C27.6923 10.2447 27.5593 9.75832 27.5593 9.18832C27.5593 8.68672 27.6581 8.28013 27.8557 7.96853C28.0533 7.65313 28.3174 7.40614 28.648 7.22754C28.9786 7.04894 29.3433 6.91594 29.7423 6.82854C30.1451 6.73734 30.5498 6.66514 30.9564 6.61194C31.4884 6.54354 31.9197 6.49224 32.2503 6.45804C32.5847 6.42004 32.8279 6.35735 32.9799 6.26995C33.1357 6.18255 33.2136 6.03055 33.2136 5.81395V5.76835C33.2136 5.20595 33.0597 4.76896 32.7519 4.45736C32.4479 4.14576 31.9862 3.98997 31.3668 3.98997C30.7246 3.98997 30.2211 4.13056 29.8563 4.41176C29.4915 4.69296 29.235 4.99316 29.0868 5.31235L27.8101 4.85636C28.0381 4.32436 28.3421 3.91017 28.722 3.61377C29.1058 3.31357 29.5238 3.10457 29.976 2.98677C30.432 2.86518 30.8804 2.80438 31.3212 2.80438C31.6024 2.80438 31.9254 2.83858 32.2902 2.90697C32.6588 2.97157 33.0141 3.10647 33.3561 3.31167C33.7019 3.51687 33.9888 3.82657 34.2168 4.24076C34.4448 4.65496 34.5588 5.20976 34.5588 5.90515V11.6735H33.2136V10.4879H33.1452C33.054 10.6779 32.902 10.8812 32.6892 11.0978C32.4764 11.3144 32.1933 11.4987 31.8399 11.6507C31.4865 11.8027 31.0552 11.8787 30.546 11.8787ZM30.7512 10.6703C31.2832 10.6703 31.7316 10.5658 32.0964 10.3568C32.465 10.1478 32.7424 9.87802 32.9286 9.54742C33.1186 9.21682 33.2136 8.86912 33.2136 8.50433V7.27314C33.1566 7.34154 33.0312 7.40424 32.8374 7.46124C32.6474 7.51444 32.427 7.56194 32.1762 7.60373C31.9292 7.64173 31.6879 7.67593 31.4523 7.70633C31.2205 7.73293 31.0324 7.75573 30.888 7.77473C30.5384 7.82033 30.2116 7.89443 29.9076 7.99703C29.6074 8.09583 29.3642 8.24593 29.178 8.44733C28.9956 8.64493 28.9044 8.91472 28.9044 9.25672C28.9044 9.72412 29.0773 10.0775 29.4231 10.3169C29.7727 10.5525 30.2154 10.6703 30.7512 10.6703Z" fill="white"/>
<path d="M38.3592 0V11.6735H37.0141V0H38.3592Z" fill="white"/>
<path d="M0 41.7237V31.5094H3.45132C4.25264 31.5094 4.90766 31.654 5.41638 31.9433C5.92842 32.2292 6.30747 32.6166 6.55352 33.1053C6.79957 33.5941 6.92259 34.1394 6.92259 34.7412C6.92259 35.3431 6.79957 35.89 6.55352 36.3821C6.3108 36.8742 5.93507 37.2665 5.42635 37.5591C4.91763 37.8484 4.26594 37.9931 3.47127 37.9931H0.997491V36.8958H3.43137C3.97999 36.8958 4.42055 36.8011 4.75305 36.6115C5.08554 36.422 5.3266 36.166 5.47623 35.8435C5.62918 35.5176 5.70565 35.1502 5.70565 34.7412C5.70565 34.3323 5.62918 33.9665 5.47623 33.644C5.3266 33.3215 5.08388 33.0688 4.74806 32.8859C4.41224 32.6997 3.96669 32.6066 3.41142 32.6066H1.23689V41.7237H0Z" fill="#E2E2E2"/>
<path d="M8.75548 41.7237V34.0629H9.89262V35.22H9.97242C10.1121 34.841 10.3648 34.5334 10.7305 34.2973C11.0963 34.0613 11.5086 33.9432 11.9674 33.9432C12.0539 33.9432 12.1619 33.9449 12.2916 33.9482C12.4213 33.9516 12.5193 33.9565 12.5858 33.9632V35.1602C12.5459 35.1502 12.4545 35.1352 12.3115 35.1153C12.1719 35.092 12.0239 35.0804 11.8677 35.0804C11.4953 35.0804 11.1628 35.1585 10.8702 35.3148C10.5809 35.4677 10.3515 35.6805 10.1819 35.9532C10.0156 36.2225 9.93252 36.5301 9.93252 36.8759V41.7237H8.75548Z" fill="#E2E2E2"/>
<path d="M13.9811 41.7237V34.0629H15.1581V41.7237H13.9811ZM14.5796 32.7861C14.3502 32.7861 14.1523 32.708 13.9861 32.5517C13.8232 32.3955 13.7417 32.2076 13.7417 31.9882C13.7417 31.7687 13.8232 31.5808 13.9861 31.4246C14.1523 31.2683 14.3502 31.1902 14.5796 31.1902C14.809 31.1902 15.0052 31.2683 15.1681 31.4246C15.3344 31.5808 15.4175 31.7687 15.4175 31.9882C15.4175 32.2076 15.3344 32.3955 15.1681 32.5517C15.0052 32.708 14.809 32.7861 14.5796 32.7861Z" fill="#E2E2E2"/>
<path d="M23.5782 34.0629L20.7453 41.7237H19.5483L16.7155 34.0629H17.9923L20.1069 40.1676H20.1867L22.3014 34.0629H23.5782Z" fill="#E2E2E2"/>
<path d="M27.153 41.9032C26.6675 41.9032 26.227 41.8118 25.8313 41.6289C25.4356 41.4427 25.1214 41.1751 24.8887 40.8259C24.6559 40.4735 24.5395 40.0479 24.5395 39.5491C24.5395 39.1102 24.626 38.7545 24.7989 38.4818C24.9718 38.2059 25.2029 37.9897 25.4921 37.8335C25.7814 37.6772 26.1006 37.5608 26.4497 37.4843C26.8022 37.4045 27.1563 37.3414 27.5121 37.2948C27.9776 37.235 28.3549 37.1901 28.6442 37.1601C28.9368 37.1269 29.1496 37.072 29.2826 36.9956C29.4189 36.9191 29.4871 36.7861 29.4871 36.5966V36.5567C29.4871 36.0646 29.3524 35.6822 29.0831 35.4096C28.8171 35.1369 28.4131 35.0006 27.8712 35.0006C27.3092 35.0006 26.8687 35.1236 26.5495 35.3697C26.2303 35.6157 26.0058 35.8784 25.8762 36.1577L24.759 35.7587C24.9585 35.2932 25.2245 34.9308 25.557 34.6714C25.8928 34.4087 26.2585 34.2259 26.6542 34.1228C27.0532 34.0164 27.4456 33.9632 27.8313 33.9632C28.0773 33.9632 28.3599 33.9931 28.6791 34.053C29.0016 34.1095 29.3125 34.2275 29.6118 34.4071C29.9143 34.5866 30.1654 34.8576 30.3649 35.22C30.5644 35.5824 30.6641 36.0679 30.6641 36.6764V41.7237H29.4871V40.6863H29.4272C29.3474 40.8525 29.2144 41.0304 29.0282 41.2199C28.842 41.4095 28.5943 41.5707 28.2851 41.7037C27.9759 41.8367 27.5985 41.9032 27.153 41.9032ZM27.3325 40.8459C27.798 40.8459 28.1904 40.7544 28.5096 40.5716C28.8321 40.3887 29.0748 40.1526 29.2377 39.8634C29.404 39.5741 29.4871 39.2698 29.4871 38.9506V37.8734C29.4372 37.9332 29.3275 37.9881 29.1579 38.0379C28.9917 38.0845 28.7988 38.1261 28.5794 38.1626C28.3633 38.1959 28.1521 38.2258 27.946 38.2524C27.7431 38.2757 27.5786 38.2956 27.4522 38.3123C27.1463 38.3522 26.8604 38.417 26.5944 38.5068C26.3317 38.5932 26.1189 38.7245 25.956 38.9008C25.7964 39.0737 25.7166 39.3097 25.7166 39.609C25.7166 40.018 25.8679 40.3272 26.1704 40.5367C26.4763 40.7428 26.8637 40.8459 27.3325 40.8459Z" fill="#E2E2E2"/>
<path d="M35.9246 41.8833C35.2065 41.8833 34.588 41.7137 34.0693 41.3746C33.5506 41.0354 33.1516 40.5682 32.8723 39.9731C32.593 39.3779 32.4534 38.6979 32.4534 37.9332C32.4534 37.1552 32.5964 36.4686 32.8823 35.8734C33.1716 35.2749 33.5739 34.8077 34.0893 34.4719C34.608 34.1328 35.2131 33.9632 35.9047 33.9632C36.4433 33.9632 36.9288 34.0629 37.361 34.2624C37.7933 34.4619 38.1474 34.7412 38.4234 35.1003C38.6993 35.4594 38.8706 35.8784 38.9371 36.3572H37.76C37.6703 36.008 37.4708 35.6988 37.1615 35.4295C36.8556 35.1569 36.4433 35.0205 35.9246 35.0205C35.4658 35.0205 35.0635 35.1402 34.7177 35.3796C34.3752 35.6157 34.1076 35.9499 33.9147 36.3821C33.7252 36.811 33.6304 37.3148 33.6304 37.8933C33.6304 38.4851 33.7235 39.0005 33.9097 39.4394C34.0992 39.8783 34.3652 40.2191 34.7077 40.4618C35.0535 40.7046 35.4592 40.8259 35.9246 40.8259C36.2305 40.8259 36.5082 40.7727 36.7576 40.6663C37.0069 40.5599 37.2181 40.407 37.391 40.2075C37.5639 40.008 37.6869 39.7686 37.76 39.4893H38.9371C38.8706 39.9415 38.706 40.3488 38.4433 40.7112C38.184 41.0703 37.8398 41.3563 37.4109 41.5691C36.9853 41.7785 36.4899 41.8833 35.9246 41.8833Z" fill="#E2E2E2"/>
<path d="M41.4158 44.5964C41.2163 44.5964 41.0385 44.5798 40.8822 44.5466C40.7259 44.5166 40.6178 44.4867 40.558 44.4568L40.8572 43.4194C41.1432 43.4926 41.3959 43.5192 41.6153 43.4992C41.8348 43.4793 42.0293 43.3812 42.1989 43.2049C42.3718 43.032 42.5297 42.7511 42.6727 42.3621L42.8921 41.7636L40.0593 34.0629H41.336L43.4507 40.1676H43.5305L45.6452 34.0629H46.922L43.6702 42.8409C43.5239 43.2365 43.3427 43.564 43.1265 43.8234C42.9104 44.0861 42.6594 44.2806 42.3734 44.4069C42.0908 44.5333 41.7716 44.5964 41.4158 44.5964Z" fill="#E2E2E2"/>
<path d="M52.5853 41.7237V31.5094H56.0366C56.8379 31.5094 57.4929 31.654 58.0016 31.9433C58.5137 32.2292 58.8927 32.6166 59.1388 33.1053C59.3848 33.5941 59.5078 34.1394 59.5078 34.7412C59.5078 35.3431 59.3848 35.89 59.1388 36.3821C58.896 36.8742 58.5203 37.2665 58.0116 37.5591C57.5029 37.8484 56.8512 37.9931 56.0565 37.9931H53.5827V36.8958H56.0166C56.5652 36.8958 57.0058 36.8011 57.3383 36.6115C57.6708 36.422 57.9119 36.166 58.0615 35.8435C58.2144 35.5176 58.2909 35.1502 58.2909 34.7412C58.2909 34.3323 58.2144 33.9665 58.0615 33.644C57.9119 33.3215 57.6691 33.0688 57.3333 32.8859C56.9975 32.6997 56.5519 32.6066 55.9967 32.6066H53.8221V41.7237H52.5853Z" fill="#E2E2E2"/>
<path d="M64.3706 41.8833C63.679 41.8833 63.0722 41.7187 62.5502 41.3895C62.0315 41.0603 61.6258 40.5998 61.3332 40.008C61.044 39.4161 60.8993 38.7245 60.8993 37.9332C60.8993 37.1352 61.044 36.4386 61.3332 35.8435C61.6258 35.2483 62.0315 34.7861 62.5502 34.4569C63.0722 34.1278 63.679 33.9632 64.3706 33.9632C65.0622 33.9632 65.6673 34.1278 66.186 34.4569C66.7081 34.7861 67.1137 35.2483 67.403 35.8435C67.6956 36.4386 67.8419 37.1352 67.8419 37.9332C67.8419 38.7245 67.6956 39.4161 67.403 40.008C67.1137 40.5998 66.7081 41.0603 66.186 41.3895C65.6673 41.7187 65.0622 41.8833 64.3706 41.8833ZM64.3706 40.8259C64.896 40.8259 65.3282 40.6913 65.6673 40.4219C66.0065 40.1526 66.2575 39.7985 66.4205 39.3596C66.5834 38.9207 66.6648 38.4453 66.6648 37.9332C66.6648 37.4212 66.5834 36.944 66.4205 36.5018C66.2575 36.0596 66.0065 35.7021 65.6673 35.4295C65.3282 35.1569 64.896 35.0205 64.3706 35.0205C63.8453 35.0205 63.413 35.1569 63.0739 35.4295C62.7347 35.7021 62.4837 36.0596 62.3208 36.5018C62.1578 36.944 62.0764 37.4212 62.0764 37.9332C62.0764 38.4453 62.1578 38.9207 62.3208 39.3596C62.4837 39.7985 62.7347 40.1526 63.0739 40.4219C63.413 40.6913 63.8453 40.8259 64.3706 40.8259Z" fill="#E2E2E2"/>
<path d="M70.8157 31.5094V41.7237H69.6386V31.5094H70.8157Z" fill="#E2E2E2"/>
<path d="M72.9715 41.7237V34.0629H74.1485V41.7237H72.9715ZM73.57 32.7861C73.3406 32.7861 73.1427 32.708 72.9765 32.5517C72.8135 32.3955 72.7321 32.2076 72.7321 31.9882C72.7321 31.7687 72.8135 31.5808 72.9765 31.4246C73.1427 31.2683 73.3406 31.1902 73.57 31.1902C73.7994 31.1902 73.9956 31.2683 74.1585 31.4246C74.3247 31.5808 74.4079 31.7687 74.4079 31.9882C74.4079 32.2076 74.3247 32.3955 74.1585 32.5517C73.9956 32.708 73.7994 32.7861 73.57 32.7861Z" fill="#E2E2E2"/>
<path d="M79.4165 41.8833C78.6983 41.8833 78.0799 41.7137 77.5612 41.3746C77.0425 41.0354 76.6435 40.5682 76.3642 39.9731C76.0849 39.3779 75.9453 38.6979 75.9453 37.9332C75.9453 37.1552 76.0882 36.4686 76.3742 35.8734C76.6634 35.2749 77.0658 34.8077 77.5811 34.4719C78.0998 34.1328 78.705 33.9632 79.3966 33.9632C79.9352 33.9632 80.4207 34.0629 80.8529 34.2624C81.2852 34.4619 81.6393 34.7412 81.9152 35.1003C82.1912 35.4594 82.3624 35.8784 82.4289 36.3572H81.2519C81.1621 36.008 80.9626 35.6988 80.6534 35.4295C80.3475 35.1569 79.9352 35.0205 79.4165 35.0205C78.9577 35.0205 78.5554 35.1402 78.2096 35.3796C77.8671 35.6157 77.5994 35.9499 77.4066 36.3821C77.2171 36.811 77.1223 37.3148 77.1223 37.8933C77.1223 38.4851 77.2154 39.0005 77.4016 39.4394C77.5911 39.8783 77.8571 40.2191 78.1996 40.4618C78.5454 40.7046 78.951 40.8259 79.4165 40.8259C79.7224 40.8259 80.0001 40.7727 80.2494 40.6663C80.4988 40.5599 80.7099 40.407 80.8828 40.2075C81.0557 40.008 81.1788 39.7686 81.2519 39.4893H82.4289C82.3624 39.9415 82.1979 40.3488 81.9352 40.7112C81.6758 41.0703 81.3317 41.3563 80.9028 41.5691C80.4772 41.7785 79.9818 41.8833 79.4165 41.8833Z" fill="#E2E2E2"/>
<path d="M84.9077 44.5964C84.7082 44.5964 84.5303 44.5798 84.3741 44.5466C84.2178 44.5166 84.1097 44.4867 84.0499 44.4568L84.3491 43.4194C84.6351 43.4926 84.8878 43.5192 85.1072 43.4992C85.3267 43.4793 85.5212 43.3812 85.6907 43.2049C85.8636 43.032 86.0216 42.7511 86.1646 42.3621L86.384 41.7636L83.5511 34.0629H84.8279L86.9426 40.1676H87.0224L89.1371 34.0629H90.4139L87.162 42.8409C87.0157 43.2365 86.8345 43.564 86.6184 43.8234C86.4023 44.0861 86.1512 44.2806 85.8653 44.4069C85.5827 44.5333 85.2635 44.5964 84.9077 44.5964Z" fill="#E2E2E2"/>
<path d="M8.00273 63.9079H6.85419C6.78627 63.5775 6.6674 63.2873 6.49759 63.0372C6.33086 62.7871 6.12709 62.5772 5.88627 62.4074C5.64853 62.2345 5.38455 62.1048 5.09433 62.0184C4.80411 61.9319 4.50154 61.8887 4.18661 61.8887C3.61234 61.8887 3.0921 62.0338 2.6259 62.324C2.16278 62.6142 1.79382 63.0419 1.51904 63.6069C1.24734 64.1719 1.11149 64.865 1.11149 65.6863C1.11149 66.5075 1.24734 67.2007 1.51904 67.7657C1.79382 68.3307 2.16278 68.7583 2.6259 69.0485C3.0921 69.3388 3.61234 69.4839 4.18661 69.4839C4.50154 69.4839 4.80411 69.4406 5.09433 69.3542C5.38455 69.2677 5.64853 69.1396 5.88627 68.9698C6.12709 68.7969 6.33086 68.5854 6.49759 68.3353C6.6674 68.0822 6.78627 67.7919 6.85419 67.4647H8.00273C7.91628 67.9494 7.75882 68.3832 7.53035 68.766C7.30187 69.1489 7.01783 69.4746 6.6782 69.7432C6.33858 70.0087 5.95728 70.211 5.5343 70.3499C5.1144 70.4888 4.66517 70.5583 4.18661 70.5583C3.3777 70.5583 2.65831 70.3607 2.02847 69.9655C1.39863 69.5703 0.903086 69.0084 0.541852 68.2798C0.180617 67.5511 0 66.6866 0 65.6863C0 64.6859 0.180617 63.8214 0.541852 63.0928C0.903086 62.3642 1.39863 61.8022 2.02847 61.407C2.65831 61.0118 3.3777 60.8142 4.18661 60.8142C4.66517 60.8142 5.1144 60.8837 5.5343 61.0226C5.95728 61.1616 6.33858 61.3654 6.6782 61.634C7.01783 61.8995 7.30187 62.2237 7.53035 62.6065C7.75882 62.9863 7.91628 63.4201 8.00273 63.9079Z" fill="#E2E2E2"/>
<path d="M12.6004 70.5768C11.9582 70.5768 11.3947 70.424 10.91 70.1183C10.4283 69.8127 10.0517 69.3851 9.77996 68.8355C9.51135 68.2859 9.37704 67.6437 9.37704 66.9089C9.37704 66.1679 9.51135 65.5211 9.77996 64.9684C10.0517 64.4158 10.4283 63.9866 10.91 63.681C11.3947 63.3753 11.9582 63.2225 12.6004 63.2225C13.2426 63.2225 13.8045 63.3753 14.2861 63.681C14.7709 63.9866 15.1475 64.4158 15.4161 64.9684C15.6878 65.5211 15.8237 66.1679 15.8237 66.9089C15.8237 67.6437 15.6878 68.2859 15.4161 68.8355C15.1475 69.3851 14.7709 69.8127 14.2861 70.1183C13.8045 70.424 13.2426 70.5768 12.6004 70.5768ZM12.6004 69.595C13.0882 69.595 13.4896 69.47 13.8045 69.2199C14.1194 68.9698 14.3525 68.641 14.5038 68.2334C14.6551 67.8259 14.7307 67.3844 14.7307 66.9089C14.7307 66.4334 14.6551 65.9904 14.5038 65.5798C14.3525 65.1691 14.1194 64.8372 13.8045 64.584C13.4896 64.3309 13.0882 64.2043 12.6004 64.2043C12.1125 64.2043 11.7112 64.3309 11.3963 64.584C11.0813 64.8372 10.8482 65.1691 10.6969 65.5798C10.5457 65.9904 10.47 66.4334 10.47 66.9089C10.47 67.3844 10.5457 67.8259 10.6969 68.2334C10.8482 68.641 11.0813 68.9698 11.3963 69.2199C11.7112 69.47 12.1125 69.595 12.6004 69.595Z" fill="#E2E2E2"/>
<path d="M20.382 70.5768C19.7398 70.5768 19.1763 70.424 18.6916 70.1183C18.2099 69.8127 17.8332 69.3851 17.5615 68.8355C17.2929 68.2859 17.1586 67.6437 17.1586 66.9089C17.1586 66.1679 17.2929 65.5211 17.5615 64.9684C17.8332 64.4158 18.2099 63.9866 18.6916 63.681C19.1763 63.3753 19.7398 63.2225 20.382 63.2225C21.0242 63.2225 21.5861 63.3753 22.0677 63.681C22.5524 63.9866 22.9291 64.4158 23.1977 64.9684C23.4694 65.5211 23.6053 66.1679 23.6053 66.9089C23.6053 67.6437 23.4694 68.2859 23.1977 68.8355C22.9291 69.3851 22.5524 69.8127 22.0677 70.1183C21.5861 70.424 21.0242 70.5768 20.382 70.5768ZM20.382 69.595C20.8698 69.595 21.2711 69.47 21.5861 69.2199C21.901 68.9698 22.1341 68.641 22.2854 68.2334C22.4367 67.8259 22.5123 67.3844 22.5123 66.9089C22.5123 66.4334 22.4367 65.9904 22.2854 65.5798C22.1341 65.1691 21.901 64.8372 21.5861 64.584C21.2711 64.3309 20.8698 64.2043 20.382 64.2043C19.8941 64.2043 19.4928 64.3309 19.1778 64.584C18.8629 64.8372 18.6298 65.1691 18.4785 65.5798C18.3272 65.9904 18.2516 66.4334 18.2516 66.9089C18.2516 67.3844 18.3272 67.8259 18.4785 68.2334C18.6298 68.641 18.8629 68.9698 19.1778 69.2199C19.4928 69.47 19.8941 69.595 20.382 69.595Z" fill="#E2E2E2"/>
<path d="M26.2925 67.8352L26.274 66.4828H26.4963L29.6085 63.3151H30.9608L27.6449 66.6681H27.5522L26.2925 67.8352ZM25.2737 70.4286V60.9439H26.3666V70.4286H25.2737ZM29.7937 70.4286L27.015 66.9089L27.793 66.1494L31.1831 70.4286H29.7937Z" fill="#E2E2E2"/>
<path d="M32.3675 70.4286V63.3151H33.4605V70.4286H32.3675ZM32.9233 62.1295C32.7102 62.1295 32.5265 62.057 32.3722 61.9118C32.2209 61.7667 32.1452 61.5923 32.1452 61.3885C32.1452 61.1847 32.2209 61.0103 32.3722 60.8652C32.5265 60.7201 32.7102 60.6475 32.9233 60.6475C33.1363 60.6475 33.3185 60.7201 33.4698 60.8652C33.6241 61.0103 33.7013 61.1847 33.7013 61.3885C33.7013 61.5923 33.6241 61.7667 33.4698 61.9118C33.3185 62.057 33.1363 62.1295 32.9233 62.1295Z" fill="#E2E2E2"/>
<path d="M38.4448 70.5768C37.7594 70.5768 37.1682 70.4255 36.6711 70.123C36.1771 69.8173 35.7958 69.3912 35.5272 68.8448C35.2616 68.2952 35.1289 67.6561 35.1289 66.9274C35.1289 66.1988 35.2616 65.5566 35.5272 65.0009C35.7958 64.442 36.1694 64.0067 36.6479 63.6949C37.1296 63.3799 37.6915 63.2225 38.3337 63.2225C38.7042 63.2225 39.07 63.2842 39.4313 63.4077C39.7925 63.5312 40.1213 63.7319 40.4177 64.0098C40.7141 64.2846 40.9503 64.6489 41.1263 65.1027C41.3023 65.5566 41.3903 66.1154 41.3903 66.7792V67.2424H35.9069V66.2976H40.2788C40.2788 65.8962 40.1985 65.5381 40.038 65.2232C39.8805 64.9082 39.6551 64.6597 39.3618 64.4775C39.0716 64.2954 38.7289 64.2043 38.3337 64.2043C37.8983 64.2043 37.5217 64.3123 37.2037 64.5285C36.8887 64.7415 36.6464 65.0194 36.4766 65.3621C36.3068 65.7048 36.2218 66.0722 36.2218 66.4643V67.0942C36.2218 67.6314 36.3145 68.0868 36.4997 68.4604C36.6881 68.8309 36.9489 69.1134 37.2824 69.3079C37.6158 69.4993 38.0033 69.595 38.4448 69.595C38.732 69.595 38.9913 69.5549 39.2229 69.4746C39.4575 69.3912 39.6598 69.2677 39.8296 69.1041C39.9994 68.9374 40.1306 68.7305 40.2232 68.4835L41.2791 68.7799C41.168 69.1381 40.9812 69.453 40.7188 69.7247C40.4563 69.9933 40.1321 70.2032 39.7462 70.3545C39.3603 70.5027 38.9265 70.5768 38.4448 70.5768Z" fill="#E2E2E2"/>
<path d="M46.869 70.4286V60.9439H50.0738C50.8179 60.9439 51.4261 61.0782 51.8985 61.3468C52.374 61.6124 52.7259 61.972 52.9544 62.4259C53.1829 62.8798 53.2971 63.3861 53.2971 63.9449C53.2971 64.5038 53.1829 65.0117 52.9544 65.4686C52.729 65.9256 52.3801 66.2899 51.9078 66.5616C51.4354 66.8302 50.8302 66.9645 50.0923 66.9645H47.7952V65.9456H50.0553C50.5647 65.9456 50.9738 65.8576 51.2825 65.6816C51.5913 65.5057 51.8151 65.2679 51.9541 64.9684C52.0961 64.6659 52.1671 64.3247 52.1671 63.9449C52.1671 63.5652 52.0961 63.2256 51.9541 62.9261C51.8151 62.6266 51.5897 62.3919 51.2779 62.2221C50.9661 62.0492 50.5524 61.9628 50.0367 61.9628H48.0175V70.4286H46.869Z" fill="#E2E2E2"/>
<path d="M57.8125 70.5768C57.1704 70.5768 56.6069 70.424 56.1222 70.1183C55.6405 69.8127 55.2638 69.3851 54.9921 68.8355C54.7235 68.2859 54.5892 67.6437 54.5892 66.9089C54.5892 66.1679 54.7235 65.5211 54.9921 64.9684C55.2638 64.4158 55.6405 63.9866 56.1222 63.681C56.6069 63.3753 57.1704 63.2225 57.8125 63.2225C58.4547 63.2225 59.0167 63.3753 59.4983 63.681C59.983 63.9866 60.3597 64.4158 60.6283 64.9684C60.9 65.5211 61.0359 66.1679 61.0359 66.9089C61.0359 67.6437 60.9 68.2859 60.6283 68.8355C60.3597 69.3851 59.983 69.8127 59.4983 70.1183C59.0167 70.424 58.4547 70.5768 57.8125 70.5768ZM57.8125 69.595C58.3004 69.595 58.7017 69.47 59.0167 69.2199C59.3316 68.9698 59.5647 68.641 59.716 68.2334C59.8673 67.8259 59.9429 67.3844 59.9429 66.9089C59.9429 66.4334 59.8673 65.9904 59.716 65.5798C59.5647 65.1691 59.3316 64.8372 59.0167 64.584C58.7017 64.3309 58.3004 64.2043 57.8125 64.2043C57.3247 64.2043 56.9234 64.3309 56.6084 64.584C56.2935 64.8372 56.0604 65.1691 55.9091 65.5798C55.7578 65.9904 55.6822 66.4334 55.6822 66.9089C55.6822 67.3844 55.7578 67.8259 55.9091 68.2334C56.0604 68.641 56.2935 68.9698 56.6084 69.2199C56.9234 69.47 57.3247 69.595 57.8125 69.595Z" fill="#E2E2E2"/>
<path d="M63.7972 60.9439V70.4286H62.7043V60.9439H63.7972Z" fill="#E2E2E2"/>
<path d="M65.7991 70.4286V63.3151H66.892V70.4286H65.7991ZM66.3548 62.1295C66.1418 62.1295 65.9581 62.057 65.8037 61.9118C65.6524 61.7667 65.5768 61.5923 65.5768 61.3885C65.5768 61.1847 65.6524 61.0103 65.8037 60.8652C65.9581 60.7201 66.1418 60.6475 66.3548 60.6475C66.5679 60.6475 66.75 60.7201 66.9013 60.8652C67.0557 61.0103 67.1329 61.1847 67.1329 61.3885C67.1329 61.5923 67.0557 61.7667 66.9013 61.9118C66.75 62.057 66.5679 62.1295 66.3548 62.1295Z" fill="#E2E2E2"/>
<path d="M71.7838 70.5768C71.1169 70.5768 70.5426 70.4194 70.0609 70.1044C69.5793 69.7895 69.2088 69.3557 68.9495 68.8031C68.6901 68.2504 68.5604 67.619 68.5604 66.9089C68.5604 66.1864 68.6932 65.5489 68.9587 64.9962C69.2273 64.4405 69.6009 64.0067 70.0795 63.6949C70.5611 63.3799 71.123 63.2225 71.7652 63.2225C72.2654 63.2225 72.7162 63.3151 73.1175 63.5003C73.5189 63.6856 73.8477 63.9449 74.104 64.2784C74.3603 64.6118 74.5193 65.0009 74.581 65.4455H73.488C73.4047 65.1213 73.2194 64.8341 72.9323 64.584C72.6482 64.3309 72.2654 64.2043 71.7838 64.2043C71.3577 64.2043 70.9841 64.3154 70.663 64.5377C70.345 64.7569 70.0965 65.0672 69.9174 65.4686C69.7414 65.8669 69.6534 66.3346 69.6534 66.8719C69.6534 67.4214 69.7399 67.9 69.9127 68.3075C70.0887 68.7151 70.3357 69.0316 70.6537 69.2569C70.9748 69.4823 71.3515 69.595 71.7838 69.595C72.0678 69.595 72.3256 69.5456 72.5572 69.4468C72.7887 69.348 72.9848 69.206 73.1453 69.0207C73.3059 68.8355 73.4201 68.6132 73.488 68.3539H74.581C74.5193 68.7737 74.3664 69.152 74.1225 69.4885C73.8817 69.8219 73.5621 70.0875 73.1639 70.2851C72.7687 70.4796 72.3086 70.5768 71.7838 70.5768Z" fill="#E2E2E2"/>
<path d="M76.8827 73.0962C76.6975 73.0962 76.5323 73.0808 76.3872 73.0499C76.2421 73.0221 76.1417 72.9943 76.0862 72.9665L76.364 72.0032C76.6295 72.0712 76.8642 72.0959 77.068 72.0773C77.2717 72.0588 77.4524 71.9677 77.6098 71.8041C77.7704 71.6436 77.917 71.3827 78.0498 71.0214L78.2536 70.4657L75.623 63.3151H76.8086L78.7723 68.9837H78.8463L80.81 63.3151H81.9956L78.976 71.466C78.8402 71.8334 78.6719 72.1376 78.4712 72.3784C78.2705 72.6223 78.0374 72.8029 77.7719 72.9202C77.5095 73.0375 77.2131 73.0962 76.8827 73.0962Z" fill="#E2E2E2"/>
<path d="M0 90.7233V89.626H7.66073V90.7233H4.44881V99.8403H3.21192V90.7233H0Z" fill="#E2E2E2"/>
<path d="M11.5111 99.9999C10.7729 99.9999 10.1362 99.837 9.60085 99.5112C9.06886 99.182 8.65823 98.7232 8.36895 98.1346C8.08301 97.5428 7.94003 96.8545 7.94003 96.0698C7.94003 95.2851 8.08301 94.5935 8.36895 93.995C8.65823 93.3932 9.06055 92.9244 9.57592 92.5886C10.0946 92.2494 10.6998 92.0799 11.3914 92.0799C11.7903 92.0799 12.1844 92.1464 12.5734 92.2794C12.9624 92.4124 13.3165 92.6285 13.6357 92.9277C13.9549 93.2237 14.2093 93.616 14.3988 94.1048C14.5883 94.5935 14.6831 95.1954 14.6831 95.9102V96.409H8.77792V95.3915H13.4861C13.4861 94.9593 13.3996 94.5736 13.2267 94.2344C13.0572 93.8953 12.8144 93.6276 12.4986 93.4315C12.186 93.2353 11.8169 93.1372 11.3914 93.1372C10.9225 93.1372 10.5169 93.2536 10.1744 93.4863C9.83527 93.7157 9.57426 94.015 9.39138 94.3841C9.20851 94.7531 9.11707 95.1488 9.11707 95.5711V96.2494C9.11707 96.8279 9.21682 97.3184 9.41632 97.7207C9.61914 98.1197 9.9001 98.4239 10.2592 98.6334C10.6183 98.8395 11.0356 98.9426 11.5111 98.9426C11.8203 98.9426 12.0996 98.8994 12.3489 98.8129C12.6016 98.7232 12.8194 98.5902 13.0023 98.4139C13.1852 98.2344 13.3265 98.0116 13.4262 97.7456L14.5634 98.0648C14.4437 98.4505 14.2425 98.7897 13.9599 99.0823C13.6773 99.3715 13.3281 99.5976 12.9125 99.7605C12.4969 99.9201 12.0297 99.9999 11.5111 99.9999Z" fill="#E2E2E2"/>
<path d="M16.4736 99.8403V92.1796H17.6107V93.3367H17.6905C17.8302 92.9577 18.0829 92.6501 18.4486 92.414C18.8144 92.1779 19.2266 92.0599 19.6855 92.0599C19.7719 92.0599 19.88 92.0616 20.0097 92.0649C20.1394 92.0682 20.2374 92.0732 20.3039 92.0799V93.2769C20.264 93.2669 20.1726 93.2519 20.0296 93.232C19.89 93.2087 19.742 93.1971 19.5857 93.1971C19.2133 93.1971 18.8808 93.2752 18.5883 93.4315C18.299 93.5844 18.0696 93.7972 17.9 94.0699C17.7337 94.3392 17.6506 94.6467 17.6506 94.9925V99.8403H16.4736Z" fill="#E2E2E2"/>
<path d="M21.6992 99.8403V92.1796H22.8363V93.3766H22.9361C23.0957 92.9676 23.3534 92.6501 23.7091 92.424C24.0649 92.1946 24.4922 92.0799 24.9909 92.0799C25.4963 92.0799 25.9169 92.1946 26.2527 92.424C26.5919 92.6501 26.8562 92.9676 27.0457 93.3766H27.1255C27.3217 92.9809 27.616 92.6667 28.0083 92.434C28.4007 92.1979 28.8711 92.0799 29.4198 92.0799C30.1047 92.0799 30.665 92.2943 31.1005 92.7232C31.5361 93.1488 31.7539 93.8122 31.7539 94.7132V99.8403H30.5769V94.7132C30.5769 94.148 30.4222 93.744 30.113 93.5013C29.8038 93.2586 29.4397 93.1372 29.0208 93.1372C28.4821 93.1372 28.0648 93.3001 27.7689 93.626C27.473 93.9485 27.325 94.3575 27.325 94.8529V99.8403H26.128V94.5935C26.128 94.158 25.9867 93.8072 25.7041 93.5412C25.4215 93.2719 25.0574 93.1372 24.6119 93.1372C24.306 93.1372 24.02 93.2187 23.754 93.3816C23.4913 93.5445 23.2785 93.7706 23.1156 94.0599C22.956 94.3458 22.8762 94.6767 22.8762 95.0524V99.8403H21.6992Z" fill="#E2E2E2"/>
<path d="M39.3323 93.8953L38.275 94.1945C38.2085 94.0183 38.1104 93.8471 37.9807 93.6808C37.8544 93.5113 37.6815 93.3716 37.462 93.2619C37.2426 93.1522 36.9616 93.0973 36.6192 93.0973C36.1503 93.0973 35.7596 93.2054 35.4471 93.4215C35.1379 93.6343 34.9833 93.9053 34.9833 94.2344C34.9833 94.527 35.0897 94.7581 35.3025 94.9277C35.5153 95.0973 35.8478 95.2386 36.3 95.3516L37.4371 95.6309C38.122 95.7972 38.6324 96.0515 38.9682 96.394C39.3041 96.7332 39.472 97.1704 39.472 97.7057C39.472 98.1446 39.3456 98.537 39.0929 98.8828C38.8436 99.2286 38.4944 99.5012 38.0456 99.7007C37.5967 99.9002 37.0747 99.9999 36.4795 99.9999C35.6981 99.9999 35.0514 99.8304 34.5394 99.4912C34.0273 99.1521 33.7032 98.6567 33.5668 98.005L34.684 97.7257C34.7904 98.138 34.9916 98.4472 35.2875 98.6533C35.5867 98.8595 35.9774 98.9626 36.4596 98.9626C37.0082 98.9626 37.4437 98.8462 37.7663 98.6134C38.0921 98.3774 38.255 98.0947 38.255 97.7656C38.255 97.4996 38.1619 97.2768 37.9757 97.0972C37.7895 96.9144 37.5036 96.778 37.1179 96.6883L35.8411 96.389C35.1395 96.2228 34.6242 95.9651 34.295 95.616C33.9692 95.2635 33.8062 94.823 33.8062 94.2943C33.8062 93.862 33.9276 93.4797 34.1703 93.1472C34.4164 92.8147 34.7505 92.5537 35.1728 92.3641C35.5984 92.1746 36.0805 92.0799 36.6192 92.0799C37.3772 92.0799 37.9724 92.2461 38.4047 92.5786C38.8402 92.9111 39.1495 93.35 39.3323 93.8953Z" fill="#E2E2E2"/>
<path d="M48.306 99.9999C47.6144 99.9999 47.0076 99.8354 46.4856 99.5062C45.9669 99.177 45.5613 98.7165 45.2687 98.1247C44.9794 97.5328 44.8347 96.8412 44.8347 96.0499C44.8347 95.2519 44.9794 94.5553 45.2687 93.9601C45.5613 93.365 45.9669 92.9028 46.4856 92.5736C47.0076 92.2445 47.6144 92.0799 48.306 92.0799C48.9976 92.0799 49.6028 92.2445 50.1214 92.5736C50.6435 92.9028 51.0491 93.365 51.3384 93.9601C51.631 94.5553 51.7773 95.2519 51.7773 96.0499C51.7773 96.8412 51.631 97.5328 51.3384 98.1247C51.0491 98.7165 50.6435 99.177 50.1214 99.5062C49.6028 99.8354 48.9976 99.9999 48.306 99.9999ZM48.306 98.9426C48.8314 98.9426 49.2636 98.8079 49.6028 98.5386C49.9419 98.2693 50.1929 97.9152 50.3559 97.4763C50.5188 97.0374 50.6002 96.5619 50.6002 96.0499C50.6002 95.5378 50.5188 95.0607 50.3559 94.6185C50.1929 94.1763 49.9419 93.8188 49.6028 93.5462C49.2636 93.2735 48.8314 93.1372 48.306 93.1372C47.7807 93.1372 47.3484 93.2735 47.0093 93.5462C46.6701 93.8188 46.4191 94.1763 46.2562 94.6185C46.0932 95.0607 46.0118 95.5378 46.0118 96.0499C46.0118 96.5619 46.0932 97.0374 46.2562 97.4763C46.4191 97.9152 46.6701 98.2693 47.0093 98.5386C47.3484 98.8079 47.7807 98.9426 48.306 98.9426Z" fill="#E2E2E2"/>
<path d="M56.9854 92.1796V93.1771H52.8558V92.1796H56.9854ZM54.0927 99.8403V91.1223C54.0927 90.6834 54.1958 90.3176 54.4019 90.025C54.6081 89.7324 54.8757 89.513 55.2049 89.3667C55.5341 89.2204 55.8815 89.1472 56.2473 89.1472C56.5366 89.1472 56.7726 89.1705 56.9555 89.2171C57.1384 89.2636 57.2747 89.3068 57.3645 89.3467L57.0253 90.3642C56.9655 90.3442 56.8824 90.3193 56.776 90.2894C56.6729 90.2594 56.5366 90.2445 56.367 90.2445C55.978 90.2445 55.697 90.3426 55.5241 90.5387C55.3545 90.7349 55.2698 91.0225 55.2698 91.4016V99.8403H54.0927Z" fill="#E2E2E2"/>
<path d="M67.413 96.7082V92.1796H68.59V99.8403H67.413V98.5436H67.3332C67.1536 98.9326 66.8743 99.2635 66.4953 99.5361C66.1162 99.8054 65.6374 99.9401 65.0589 99.9401C64.5801 99.9401 64.1545 99.8354 63.7821 99.6259C63.4097 99.4131 63.1171 99.0939 62.9043 98.6683C62.6915 98.2394 62.5851 97.6991 62.5851 97.0474V92.1796H63.7621V96.9676C63.7621 97.5262 63.9184 97.9717 64.231 98.3042C64.5468 98.6367 64.9492 98.803 65.4379 98.803C65.7305 98.803 66.0281 98.7281 66.3307 98.5785C66.6366 98.4289 66.8926 98.1995 67.0987 97.8902C67.3082 97.581 67.413 97.187 67.413 96.7082Z" fill="#E2E2E2"/>
<path d="M76.1722 93.8953L75.1148 94.1945C75.0483 94.0183 74.9503 93.8471 74.8206 93.6808C74.6942 93.5113 74.5213 93.3716 74.3019 93.2619C74.0824 93.1522 73.8015 93.0973 73.459 93.0973C72.9902 93.0973 72.5995 93.2054 72.2869 93.4215C71.9777 93.6343 71.8231 93.9053 71.8231 94.2344C71.8231 94.527 71.9295 94.7581 72.1423 94.9277C72.3551 95.0973 72.6876 95.2386 73.1398 95.3516L74.2769 95.6309C74.9619 95.7972 75.4723 96.0515 75.8081 96.394C76.1439 96.7332 76.3118 97.1704 76.3118 97.7057C76.3118 98.1446 76.1855 98.537 75.9328 98.8828C75.6834 99.2286 75.3343 99.5012 74.8854 99.7007C74.4365 99.9002 73.9145 99.9999 73.3194 99.9999C72.538 99.9999 71.8913 99.8304 71.3792 99.4912C70.8672 99.1521 70.543 98.6567 70.4067 98.005L71.5239 97.7257C71.6303 98.138 71.8314 98.4472 72.1274 98.6533C72.4266 98.8595 72.8173 98.9626 73.2994 98.9626C73.848 98.9626 74.2836 98.8462 74.6061 98.6134C74.932 98.3774 75.0949 98.0947 75.0949 97.7656C75.0949 97.4996 75.0018 97.2768 74.8156 97.0972C74.6294 96.9144 74.3434 96.778 73.9577 96.6883L72.681 96.389C71.9794 96.2228 71.464 95.9651 71.1348 95.616C70.809 95.2635 70.6461 94.823 70.6461 94.2943C70.6461 93.862 70.7674 93.4797 71.0102 93.1472C71.2562 92.8147 71.5904 92.5537 72.0126 92.3641C72.4382 92.1746 72.9204 92.0799 73.459 92.0799C74.2171 92.0799 74.8123 92.2461 75.2445 92.5786C75.6801 92.9111 75.9893 93.35 76.1722 93.8953Z" fill="#E2E2E2"/>
<path d="M81.2955 99.9999C80.5574 99.9999 79.9207 99.837 79.3853 99.5112C78.8534 99.182 78.4427 98.7232 78.1534 98.1346C77.8675 97.5428 77.7245 96.8545 77.7245 96.0698C77.7245 95.2851 77.8675 94.5935 78.1534 93.995C78.4427 93.3932 78.845 92.9244 79.3604 92.5886C79.8791 92.2494 80.4843 92.0799 81.1758 92.0799C81.5748 92.0799 81.9688 92.1464 82.3579 92.2794C82.7469 92.4124 83.101 92.6285 83.4202 92.9277C83.7394 93.2237 83.9938 93.616 84.1833 94.1048C84.3728 94.5935 84.4676 95.1954 84.4676 95.9102V96.409H78.5624V95.3915H83.2706C83.2706 94.9593 83.1841 94.5736 83.0112 94.2344C82.8416 93.8953 82.5989 93.6276 82.2831 93.4315C81.9705 93.2353 81.6014 93.1372 81.1758 93.1372C80.707 93.1372 80.3014 93.2536 79.9589 93.4863C79.6198 93.7157 79.3587 94.015 79.1759 94.3841C78.993 94.7531 78.9016 95.1488 78.9016 95.5711V96.2494C78.9016 96.8279 79.0013 97.3184 79.2008 97.7207C79.4036 98.1197 79.6846 98.4239 80.0437 98.6334C80.4028 98.8395 80.8201 98.9426 81.2955 98.9426C81.6048 98.9426 81.8841 98.8994 82.1334 98.8129C82.3861 98.7232 82.6039 98.5902 82.7868 98.4139C82.9697 98.2344 83.111 98.0116 83.2107 97.7456L84.3479 98.0648C84.2282 98.4505 84.027 98.7897 83.7444 99.0823C83.4618 99.3715 83.1126 99.5976 82.697 99.7605C82.2814 99.9201 81.8142 99.9999 81.2955 99.9999Z" fill="#E2E2E2"/>
</svg>
