<svg width="477" height="16" viewBox="0 0 477 16" fill="none" xmlns="http://www.w3.org/2000/svg">
<path d="M5.25258 11.7222C4.20634 11.7222 3.2882 11.482 2.49818 11.0016C1.70816 10.5105 1.09429 9.83258 0.656573 8.96782C0.218858 8.09239 0 7.08351 0 5.94118C0 4.79885 0.218858 3.78997 0.656573 2.91454C1.10496 2.03911 1.73485 1.35585 2.54622 0.864755C3.36827 0.373659 4.33445 0.128112 5.44475 0.128112C6.70451 0.128112 7.75076 0.432377 8.58349 1.04091C9.42689 1.64944 9.97136 2.4875 10.2169 3.5551H8.66356C8.51409 2.88251 8.15645 2.34871 7.59062 1.9537C7.03547 1.55869 6.32018 1.36119 5.44475 1.36119C4.6227 1.36119 3.90741 1.54802 3.29888 1.92168C2.69035 2.28466 2.21527 2.80778 1.87363 3.49104C1.54268 4.17431 1.3772 4.99102 1.3772 5.94118C1.3772 6.89134 1.54268 7.70806 1.87363 8.39132C2.20459 9.07458 2.66366 9.60304 3.25084 9.9767C3.83801 10.3397 4.52128 10.5212 5.30062 10.5212C6.49633 10.5212 7.39845 10.1742 8.00698 9.48027C8.61551 8.77565 8.96248 7.81481 9.04789 6.59775H5.81307V5.54083H10.4251V11.5301H9.19202L9.07992 9.68845C8.67423 10.3397 8.1778 10.8415 7.59062 11.1938C7.00344 11.5461 6.2241 11.7222 5.25258 11.7222Z" fill="white"/>
<path d="M16.3636 11.7222C15.6057 11.7222 14.9331 11.5514 14.3459 11.2098C13.7587 10.8575 13.2943 10.3717 12.9527 9.75251C12.6217 9.1333 12.4562 8.40199 12.4562 7.55859C12.4562 6.72587 12.6217 5.9999 12.9527 5.38069C13.2836 4.75081 13.7427 4.26505 14.3299 3.92342C14.9277 3.57111 15.6163 3.39496 16.3957 3.39496C17.1643 3.39496 17.8263 3.57111 18.3814 3.92342C18.9472 4.26505 19.3796 4.71878 19.6785 5.28461C19.9775 5.85044 20.1269 6.45897 20.1269 7.1102C20.1269 7.22764 20.1216 7.34507 20.1109 7.46251C20.1109 7.57995 20.1109 7.71339 20.1109 7.86286H13.7854C13.8174 8.47139 13.9562 8.9785 14.2018 9.38418C14.458 9.7792 14.7729 10.0781 15.1466 10.281C15.5309 10.4838 15.9366 10.5852 16.3636 10.5852C16.9188 10.5852 17.3832 10.4571 17.7569 10.2009C18.1305 9.94467 18.4028 9.5977 18.5736 9.15999H19.9027C19.6892 9.89663 19.2782 10.5105 18.6697 11.0016C18.0718 11.482 17.3031 11.7222 16.3636 11.7222ZM16.3636 4.53195C15.7231 4.53195 15.1519 4.72946 14.6502 5.12447C14.1591 5.50881 13.8761 6.07463 13.8014 6.82195H18.7978C18.7657 6.10666 18.5202 5.54617 18.0611 5.14048C17.6021 4.7348 17.0362 4.53195 16.3636 4.53195Z" fill="white"/>
<path d="M25.103 11.5301C24.377 11.5301 23.8059 11.3539 23.3895 11.0016C22.9732 10.6493 22.765 10.0141 22.765 9.09593V4.72412H21.3878V3.58713H22.765L22.9411 1.68147H24.1102V3.58713H26.4482V4.72412H24.1102V9.09593C24.1102 9.59771 24.2116 9.93933 24.4144 10.1208C24.6173 10.2916 24.9749 10.3771 25.4874 10.3771H26.3201V11.5301H25.103Z" fill="white"/>
<path d="M36.1746 11.5301C35.4486 11.5301 34.8774 11.3539 34.4611 11.0016C34.0447 10.6493 33.8365 10.0141 33.8365 9.09593V4.72412H32.4593V3.58713H33.8365L34.0127 1.68147H35.1817V3.58713H37.5197V4.72412H35.1817V9.09593C35.1817 9.59771 35.2831 9.93933 35.486 10.1208C35.6888 10.2916 36.0464 10.3771 36.5589 10.3771H37.3916V11.5301H36.1746Z" fill="white"/>
<path d="M39.549 11.5301V0H40.8942V4.94832C41.1611 4.45722 41.5401 4.07822 42.0312 3.81132C42.5223 3.53375 43.056 3.39496 43.6326 3.39496C44.5507 3.39496 45.2873 3.68321 45.8425 4.25972C46.3976 4.82554 46.6752 5.70097 46.6752 6.88601V11.5301H45.346V7.03013C45.346 5.37536 44.6788 4.54797 43.3443 4.54797C42.6504 4.54797 42.0685 4.79885 41.5988 5.30062C41.129 5.79172 40.8942 6.49633 40.8942 7.41447V11.5301H39.549Z" fill="white"/>
<path d="M52.6046 11.7222C51.8466 11.7222 51.174 11.5514 50.5869 11.2098C49.9997 10.8575 49.5353 10.3717 49.1937 9.75251C48.8627 9.1333 48.6972 8.40199 48.6972 7.55859C48.6972 6.72587 48.8627 5.9999 49.1937 5.38069C49.5246 4.75081 49.9837 4.26505 50.5709 3.92342C51.1687 3.57111 51.8573 3.39496 52.6367 3.39496C53.4053 3.39496 54.0672 3.57111 54.6224 3.92342C55.1882 4.26505 55.6206 4.71878 55.9195 5.28461C56.2184 5.85044 56.3679 6.45897 56.3679 7.1102C56.3679 7.22764 56.3626 7.34507 56.3519 7.46251C56.3519 7.57995 56.3519 7.71339 56.3519 7.86286H50.0264C50.0584 8.47139 50.1972 8.9785 50.4427 9.38418C50.699 9.7792 51.0139 10.0781 51.3876 10.281C51.7719 10.4838 52.1776 10.5852 52.6046 10.5852C53.1598 10.5852 53.6242 10.4571 53.9978 10.2009C54.3715 9.94467 54.6437 9.5977 54.8146 9.15999H56.1437C55.9302 9.89663 55.5192 10.5105 54.9106 11.0016C54.3128 11.482 53.5441 11.7222 52.6046 11.7222ZM52.6046 4.53195C51.9641 4.53195 51.3929 4.72946 50.8911 5.12447C50.4 5.50881 50.1171 6.07463 50.0424 6.82195H55.0388C55.0067 6.10666 54.7612 5.54617 54.3021 5.14048C53.843 4.7348 53.2772 4.53195 52.6046 4.53195Z" fill="white"/>
<path d="M63.0295 11.5301V0H64.3746V11.5301H63.0295Z" fill="white"/>
<path d="M69.542 11.7222C68.8801 11.7222 68.3303 11.6101 67.8926 11.3859C67.4549 11.1617 67.1293 10.8628 66.9157 10.4891C66.7022 10.1155 66.5955 9.7098 66.5955 9.27209C66.5955 8.46071 66.9051 7.83617 67.5243 7.39845C68.1435 6.96074 68.9869 6.74188 70.0545 6.74188H72.2003V6.6458C72.2003 5.95186 72.0189 5.42874 71.6559 5.07643C71.2929 4.71344 70.8071 4.53195 70.1986 4.53195C69.6755 4.53195 69.2217 4.6654 68.8374 4.9323C68.4637 5.18852 68.2289 5.56752 68.1328 6.06929H66.7556C66.809 5.49279 67.0011 5.00703 67.3321 4.61202C67.6737 4.21701 68.0954 3.91808 68.5972 3.71524C69.099 3.50172 69.6328 3.39496 70.1986 3.39496C71.3089 3.39496 72.1416 3.69389 72.6968 4.29174C73.2626 4.87892 73.5455 5.66361 73.5455 6.6458V11.5301H72.3445L72.2644 10.1048C72.0402 10.5532 71.7092 10.9375 71.2715 11.2578C70.8445 11.5674 70.268 11.7222 69.542 11.7222ZM69.7502 10.5852C70.2627 10.5852 70.7004 10.4518 71.0634 10.1849C71.437 9.91798 71.7199 9.57101 71.9121 9.14397C72.1043 8.71694 72.2003 8.26854 72.2003 7.7988V7.78279H70.1666C69.3766 7.78279 68.8161 7.92158 68.4851 8.19915C68.1648 8.46605 68.0047 8.80234 68.0047 9.20803C68.0047 9.6244 68.1541 9.96069 68.4531 10.2169C68.7627 10.4625 69.1951 10.5852 69.7502 10.5852Z" fill="white"/>
<path d="M78.8036 11.5301C78.0776 11.5301 77.5065 11.3539 77.0901 11.0016C76.6737 10.6493 76.4656 10.0141 76.4656 9.09593V4.72412H75.0884V3.58713H76.4656L76.6417 1.68147H77.8107V3.58713H80.1488V4.72412H77.8107V9.09593C77.8107 9.59771 77.9122 9.93933 78.115 10.1208C78.3178 10.2916 78.6755 10.3771 79.1879 10.3771H80.0207V11.5301H78.8036Z" fill="white"/>
<path d="M85.5302 11.7222C84.7722 11.7222 84.0996 11.5514 83.5125 11.2098C82.9253 10.8575 82.4609 10.3717 82.1192 9.75251C81.7883 9.1333 81.6228 8.40199 81.6228 7.55859C81.6228 6.72587 81.7883 5.9999 82.1192 5.38069C82.4502 4.75081 82.9093 4.26505 83.4964 3.92342C84.0943 3.57111 84.7829 3.39496 85.5622 3.39496C86.3309 3.39496 86.9928 3.57111 87.548 3.92342C88.1138 4.26505 88.5462 4.71878 88.8451 5.28461C89.144 5.85044 89.2935 6.45897 89.2935 7.1102C89.2935 7.22764 89.2882 7.34507 89.2775 7.46251C89.2775 7.57995 89.2775 7.71339 89.2775 7.86286H82.952C82.984 8.47139 83.1228 8.9785 83.3683 9.38418C83.6246 9.7792 83.9395 10.0781 84.3132 10.281C84.6975 10.4838 85.1032 10.5852 85.5302 10.5852C86.0854 10.5852 86.5498 10.4571 86.9234 10.2009C87.2971 9.94467 87.5693 9.5977 87.7401 9.15999H89.0693C88.8558 9.89663 88.4448 10.5105 87.8362 11.0016C87.2384 11.482 86.4697 11.7222 85.5302 11.7222ZM85.5302 4.53195C84.8897 4.53195 84.3185 4.72946 83.8167 5.12447C83.3256 5.50881 83.0427 6.07463 82.968 6.82195H87.9643C87.9323 6.10666 87.6868 5.54617 87.2277 5.14048C86.7686 4.7348 86.2028 4.53195 85.5302 4.53195Z" fill="white"/>
<path d="M94.4394 11.7222C93.4892 11.7222 92.6992 11.482 92.0693 11.0016C91.4394 10.5212 91.0711 9.86994 90.9643 9.04789H92.3415C92.4269 9.46426 92.6458 9.82724 92.9981 10.1368C93.3611 10.4358 93.8468 10.5852 94.4554 10.5852C95.0212 10.5852 95.4376 10.4678 95.7045 10.2329C95.9714 9.98738 96.1048 9.69913 96.1048 9.36817C96.1048 8.88775 95.9287 8.56747 95.5764 8.40733C95.2347 8.24719 94.749 8.10307 94.1191 7.97496C93.692 7.88955 93.265 7.76677 92.838 7.60663C92.4109 7.44649 92.0533 7.2223 91.765 6.93405C91.4768 6.63512 91.3327 6.24545 91.3327 5.76503C91.3327 5.07109 91.5889 4.50526 92.1013 4.06755C92.6244 3.61916 93.3291 3.39496 94.2152 3.39496C95.0586 3.39496 95.7472 3.60848 96.281 4.03552C96.8254 4.45188 97.1404 5.04974 97.2258 5.82909H95.8966C95.8432 5.4234 95.6671 5.10846 95.3682 4.88426C95.0799 4.64939 94.6903 4.53195 94.1992 4.53195C93.7187 4.53195 93.3451 4.63337 93.0782 4.83622C92.822 5.03906 92.6938 5.30596 92.6938 5.63692C92.6938 5.9572 92.8593 6.20808 93.1903 6.38957C93.5319 6.57106 93.991 6.72587 94.5675 6.85398C95.0586 6.96074 95.523 7.09419 95.9607 7.25433C96.4091 7.40379 96.7721 7.63332 97.0496 7.94293C97.3379 8.24186 97.482 8.67957 97.482 9.25607C97.4927 9.97136 97.2205 10.5639 96.6653 11.0336C96.1208 11.4927 95.3788 11.7222 94.4394 11.7222Z" fill="white"/>
<path d="M102.503 11.5301C101.777 11.5301 101.206 11.3539 100.79 11.0016C100.373 10.6493 100.165 10.0141 100.165 9.09593V4.72412H98.7878V3.58713H100.165L100.341 1.68147H101.51V3.58713H103.848V4.72412H101.51V9.09593C101.51 9.59771 101.612 9.93933 101.814 10.1208C102.017 10.2916 102.375 10.3771 102.887 10.3771H103.72V11.5301H102.503Z" fill="white"/>
<path d="M110.436 11.5301V3.58713H111.653L111.733 5.01237C111.989 4.5106 112.357 4.11559 112.838 3.82734C113.318 3.53909 113.863 3.39496 114.471 3.39496C115.411 3.39496 116.158 3.68321 116.713 4.25972C117.279 4.82554 117.562 5.70097 117.562 6.88601V11.5301H116.217V7.03013C116.217 5.37536 115.534 4.54797 114.167 4.54797C113.484 4.54797 112.913 4.79885 112.454 5.30062C112.005 5.79172 111.781 6.49633 111.781 7.41447V11.5301H110.436Z" fill="white"/>
<path d="M123.491 11.7222C122.733 11.7222 122.061 11.5514 121.474 11.2098C120.887 10.8575 120.422 10.3717 120.08 9.75251C119.75 9.1333 119.584 8.40199 119.584 7.55859C119.584 6.72587 119.75 5.9999 120.08 5.38069C120.411 4.75081 120.871 4.26505 121.458 3.92342C122.056 3.57111 122.744 3.39496 123.523 3.39496C124.292 3.39496 124.954 3.57111 125.509 3.92342C126.075 4.26505 126.507 4.71878 126.806 5.28461C127.105 5.85044 127.255 6.45897 127.255 7.1102C127.255 7.22764 127.249 7.34507 127.239 7.46251C127.239 7.57995 127.239 7.71339 127.239 7.86286H120.913C120.945 8.47139 121.084 8.9785 121.33 9.38418C121.586 9.7792 121.901 10.0781 122.274 10.281C122.659 10.4838 123.064 10.5852 123.491 10.5852C124.047 10.5852 124.511 10.4571 124.885 10.2009C125.258 9.94467 125.531 9.5977 125.701 9.15999H127.031C126.817 9.89663 126.406 10.5105 125.797 11.0016C125.2 11.482 124.431 11.7222 123.491 11.7222ZM123.491 4.53195C122.851 4.53195 122.28 4.72946 121.778 5.12447C121.287 5.50881 121.004 6.07463 120.929 6.82195H125.926C125.894 6.10666 125.648 5.54617 125.189 5.14048C124.73 4.7348 124.164 4.53195 123.491 4.53195Z" fill="white"/>
<path d="M130.647 11.5301L128.325 3.58713H129.67L131.351 9.81656L133.209 3.58713H134.73L136.604 9.81656L138.269 3.58713H139.63L137.308 11.5301H135.931L133.977 4.98034L132.024 11.5301H130.647Z" fill="white"/>
<path d="M144.481 11.7222C143.531 11.7222 142.741 11.482 142.111 11.0016C141.481 10.5212 141.113 9.86994 141.006 9.04789H142.383C142.469 9.46426 142.688 9.82724 143.04 10.1368C143.403 10.4358 143.889 10.5852 144.497 10.5852C145.063 10.5852 145.479 10.4678 145.746 10.2329C146.013 9.98738 146.147 9.69913 146.147 9.36817C146.147 8.88775 145.97 8.56747 145.618 8.40733C145.276 8.24719 144.791 8.10307 144.161 7.97496C143.734 7.88955 143.307 7.76677 142.88 7.60663C142.453 7.44649 142.095 7.2223 141.807 6.93405C141.519 6.63512 141.374 6.24545 141.374 5.76503C141.374 5.07109 141.631 4.50526 142.143 4.06755C142.666 3.61916 143.371 3.39496 144.257 3.39496C145.1 3.39496 145.789 3.60848 146.323 4.03552C146.867 4.45188 147.182 5.04974 147.268 5.82909H145.938C145.885 5.4234 145.709 5.10846 145.41 4.88426C145.122 4.64939 144.732 4.53195 144.241 4.53195C143.761 4.53195 143.387 4.63337 143.12 4.83622C142.864 5.03906 142.736 5.30596 142.736 5.63692C142.736 5.9572 142.901 6.20808 143.232 6.38957C143.574 6.57106 144.033 6.72587 144.609 6.85398C145.1 6.96074 145.565 7.09419 146.002 7.25433C146.451 7.40379 146.814 7.63332 147.091 7.94293C147.38 8.24186 147.524 8.67957 147.524 9.25607C147.534 9.97136 147.262 10.5639 146.707 11.0336C146.163 11.4927 145.421 11.7222 144.481 11.7222Z" fill="white"/>
<path d="M148.693 13.4357L149.622 9.89663H151.015L149.622 13.4357H148.693Z" fill="white"/>
<path d="M160.629 9.03188C160.181 9.03188 159.77 8.97316 159.396 8.85572L158.596 9.60838C158.713 9.69379 158.857 9.76852 159.028 9.83258C159.209 9.88596 159.466 9.93934 159.797 9.99272C160.128 10.0354 160.592 10.0835 161.19 10.1368C162.257 10.2116 163.021 10.4571 163.48 10.8735C163.939 11.2898 164.168 11.8343 164.168 12.5069C164.168 12.966 164.04 13.4037 163.784 13.8201C163.539 14.2364 163.154 14.578 162.631 14.8449C162.119 15.1118 161.457 15.2453 160.645 15.2453C159.93 15.2453 159.295 15.1492 158.74 14.957C158.185 14.7756 157.752 14.4926 157.443 14.1083C157.133 13.7346 156.978 13.2596 156.978 12.6831C156.978 12.3841 157.058 12.0585 157.218 11.7062C157.379 11.3646 157.677 11.039 158.115 10.7294C157.88 10.6333 157.677 10.5319 157.507 10.4251C157.346 10.3077 157.197 10.1795 157.058 10.0408V9.67244L158.419 8.32726C157.79 7.79346 157.475 7.08885 157.475 6.21342C157.475 5.6903 157.597 5.21522 157.843 4.78818C158.088 4.36114 158.446 4.02484 158.916 3.7793C159.386 3.52307 159.957 3.39496 160.629 3.39496C161.088 3.39496 161.505 3.45902 161.878 3.58713H164.809V4.59601L163.32 4.66006C163.629 5.10846 163.784 5.62624 163.784 6.21342C163.784 6.73654 163.656 7.21162 163.4 7.63866C163.154 8.0657 162.797 8.40733 162.327 8.66356C161.868 8.9091 161.302 9.03188 160.629 9.03188ZM160.629 7.92691C161.195 7.92691 161.644 7.78279 161.975 7.49454C162.316 7.19561 162.487 6.76857 162.487 6.21342C162.487 5.66894 162.316 5.25258 161.975 4.96433C161.644 4.6654 161.195 4.51594 160.629 4.51594C160.053 4.51594 159.594 4.6654 159.252 4.96433C158.921 5.25258 158.756 5.66894 158.756 6.21342C158.756 6.76857 158.921 7.19561 159.252 7.49454C159.594 7.78279 160.053 7.92691 160.629 7.92691ZM158.291 12.555C158.291 13.0887 158.516 13.4838 158.964 13.74C159.412 14.0069 159.973 14.1403 160.645 14.1403C161.307 14.1403 161.836 13.9962 162.231 13.708C162.636 13.4197 162.839 13.0354 162.839 12.555C162.839 12.2133 162.7 11.9144 162.423 11.6582C162.145 11.4126 161.633 11.2685 160.886 11.2258C160.298 11.1831 159.791 11.1297 159.364 11.0657C158.927 11.3005 158.638 11.5514 158.499 11.8183C158.361 12.0959 158.291 12.3414 158.291 12.555Z" fill="white"/>
<path d="M169.545 11.7222C168.606 11.7222 167.858 11.4393 167.303 10.8735C166.748 10.297 166.471 9.41621 166.471 8.23118V3.58713H167.816V8.08705C167.816 9.74183 168.494 10.5692 169.85 10.5692C170.543 10.5692 171.115 10.3237 171.563 9.83258C172.022 9.33081 172.252 8.62085 172.252 7.70272V3.58713H173.597V11.5301H172.38L172.284 10.1048C172.038 10.6066 171.67 11.0016 171.179 11.2898C170.698 11.5781 170.154 11.7222 169.545 11.7222Z" fill="white"/>
<path d="M176.948 1.82559C176.681 1.82559 176.457 1.74018 176.275 1.56937C176.105 1.38788 176.019 1.16368 176.019 0.896782C176.019 0.640559 176.105 0.427039 176.275 0.256223C176.457 0.0854077 176.681 0 176.948 0C177.204 0 177.423 0.0854077 177.605 0.256223C177.786 0.427039 177.877 0.640559 177.877 0.896782C177.877 1.16368 177.786 1.38788 177.605 1.56937C177.423 1.74018 177.204 1.82559 176.948 1.82559ZM176.275 11.5301V3.58713H177.621V11.5301H176.275Z" fill="white"/>
<path d="M183.886 11.7222C183.096 11.7222 182.402 11.5407 181.804 11.1777C181.217 10.8148 180.758 10.3183 180.427 9.68845C180.107 9.05857 179.947 8.34328 179.947 7.54258C179.947 6.74188 180.112 6.03193 180.443 5.41272C180.774 4.78284 181.233 4.29174 181.82 3.93944C182.407 3.57645 183.101 3.39496 183.902 3.39496C184.553 3.39496 185.13 3.52841 185.632 3.79531C186.133 4.06221 186.523 4.43587 186.801 4.91629V0H188.146V11.5301H186.929L186.801 10.2169C186.544 10.6012 186.176 10.9482 185.696 11.2578C185.215 11.5674 184.612 11.7222 183.886 11.7222ZM184.03 10.5532C184.564 10.5532 185.034 10.4304 185.439 10.1849C185.856 9.92866 186.176 9.57635 186.4 9.12796C186.635 8.67957 186.753 8.15645 186.753 7.55859C186.753 6.96074 186.635 6.43762 186.4 5.98922C186.176 5.54083 185.856 5.19386 185.439 4.94832C185.034 4.69209 184.564 4.56398 184.03 4.56398C183.507 4.56398 183.037 4.69209 182.621 4.94832C182.215 5.19386 181.895 5.54083 181.66 5.98922C181.436 6.43762 181.324 6.96074 181.324 7.55859C181.324 8.15645 181.436 8.67957 181.66 9.12796C181.895 9.57635 182.215 9.92866 182.621 10.1849C183.037 10.4304 183.507 10.5532 184.03 10.5532Z" fill="white"/>
<path d="M194.23 11.7222C193.472 11.7222 192.799 11.5514 192.212 11.2098C191.625 10.8575 191.161 10.3717 190.819 9.75251C190.488 9.1333 190.323 8.40199 190.323 7.55859C190.323 6.72587 190.488 5.9999 190.819 5.38069C191.15 4.75081 191.609 4.26505 192.196 3.92342C192.794 3.57111 193.483 3.39496 194.262 3.39496C195.031 3.39496 195.693 3.57111 196.248 3.92342C196.814 4.26505 197.246 4.71878 197.545 5.28461C197.844 5.85044 197.993 6.45897 197.993 7.1102C197.993 7.22764 197.988 7.34507 197.977 7.46251C197.977 7.57995 197.977 7.71339 197.977 7.86286H191.652C191.684 8.47139 191.823 8.9785 192.068 9.38418C192.324 9.7792 192.639 10.0781 193.013 10.281C193.397 10.4838 193.803 10.5852 194.23 10.5852C194.785 10.5852 195.25 10.4571 195.623 10.2009C195.997 9.94467 196.269 9.5977 196.44 9.15999H197.769C197.556 9.89663 197.145 10.5105 196.536 11.0016C195.938 11.482 195.169 11.7222 194.23 11.7222ZM194.23 4.53195C193.589 4.53195 193.018 4.72946 192.517 5.12447C192.025 5.50881 191.743 6.07463 191.668 6.82195H196.664C196.632 6.10666 196.387 5.54617 195.928 5.14048C195.468 4.7348 194.903 4.53195 194.23 4.53195Z" fill="white"/>
<path d="M203.139 11.7222C202.189 11.7222 201.399 11.482 200.769 11.0016C200.139 10.5212 199.771 9.86994 199.664 9.04789H201.041C201.127 9.46426 201.346 9.82724 201.698 10.1368C202.061 10.4358 202.547 10.5852 203.155 10.5852C203.721 10.5852 204.137 10.4678 204.404 10.2329C204.671 9.98738 204.805 9.69913 204.805 9.36817C204.805 8.88775 204.628 8.56747 204.276 8.40733C203.935 8.24719 203.449 8.10307 202.819 7.97496C202.392 7.88955 201.965 7.76677 201.538 7.60663C201.111 7.44649 200.753 7.2223 200.465 6.93405C200.177 6.63512 200.032 6.24545 200.032 5.76503C200.032 5.07109 200.289 4.50526 200.801 4.06755C201.324 3.61916 202.029 3.39496 202.915 3.39496C203.758 3.39496 204.447 3.60848 204.981 4.03552C205.525 4.45188 205.84 5.04974 205.926 5.82909H204.596C204.543 5.4234 204.367 5.10846 204.068 4.88426C203.78 4.64939 203.39 4.53195 202.899 4.53195C202.419 4.53195 202.045 4.63337 201.778 4.83622C201.522 5.03906 201.394 5.30596 201.394 5.63692C201.394 5.9572 201.559 6.20808 201.89 6.38957C202.232 6.57106 202.691 6.72587 203.267 6.85398C203.758 6.96074 204.223 7.09419 204.661 7.25433C205.109 7.40379 205.472 7.63332 205.749 7.94293C206.038 8.24186 206.182 8.67957 206.182 9.25607C206.193 9.97136 205.92 10.5639 205.365 11.0336C204.821 11.4927 204.079 11.7222 203.139 11.7222Z" fill="white"/>
<path d="M207.351 13.4357L208.28 9.89663H209.673L208.28 13.4357H207.351Z" fill="white"/>
<path d="M218.791 11.7222C218.129 11.7222 217.579 11.6101 217.141 11.3859C216.704 11.1617 216.378 10.8628 216.165 10.4891C215.951 10.1155 215.844 9.7098 215.844 9.27209C215.844 8.46071 216.154 7.83617 216.773 7.39845C217.392 6.96074 218.236 6.74188 219.303 6.74188H221.449V6.6458C221.449 5.95186 221.268 5.42874 220.905 5.07643C220.542 4.71344 220.056 4.53195 219.448 4.53195C218.924 4.53195 218.471 4.6654 218.086 4.9323C217.713 5.18852 217.478 5.56752 217.382 6.06929H216.005C216.058 5.49279 216.25 5.00703 216.581 4.61202C216.923 4.21701 217.344 3.91808 217.846 3.71524C218.348 3.50172 218.882 3.39496 219.448 3.39496C220.558 3.39496 221.391 3.69389 221.946 4.29174C222.512 4.87892 222.794 5.66361 222.794 6.6458V11.5301H221.593L221.513 10.1048C221.289 10.5532 220.958 10.9375 220.52 11.2578C220.093 11.5674 219.517 11.7222 218.791 11.7222ZM218.999 10.5852C219.512 10.5852 219.949 10.4518 220.312 10.1849C220.686 9.91798 220.969 9.57101 221.161 9.14397C221.353 8.71694 221.449 8.26854 221.449 7.7988V7.78279H219.415C218.625 7.78279 218.065 7.92158 217.734 8.19915C217.414 8.46605 217.254 8.80234 217.254 9.20803C217.254 9.6244 217.403 9.96069 217.702 10.2169C218.012 10.4625 218.444 10.5852 218.999 10.5852Z" fill="white"/>
<path d="M225.133 11.5301V3.58713H226.35L226.43 5.01237C226.686 4.5106 227.054 4.11559 227.535 3.82734C228.015 3.53909 228.56 3.39496 229.168 3.39496C230.108 3.39496 230.855 3.68321 231.41 4.25972C231.976 4.82554 232.259 5.70097 232.259 6.88601V11.5301H230.914V7.03013C230.914 5.37536 230.231 4.54797 228.864 4.54797C228.181 4.54797 227.61 4.79885 227.15 5.30062C226.702 5.79172 226.478 6.49633 226.478 7.41447V11.5301H225.133Z" fill="white"/>
<path d="M238.22 11.7222C237.43 11.7222 236.736 11.5407 236.139 11.1777C235.551 10.8148 235.092 10.3183 234.761 9.68845C234.441 9.05857 234.281 8.34328 234.281 7.54258C234.281 6.74188 234.446 6.03193 234.777 5.41272C235.108 4.78284 235.567 4.29174 236.155 3.93944C236.742 3.57645 237.436 3.39496 238.236 3.39496C238.888 3.39496 239.464 3.52841 239.966 3.79531C240.468 4.06221 240.857 4.43587 241.135 4.91629V0H242.48V11.5301H241.263L241.135 10.2169C240.879 10.6012 240.51 10.9482 240.03 11.2578C239.55 11.5674 238.946 11.7222 238.22 11.7222ZM238.365 10.5532C238.898 10.5532 239.368 10.4304 239.774 10.1849C240.19 9.92866 240.51 9.57635 240.735 9.12796C240.969 8.67957 241.087 8.15645 241.087 7.55859C241.087 6.96074 240.969 6.43762 240.735 5.98922C240.51 5.54083 240.19 5.19386 239.774 4.94832C239.368 4.69209 238.898 4.56398 238.365 4.56398C237.841 4.56398 237.372 4.69209 236.955 4.94832C236.55 5.19386 236.229 5.54083 235.994 5.98922C235.77 6.43762 235.658 6.96074 235.658 7.55859C235.658 8.15645 235.77 8.67957 235.994 9.12796C236.229 9.57635 236.55 9.92866 236.955 10.1849C237.372 10.4304 237.841 10.5532 238.365 10.5532Z" fill="white"/>
<path d="M252.69 11.5301C251.964 11.5301 251.393 11.3539 250.977 11.0016C250.56 10.6493 250.352 10.0141 250.352 9.09593V4.72412H248.975V3.58713H250.352L250.528 1.68147H251.697V3.58713H254.035V4.72412H251.697V9.09593C251.697 9.59771 251.799 9.93933 252.002 10.1208C252.205 10.2916 252.562 10.3771 253.075 10.3771H253.907V11.5301H252.69Z" fill="white"/>
<path d="M256.881 1.82559C256.615 1.82559 256.39 1.74018 256.209 1.56937C256.038 1.38788 255.953 1.16368 255.953 0.896782C255.953 0.640559 256.038 0.427039 256.209 0.256223C256.39 0.0854077 256.615 0 256.881 0C257.138 0 257.356 0.0854077 257.538 0.256223C257.719 0.427039 257.81 0.640559 257.81 0.896782C257.81 1.16368 257.719 1.38788 257.538 1.56937C257.356 1.74018 257.138 1.82559 256.881 1.82559ZM256.209 11.5301V3.58713H257.554V11.5301H256.209Z" fill="white"/>
<path d="M260.216 15.0531V3.58713H261.434L261.562 4.90027C261.818 4.51594 262.181 4.16897 262.651 3.85937C263.131 3.54976 263.74 3.39496 264.476 3.39496C265.266 3.39496 265.955 3.57645 266.542 3.93944C267.129 4.30242 267.583 4.79885 267.903 5.42873C268.234 6.05862 268.4 6.77391 268.4 7.57461C268.4 8.37531 268.234 9.09059 267.903 9.72048C267.583 10.3397 267.124 10.8308 266.526 11.1938C265.939 11.5461 265.25 11.7222 264.46 11.7222C263.809 11.7222 263.227 11.5888 262.715 11.3219C262.213 11.055 261.829 10.6813 261.562 10.2009V15.0531H260.216ZM264.316 10.5532C264.85 10.5532 265.32 10.4304 265.725 10.1849C266.131 9.92866 266.451 9.57635 266.686 9.12796C266.921 8.67957 267.038 8.15645 267.038 7.55859C267.038 6.96074 266.921 6.43762 266.686 5.98922C266.451 5.54083 266.131 5.19386 265.725 4.94832C265.32 4.69209 264.85 4.56398 264.316 4.56398C263.782 4.56398 263.312 4.69209 262.907 4.94832C262.501 5.19386 262.181 5.54083 261.946 5.98922C261.711 6.43762 261.594 6.96074 261.594 7.55859C261.594 8.15645 261.711 8.67957 261.946 9.12796C262.181 9.57635 262.501 9.92866 262.907 10.1849C263.312 10.4304 263.782 10.5532 264.316 10.5532Z" fill="white"/>
<path d="M273.635 11.7222C272.685 11.7222 271.895 11.482 271.265 11.0016C270.635 10.5212 270.267 9.86994 270.16 9.04789H271.537C271.623 9.46426 271.841 9.82724 272.194 10.1368C272.557 10.4358 273.042 10.5852 273.651 10.5852C274.217 10.5852 274.633 10.4678 274.9 10.2329C275.167 9.98738 275.3 9.69913 275.3 9.36817C275.3 8.88775 275.124 8.56747 274.772 8.40733C274.43 8.24719 273.945 8.10307 273.315 7.97496C272.888 7.88955 272.461 7.76677 272.034 7.60663C271.607 7.44649 271.249 7.2223 270.961 6.93405C270.672 6.63512 270.528 6.24545 270.528 5.76503C270.528 5.07109 270.785 4.50526 271.297 4.06755C271.82 3.61916 272.525 3.39496 273.411 3.39496C274.254 3.39496 274.943 3.60848 275.477 4.03552C276.021 4.45188 276.336 5.04974 276.421 5.82909H275.092C275.039 5.4234 274.863 5.10846 274.564 4.88426C274.276 4.64939 273.886 4.53195 273.395 4.53195C272.914 4.53195 272.541 4.63337 272.274 4.83622C272.018 5.03906 271.889 5.30596 271.889 5.63692C271.889 5.9572 272.055 6.20808 272.386 6.38957C272.728 6.57106 273.187 6.72587 273.763 6.85398C274.254 6.96074 274.719 7.09419 275.156 7.25433C275.605 7.40379 275.968 7.63332 276.245 7.94293C276.534 8.24186 276.678 8.67957 276.678 9.25607C276.688 9.97136 276.416 10.5639 275.861 11.0336C275.316 11.4927 274.574 11.7222 273.635 11.7222Z" fill="white"/>
<path d="M287.097 11.7222C286.35 11.7222 285.677 11.5514 285.079 11.2098C284.482 10.8681 284.006 10.3877 283.654 9.76852C283.312 9.13864 283.142 8.40199 283.142 7.55859C283.142 6.71519 283.318 5.98389 283.67 5.36468C284.022 4.7348 284.498 4.24904 285.095 3.90741C285.704 3.56578 286.382 3.39496 287.129 3.39496C287.876 3.39496 288.549 3.56578 289.147 3.90741C289.745 4.24904 290.215 4.7348 290.556 5.36468C290.908 5.98389 291.085 6.71519 291.085 7.55859C291.085 8.40199 290.908 9.13864 290.556 9.76852C290.204 10.3877 289.723 10.8681 289.115 11.2098C288.517 11.5514 287.844 11.7222 287.097 11.7222ZM287.097 10.5692C287.556 10.5692 287.983 10.4571 288.378 10.2329C288.773 10.0087 289.094 9.67244 289.339 9.22404C289.585 8.77565 289.707 8.2205 289.707 7.55859C289.707 6.89668 289.585 6.34153 289.339 5.89314C289.104 5.44475 288.789 5.10846 288.394 4.88426C287.999 4.66006 287.578 4.54797 287.129 4.54797C286.67 4.54797 286.243 4.66006 285.848 4.88426C285.453 5.10846 285.133 5.44475 284.887 5.89314C284.642 6.34153 284.519 6.89668 284.519 7.55859C284.519 8.2205 284.642 8.77565 284.887 9.22404C285.133 9.67244 285.448 10.0087 285.832 10.2329C286.227 10.4571 286.649 10.5692 287.097 10.5692Z" fill="white"/>
<path d="M293.275 11.5301V3.58713H294.492L294.572 5.01237C294.829 4.5106 295.197 4.11559 295.677 3.82734C296.158 3.53909 296.702 3.39496 297.311 3.39496C298.25 3.39496 298.998 3.68321 299.553 4.25972C300.119 4.82554 300.401 5.70097 300.401 6.88601V11.5301H299.056V7.03013C299.056 5.37536 298.373 4.54797 297.007 4.54797C296.323 4.54797 295.752 4.79885 295.293 5.30062C294.845 5.79172 294.62 6.49633 294.62 7.41447V11.5301H293.275Z" fill="white"/>
<path d="M307.318 11.5301V3.58713H308.535L308.647 5.10846C308.893 4.58533 309.266 4.16897 309.768 3.85937C310.27 3.54976 310.889 3.39496 311.626 3.39496V4.80419H311.258C310.788 4.80419 310.355 4.8896 309.96 5.06041C309.565 5.22055 309.25 5.49813 309.016 5.89314C308.781 6.28815 308.663 6.83263 308.663 7.52656V11.5301H307.318Z" fill="white"/>
<path d="M316.355 11.7222C315.415 11.7222 314.668 11.4393 314.113 10.8735C313.557 10.297 313.28 9.41621 313.28 8.23118V3.58713H314.625V8.08705C314.625 9.74183 315.303 10.5692 316.659 10.5692C317.353 10.5692 317.924 10.3237 318.372 9.83258C318.831 9.33081 319.061 8.62085 319.061 7.70272V3.58713H320.406V11.5301H319.189L319.093 10.1048C318.847 10.6066 318.479 11.0016 317.988 11.2898C317.508 11.5781 316.963 11.7222 316.355 11.7222Z" fill="white"/>
<path d="M322.941 11.5301V3.58713H324.158L324.238 5.01237C324.494 4.5106 324.862 4.11559 325.343 3.82734C325.823 3.53909 326.367 3.39496 326.976 3.39496C327.916 3.39496 328.663 3.68321 329.218 4.25972C329.784 4.82554 330.067 5.70097 330.067 6.88601V11.5301H328.722V7.03013C328.722 5.37536 328.038 4.54797 326.672 4.54797C325.989 4.54797 325.417 4.79885 324.958 5.30062C324.51 5.79172 324.286 6.49633 324.286 7.41447V11.5301H322.941Z" fill="white"/>
<path d="M332.425 11.5301V3.58713H333.642L333.722 5.01237C333.978 4.5106 334.347 4.11559 334.827 3.82734C335.308 3.53909 335.852 3.39496 336.461 3.39496C337.4 3.39496 338.147 3.68321 338.703 4.25972C339.268 4.82554 339.551 5.70097 339.551 6.88601V11.5301H338.206V7.03013C338.206 5.37536 337.523 4.54797 336.156 4.54797C335.473 4.54797 334.902 4.79885 334.443 5.30062C333.994 5.79172 333.77 6.49633 333.77 7.41447V11.5301H332.425Z" fill="white"/>
<path d="M342.726 1.82559C342.459 1.82559 342.235 1.74018 342.054 1.56937C341.883 1.38788 341.797 1.16368 341.797 0.896782C341.797 0.640559 341.883 0.427039 342.054 0.256223C342.235 0.0854077 342.459 0 342.726 0C342.983 0 343.201 0.0854077 343.383 0.256223C343.564 0.427039 343.655 0.640559 343.655 0.896782C343.655 1.16368 343.564 1.38788 343.383 1.56937C343.201 1.74018 342.983 1.82559 342.726 1.82559ZM342.054 11.5301V3.58713H343.399V11.5301H342.054Z" fill="white"/>
<path d="M346.061 11.5301V3.58713H347.278L347.358 5.01237C347.615 4.5106 347.983 4.11559 348.463 3.82734C348.944 3.53909 349.488 3.39496 350.097 3.39496C351.036 3.39496 351.784 3.68321 352.339 4.25972C352.905 4.82554 353.188 5.70097 353.188 6.88601V11.5301H351.842V7.03013C351.842 5.37536 351.159 4.54797 349.793 4.54797C349.109 4.54797 348.538 4.79885 348.079 5.30062C347.631 5.79172 347.406 6.49633 347.406 7.41447V11.5301H346.061Z" fill="white"/>
<path d="M358.685 9.03188C358.236 9.03188 357.825 8.97316 357.451 8.85572L356.651 9.60838C356.768 9.69379 356.912 9.76852 357.083 9.83258C357.265 9.88596 357.521 9.93934 357.852 9.99272C358.183 10.0354 358.647 10.0835 359.245 10.1368C360.313 10.2116 361.076 10.4571 361.535 10.8735C361.994 11.2898 362.224 11.8343 362.224 12.5069C362.224 12.966 362.096 13.4037 361.839 13.8201C361.594 14.2364 361.209 14.578 360.686 14.8449C360.174 15.1118 359.512 15.2453 358.701 15.2453C357.985 15.2453 357.35 15.1492 356.795 14.957C356.24 14.7756 355.807 14.4926 355.498 14.1083C355.188 13.7346 355.033 13.2596 355.033 12.6831C355.033 12.3841 355.113 12.0585 355.274 11.7062C355.434 11.3646 355.733 11.039 356.17 10.7294C355.935 10.6333 355.733 10.5319 355.562 10.4251C355.402 10.3077 355.252 10.1795 355.113 10.0408V9.67244L356.475 8.32726C355.845 7.79346 355.53 7.08885 355.53 6.21342C355.53 5.6903 355.653 5.21522 355.898 4.78818C356.144 4.36114 356.501 4.02484 356.971 3.7793C357.441 3.52307 358.012 3.39496 358.685 3.39496C359.144 3.39496 359.56 3.45902 359.934 3.58713H362.864V4.59601L361.375 4.66006C361.685 5.10846 361.839 5.62624 361.839 6.21342C361.839 6.73654 361.711 7.21162 361.455 7.63866C361.209 8.0657 360.852 8.40733 360.382 8.66356C359.923 8.9091 359.357 9.03188 358.685 9.03188ZM358.685 7.92691C359.25 7.92691 359.699 7.78279 360.03 7.49454C360.371 7.19561 360.542 6.76857 360.542 6.21342C360.542 5.66894 360.371 5.25258 360.03 4.96433C359.699 4.6654 359.25 4.51594 358.685 4.51594C358.108 4.51594 357.649 4.6654 357.307 4.96433C356.976 5.25258 356.811 5.66894 356.811 6.21342C356.811 6.76857 356.976 7.19561 357.307 7.49454C357.649 7.78279 358.108 7.92691 358.685 7.92691ZM356.347 12.555C356.347 13.0887 356.571 13.4838 357.019 13.74C357.467 14.0069 358.028 14.1403 358.701 14.1403C359.363 14.1403 359.891 13.9962 360.286 13.708C360.692 13.4197 360.894 13.0354 360.894 12.555C360.894 12.2133 360.756 11.9144 360.478 11.6582C360.201 11.4126 359.688 11.2685 358.941 11.2258C358.354 11.1831 357.847 11.1297 357.419 11.0657C356.982 11.3005 356.694 11.5514 356.555 11.8183C356.416 12.0959 356.347 12.3414 356.347 12.555Z" fill="white"/>
<path d="M370.125 15.0531L372.095 10.7614H371.63L368.476 3.58713H369.933L372.559 9.76852L375.346 3.58713H376.739L371.534 15.0531H370.125Z" fill="white"/>
<path d="M381.347 11.7222C380.6 11.7222 379.928 11.5514 379.33 11.2098C378.732 10.8681 378.257 10.3877 377.904 9.76852C377.563 9.13864 377.392 8.40199 377.392 7.55859C377.392 6.71519 377.568 5.98389 377.92 5.36468C378.273 4.7348 378.748 4.24904 379.346 3.90741C379.954 3.56578 380.632 3.39496 381.379 3.39496C382.127 3.39496 382.799 3.56578 383.397 3.90741C383.995 4.24904 384.465 4.7348 384.806 5.36468C385.159 5.98389 385.335 6.71519 385.335 7.55859C385.335 8.40199 385.159 9.13864 384.806 9.76852C384.454 10.3877 383.974 10.8681 383.365 11.2098C382.767 11.5514 382.095 11.7222 381.347 11.7222ZM381.347 10.5692C381.807 10.5692 382.234 10.4571 382.629 10.2329C383.024 10.0087 383.344 9.67244 383.589 9.22404C383.835 8.77565 383.958 8.2205 383.958 7.55859C383.958 6.89668 383.835 6.34153 383.589 5.89314C383.355 5.44475 383.04 5.10846 382.645 4.88426C382.25 4.66006 381.828 4.54797 381.379 4.54797C380.92 4.54797 380.493 4.66006 380.098 4.88426C379.703 5.10846 379.383 5.44475 379.138 5.89314C378.892 6.34153 378.769 6.89668 378.769 7.55859C378.769 8.2205 378.892 8.77565 379.138 9.22404C379.383 9.67244 379.698 10.0087 380.082 10.2329C380.477 10.4571 380.899 10.5692 381.347 10.5692Z" fill="white"/>
<path d="M390.424 11.7222C389.485 11.7222 388.737 11.4393 388.182 10.8735C387.627 10.297 387.349 9.41621 387.349 8.23118V3.58713H388.695V8.08705C388.695 9.74183 389.373 10.5692 390.728 10.5692C391.422 10.5692 391.993 10.3237 392.442 9.83258C392.901 9.33081 393.13 8.62085 393.13 7.70272V3.58713H394.476V11.5301H393.259L393.163 10.1048C392.917 10.6066 392.549 11.0016 392.058 11.2898C391.577 11.5781 391.033 11.7222 390.424 11.7222Z" fill="white"/>
<path d="M397.01 11.5301V3.58713H398.227L398.339 5.10846C398.585 4.58533 398.958 4.16897 399.46 3.85937C399.962 3.54976 400.581 3.39496 401.318 3.39496V4.80419H400.95C400.48 4.80419 400.047 4.8896 399.652 5.06041C399.257 5.22055 398.942 5.49813 398.708 5.89314C398.473 6.28815 398.355 6.83263 398.355 7.52656V11.5301H397.01Z" fill="white"/>
<path d="M411.95 11.7222C411.299 11.7222 410.717 11.5888 410.205 11.3219C409.703 11.055 409.318 10.6813 409.051 10.2009L408.923 11.5301H407.706V0H409.051V4.90027C409.308 4.51594 409.671 4.16897 410.14 3.85937C410.621 3.54976 411.229 3.39496 411.966 3.39496C412.756 3.39496 413.445 3.57645 414.032 3.93944C414.619 4.30242 415.073 4.79885 415.393 5.42873C415.724 6.05862 415.889 6.77391 415.889 7.57461C415.889 8.37531 415.724 9.09059 415.393 9.72048C415.073 10.3397 414.614 10.8308 414.016 11.1938C413.429 11.5461 412.74 11.7222 411.95 11.7222ZM411.806 10.5532C412.34 10.5532 412.809 10.4304 413.215 10.1849C413.621 9.92866 413.941 9.57635 414.176 9.12796C414.411 8.67957 414.528 8.15645 414.528 7.55859C414.528 6.96074 414.411 6.43762 414.176 5.98922C413.941 5.54083 413.621 5.19386 413.215 4.94832C412.809 4.69209 412.34 4.56398 411.806 4.56398C411.272 4.56398 410.802 4.69209 410.397 4.94832C409.991 5.19386 409.671 5.54083 409.436 5.98922C409.201 6.43762 409.084 6.96074 409.084 7.55859C409.084 8.15645 409.201 8.67957 409.436 9.12796C409.671 9.57635 409.991 9.92866 410.397 10.1849C410.802 10.4304 411.272 10.5532 411.806 10.5532Z" fill="white"/>
<path d="M420.981 11.7222C420.041 11.7222 419.294 11.4393 418.739 10.8735C418.184 10.297 417.906 9.41621 417.906 8.23118V3.58713H419.251V8.08705C419.251 9.74183 419.929 10.5692 421.285 10.5692C421.979 10.5692 422.55 10.3237 422.999 9.83258C423.458 9.33081 423.687 8.62085 423.687 7.70272V3.58713H425.032V11.5301H423.815L423.719 10.1048C423.474 10.6066 423.105 11.0016 422.614 11.2898C422.134 11.5781 421.589 11.7222 420.981 11.7222Z" fill="white"/>
<path d="M430.609 11.7222C429.659 11.7222 428.869 11.482 428.239 11.0016C427.609 10.5212 427.241 9.86994 427.134 9.04789H428.512C428.597 9.46426 428.816 9.82724 429.168 10.1368C429.531 10.4358 430.017 10.5852 430.625 10.5852C431.191 10.5852 431.608 10.4678 431.875 10.2329C432.141 9.98738 432.275 9.69913 432.275 9.36817C432.275 8.88775 432.099 8.56747 431.746 8.40733C431.405 8.24719 430.919 8.10307 430.289 7.97496C429.862 7.88955 429.435 7.76677 429.008 7.60663C428.581 7.44649 428.223 7.2223 427.935 6.93405C427.647 6.63512 427.503 6.24545 427.503 5.76503C427.503 5.07109 427.759 4.50526 428.271 4.06755C428.795 3.61916 429.499 3.39496 430.385 3.39496C431.229 3.39496 431.917 3.60848 432.451 4.03552C432.996 4.45188 433.31 5.04974 433.396 5.82909H432.067C432.013 5.4234 431.837 5.10846 431.538 4.88426C431.25 4.64939 430.86 4.53195 430.369 4.53195C429.889 4.53195 429.515 4.63337 429.248 4.83622C428.992 5.03906 428.864 5.30596 428.864 5.63692C428.864 5.9572 429.029 6.20808 429.36 6.38957C429.702 6.57106 430.161 6.72587 430.738 6.85398C431.229 6.96074 431.693 7.09419 432.131 7.25433C432.579 7.40379 432.942 7.63332 433.22 7.94293C433.508 8.24186 433.652 8.67957 433.652 9.25607C433.663 9.97136 433.391 10.5639 432.835 11.0336C432.291 11.4927 431.549 11.7222 430.609 11.7222Z" fill="white"/>
<path d="M436.711 1.82559C436.444 1.82559 436.22 1.74018 436.038 1.56937C435.867 1.38788 435.782 1.16368 435.782 0.896782C435.782 0.640559 435.867 0.427039 436.038 0.256223C436.22 0.0854077 436.444 0 436.711 0C436.967 0 437.186 0.0854077 437.367 0.256223C437.549 0.427039 437.64 0.640559 437.64 0.896782C437.64 1.16368 437.549 1.38788 437.367 1.56937C437.186 1.74018 436.967 1.82559 436.711 1.82559ZM436.038 11.5301V3.58713H437.383V11.5301H436.038Z" fill="white"/>
<path d="M440.046 11.5301V3.58713H441.263L441.343 5.01237C441.599 4.5106 441.967 4.11559 442.448 3.82734C442.928 3.53909 443.473 3.39496 444.081 3.39496C445.021 3.39496 445.768 3.68321 446.323 4.25972C446.889 4.82554 447.172 5.70097 447.172 6.88601V11.5301H445.827V7.03013C445.827 5.37536 445.144 4.54797 443.777 4.54797C443.094 4.54797 442.523 4.79885 442.064 5.30062C441.615 5.79172 441.391 6.49633 441.391 7.41447V11.5301H440.046Z" fill="white"/>
<path d="M453.101 11.7222C452.343 11.7222 451.671 11.5514 451.084 11.2098C450.496 10.8575 450.032 10.3717 449.69 9.75251C449.359 9.1333 449.194 8.40199 449.194 7.55859C449.194 6.72587 449.359 5.9999 449.69 5.38069C450.021 4.75081 450.48 4.26505 451.068 3.92342C451.665 3.57111 452.354 3.39496 453.133 3.39496C453.902 3.39496 454.564 3.57111 455.119 3.92342C455.685 4.26505 456.117 4.71878 456.416 5.28461C456.715 5.85044 456.865 6.45897 456.865 7.1102C456.865 7.22764 456.859 7.34507 456.849 7.46251C456.849 7.57995 456.849 7.71339 456.849 7.86286H450.523C450.555 8.47139 450.694 8.9785 450.94 9.38418C451.196 9.7792 451.511 10.0781 451.884 10.281C452.269 10.4838 452.674 10.5852 453.101 10.5852C453.657 10.5852 454.121 10.4571 454.495 10.2009C454.868 9.94467 455.141 9.5977 455.311 9.15999H456.641C456.427 9.89663 456.016 10.5105 455.407 11.0016C454.81 11.482 454.041 11.7222 453.101 11.7222ZM453.101 4.53195C452.461 4.53195 451.89 4.72946 451.388 5.12447C450.897 5.50881 450.614 6.07463 450.539 6.82195H455.536C455.503 6.10666 455.258 5.54617 454.799 5.14048C454.34 4.7348 453.774 4.53195 453.101 4.53195Z" fill="white"/>
<path d="M462.011 11.7222C461.06 11.7222 460.27 11.482 459.64 11.0016C459.011 10.5212 458.642 9.86994 458.536 9.04789H459.913C459.998 9.46426 460.217 9.82724 460.569 10.1368C460.932 10.4358 461.418 10.5852 462.027 10.5852C462.592 10.5852 463.009 10.4678 463.276 10.2329C463.543 9.98738 463.676 9.69913 463.676 9.36817C463.676 8.88775 463.5 8.56747 463.148 8.40733C462.806 8.24719 462.32 8.10307 461.69 7.97496C461.263 7.88955 460.836 7.76677 460.409 7.60663C459.982 7.44649 459.624 7.2223 459.336 6.93405C459.048 6.63512 458.904 6.24545 458.904 5.76503C458.904 5.07109 459.16 4.50526 459.673 4.06755C460.196 3.61916 460.9 3.39496 461.786 3.39496C462.63 3.39496 463.318 3.60848 463.852 4.03552C464.397 4.45188 464.712 5.04974 464.797 5.82909H463.468C463.414 5.4234 463.238 5.10846 462.939 4.88426C462.651 4.64939 462.261 4.53195 461.77 4.53195C461.29 4.53195 460.916 4.63337 460.649 4.83622C460.393 5.03906 460.265 5.30596 460.265 5.63692C460.265 5.9572 460.431 6.20808 460.761 6.38957C461.103 6.57106 461.562 6.72587 462.139 6.85398C462.63 6.96074 463.094 7.09419 463.532 7.25433C463.98 7.40379 464.343 7.63332 464.621 7.94293C464.909 8.24186 465.053 8.67957 465.053 9.25607C465.064 9.97136 464.792 10.5639 464.237 11.0336C463.692 11.4927 462.95 11.7222 462.011 11.7222Z" fill="white"/>
<path d="M470.338 11.7222C469.388 11.7222 468.598 11.482 467.968 11.0016C467.338 10.5212 466.97 9.86994 466.863 9.04789H468.24C468.325 9.46426 468.544 9.82724 468.897 10.1368C469.26 10.4358 469.745 10.5852 470.354 10.5852C470.92 10.5852 471.336 10.4678 471.603 10.2329C471.87 9.98738 472.003 9.69913 472.003 9.36817C472.003 8.88775 471.827 8.56747 471.475 8.40733C471.133 8.24719 470.647 8.10307 470.018 7.97496C469.59 7.88955 469.163 7.76677 468.736 7.60663C468.309 7.44649 467.952 7.2223 467.663 6.93405C467.375 6.63512 467.231 6.24545 467.231 5.76503C467.231 5.07109 467.487 4.50526 468 4.06755C468.523 3.61916 469.228 3.39496 470.114 3.39496C470.957 3.39496 471.646 3.60848 472.179 4.03552C472.724 4.45188 473.039 5.04974 473.124 5.82909H471.795C471.742 5.4234 471.566 5.10846 471.267 4.88426C470.978 4.64939 470.589 4.53195 470.098 4.53195C469.617 4.53195 469.244 4.63337 468.977 4.83622C468.72 5.03906 468.592 5.30596 468.592 5.63692C468.592 5.9572 468.758 6.20808 469.089 6.38957C469.43 6.57106 469.889 6.72587 470.466 6.85398C470.957 6.96074 471.421 7.09419 471.859 7.25433C472.308 7.40379 472.671 7.63332 472.948 7.94293C473.236 8.24186 473.38 8.67957 473.38 9.25607C473.391 9.97136 473.119 10.5639 472.564 11.0336C472.019 11.4927 471.277 11.7222 470.338 11.7222Z" fill="white"/>
<path d="M476.087 11.6101C475.82 11.6101 475.596 11.5247 475.414 11.3539C475.243 11.1724 475.158 10.9536 475.158 10.6973C475.158 10.4411 475.243 10.2276 475.414 10.0568C475.596 9.87528 475.82 9.78453 476.087 9.78453C476.343 9.78453 476.557 9.87528 476.727 10.0568C476.909 10.2276 477 10.4411 477 10.6973C477 10.9536 476.909 11.1724 476.727 11.3539C476.557 11.5247 476.343 11.6101 476.087 11.6101Z" fill="white"/>
</svg>
