<svg width="18" height="18" viewBox="0 0 18 18" fill="none" xmlns="http://www.w3.org/2000/svg">
<path fill-rule="evenodd" clip-rule="evenodd" d="M7.69724 15.3945C9.47338 15.3945 11.1062 14.7835 12.4089 13.7704L16.6385 18L17.999 16.6395L13.7694 12.4099C14.7835 11.1062 15.3945 9.47338 15.3945 7.69724C15.3945 3.45317 11.9413 0 7.69724 0C3.45317 0 0 3.45317 0 7.69724C0 11.9413 3.45317 15.3945 7.69724 15.3945ZM7.69724 1.92431C10.881 1.92431 13.4702 4.51347 13.4702 7.69724C13.4702 10.881 10.881 13.4702 7.69724 13.4702C4.51347 13.4702 1.92431 10.881 1.92431 7.69724C1.92431 4.51347 4.51347 1.92431 7.69724 1.92431ZM9.62155 7.69724C9.62155 7.18537 9.42046 6.70237 9.0558 6.33675C8.32841 5.61129 7.06799 5.60936 6.33675 6.33868L4.97819 4.97627C6.43393 3.52149 8.95959 3.52149 10.4163 4.97627C11.1456 5.70654 11.5459 6.67254 11.5459 7.69724H9.62155Z" fill="#8592A3"/>
<path fill-rule="evenodd" clip-rule="evenodd" d="M7.69724 15.3945C9.47338 15.3945 11.1062 14.7835 12.4089 13.7704L16.6385 18L17.999 16.6395L13.7694 12.4099C14.7835 11.1062 15.3945 9.47338 15.3945 7.69724C15.3945 3.45317 11.9413 0 7.69724 0C3.45317 0 0 3.45317 0 7.69724C0 11.9413 3.45317 15.3945 7.69724 15.3945ZM7.69724 1.92431C10.881 1.92431 13.4702 4.51347 13.4702 7.69724C13.4702 10.881 10.881 13.4702 7.69724 13.4702C4.51347 13.4702 1.92431 10.881 1.92431 7.69724C1.92431 4.51347 4.51347 1.92431 7.69724 1.92431ZM9.62155 7.69724C9.62155 7.18537 9.42046 6.70237 9.0558 6.33675C8.32841 5.61129 7.06799 5.60936 6.33675 6.33868L4.97819 4.97627C6.43393 3.52149 8.95959 3.52149 10.4163 4.97627C11.1456 5.70654 11.5459 6.67254 11.5459 7.69724H9.62155Z" fill="black" fill-opacity="0.2"/>
</svg>
