<svg width="12" height="12" viewBox="0 0 12 12" fill="none" xmlns="http://www.w3.org/2000/svg">
<mask id="mask0_1707_3228" style="mask-type:alpha" maskUnits="userSpaceOnUse" x="-2" y="-2" width="16" height="16">
<rect x="-2" y="-2" width="16" height="16" fill="#D9D9D9"/>
</mask>
<g mask="url(#mask0_1707_3228)">
<path d="M5.50033 6.50029H2.16699C2.02533 6.50029 1.90658 6.45236 1.81074 6.35649C1.71491 6.26061 1.66699 6.14181 1.66699 6.00009C1.66699 5.85836 1.71491 5.73963 1.81074 5.64391C1.90658 5.54819 2.02533 5.50033 2.16699 5.50033H5.50033V2.16699C5.50033 2.02533 5.54826 1.90658 5.64413 1.81074C5.74 1.71491 5.8588 1.66699 6.00053 1.66699C6.14226 1.66699 6.26099 1.71491 6.35671 1.81074C6.45243 1.90658 6.50029 2.02533 6.50029 2.16699V5.50033H9.83363C9.97529 5.50033 10.094 5.54826 10.1899 5.64413C10.2857 5.74 10.3336 5.8588 10.3336 6.00053C10.3336 6.14226 10.2857 6.26099 10.1899 6.35671C10.094 6.45243 9.97529 6.50029 9.83363 6.50029H6.50029V9.83363C6.50029 9.97529 6.45236 10.094 6.35649 10.1899C6.26061 10.2857 6.14181 10.3336 6.00009 10.3336C5.85836 10.3336 5.73963 10.2857 5.64391 10.1899C5.54819 10.094 5.50033 9.97529 5.50033 9.83363V6.50029Z" fill="white"/>
</g>
</svg>
