<svg width="48" height="48" viewBox="0 0 48 48" fill="none" xmlns="http://www.w3.org/2000/svg">
<rect width="48" height="48" rx="24" fill="#DDDDDD"/>
<path d="M17.8942 12.5898V23.2384C17.8942 23.5087 17.7858 23.7679 17.5929 23.9592C17.4 24.1505 17.1383 24.2583 16.8651 24.2589C16.5916 24.2589 16.3293 24.1514 16.1359 23.96C15.9425 23.7686 15.8339 23.5091 15.8339 23.2384V12.5898H14V32.8022H19.728V12.5898H17.8942Z" fill="#013E44"/>
<path d="M19.8405 11.84V11.2898C19.8405 10.2494 19.085 9.40857 18.1546 9.40857H15.6885C14.7582 9.40857 14.0049 10.2494 14.0049 11.2876V11.84H19.8405Z" fill="#013E44"/>
<path d="M15.9238 37.8757C15.9946 38.078 16.1272 38.2535 16.3034 38.3777C16.4796 38.5018 16.6906 38.5686 16.9069 38.5686C17.1232 38.5686 17.3342 38.5018 17.5103 38.3777C17.6865 38.2535 17.8192 38.078 17.89 37.8757V37.8602L15.9238 37.8757Z" fill="#013E44"/>
<path d="M18.3313 37.0726L19.728 33.5054H14L15.4371 37.0726H18.3313Z" fill="#013E44"/>
<path d="M38.4541 37.0593C37.8633 37.7264 37.0293 38.1344 36.135 38.1939C35.2406 38.2534 34.3589 37.9594 33.6833 37.3765L28.7332 33.0927C25.7089 30.0312 30.0044 28.9264 32.3001 28.5671C32.6553 28.5134 33.0072 28.4393 33.3538 28.3452H33.4995L38.1379 32.3562C38.8061 32.9408 39.2141 33.7628 39.2733 34.6434C39.3325 35.5241 39.0381 36.3923 38.4541 37.0593Z" fill="#013E44"/>
<path d="M40.3872 19.1076C40.3872 21.8918 39.1654 24.4829 36.9459 26.4041C36.7599 26.5661 36.5671 26.7191 36.372 26.8678C35.4687 27.5438 34.4429 28.0424 33.35 28.3364C33.0041 28.4302 32.653 28.5043 32.2985 28.5582C30.0028 28.9176 25.7051 30.0224 28.7294 33.0839L28.7855 33.1393L28.8101 33.1637L23.2704 28.3741C22.7481 27.921 22.3792 27.3201 22.2136 26.6527C22.048 25.9852 22.0937 25.2835 22.3445 24.6427C22.6017 24.0085 23.046 23.4657 23.6194 23.085C24.1929 22.7044 24.8689 22.5035 25.5594 22.5085H29.2002C29.6294 22.509 30.057 22.4576 30.4736 22.3554C32.2671 21.925 33.6257 20.6073 33.6257 19.0987C33.6257 17.253 31.608 15.6912 29.2002 15.6912H25.0998C24.203 15.6912 23.3428 15.3388 22.7085 14.7115C22.0741 14.0841 21.7174 13.2332 21.7168 12.3458C21.7174 11.4583 22.0741 10.6074 22.7085 9.98005C23.3428 9.35273 24.203 9.00034 25.0998 9.00034H29.2002C32.0408 8.9788 34.7929 9.97747 36.9459 11.8111C39.1654 13.7345 40.3872 16.3235 40.3872 19.1076Z" fill="#013E44"/>
</svg>
