<svg width="30" height="40" viewBox="0 0 30 40" fill="none" xmlns="http://www.w3.org/2000/svg">
<path d="M14.4888 24.3753H6.81828V39.7165H0V0H13.9775C16.1934 0 18.2389 0.340914 20.1139 0.852285C21.8185 1.36366 23.3526 2.21594 24.5458 3.06823C25.739 4.09097 26.7617 5.28417 27.2731 6.81828C27.7845 8.35239 28.2959 10.057 28.2959 11.932C28.2959 14.6593 27.614 16.8752 26.4208 18.5798C25.0572 20.2844 23.3526 21.8185 21.1367 22.6708L30.0004 39.2051V39.546H22.6708L14.4888 24.3753ZM6.81828 18.9207H13.9775C15.1707 18.9207 16.3639 18.7503 17.2162 18.4094C18.0684 18.0684 18.9207 17.5571 19.6026 17.0457C20.2844 16.5343 20.6253 15.8525 20.9662 15.0002C21.3071 14.1479 21.4776 13.2956 21.4776 12.2729C21.4776 11.2502 21.3071 10.3979 20.9662 9.54559C20.6253 8.69331 20.2844 8.01148 19.6026 7.50011C18.9207 6.98874 18.2389 6.47737 17.2162 6.13645C16.3639 5.79554 15.1707 5.62508 13.807 5.62508H6.81828V18.9207Z" fill="white"/>
</svg>
