<svg width="152" height="34" viewBox="0 0 152 34" fill="none" xmlns="http://www.w3.org/2000/svg">
<g clip-path="url(#clip0_0_144)">
<path d="M26.3872 10.0984C26.3872 12.8826 25.1654 15.4737 22.9459 17.3949C22.7599 17.5568 22.5671 17.7099 22.372 17.8585C21.4687 18.5346 20.4429 19.0331 19.35 19.3272C19.0041 19.421 18.653 19.4951 18.2985 19.549C16.0028 19.9084 11.7051 21.0132 14.7294 24.0746L14.7855 24.1301L14.8101 24.1545L9.27042 19.3649C8.74814 18.9118 8.3792 18.3109 8.21359 17.6434C8.04797 16.976 8.09367 16.2743 8.34452 15.6334C8.60171 14.9993 9.04598 14.4565 9.61942 14.0758C10.1929 13.6952 10.8689 13.4942 11.5594 13.4993H15.2002C15.6294 13.4998 16.057 13.4484 16.4736 13.3462C18.2671 12.9158 19.6257 11.5981 19.6257 10.0895C19.6257 8.24376 17.608 6.68197 15.2002 6.68197H11.0998C10.203 6.68197 9.34283 6.32958 8.70846 5.70226C8.07409 5.07493 7.71739 4.22401 7.7168 3.33654C7.71739 2.44908 8.07409 1.59816 8.70846 0.970838C9.34283 0.343512 10.203 -0.00887515 11.0998 -0.00887496H15.2002C18.0408 -0.0304164 20.7929 0.968256 22.9459 2.8019C25.1654 4.7253 26.3872 7.31424 26.3872 10.0984Z" fill="#013E44"/>
<path d="M24.4541 28.0501C23.8633 28.7172 23.0293 29.1252 22.135 29.1847C21.2406 29.2442 20.3589 28.9502 19.6833 28.3673L14.7332 24.0835C11.7089 21.0221 16.0044 19.9173 18.3001 19.5579C18.6553 19.5042 19.0072 19.4301 19.3538 19.336H19.4995L24.1379 23.347C24.8061 23.9316 25.2141 24.7536 25.2733 25.6342C25.3325 26.5149 25.0381 27.3831 24.4541 28.0501Z" fill="#013E44"/>
<path d="M4.33133 28.0634L5.72802 24.4962H0L1.43705 28.0634H4.33133Z" fill="#013E44"/>
<path d="M1.92383 28.8665C1.99455 29.0688 2.12725 29.2442 2.30345 29.3684C2.47964 29.4926 2.69058 29.5593 2.9069 29.5593C3.12321 29.5593 3.33415 29.4926 3.51035 29.3684C3.68655 29.2442 3.81923 29.0688 3.88995 28.8665V28.851L1.92383 28.8665Z" fill="#013E44"/>
<path d="M5.84051 2.83075V2.28058C5.84051 1.24013 5.085 0.399323 4.15462 0.399323H1.68854C0.758159 0.399323 0.00488281 1.24012 0.00488281 2.27836V2.83075H5.84051Z" fill="#013E44"/>
<path d="M3.89416 3.5806V14.2292C3.89416 14.4994 3.78582 14.7587 3.5929 14.95C3.39999 15.1413 3.13826 15.2491 2.86514 15.2497C2.59163 15.2497 2.32931 15.1421 2.13591 14.9508C1.94251 14.7594 1.83386 14.4998 1.83386 14.2292V3.5806H0V23.7929H5.72802V3.5806H3.89416Z" fill="#013E44"/>
<path d="M40.0201 28.7046C34.2764 28.7046 30.0303 24.7113 30.0303 18.9256V18.8546C30.0415 13.4505 33.9199 9.01358 39.4843 9.01358C45.8715 9.01358 48.6895 14.2025 48.6895 18.1092C48.6895 19.6622 47.5843 20.6871 46.1562 20.6871H35.422C35.9578 23.1274 37.6639 24.3941 40.0963 24.3941C41.4873 24.406 42.8426 23.9587 43.9479 23.1229C44.3243 22.833 44.7916 22.683 45.2684 22.6992C45.5491 22.6948 45.8278 22.747 46.0875 22.8523C46.3473 22.9577 46.5827 23.1142 46.7796 23.3123C46.9764 23.5104 47.1305 23.746 47.2326 24.0048C47.3347 24.2635 47.3827 24.5402 47.3735 24.8178C47.3758 25.1176 47.3134 25.4143 47.1904 25.6882C47.0675 25.9622 46.8868 26.207 46.6606 26.4063C44.9792 27.8216 42.8023 28.7046 40.0201 28.7046ZM43.5175 17.3372C43.1946 14.9369 41.7688 13.3129 39.4821 13.3129C37.2402 13.3129 35.7718 14.9014 35.3436 17.3372H43.5175Z" fill="#013E44"/>
<path d="M54.3974 32.6933C53.4693 32.3406 52.8617 31.5996 52.8617 30.6124C52.8672 30.2499 52.9623 29.8943 53.1388 29.5766C53.3153 29.2589 53.5678 28.9889 53.8742 28.7901C54.1806 28.5914 54.5315 28.4699 54.8963 28.4364C55.2611 28.4029 55.6286 28.4585 55.9667 28.5981C57.6205 29.3567 59.4236 29.7431 61.2464 29.7295C64.9567 29.7295 66.7054 27.9547 66.7054 24.5738V23.6554C65.0979 25.561 63.3425 26.7257 60.4617 26.7257C56.0026 26.7257 51.9717 23.5134 51.9717 17.9007V17.8297C51.9717 12.1815 56.0743 9.0047 60.4617 9.0047C63.4232 9.0047 65.1697 10.2404 66.6336 11.8288V11.7933C66.658 11.0948 66.9568 10.4332 67.4665 9.94932C67.9761 9.46539 68.6563 9.19724 69.3626 9.20186C70.0689 9.20648 70.7455 9.48352 71.2486 9.97408C71.7518 10.4646 72.0417 11.13 72.0567 11.8288V24.0081C72.0567 27.3957 71.2362 29.867 69.6288 31.4554C67.8353 33.2302 65.0979 33.9978 61.3899 33.9978C58.9953 34.0193 56.6197 33.5762 54.3974 32.6933ZM66.7054 17.9029V17.8319C66.7054 15.2541 64.672 13.4549 62.031 13.4549C59.3901 13.4549 57.3926 15.2541 57.3926 17.8319V17.9029C57.3926 20.514 59.3901 22.2799 62.031 22.2799C64.672 22.2799 66.7054 20.4785 66.7054 17.9029Z" fill="#013E44"/>
<path d="M76.834 4.84065C76.834 3.28773 78.1545 2.3338 79.8673 2.3338C81.5801 2.3338 82.9005 3.28773 82.9005 4.84065V4.91164C82.9005 6.46456 81.5801 7.45398 79.8673 7.45398C78.1545 7.45398 76.834 6.46456 76.834 4.91164V4.84065ZM77.1568 11.831C77.1568 11.1197 77.4424 10.4374 77.9507 9.93445C78.459 9.43146 79.1484 9.14888 79.8673 9.14888C80.5861 9.14888 81.2755 9.43146 81.7838 9.93445C82.2922 10.4374 82.5777 11.1197 82.5777 11.831V25.8072C82.5777 26.5186 82.2922 27.2008 81.7838 27.7038C81.2755 28.2068 80.5861 28.4894 79.8673 28.4894C79.1484 28.4894 78.459 28.2068 77.9507 27.7038C77.4424 27.2008 77.1568 26.5186 77.1568 25.8072V11.831Z" fill="#013E44"/>
<path d="M87.1806 26.4817C86.8627 26.2898 86.6002 26.0198 86.4188 25.698C86.2373 25.3761 86.1429 25.0133 86.1449 24.6448C86.1397 24.3652 86.1916 24.0874 86.2973 23.828C86.4031 23.5687 86.5606 23.3331 86.7604 23.1353C86.9603 22.9375 87.1984 22.7817 87.4605 22.677C87.7226 22.5724 88.0033 22.5211 88.2859 22.5262C88.6618 22.5228 89.0315 22.621 89.3553 22.8101C91.1757 23.9393 92.9961 24.505 94.5295 24.505C96.0989 24.505 96.8118 23.9393 96.8118 23.0919V23.0209C96.8118 21.8562 94.9578 21.468 92.8526 20.8335C90.1758 20.057 87.1448 18.8214 87.1448 15.1498V15.0788C87.1448 11.2298 90.2834 9.07791 94.1372 9.07791C96.1968 9.10427 98.2227 9.59918 100.058 10.5243C100.446 10.701 100.773 10.9851 101.001 11.3422C101.229 11.6993 101.348 12.1141 101.343 12.5365C101.344 12.8179 101.288 13.0967 101.179 13.3564C101.07 13.6162 100.909 13.8518 100.706 14.0492C100.504 14.2466 100.263 14.4019 99.9991 14.506C99.7349 14.61 99.4523 14.6607 99.168 14.6551C98.8183 14.6617 98.4732 14.5759 98.1681 14.4066C96.6347 13.6657 95.1707 13.2065 94.0296 13.2065C92.7091 13.2065 92.0321 13.7722 92.0321 14.5131V14.5841C92.0321 15.6423 93.8502 16.137 95.9195 16.8425C98.5963 17.7299 101.699 18.9966 101.699 22.4574V22.5262C101.699 26.7279 98.5246 28.6336 94.3861 28.6336C91.8252 28.6163 89.3236 27.8692 87.1806 26.4817Z" fill="#013E44"/>
<path d="M106.122 22.9144V13.9496H105.945C105.635 13.9592 105.325 13.9069 105.035 13.7959C104.746 13.6848 104.481 13.5173 104.258 13.3033C104.035 13.0892 103.857 12.833 103.736 12.5498C103.615 12.2666 103.553 11.9622 103.553 11.6547C103.553 11.3471 103.615 11.0427 103.736 10.7595C103.857 10.4763 104.035 10.2201 104.258 10.006C104.481 9.79197 104.746 9.62446 105.035 9.51342C105.325 9.40239 105.635 9.3501 105.945 9.35966H106.122V6.9948C106.112 6.63594 106.174 6.27865 106.306 5.94409C106.437 5.60953 106.636 5.30448 106.888 5.047C107.141 4.78952 107.444 4.58484 107.778 4.44508C108.112 4.30531 108.471 4.23331 108.834 4.23331C109.197 4.23331 109.556 4.30531 109.89 4.44508C110.224 4.58484 110.527 4.78952 110.779 5.047C111.032 5.30448 111.23 5.60953 111.362 5.94409C111.493 6.27865 111.556 6.63594 111.545 6.9948V9.35966H113.935C114.246 9.3501 114.555 9.40239 114.845 9.51342C115.135 9.62446 115.399 9.79197 115.622 10.006C115.846 10.2201 116.023 10.4763 116.144 10.7595C116.265 11.0427 116.328 11.3471 116.328 11.6547C116.328 11.9622 116.265 12.2666 116.144 12.5498C116.023 12.833 115.846 13.0892 115.622 13.3033C115.399 13.5173 115.135 13.6848 114.845 13.7959C114.555 13.9069 114.246 13.9592 113.935 13.9496H111.545V22.0337C111.545 23.2694 112.081 23.8683 113.294 23.8683C113.471 23.8683 113.83 23.8329 113.935 23.8329C114.528 23.8381 115.095 24.0735 115.515 24.4884C115.934 24.9033 116.172 25.4646 116.177 26.0513C116.173 26.4856 116.039 26.9088 115.791 27.2671C115.543 27.6255 115.193 27.9027 114.785 28.0634C113.796 28.4412 112.742 28.6207 111.682 28.5914C108.371 28.5981 106.122 27.2936 106.122 22.9144Z" fill="#013E44"/>
<path d="M118.894 22.8456V22.768C118.894 18.6372 122.068 16.7316 126.599 16.7316C128.191 16.7175 129.773 16.9803 131.273 17.508V17.1908C131.273 14.9723 129.881 13.73 127.171 13.73C125.902 13.7166 124.639 13.8955 123.424 14.2602C123.173 14.3521 122.908 14.3994 122.64 14.4C122.347 14.4044 122.056 14.351 121.784 14.2431C121.512 14.1351 121.264 13.9746 121.056 13.771C120.847 13.5675 120.681 13.3248 120.568 13.0572C120.456 12.7897 120.398 12.5025 120.398 12.2126C120.397 11.7589 120.537 11.3159 120.799 10.9435C121.061 10.571 121.432 10.2869 121.862 10.1294C123.575 9.49497 125.429 9.14001 127.962 9.14001C130.924 9.14001 133.062 9.91647 134.419 11.2586C135.847 12.6718 136.488 14.7549 136.488 17.295V25.9093C136.488 26.2509 136.42 26.5892 136.287 26.9044C136.154 27.2196 135.959 27.5055 135.713 27.7454C135.467 27.9853 135.176 28.1745 134.855 28.3018C134.535 28.4291 134.192 28.4921 133.847 28.4871C132.278 28.4871 131.244 27.3912 131.244 26.2687V26.2332C129.924 27.6818 128.105 28.6335 125.465 28.6335C121.855 28.6335 118.894 26.5859 118.894 22.8456ZM131.345 21.6099V20.656C130.255 20.1809 129.075 19.9405 127.884 19.9505C125.565 19.9505 124.137 20.869 124.137 22.5616V22.6326C124.137 24.0813 125.35 24.9287 127.099 24.9287C129.632 24.9287 131.345 23.5511 131.345 21.6099Z" fill="#013E44"/>
<path d="M141.869 22.9144V13.9496H141.69C141.087 13.9311 140.515 13.6812 140.096 13.2528C139.676 12.8244 139.441 12.2513 139.441 11.6547C139.441 11.0581 139.676 10.4849 140.096 10.0565C140.515 9.62812 141.087 9.3782 141.69 9.35966H141.869V6.9948C141.869 6.28346 142.155 5.60125 142.663 5.09825C143.171 4.59526 143.861 4.31268 144.579 4.31268C145.298 4.31268 145.988 4.59526 146.496 5.09825C147.004 5.60125 147.29 6.28346 147.29 6.9948V9.35966H149.682C150.285 9.3782 150.856 9.62812 151.276 10.0565C151.696 10.4849 151.93 11.0581 151.93 11.6547C151.93 12.2513 151.696 12.8244 151.276 13.2528C150.856 13.6812 150.285 13.9311 149.682 13.9496H147.292V22.0337C147.292 23.2694 147.828 23.8683 149.041 23.8683C149.22 23.8683 149.577 23.8329 149.684 23.8329C150.277 23.8381 150.844 24.0735 151.264 24.4884C151.683 24.9033 151.921 25.4646 151.926 26.0513C151.923 26.4854 151.789 26.9086 151.541 27.2669C151.293 27.6253 150.944 27.9026 150.536 28.0634C149.547 28.441 148.491 28.6204 147.431 28.5914C144.115 28.5981 141.869 27.2936 141.869 22.9144Z" fill="#013E44"/>
</g>
<defs>
<clipPath id="clip0_0_144">
<rect width="152" height="34" fill="white"/>
</clipPath>
</defs>
</svg>
