<svg width="72" height="72" viewBox="0 0 72 72" fill="none" xmlns="http://www.w3.org/2000/svg">
<circle cx="36" cy="36" r="36" fill="#E4DDF4"/>
<path fill-rule="evenodd" clip-rule="evenodd" d="M41.5099 19.4158L50.0958 28.446C50.3229 28.6856 50.45 29.0039 50.45 29.336L50.45 45.0634C50.45 49.3663 46.974 52.9999 42.8572 52.9999H29.3191C24.9617 52.9999 21.55 49.5134 21.55 45.0634V40.7743C21.55 40.0657 22.1195 39.4906 22.8211 39.4906C23.5228 39.4906 24.0923 40.0657 24.0923 40.7743V45.0634C24.0923 48.1237 26.3379 50.4326 29.3191 50.4326H42.8572C45.5961 50.4326 47.9078 47.9731 47.9078 45.0634V29.8511L41.4183 23.0255V25.2642C41.4183 26.9826 42.803 28.3843 44.5046 28.3878C45.2063 28.3895 45.774 28.9646 45.7723 29.6749C45.7706 30.3817 45.2029 30.9551 44.5012 30.9551H44.4995C41.3997 30.9482 38.8761 28.3963 38.8761 25.2642V21.5878H29.3191C26.4853 21.5878 24.0923 23.9223 24.0923 26.6865V33.7963C24.0923 34.5049 23.5228 35.0799 22.8211 35.0799C22.1195 35.0799 21.55 34.5049 21.55 33.7963L21.55 26.6865C21.55 22.5308 25.1074 19.0204 29.3191 19.0204H40.0489C40.0652 19.0189 40.0801 19.0144 40.0947 19.0101C40.112 19.0049 40.1288 18.9999 40.1472 18.9999C40.1671 18.9999 40.1848 19.0052 40.2025 19.0105C40.2165 19.0147 40.2305 19.0189 40.2455 19.0204H40.593C40.9387 19.0204 41.2692 19.1625 41.5099 19.4158ZM36.6177 42.9858C36.6177 43.6944 36.0482 44.2695 35.3466 44.2695C34.6449 44.2695 34.0755 43.6944 34.0755 42.9858V34.8422L31.4366 37.5208C30.9417 38.024 30.1367 38.024 29.6384 37.5242C29.1419 37.0245 29.1402 36.2115 29.635 35.7083L34.4466 30.8286V30.8269C34.6771 30.5959 34.9957 30.4521 35.3466 30.4521C35.6991 30.4521 36.016 30.5959 36.2465 30.8269V30.8286L41.0581 35.7083C41.553 36.2115 41.5513 37.0245 41.0547 37.5242C40.8056 37.7724 40.4819 37.8973 40.1565 37.8973C39.831 37.8973 39.5056 37.7724 39.2565 37.5208L36.6177 34.8422V42.9858Z" fill="#6E47D5"/>
</svg>
