<svg width="122" height="13" viewBox="0 0 122 13" fill="none" xmlns="http://www.w3.org/2000/svg">
<path d="M9.88879 4.02877H8.46957C8.38563 3.62055 8.23875 3.26193 8.02892 2.9529C7.8229 2.64388 7.5711 2.38445 7.27353 2.17462C6.97976 1.96097 6.65357 1.80074 6.29495 1.69391C5.93633 1.58709 5.56244 1.53368 5.1733 1.53368C4.46369 1.53368 3.82084 1.71299 3.24476 2.07161C2.67249 2.43023 2.21658 2.95862 1.87704 3.65679C1.54131 4.35496 1.37344 5.21145 1.37344 6.22627C1.37344 7.2411 1.54131 8.09759 1.87704 8.79576C2.21658 9.49392 2.67249 10.0223 3.24476 10.3809C3.82084 10.7396 4.46369 10.9189 5.1733 10.9189C5.56244 10.9189 5.93633 10.8655 6.29495 10.7586C6.65357 10.6518 6.97976 10.4935 7.27353 10.2837C7.5711 10.07 7.8229 9.80867 8.02892 9.49965C8.23875 9.18681 8.38563 8.82819 8.46957 8.42378H9.88879C9.78197 9.02276 9.58739 9.55878 9.30508 10.0319C9.02276 10.5049 8.67177 10.9074 8.2521 11.2393C7.83244 11.5674 7.36127 11.8173 6.8386 11.989C6.31975 12.1607 5.76465 12.2465 5.1733 12.2465C4.17374 12.2465 3.28482 12.0024 2.50653 11.514C1.72825 11.0257 1.11592 10.3313 0.669553 9.43097C0.223184 8.53061 0 7.46237 0 6.22627C0 4.99018 0.223184 3.92194 0.669553 3.02157C1.11592 2.12121 1.72825 1.42685 2.50653 0.938519C3.28482 0.450184 4.17374 0.206016 5.1733 0.206016C5.76465 0.206016 6.31975 0.291856 6.8386 0.463537C7.36127 0.635217 7.83244 0.887015 8.2521 1.21893C8.67177 1.54703 9.02276 1.94762 9.30508 2.42069C9.58739 2.88995 9.78197 3.42598 9.88879 4.02877Z" fill="black"/>
<path d="M15.57 12.2694C14.7764 12.2694 14.0802 12.0806 13.4812 11.7029C12.886 11.3252 12.4206 10.7968 12.0849 10.1177C11.753 9.4386 11.587 8.64506 11.587 7.73706C11.587 6.82143 11.753 6.02217 12.0849 5.33926C12.4206 4.65635 12.886 4.12605 13.4812 3.74835C14.0802 3.37066 14.7764 3.18181 15.57 3.18181C16.3635 3.18181 17.0579 3.37066 17.653 3.74835C18.252 4.12605 18.7174 4.65635 19.0494 5.33926C19.3851 6.02217 19.553 6.82143 19.553 7.73706C19.553 8.64506 19.3851 9.4386 19.0494 10.1177C18.7174 10.7968 18.252 11.3252 17.653 11.7029C17.0579 12.0806 16.3635 12.2694 15.57 12.2694ZM15.57 11.0562C16.1728 11.0562 16.6687 10.9017 17.0579 10.5927C17.447 10.2837 17.7351 9.87734 17.922 9.37375C18.1089 8.87015 18.2024 8.32459 18.2024 7.73706C18.2024 7.14953 18.1089 6.60206 17.922 6.09465C17.7351 5.58724 17.447 5.17712 17.0579 4.86428C16.6687 4.55144 16.1728 4.39502 15.57 4.39502C14.9672 4.39502 14.4712 4.55144 14.0821 4.86428C13.6929 5.17712 13.4049 5.58724 13.218 6.09465C13.031 6.60206 12.9375 7.14953 12.9375 7.73706C12.9375 8.32459 13.031 8.87015 13.218 9.37375C13.4049 9.87734 13.6929 10.2837 14.0821 10.5927C14.4712 10.9017 14.9672 11.0562 15.57 11.0562Z" fill="black"/>
<path d="M22.9651 6.79854V12.0863H21.6146V3.29626H22.9193V4.66971H23.0338C23.2398 4.22334 23.5526 3.86472 23.9723 3.59384C24.392 3.31915 24.9337 3.18181 25.5975 3.18181C26.1927 3.18181 26.7135 3.30389 27.1598 3.54806C27.6062 3.78841 27.9534 4.15466 28.2014 4.64681C28.4493 5.13515 28.5733 5.7532 28.5733 6.50096V12.0863H27.2228V6.59253C27.2228 5.90199 27.0435 5.36406 26.6849 4.97873C26.3262 4.58959 25.8341 4.39502 25.2084 4.39502C24.7773 4.39502 24.392 4.48849 24.0524 4.67543C23.7167 4.86237 23.4515 5.13515 23.257 5.49377C23.0624 5.85239 22.9651 6.28732 22.9651 6.79854Z" fill="black"/>
<path d="M32.3918 6.79854V12.0863H31.0412V3.29626H32.346V4.66971H32.4605C32.6665 4.22334 32.9793 3.86472 33.399 3.59384C33.8187 3.31915 34.3604 3.18181 35.0242 3.18181C35.6194 3.18181 36.1401 3.30389 36.5865 3.54806C37.0329 3.78841 37.3801 4.15466 37.628 4.64681C37.876 5.13515 38 5.7532 38 6.50096V12.0863H36.6495V6.59253C36.6495 5.90199 36.4702 5.36406 36.1115 4.97873C35.7529 4.58959 35.2608 4.39502 34.6351 4.39502C34.204 4.39502 33.8186 4.48849 33.4791 4.67543C33.1434 4.86237 32.8782 5.13515 32.6837 5.49377C32.4891 5.85239 32.3918 6.28732 32.3918 6.79854Z" fill="black"/>
<path d="M44.1533 12.2694C43.3064 12.2694 42.5758 12.0825 41.9615 11.7086C41.3511 11.3309 40.88 10.8044 40.548 10.1291C40.2199 9.45005 40.0559 8.66032 40.0559 7.75995C40.0559 6.85958 40.2199 6.06604 40.548 5.37932C40.88 4.68878 41.3416 4.15085 41.9329 3.76552C42.5281 3.37638 43.2224 3.18181 44.016 3.18181C44.4738 3.18181 44.9259 3.25811 45.3723 3.41072C45.8186 3.56332 46.2249 3.8113 46.5912 4.15466C46.9574 4.49421 47.2493 4.94439 47.4668 5.50522C47.6842 6.06604 47.793 6.75658 47.793 7.57683V8.14909H41.0173V6.98167H46.4195C46.4195 6.4857 46.3203 6.04315 46.1219 5.65401C45.9274 5.26486 45.6489 4.95775 45.2864 4.73266C44.9278 4.50756 44.5043 4.39502 44.016 4.39502C43.4781 4.39502 43.0126 4.52855 42.6197 4.79561C42.2305 5.05885 41.931 5.40221 41.7212 5.82569C41.5114 6.24916 41.4064 6.70316 41.4064 7.18768V7.96597C41.4064 8.6298 41.5209 9.19253 41.7498 9.65416C41.9825 10.112 42.3049 10.4611 42.7169 10.7014C43.129 10.9379 43.6078 11.0562 44.1533 11.0562C44.5081 11.0562 44.8286 11.0066 45.1147 10.9074C45.4047 10.8044 45.6546 10.6518 45.8644 10.4496C46.0742 10.2436 46.2364 9.98798 46.3508 9.68277L47.6556 10.049C47.5183 10.4916 47.2874 10.8807 46.9632 11.2165C46.6389 11.5484 46.2383 11.8078 45.7614 11.9947C45.2845 12.1779 44.7485 12.2694 44.1533 12.2694Z" fill="black"/>
<path d="M53.4183 12.2694C52.5943 12.2694 51.8847 12.0749 51.2895 11.6857C50.6944 11.2966 50.2365 10.7605 49.9161 10.0776C49.5956 9.39473 49.4354 8.61454 49.4354 7.73706C49.4354 6.84432 49.5994 6.0565 49.9275 5.3736C50.2594 4.68687 50.7211 4.15085 51.3124 3.76552C51.9076 3.37638 52.6019 3.18181 53.3955 3.18181C54.0135 3.18181 54.5705 3.29626 55.0665 3.52517C55.5624 3.75408 55.9688 4.07455 56.2854 4.48658C56.6021 4.89861 56.7985 5.37932 56.8748 5.9287H55.5243C55.4213 5.52811 55.1924 5.1733 54.8376 4.86428C54.4866 4.55144 54.0135 4.39502 53.4183 4.39502C52.8919 4.39502 52.4302 4.53236 52.0335 4.80705C51.6405 5.07792 51.3334 5.46134 51.1121 5.95731C50.8946 6.44946 50.7859 7.02745 50.7859 7.69128C50.7859 8.37037 50.8927 8.96171 51.1064 9.46531C51.3238 9.96891 51.6291 10.36 52.022 10.6385C52.4188 10.917 52.8842 11.0562 53.4183 11.0562C53.7693 11.0562 54.0879 10.9952 54.374 10.8731C54.6602 10.751 54.9024 10.5755 55.1008 10.3466C55.2992 10.1177 55.4404 9.84301 55.5243 9.52254H56.8748C56.7985 10.0414 56.6097 10.5087 56.3083 10.9246C56.0107 11.3366 55.6159 11.6647 55.1237 11.9089C54.6354 12.1492 54.0669 12.2694 53.4183 12.2694Z" fill="black"/>
<path d="M62.6719 3.29626V4.4408H58.1167V3.29626H62.6719ZM59.4443 1.19032H60.7949V9.56832C60.7949 9.94983 60.8502 10.236 60.9608 10.4267C61.0753 10.6137 61.2203 10.7396 61.3958 10.8044C61.5751 10.8655 61.7639 10.896 61.9623 10.896C62.1111 10.896 62.2332 10.8884 62.3286 10.8731C62.4239 10.854 62.5002 10.8388 62.5575 10.8273L62.8322 12.0405C62.7406 12.0749 62.6128 12.1092 62.4487 12.1435C62.2847 12.1817 62.0768 12.2008 61.825 12.2008C61.4435 12.2008 61.0696 12.1187 60.7033 11.9547C60.3409 11.7906 60.0395 11.5407 59.7991 11.205C59.5626 10.8693 59.4443 10.4458 59.4443 9.93457V1.19032Z" fill="black"/>
<path d="M71.2273 12.0863L68.5491 3.29626H69.9683L71.8683 10.0261H71.9598L73.8369 3.29626H75.279L77.1331 10.0032H77.2247L79.1246 3.29626H80.5438L77.8656 12.0863H76.538L74.6152 5.33354H74.4778L72.555 12.0863H71.2273Z" fill="black"/>
<path d="M82.3293 12.0863V3.29626H83.6799V12.0863H82.3293ZM83.016 1.83126C82.7528 1.83126 82.5258 1.7416 82.335 1.56229C82.1481 1.38298 82.0546 1.16743 82.0546 0.915629C82.0546 0.663831 82.1481 0.448276 82.335 0.268965C82.5258 0.0896552 82.7528 0 83.016 0C83.2793 0 83.5044 0.0896552 83.6913 0.268965C83.8821 0.448276 83.9775 0.663831 83.9775 0.915629C83.9775 1.16743 83.8821 1.38298 83.6913 1.56229C83.5044 1.7416 83.2793 1.83126 83.016 1.83126Z" fill="black"/>
<path d="M89.9762 3.29626V4.4408H85.421V3.29626H89.9762ZM86.7487 1.19032H88.0992V9.56832C88.0992 9.94983 88.1545 10.236 88.2652 10.4267C88.3796 10.6137 88.5246 10.7396 88.7001 10.8044C88.8794 10.8655 89.0683 10.896 89.2666 10.896C89.4154 10.896 89.5375 10.8884 89.6329 10.8731C89.7283 10.854 89.8046 10.8388 89.8618 10.8273L90.1365 12.0405C90.0449 12.0749 89.9171 12.1092 89.7531 12.1435C89.589 12.1817 89.3811 12.2008 89.1293 12.2008C88.7478 12.2008 88.3739 12.1187 88.0076 11.9547C87.6452 11.7906 87.3438 11.5407 87.1035 11.205C86.8669 10.8693 86.7487 10.4458 86.7487 9.93457V1.19032Z" fill="black"/>
<path d="M93.5472 6.79854V12.0863H92.1966V0.366251H93.5472V4.66971H93.6617C93.8677 4.21571 94.1767 3.85518 94.5887 3.58812C95.0046 3.31725 95.5578 3.18181 96.2483 3.18181C96.8473 3.18181 97.3719 3.30199 97.822 3.54234C98.2722 3.77888 98.6213 4.14322 98.8693 4.63537C99.1211 5.1237 99.247 5.74557 99.247 6.50096V12.0863H97.8964V6.59253C97.8964 5.89436 97.7152 5.35452 97.3528 4.97301C96.9942 4.58768 96.4963 4.39502 95.8592 4.39502C95.4166 4.39502 95.0198 4.48849 94.6688 4.67543C94.3217 4.86237 94.047 5.13515 93.8448 5.49377C93.6464 5.85239 93.5472 6.28732 93.5472 6.79854Z" fill="black"/>
<path d="M111.79 8.49246V3.29626H113.14V12.0863H111.79V10.5984H111.698C111.492 11.0448 111.172 11.4244 110.737 11.7372C110.302 12.0462 109.752 12.2008 109.089 12.2008C108.539 12.2008 108.051 12.0806 107.624 11.8402C107.196 11.5961 106.861 11.2298 106.616 10.7415C106.372 10.2493 106.25 9.62936 106.25 8.8816V3.29626H107.601V8.79003C107.601 9.43097 107.78 9.9422 108.139 10.3237C108.501 10.7052 108.963 10.896 109.523 10.896C109.859 10.896 110.201 10.8101 110.548 10.6385C110.899 10.4668 111.193 10.2035 111.429 9.84873C111.669 9.49392 111.79 9.04183 111.79 8.49246Z" fill="black"/>
<path d="M121.84 5.26486L120.627 5.60823C120.551 5.40602 120.438 5.20954 120.289 5.01879C120.144 4.82422 119.946 4.66398 119.694 4.53808C119.442 4.41219 119.12 4.34924 118.727 4.34924C118.189 4.34924 117.741 4.47323 117.382 4.72121C117.027 4.96538 116.85 5.27631 116.85 5.65401C116.85 5.98974 116.972 6.25489 117.216 6.44946C117.46 6.64403 117.842 6.80617 118.361 6.93589L119.666 7.25636C120.451 7.44711 121.037 7.73897 121.422 8.13193C121.808 8.52107 122 9.02276 122 9.63699C122 10.1406 121.855 10.5908 121.565 10.9875C121.279 11.3843 120.879 11.6972 120.364 11.9261C119.849 12.155 119.25 12.2694 118.567 12.2694C117.67 12.2694 116.928 12.0749 116.341 11.6857C115.753 11.2966 115.381 10.7281 115.225 9.98035L116.507 9.65988C116.629 10.133 116.859 10.4878 117.199 10.7243C117.542 10.9608 117.991 11.0791 118.544 11.0791C119.173 11.0791 119.673 10.9456 120.043 10.6785C120.417 10.4076 120.604 10.0834 120.604 9.70566C120.604 9.40045 120.497 9.14484 120.284 8.93882C120.07 8.72899 119.742 8.57257 119.299 8.46956L117.834 8.1262C117.029 7.93545 116.438 7.63978 116.06 7.23919C115.686 6.83479 115.499 6.32928 115.499 5.72268C115.499 5.22671 115.639 4.78797 115.917 4.40646C116.199 4.02495 116.583 3.72546 117.067 3.508C117.556 3.29054 118.109 3.18181 118.727 3.18181C119.597 3.18181 120.28 3.37257 120.776 3.75408C121.275 4.13559 121.63 4.63918 121.84 5.26486Z" fill="black"/>
</svg>
