<svg width="370" height="325" viewBox="0 0 370 325" fill="none" xmlns="http://www.w3.org/2000/svg">
<path fill-rule="evenodd" clip-rule="evenodd" d="M0.538596 237.36C0.538596 346.634 6.10618e-05 322.802 109.915 322.802H259.583C369.21 322.802 369.21 346.634 369.21 237.36L369.21 87.486C369.21 -21.6916 369.21 2.21828 275.104 2.2182L236.639 2.2182C222.83 2.23742 209.828 8.71275 201.558 19.7612L193.522 28.7506C188.989 33.822 182.507 36.7213 175.705 36.7179C166.687 36.7134 158.968 36.7069 148.88 36.7209H94.4517C6.10618e-05 36.7209 3.05309e-05 36.7209 3.05309e-05 141.959L0.538596 237.36Z" fill="#FAFAFA"/>
</svg>
