<svg width="71" height="71" viewBox="0 0 71 71" fill="none" xmlns="http://www.w3.org/2000/svg">
<path d="M12.7502 28.2845L19.6565 31.2029C20.4829 29.5521 21.3388 27.9602 22.2242 26.4273C23.1097 24.8943 24.0836 23.3614 25.1462 21.8285L20.1878 20.8557L12.7502 28.2845ZM25.3232 35.6248L35.4171 45.6183C37.8963 44.675 40.5526 43.2305 43.386 41.2848C46.2194 39.3392 48.8756 37.1283 51.3548 34.652C55.4868 30.5249 58.7192 25.9414 61.0521 20.9017C63.3849 15.8619 64.4025 11.2183 64.105 6.97091C59.8549 6.67612 55.1917 7.69374 50.1152 10.0238C45.0388 12.3538 40.4346 15.5812 36.3026 19.706C33.8234 22.1822 31.6098 24.8354 29.6618 27.6654C27.7139 30.4954 26.2677 33.1486 25.3232 35.6248ZM41.0839 29.8763C39.7262 28.5203 39.0474 26.8553 39.0474 24.8814C39.0474 22.9074 39.7262 21.2413 41.0839 19.8829C42.4415 18.5268 44.1238 17.8488 46.1308 17.8488C48.1378 17.8488 49.8201 18.5268 51.1778 19.8829C52.5354 21.2389 53.2142 22.9051 53.2142 24.8814C53.2142 26.8577 52.5354 28.5227 51.1778 29.8763C49.8201 31.2324 48.1378 31.9104 46.1308 31.9104C44.1238 31.9104 42.4415 31.2324 41.0839 29.8763ZM42.7662 58.2649L50.2038 50.8361L49.2298 45.8836C47.6951 46.9449 46.1603 47.9024 44.6256 48.7561C43.0908 49.6098 41.4971 50.4506 39.8443 51.2783L42.7662 58.2649ZM70.4801 0.514937C71.6016 7.64893 70.9086 14.5919 68.4011 21.3438C65.8936 28.0958 61.5691 34.5353 55.4278 40.6622L57.1987 49.4211C57.4348 50.6003 57.3758 51.75 57.0216 52.8702C56.6674 53.9904 56.0771 54.9632 55.2507 55.7887L40.3755 70.6462L32.9379 53.224L17.7971 38.1011L0.354172 30.6723L15.1408 15.8147C15.9672 14.9893 16.9565 14.3997 18.1088 14.0459C19.261 13.6922 20.4262 13.6332 21.6044 13.8691L30.3702 15.6378C36.5092 9.50613 42.9433 5.17267 49.6725 2.63745C56.4018 0.102227 63.3376 -0.605277 70.4801 0.514937ZM6.64071 49.3327C8.70671 47.2691 11.2308 46.2232 14.2129 46.1949C17.195 46.1666 19.7179 47.1831 21.7815 49.2443C23.8475 51.3078 24.8664 53.8289 24.838 56.8075C24.8097 59.7861 23.7614 62.306 21.693 64.3672C20.2173 65.8411 17.7534 67.1087 14.3014 68.17C10.8494 69.2312 6.0823 70.1746 0 71C0.8264 64.9273 1.77086 60.1658 2.83337 56.7155C3.89588 53.2652 5.165 50.8043 6.64071 49.3327ZM11.6877 54.2852C11.0974 54.8748 10.5071 55.9514 9.9168 57.515C9.32651 59.0786 8.91331 60.6551 8.6772 62.2446C10.271 62.0088 11.8506 61.6102 13.416 61.049C14.9814 60.4877 16.0581 59.9134 16.646 59.3262C17.3544 58.6187 17.7381 57.7638 17.7971 56.7615C17.8561 55.7592 17.5315 54.9043 16.8231 54.1968C16.1148 53.4893 15.2589 53.1497 14.2554 53.178C13.2519 53.2063 12.396 53.5754 11.6877 54.2852Z" fill="#013E44"/>
</svg>
