<svg width="30" height="30" viewBox="0 0 30 30" fill="none" xmlns="http://www.w3.org/2000/svg">
<path d="M27.25 16.3308C27.25 18.0928 26.9033 19.6 26.247 20.6883C25.4344 22.0369 24.1689 22.75 22.595 22.75C19.5391 22.75 17.3691 18.7031 15.0722 14.4134C13.2106 10.9375 11.1008 7 9.09375 7C8.06781 7 6.91281 8.09375 6.00391 9.91703C5.03709 11.9184 4.52359 14.1083 4.5 16.3308C4.5 17.7745 4.76031 18.9689 5.2525 19.7848C5.74469 20.6008 6.44906 21 7.405 21C9.05875 21 10.7792 18.3159 12.2427 15.6898C12.3558 15.4868 12.5449 15.337 12.7685 15.2734C12.9921 15.2098 13.2318 15.2377 13.4348 15.3508C13.6379 15.4639 13.7877 15.6531 13.8513 15.8767C13.9149 16.1002 13.887 16.3399 13.7739 16.543C12.0972 19.5464 10.0858 22.75 7.405 22.75C5.82891 22.75 4.56125 22.0369 3.75297 20.6883C3.09672 19.5945 2.75 18.0928 2.75 16.3308C2.77578 13.838 3.35168 11.3817 4.43656 9.13719C5.68344 6.63031 7.33719 5.25 9.09375 5.25C12.1497 5.25 14.3186 9.29688 16.6166 13.5866C18.477 17.0625 20.5869 21 22.595 21C23.5509 21 24.2553 20.603 24.7475 19.7848C25.2397 18.9667 25.5 17.7745 25.5 16.3308C25.4767 14.1084 24.9636 11.9184 23.9972 9.91703C23.0938 8.09375 21.9333 7 20.9062 7C19.9919 7 18.9725 7.81812 17.788 9.5025C17.7228 9.59881 17.6391 9.68117 17.5418 9.74477C17.4444 9.80836 17.3353 9.85191 17.221 9.87287C17.1066 9.89383 16.9892 9.89179 16.8756 9.86685C16.762 9.84191 16.6546 9.79459 16.5595 9.72764C16.4644 9.6607 16.3836 9.57547 16.3219 9.47694C16.2601 9.37842 16.2186 9.26857 16.1998 9.15382C16.181 9.03907 16.1852 8.92172 16.2122 8.80862C16.2393 8.69553 16.2886 8.58897 16.3573 8.49516C17.3417 7.10172 18.873 5.25 20.9062 5.25C22.6617 5.25 24.3155 6.63031 25.5623 9.13719C26.6476 11.3816 27.2239 13.8379 27.25 16.3308Z" fill="#042100"/>
</svg>
