<svg width="111" height="90" viewBox="0 0 111 90" fill="none" xmlns="http://www.w3.org/2000/svg">
<path d="M0 11.637V0H3.93203C4.84495 0 5.5912 0.164781 6.17078 0.494344C6.75414 0.820119 7.18599 1.26143 7.4663 1.81828C7.74662 2.37513 7.88678 2.99637 7.88678 3.68201C7.88678 4.36765 7.74662 4.99079 7.4663 5.55143C7.18977 6.11206 6.76172 6.55906 6.18214 6.89241C5.60257 7.22197 4.86011 7.38675 3.95475 7.38675H1.13642V6.13669H3.9093C4.53433 6.13669 5.03625 6.02873 5.41506 5.81281C5.79387 5.59689 6.0685 5.3052 6.23897 4.93776C6.41322 4.56653 6.50034 4.14795 6.50034 3.68201C6.50034 3.21608 6.41322 2.79939 6.23897 2.43195C6.0685 2.0645 5.79197 1.77661 5.40938 1.56826C5.02678 1.35613 4.51918 1.25007 3.88657 1.25007H1.40917V11.637H0Z" fill="black"/>
<path d="M9.97496 11.637V2.90924H11.2705V4.2275H11.3614C11.5205 3.79566 11.8084 3.44526 12.2251 3.1763C12.6418 2.90735 13.1115 2.77287 13.6342 2.77287C13.7327 2.77287 13.8558 2.77477 14.0036 2.77856C14.1513 2.78234 14.2631 2.78803 14.3388 2.7956V4.15931C14.2934 4.14795 14.1892 4.1309 14.0263 4.10817C13.8672 4.08165 13.6986 4.0684 13.5206 4.0684C13.0963 4.0684 12.7175 4.15742 12.3842 4.33546C12.0546 4.50971 11.7932 4.75214 11.6 5.06277C11.4106 5.3696 11.3159 5.72 11.3159 6.11396V11.637H9.97496Z" fill="black"/>
<path d="M19.2084 11.8188C18.4205 11.8188 17.7292 11.6313 17.1344 11.2563C16.5435 10.8813 16.0813 10.3566 15.748 9.68233C15.4184 9.00805 15.2536 8.22013 15.2536 7.31857C15.2536 6.40943 15.4184 5.61583 15.748 4.93776C16.0813 4.25969 16.5435 3.73315 17.1344 3.35813C17.7292 2.98311 18.4205 2.7956 19.2084 2.7956C19.9963 2.7956 20.6858 2.98311 21.2767 3.35813C21.8714 3.73315 22.3336 4.25969 22.6631 4.93776C22.9965 5.61583 23.1632 6.40943 23.1632 7.31857C23.1632 8.22013 22.9965 9.00805 22.6631 9.68233C22.3336 10.3566 21.8714 10.8813 21.2767 11.2563C20.6858 11.6313 19.9963 11.8188 19.2084 11.8188ZM19.2084 10.6142C19.8069 10.6142 20.2994 10.4608 20.6857 10.1539C21.0721 9.84711 21.3581 9.44368 21.5438 8.94365C21.7294 8.44363 21.8222 7.90193 21.8222 7.31857C21.8222 6.7352 21.7294 6.19161 21.5438 5.6878C21.3581 5.18399 21.0721 4.77677 20.6857 4.46614C20.2994 4.15552 19.8069 4.00021 19.2084 4.00021C18.6099 4.00021 18.1174 4.15552 17.731 4.46614C17.3447 4.77677 17.0587 5.18399 16.873 5.6878C16.6874 6.19161 16.5946 6.7352 16.5946 7.31857C16.5946 7.90193 16.6874 8.44363 16.873 8.94365C17.0587 9.44368 17.3447 9.84711 17.731 10.1539C18.1174 10.4608 18.6099 10.6142 19.2084 10.6142Z" fill="black"/>
<path d="M28.5058 11.8188C27.7785 11.8188 27.1364 11.6351 26.5795 11.2676C26.0227 10.8964 25.587 10.3737 25.2726 9.69938C24.9582 9.02131 24.801 8.22013 24.801 7.29584C24.801 6.37912 24.9582 5.58363 25.2726 4.90935C25.587 4.23507 26.0246 3.71421 26.5852 3.34677C27.1458 2.97932 27.7936 2.7956 28.5285 2.7956C29.0967 2.7956 29.5456 2.8903 29.8752 3.07971C30.2085 3.26532 30.4623 3.47746 30.6366 3.71611C30.8146 3.95097 30.9529 4.14416 31.0514 4.29568H31.165V0H32.506V11.637H31.2105V10.296H31.0514C30.9529 10.4551 30.8127 10.6559 30.6309 10.8983C30.4491 11.137 30.1896 11.351 29.8524 11.5404C29.5153 11.726 29.0664 11.8188 28.5058 11.8188ZM28.6876 10.6142C29.2255 10.6142 29.6801 10.474 30.0513 10.1937C30.4225 9.90961 30.7047 9.51755 30.8979 9.01752C31.0911 8.51371 31.1877 7.93224 31.1877 7.27311C31.1877 6.62156 31.093 6.05146 30.9036 5.56279C30.7142 5.07034 30.4339 4.68775 30.0627 4.41501C29.6914 4.13848 29.2331 4.00021 28.6876 4.00021C28.1194 4.00021 27.6459 4.14605 27.2671 4.43773C26.892 4.72563 26.6098 5.11769 26.4204 5.61393C26.2348 6.10638 26.142 6.65944 26.142 7.27311C26.142 7.89436 26.2367 8.45878 26.4261 8.96638C26.6193 9.4702 26.9034 9.87173 27.2784 10.171C27.6572 10.4665 28.127 10.6142 28.6876 10.6142Z" fill="black"/>
<path d="M40.6485 8.06861V2.90924H41.9894V11.637H40.6485V10.1596H40.5575C40.353 10.6028 40.0348 10.9797 39.6029 11.2904C39.1711 11.5972 38.6256 11.7506 37.9665 11.7506C37.421 11.7506 36.9361 11.6313 36.5119 11.3926C36.0876 11.1502 35.7543 10.7866 35.5118 10.3017C35.2694 9.81302 35.1482 9.19746 35.1482 8.45499V2.90924H36.4891V8.36408C36.4891 9.00048 36.6672 9.50808 37.0233 9.88689C37.3831 10.2657 37.8415 10.4551 38.3983 10.4551C38.7317 10.4551 39.0707 10.3699 39.4154 10.1994C39.7639 10.0289 40.0556 9.76756 40.2905 9.41527C40.5291 9.06298 40.6485 8.61409 40.6485 8.06861Z" fill="black"/>
<path d="M47.9912 11.8188C47.1729 11.8188 46.4684 11.6256 45.8774 11.2392C45.2865 10.8528 44.8319 10.3206 44.5137 9.64255C44.1955 8.96449 44.0364 8.18983 44.0364 7.31857C44.0364 6.43216 44.1993 5.64992 44.5251 4.97185C44.8546 4.29 45.313 3.75777 45.9002 3.37518C46.4911 2.98879 47.1805 2.7956 47.9684 2.7956C48.5821 2.7956 49.1352 2.90924 49.6276 3.13653C50.1201 3.36381 50.5235 3.68201 50.8379 4.09112C51.1523 4.50024 51.3474 4.97754 51.4232 5.52302H50.0822C49.9799 5.12527 49.7526 4.77298 49.4003 4.46614C49.0518 4.15552 48.5821 4.00021 47.9912 4.00021C47.4684 4.00021 47.0101 4.13658 46.6161 4.40932C46.2259 4.67828 45.921 5.05898 45.7013 5.55143C45.4854 6.04009 45.3774 6.61399 45.3774 7.27311C45.3774 7.94739 45.4835 8.53454 45.6956 9.03457C45.9115 9.53459 46.2146 9.92287 46.6047 10.1994C46.9987 10.4759 47.4608 10.6142 47.9912 10.6142C48.3397 10.6142 48.656 10.5536 48.9401 10.4324C49.2242 10.3112 49.4647 10.1369 49.6617 9.90962C49.8587 9.68233 49.9989 9.40959 50.0822 9.09139H51.4232C51.3474 9.60657 51.1599 10.0706 50.8606 10.4835C50.5652 10.8926 50.1731 11.2184 49.6844 11.4608C49.1996 11.6995 48.6351 11.8188 47.9912 11.8188Z" fill="black"/>
<path d="M57.1792 2.90924V4.04567H52.6562V2.90924H57.1792ZM53.9744 0.818225H55.3154V9.13685C55.3154 9.51565 55.3703 9.79976 55.4802 9.98916C55.5938 10.1748 55.7378 10.2998 55.912 10.3642C56.0901 10.4248 56.2776 10.4551 56.4746 10.4551C56.6223 10.4551 56.7435 10.4475 56.8382 10.4324C56.9329 10.4134 57.0087 10.3983 57.0655 10.3869L57.3383 11.5915C57.2473 11.6256 57.1204 11.6597 56.9576 11.6938C56.7947 11.7317 56.5882 11.7506 56.3382 11.7506C55.9594 11.7506 55.5882 11.6692 55.2245 11.5063C54.8646 11.3434 54.5654 11.0953 54.3267 10.7619C54.0919 10.4286 53.9744 10.0081 53.9744 9.5005V0.818225Z" fill="black"/>
<path d="M65.2222 4.86389L64.0176 5.20482C63.9418 5.00405 63.8301 4.80897 63.6823 4.61956C63.5384 4.42637 63.3414 4.26727 63.0914 4.14226C62.8414 4.01726 62.5213 3.95475 62.1311 3.95475C61.597 3.95475 61.1519 4.07787 60.7958 4.32409C60.4435 4.56653 60.2674 4.87526 60.2674 5.25028C60.2674 5.58363 60.3886 5.8469 60.631 6.04009C60.8735 6.23328 61.2523 6.39428 61.7675 6.52307L63.063 6.84127C63.8433 7.03067 64.4248 7.32046 64.8074 7.71063C65.19 8.09702 65.3813 8.59515 65.3813 9.20503C65.3813 9.70506 65.2374 10.1521 64.9495 10.546C64.6654 10.94 64.2676 11.2506 63.7562 11.4779C63.2448 11.7052 62.6501 11.8188 61.972 11.8188C61.0818 11.8188 60.345 11.6256 59.7617 11.2392C59.1783 10.8528 58.809 10.2884 58.6537 9.54596L59.9265 9.22776C60.0477 9.69748 60.2769 10.0498 60.614 10.2846C60.9549 10.5195 61.4 10.6369 61.9493 10.6369C62.5743 10.6369 63.0706 10.5043 63.438 10.2392C63.8092 9.97022 63.9949 9.64824 63.9949 9.27322C63.9949 8.97017 63.8888 8.71637 63.6767 8.51181C63.4645 8.30347 63.1388 8.14816 62.6993 8.04588L61.2447 7.70495C60.4454 7.51555 59.8583 7.22197 59.4833 6.82422C59.112 6.42269 58.9264 5.92077 58.9264 5.31846C58.9264 4.82601 59.0647 4.39038 59.3412 4.01158C59.6215 3.63277 60.0022 3.3354 60.4833 3.11948C60.9682 2.90356 61.5175 2.7956 62.1311 2.7956C62.9948 2.7956 63.6729 2.98501 64.1653 3.36381C64.6616 3.74262 65.0138 4.24265 65.2222 4.86389Z" fill="black"/>
<path d="M0 37.0021V26.8198H1.23302V35.9083H5.96622V37.0021H0Z" fill="#E2E2E2"/>
<path d="M9.96359 37.1811C9.47967 37.1811 9.04049 37.09 8.64605 36.9077C8.25162 36.7221 7.93839 36.4552 7.70637 36.1072C7.47435 35.7559 7.35834 35.3316 7.35834 34.8344C7.35834 34.3969 7.44452 34.0422 7.61688 33.7704C7.78924 33.4953 8.0196 33.2799 8.30797 33.1241C8.59633 32.9683 8.91453 32.8523 9.26256 32.7761C9.61391 32.6965 9.96691 32.6335 10.3216 32.5871C10.7856 32.5275 11.1618 32.4827 11.4502 32.4529C11.7419 32.4197 11.954 32.365 12.0866 32.2888C12.2225 32.2126 12.2904 32.08 12.2904 31.8911V31.8513C12.2904 31.3607 12.1562 30.9796 11.8877 30.7078C11.6225 30.436 11.2198 30.3001 10.6795 30.3001C10.1194 30.3001 9.6802 30.4227 9.362 30.668C9.0438 30.9133 8.82007 31.1751 8.6908 31.4535L7.5771 31.0558C7.77598 30.5918 8.04114 30.2305 8.3726 29.9719C8.70737 29.7101 9.07197 29.5278 9.46641 29.425C9.86416 29.319 10.2553 29.2659 10.6398 29.2659C10.885 29.2659 11.1668 29.2958 11.485 29.3554C11.8065 29.4118 12.1164 29.5294 12.4147 29.7084C12.7163 29.8874 12.9666 30.1575 13.1655 30.5188C13.3643 30.8801 13.4638 31.364 13.4638 31.9706V37.0021H12.2904V35.968H12.2308C12.1512 36.1337 12.0186 36.311 11.833 36.5C11.6474 36.6889 11.4005 36.8497 11.0922 36.9822C10.7839 37.1148 10.4077 37.1811 9.96359 37.1811ZM10.1426 36.1271C10.6066 36.1271 10.9977 36.0359 11.3159 35.8536C11.6375 35.6713 11.8794 35.436 12.0418 35.1476C12.2076 34.8593 12.2904 34.556 12.2904 34.2378V33.1639C12.2407 33.2235 12.1313 33.2782 11.9623 33.3279C11.7965 33.3743 11.6043 33.4158 11.3855 33.4522C11.1701 33.4854 10.9596 33.5152 10.7541 33.5417C10.5519 33.5649 10.3879 33.5848 10.2619 33.6014C9.95696 33.6412 9.67191 33.7058 9.40675 33.7953C9.1449 33.8815 8.93276 34.0124 8.77035 34.1881C8.61125 34.3604 8.5317 34.5958 8.5317 34.8941C8.5317 35.3018 8.68251 35.61 8.98414 35.8188C9.28908 36.0243 9.67523 36.1271 10.1426 36.1271Z" fill="#E2E2E2"/>
<path d="M20.4182 33.8798V29.3654H21.5915V37.0021H20.4182V35.7094H20.3386C20.1596 36.0973 19.8812 36.4271 19.5033 36.6988C19.1255 36.9673 18.6482 37.1016 18.0714 37.1016C17.5941 37.1016 17.1699 36.9972 16.7987 36.7883C16.4274 36.5762 16.1357 36.258 15.9236 35.8337C15.7115 35.4062 15.6054 34.8675 15.6054 34.2179V29.3654H16.7788V34.1383C16.7788 34.6952 16.9345 35.1393 17.2461 35.4708C17.561 35.8023 17.9621 35.968 18.4493 35.968C18.741 35.968 19.0376 35.8934 19.3393 35.7443C19.6442 35.5951 19.8994 35.3664 20.1049 35.0581C20.3138 34.7499 20.4182 34.3571 20.4182 33.8798Z" fill="#E2E2E2"/>
<path d="M24.914 32.4081V37.0021H23.7406V29.3654H24.8742V30.5586H24.9736C25.1526 30.1708 25.4244 29.8592 25.789 29.6239C26.1536 29.3853 26.6243 29.2659 27.201 29.2659C27.7181 29.2659 28.1705 29.372 28.5583 29.5841C28.9461 29.7929 29.2478 30.1111 29.4632 30.5387C29.6787 30.963 29.7864 31.4999 29.7864 32.1496V37.0021H28.613V32.2292C28.613 31.6292 28.4572 31.1619 28.1457 30.8271C27.8341 30.489 27.4065 30.32 26.8629 30.32C26.4884 30.32 26.1536 30.4012 25.8586 30.5636C25.5669 30.726 25.3366 30.963 25.1675 31.2746C24.9985 31.5861 24.914 31.964 24.914 32.4081Z" fill="#E2E2E2"/>
<path d="M35.0329 37.1612C34.317 37.1612 33.7005 36.9922 33.1834 36.6541C32.6663 36.316 32.2686 35.8503 31.9901 35.257C31.7117 34.6637 31.5725 33.9859 31.5725 33.2235C31.5725 32.4479 31.715 31.7635 32.0001 31.1701C32.2885 30.5735 32.6895 30.1078 33.2033 29.7731C33.7204 29.435 34.3236 29.2659 35.013 29.2659C35.55 29.2659 36.0339 29.3654 36.4648 29.5642C36.8957 29.7631 37.2487 30.0415 37.5238 30.3995C37.7989 30.7575 37.9696 31.1751 38.0359 31.6524H36.8626C36.7731 31.3044 36.5742 30.9961 36.2659 30.7277C35.961 30.4559 35.55 30.32 35.0329 30.32C34.5755 30.32 34.1744 30.4393 33.8297 30.6779C33.4883 30.9133 33.2215 31.2464 33.0293 31.6773C32.8403 32.1049 32.7459 32.607 32.7459 33.1837C32.7459 33.7737 32.8387 34.2875 33.0243 34.725C33.2132 35.1625 33.4784 35.5023 33.8198 35.7443C34.1645 35.9862 34.5689 36.1072 35.0329 36.1072C35.3379 36.1072 35.6146 36.0542 35.8632 35.9481C36.1118 35.842 36.3223 35.6896 36.4946 35.4907C36.667 35.2918 36.7896 35.0532 36.8626 34.7747H38.0359C37.9696 35.2255 37.8056 35.6316 37.5437 35.9928C37.2852 36.3508 36.9421 36.6359 36.5145 36.848C36.0903 37.0568 35.5964 37.1612 35.0329 37.1612Z" fill="#E2E2E2"/>
<path d="M40.9246 32.4081V37.0021H39.7512V26.8198H40.9246V30.5586H41.024C41.203 30.1642 41.4715 29.8509 41.8294 29.6189C42.1907 29.3836 42.6713 29.2659 43.2713 29.2659C43.7917 29.2659 44.2474 29.3703 44.6385 29.5792C45.0297 29.7847 45.3329 30.1012 45.5484 30.5288C45.7672 30.953 45.8765 31.4933 45.8765 32.1496V37.0021H44.7032V32.2292C44.7032 31.6226 44.5457 31.1536 44.2309 30.8221C43.9193 30.4873 43.4867 30.32 42.9332 30.32C42.5487 30.32 42.204 30.4012 41.8991 30.5636C41.5974 30.726 41.3588 30.963 41.1831 31.2746C41.0107 31.5861 40.9246 31.964 40.9246 32.4081Z" fill="#E2E2E2"/>
<path d="M0 62.6825V52.5002H3.44052C4.23602 52.5002 4.88899 52.636 5.39943 52.9078C5.90988 53.1763 6.28774 53.5459 6.53302 54.0166C6.77829 54.4872 6.90093 55.0225 6.90093 55.6225C6.90093 56.2224 6.77829 56.7544 6.53302 57.2184C6.28774 57.6825 5.91153 58.0471 5.4044 58.3122C4.89728 58.5741 4.24928 58.705 3.46041 58.705H0.676172V57.5913H3.42064C3.96422 57.5913 4.40175 57.5118 4.7332 57.3527C5.06798 57.1936 5.30994 56.9682 5.4591 56.6765C5.61157 56.3815 5.6878 56.0302 5.6878 55.6225C5.6878 55.2148 5.61157 54.8585 5.4591 54.5535C5.30663 54.2486 5.063 54.0133 4.72823 53.8475C4.39346 53.6785 3.95097 53.594 3.40075 53.594H1.23302V62.6825H0ZM4.79287 58.1084L7.29868 62.6825H5.86679L3.40075 58.1084H4.79287Z" fill="#E2E2E2"/>
<path d="M11.9163 62.8416C11.1805 62.8416 10.5457 62.6792 10.0121 62.3544C9.48174 62.0262 9.07239 61.5688 8.78402 60.9821C8.49897 60.3921 8.35644 59.706 8.35644 58.9238C8.35644 58.1415 8.49897 57.4521 8.78402 56.8555C9.07239 56.2556 9.47345 55.7882 9.98721 55.4534C10.5043 55.1153 11.1075 54.9463 11.797 54.9463C12.1947 54.9463 12.5875 55.0126 12.9753 55.1452C13.3631 55.2778 13.7161 55.4932 14.0343 55.7915C14.3525 56.0865 14.6061 56.4776 14.795 56.9649C14.9839 57.4521 15.0784 58.0521 15.0784 58.7647V59.2619H9.19171V58.2476H13.8851C13.8851 57.8167 13.799 57.4322 13.6266 57.0941C13.4576 56.7561 13.2156 56.4892 12.9007 56.2937C12.5891 56.0981 12.2212 56.0003 11.797 56.0003C11.3296 56.0003 10.9252 56.1163 10.5838 56.3484C10.2457 56.5771 9.98555 56.8754 9.80325 57.2433C9.62095 57.6112 9.5298 58.0057 9.5298 58.4266V59.1028C9.5298 59.6795 9.62924 60.1684 9.82811 60.5695C10.0303 60.9672 10.3104 61.2705 10.6684 61.4793C11.0263 61.6848 11.4423 61.7876 11.9163 61.7876C12.2245 61.7876 12.503 61.7445 12.7516 61.6583C13.0035 61.5688 13.2206 61.4362 13.4029 61.2606C13.5852 61.0816 13.726 60.8595 13.8255 60.5943L14.9591 60.9125C14.8397 61.297 14.6392 61.6351 14.3575 61.9268C14.0757 62.2152 13.7277 62.4405 13.3134 62.603C12.8991 62.7621 12.4334 62.8416 11.9163 62.8416Z" fill="#E2E2E2"/>
<path d="M19.9458 65.7054C19.379 65.7054 18.8918 65.6325 18.4841 65.4866C18.0764 65.3441 17.7367 65.1552 17.4649 64.9198C17.1964 64.6878 16.9826 64.4392 16.8235 64.1741L17.7582 63.5178C17.8643 63.657 17.9985 63.8161 18.1609 63.9951C18.3234 64.1774 18.5454 64.3348 18.8272 64.4674C19.1122 64.6033 19.4851 64.6712 19.9458 64.6712C20.5623 64.6712 21.0711 64.5221 21.4722 64.2238C21.8733 63.9255 22.0738 63.4581 22.0738 62.8217V61.2705H21.9744C21.8882 61.4097 21.7655 61.5821 21.6064 61.7876C21.4506 61.9898 21.2253 62.1704 20.9303 62.3295C20.6386 62.4853 20.2441 62.5632 19.747 62.5632C19.1304 62.5632 18.5769 62.4173 18.0864 62.1257C17.5991 61.834 17.213 61.4097 16.9279 60.8529C16.6462 60.296 16.5053 59.6198 16.5053 58.8243C16.5053 58.0421 16.6429 57.361 16.918 56.7809C17.1931 56.1976 17.5759 55.7468 18.0665 55.4286C18.557 55.1071 19.1238 54.9463 19.7668 54.9463C20.264 54.9463 20.6585 55.0292 20.9501 55.1949C21.2451 55.3573 21.4705 55.5429 21.6263 55.7517C21.7854 55.9572 21.9081 56.1263 21.9942 56.2589H22.1136V55.0457H23.2471V62.9013C23.2471 63.5576 23.098 64.0912 22.7997 64.5022C22.5047 64.9165 22.1069 65.2198 21.6064 65.4121C21.1092 65.6076 20.5557 65.7054 19.9458 65.7054ZM19.9061 61.5092C20.3767 61.5092 20.7745 61.4014 21.0993 61.186C21.4241 60.9705 21.6711 60.6606 21.8401 60.2562C22.0092 59.8519 22.0937 59.3679 22.0937 58.8045C22.0937 58.2542 22.0108 57.7687 21.8451 57.3477C21.6794 56.9268 21.4341 56.597 21.1092 56.3583C20.7844 56.1197 20.3834 56.0003 19.9061 56.0003C19.4089 56.0003 18.9946 56.1263 18.6631 56.3782C18.335 56.6301 18.088 56.9682 17.9223 57.3925C17.7599 57.8167 17.6787 58.2874 17.6787 58.8045C17.6787 59.3348 17.7615 59.8038 17.9273 60.2115C18.0963 60.6159 18.3449 60.9341 18.673 61.1661C19.0045 61.3948 19.4155 61.5092 19.9061 61.5092Z" fill="#E2E2E2"/>
<path d="M25.395 62.6825V55.0457H26.5683V62.6825H25.395ZM25.9916 53.7729C25.7629 53.7729 25.5657 53.6951 25.4 53.5393C25.2375 53.3835 25.1563 53.1962 25.1563 52.9775C25.1563 52.7587 25.2375 52.5714 25.4 52.4156C25.5657 52.2598 25.7629 52.182 25.9916 52.182C26.2203 52.182 26.4159 52.2598 26.5783 52.4156C26.744 52.5714 26.8269 52.7587 26.8269 52.9775C26.8269 53.1962 26.744 53.3835 26.5783 53.5393C26.4159 53.6951 26.2203 53.7729 25.9916 53.7729Z" fill="#E2E2E2"/>
<path d="M34.1268 56.7561L33.0728 57.0544C33.0065 56.8787 32.9087 56.708 32.7794 56.5423C32.6535 56.3732 32.4811 56.234 32.2624 56.1246C32.0436 56.0153 31.7635 55.9606 31.4221 55.9606C30.9548 55.9606 30.5653 56.0683 30.2537 56.2837C29.9455 56.4959 29.7913 56.766 29.7913 57.0941C29.7913 57.3858 29.8974 57.6162 30.1095 57.7852C30.3217 57.9543 30.6531 58.0951 31.1039 58.2078L32.2375 58.4863C32.9203 58.652 33.4291 58.9056 33.7639 59.247C34.0986 59.585 34.266 60.0209 34.266 60.5546C34.266 60.9921 34.1401 61.3832 33.8882 61.7279C33.6396 62.0726 33.2915 62.3444 32.8441 62.5433C32.3966 62.7422 31.8762 62.8416 31.2829 62.8416C30.504 62.8416 29.8593 62.6726 29.3489 62.3345C28.8384 61.9964 28.5152 61.5025 28.3793 60.8529L29.493 60.5744C29.5991 60.9854 29.7996 61.2937 30.0946 61.4992C30.3929 61.7047 30.7824 61.8075 31.263 61.8075C31.8099 61.8075 32.2441 61.6915 32.5656 61.4594C32.8905 61.2241 33.0529 60.9424 33.0529 60.6142C33.0529 60.3491 32.9601 60.127 32.7745 59.948C32.5888 59.7657 32.3038 59.6298 31.9193 59.5403L30.6465 59.242C29.9471 59.0763 29.4334 58.8194 29.1052 58.4713C28.7804 58.12 28.618 57.6808 28.618 57.1538C28.618 56.7229 28.739 56.3417 28.9809 56.0103C29.2262 55.6788 29.5593 55.4186 29.9803 55.2297C30.4045 55.0408 30.8852 54.9463 31.4221 54.9463C32.1778 54.9463 32.7711 55.112 33.202 55.4435C33.6362 55.7749 33.9445 56.2125 34.1268 56.7561Z" fill="#E2E2E2"/>
<path d="M39.3535 55.0457V56.0401H35.3959V55.0457H39.3535ZM36.5493 53.2161H37.7227V60.4949C37.7227 60.8263 37.7708 61.0749 37.8669 61.2407C37.9663 61.4031 38.0923 61.5125 38.2447 61.5688C38.4005 61.6218 38.5646 61.6484 38.737 61.6484C38.8662 61.6484 38.9723 61.6417 39.0552 61.6285C39.138 61.6119 39.2043 61.5986 39.254 61.5887L39.4927 62.6427C39.4131 62.6726 39.3021 62.7024 39.1596 62.7322C39.017 62.7654 38.8364 62.7819 38.6176 62.7819C38.2862 62.7819 37.9613 62.7107 37.6431 62.5682C37.3283 62.4256 37.0664 62.2085 36.8576 61.9168C36.6521 61.6252 36.5493 61.2572 36.5493 60.8131V53.2161Z" fill="#E2E2E2"/>
<path d="M43.3657 62.8615C42.8818 62.8615 42.4426 62.7703 42.0482 62.588C41.6538 62.4024 41.3405 62.1356 41.1085 61.7876C40.8765 61.4362 40.7605 61.012 40.7605 60.5148C40.7605 60.0773 40.8467 59.7226 41.019 59.4508C41.1914 59.1757 41.4217 58.9602 41.7101 58.8045C41.9985 58.6487 42.3167 58.5327 42.6647 58.4564C43.0161 58.3769 43.3691 58.3139 43.7237 58.2675C44.1878 58.2078 44.564 58.1631 44.8523 58.1333C45.144 58.1001 45.3561 58.0454 45.4887 57.9692C45.6246 57.893 45.6926 57.7604 45.6926 57.5714V57.5317C45.6926 57.0411 45.5583 56.6599 45.2899 56.3881C45.0247 56.1163 44.622 55.9804 44.0817 55.9804C43.5215 55.9804 43.0823 56.1031 42.7642 56.3484C42.446 56.5936 42.2222 56.8555 42.093 57.1339L40.9793 56.7362C41.1781 56.2721 41.4433 55.9108 41.7748 55.6523C42.1095 55.3905 42.4741 55.2082 42.8686 55.1054C43.2663 54.9993 43.6574 54.9463 44.0419 54.9463C44.2872 54.9463 44.5689 54.9761 44.8871 55.0358C45.2086 55.0921 45.5186 55.2098 45.8169 55.3888C46.1185 55.5678 46.3687 55.8379 46.5676 56.1992C46.7665 56.5605 46.8659 57.0444 46.8659 57.651V62.6825H45.6926V61.6484H45.6329C45.5534 61.8141 45.4208 61.9914 45.2352 62.1804C45.0495 62.3693 44.8026 62.53 44.4944 62.6626C44.1861 62.7952 43.8099 62.8615 43.3657 62.8615ZM43.5447 61.8075C44.0088 61.8075 44.3999 61.7163 44.7181 61.534C45.0396 61.3517 45.2816 61.1164 45.444 60.828C45.6097 60.5396 45.6926 60.2364 45.6926 59.9182V58.8442C45.6429 58.9039 45.5335 58.9586 45.3644 59.0083C45.1987 59.0547 45.0065 59.0961 44.7877 59.1326C44.5722 59.1658 44.3618 59.1956 44.1563 59.2221C43.9541 59.2453 43.79 59.2652 43.6641 59.2818C43.3591 59.3215 43.0741 59.3862 42.8089 59.4757C42.547 59.5618 42.3349 59.6928 42.1725 59.8684C42.0134 60.0408 41.9339 60.2761 41.9339 60.5744C41.9339 60.9821 42.0847 61.2904 42.3863 61.4992C42.6912 61.7047 43.0774 61.8075 43.5447 61.8075Z" fill="#E2E2E2"/>
<path d="M52.3288 55.0457V56.0401H48.3712V55.0457H52.3288ZM49.5246 53.2161H50.698V60.4949C50.698 60.8263 50.746 61.0749 50.8422 61.2407C50.9416 61.4031 51.0676 61.5125 51.22 61.5688C51.3758 61.6218 51.5399 61.6484 51.7122 61.6484C51.8415 61.6484 51.9476 61.6417 52.0304 61.6285C52.1133 61.6119 52.1796 61.5986 52.2293 61.5887L52.468 62.6427C52.3884 62.6726 52.2774 62.7024 52.1349 62.7322C51.9923 62.7654 51.8117 62.7819 51.5929 62.7819C51.2615 62.7819 50.9366 62.7107 50.6184 62.5682C50.3036 62.4256 50.0417 62.2085 49.8329 61.9168C49.6274 61.6252 49.5246 61.2572 49.5246 60.8131V53.2161Z" fill="#E2E2E2"/>
<path d="M0 89.3464L3.09616 80.9459H4.16422L7.24838 89.3464H6.18033L5.41229 87.1863H1.8361L1.05606 89.3464H0ZM2.13611 86.3702H5.11227L3.62419 82.218L2.13611 86.3702Z" fill="#FBFAFF"/>
<path d="M8.81722 89.3464V80.9459H11.5774C12.2334 80.9459 12.7734 81.0539 13.1974 81.27C13.6215 81.486 13.9335 81.778 14.1335 82.146C14.3415 82.514 14.4455 82.93 14.4455 83.3941C14.4455 83.8501 14.3455 84.2621 14.1455 84.6301C13.9455 84.9981 13.6335 85.2942 13.2094 85.5182C12.7854 85.7342 12.2414 85.8422 11.5774 85.8422H9.82527V89.3464H8.81722ZM9.82527 84.9901H11.5534C12.2254 84.9901 12.7014 84.8501 12.9814 84.5701C13.2695 84.2821 13.4135 83.8901 13.4135 83.3941C13.4135 82.89 13.2695 82.498 12.9814 82.218C12.7014 81.93 12.2254 81.786 11.5534 81.786H9.82527V84.9901Z" fill="#FBFAFF"/>
<path d="M16.0868 89.3464V80.9459H17.0949V89.3464H16.0868Z" fill="#FBFAFF"/>
<path d="M22.692 89.3464V80.9459H25.2721C26.7522 80.9459 27.8403 81.322 28.5363 82.074C29.2404 82.826 29.5924 83.8581 29.5924 85.1702C29.5924 86.4582 29.2404 87.4783 28.5363 88.2303C27.8403 88.9744 26.7522 89.3464 25.2721 89.3464H22.692ZM23.7001 88.5063H25.2481C26.0642 88.5063 26.7122 88.3743 27.1922 88.1103C27.6803 87.8383 28.0283 87.4543 28.2363 86.9583C28.4443 86.4542 28.5483 85.8582 28.5483 85.1702C28.5483 84.4661 28.4443 83.8621 28.2363 83.3581C28.0283 82.854 27.6803 82.466 27.1922 82.194C26.7122 81.922 26.0642 81.786 25.2481 81.786H23.7001V88.5063Z" fill="#FBFAFF"/>
<path d="M34.0201 89.4904C33.46 89.4904 32.956 89.3624 32.508 89.1064C32.06 88.8504 31.704 88.4903 31.4399 88.0263C31.1839 87.5543 31.0559 87.0023 31.0559 86.3702C31.0559 85.7382 31.1879 85.1902 31.4519 84.7261C31.716 84.2541 32.072 83.8901 32.52 83.6341C32.976 83.3781 33.484 83.2501 34.0441 83.2501C34.6041 83.2501 35.1081 83.3781 35.5562 83.6341C36.0042 83.8901 36.3562 84.2541 36.6122 84.7261C36.8762 85.1902 37.0082 85.7382 37.0082 86.3702C37.0082 87.0023 36.8762 87.5543 36.6122 88.0263C36.3482 88.4903 35.9882 88.8504 35.5322 89.1064C35.0841 89.3624 34.5801 89.4904 34.0201 89.4904ZM34.0201 88.6263C34.3641 88.6263 34.6841 88.5423 34.9801 88.3743C35.2761 88.2063 35.5162 87.9543 35.7002 87.6183C35.8842 87.2823 35.9762 86.8662 35.9762 86.3702C35.9762 85.8742 35.8842 85.4582 35.7002 85.1222C35.5242 84.7861 35.2881 84.5341 34.9921 84.3661C34.6961 84.1981 34.3801 84.1141 34.0441 84.1141C33.7001 84.1141 33.38 84.1981 33.084 84.3661C32.788 84.5341 32.548 84.7861 32.364 85.1222C32.18 85.4582 32.088 85.8742 32.088 86.3702C32.088 86.8662 32.18 87.2823 32.364 87.6183C32.548 87.9543 32.784 88.2063 33.072 88.3743C33.368 88.5423 33.6841 88.6263 34.0201 88.6263Z" fill="#FBFAFF"/>
<path d="M41.466 89.4904C40.898 89.4904 40.386 89.3624 39.9299 89.1064C39.4819 88.8424 39.1259 88.4783 38.8619 88.0143C38.6059 87.5423 38.4779 86.9943 38.4779 86.3702C38.4779 85.7462 38.6059 85.2022 38.8619 84.7381C39.1259 84.2661 39.4819 83.9021 39.9299 83.6461C40.386 83.3821 40.898 83.2501 41.466 83.2501C42.1701 83.2501 42.7621 83.4341 43.2421 83.8021C43.7301 84.1701 44.0382 84.6621 44.1662 85.2782H43.1341C43.0541 84.9101 42.8581 84.6261 42.5461 84.4261C42.2341 84.2181 41.8701 84.1141 41.454 84.1141C41.118 84.1141 40.802 84.1981 40.506 84.3661C40.21 84.5341 39.97 84.7861 39.7859 85.1222C39.6019 85.4582 39.5099 85.8742 39.5099 86.3702C39.5099 86.8662 39.6019 87.2823 39.7859 87.6183C39.97 87.9543 40.21 88.2103 40.506 88.3863C40.802 88.5543 41.118 88.6383 41.454 88.6383C41.8701 88.6383 42.2341 88.5383 42.5461 88.3383C42.8581 88.1303 43.0541 87.8383 43.1341 87.4623H44.1662C44.0462 88.0623 43.7422 88.5503 43.2541 88.9264C42.7661 89.3024 42.1701 89.4904 41.466 89.4904Z" fill="#FBFAFF"/>
<path d="M48.0661 89.4904C47.3621 89.4904 46.8021 89.2784 46.386 88.8544C45.97 88.4223 45.762 87.7623 45.762 86.8742V83.3941H46.7701V86.7662C46.7701 88.0063 47.2781 88.6263 48.2941 88.6263C48.8142 88.6263 49.2422 88.4423 49.5782 88.0743C49.9222 87.6983 50.0942 87.1663 50.0942 86.4782V83.3941H51.1023V89.3464H50.1902L50.1182 88.2783C49.9342 88.6543 49.6582 88.9504 49.2902 89.1664C48.9302 89.3824 48.5222 89.4904 48.0661 89.4904Z" fill="#FBFAFF"/>
<path d="M53.0816 89.3464V83.3941H53.9936L54.0656 84.2581C54.2576 83.9381 54.5137 83.6901 54.8337 83.5141C55.1537 83.3381 55.5137 83.2501 55.9137 83.2501C56.3858 83.2501 56.7898 83.3461 57.1258 83.5381C57.4698 83.7301 57.7338 84.0221 57.9178 84.4141C58.1259 84.0541 58.4099 83.7701 58.7699 83.5621C59.1379 83.3541 59.5339 83.2501 59.9579 83.2501C60.67 83.2501 61.238 83.4661 61.662 83.8981C62.0861 84.3221 62.2981 84.9781 62.2981 85.8662V89.3464H61.302V85.9742C61.302 85.3582 61.178 84.8941 60.93 84.5821C60.682 84.2701 60.326 84.1141 59.8619 84.1141C59.3819 84.1141 58.9819 84.3021 58.6619 84.6781C58.3499 85.0461 58.1939 85.5742 58.1939 86.2622V89.3464H57.1858V85.9742C57.1858 85.3582 57.0618 84.8941 56.8138 84.5821C56.5658 84.2701 56.2098 84.1141 55.7457 84.1141C55.2737 84.1141 54.8777 84.3021 54.5577 84.6781C54.2456 85.0461 54.0896 85.5742 54.0896 86.2622V89.3464H53.0816Z" fill="#FBFAFF"/>
<path d="M66.8127 89.4904C66.2447 89.4904 65.7406 89.3624 65.3006 89.1064C64.8606 88.8424 64.5126 88.4783 64.2566 88.0143C64.0085 87.5503 63.8845 87.0023 63.8845 86.3702C63.8845 85.7462 64.0085 85.2022 64.2566 84.7381C64.5046 84.2661 64.8486 83.9021 65.2886 83.6461C65.7366 83.3821 66.2527 83.2501 66.8367 83.2501C67.4127 83.2501 67.9087 83.3821 68.3248 83.6461C68.7488 83.9021 69.0728 84.2421 69.2968 84.6661C69.5208 85.0902 69.6328 85.5462 69.6328 86.0342C69.6328 86.1222 69.6288 86.2102 69.6208 86.2982C69.6208 86.3862 69.6208 86.4862 69.6208 86.5982H64.8806C64.9046 87.0543 65.0086 87.4343 65.1926 87.7383C65.3846 88.0343 65.6206 88.2583 65.9006 88.4103C66.1887 88.5623 66.4927 88.6383 66.8127 88.6383C67.2287 88.6383 67.5767 88.5423 67.8567 88.3503C68.1368 88.1583 68.3408 87.8983 68.4688 87.5703H69.4648C69.3048 88.1223 68.9968 88.5823 68.5408 88.9504C68.0928 89.3104 67.5167 89.4904 66.8127 89.4904ZM66.8127 84.1021C66.3327 84.1021 65.9046 84.2501 65.5286 84.5461C65.1606 84.8341 64.9486 85.2582 64.8926 85.8182H68.6368C68.6128 85.2822 68.4288 84.8621 68.0847 84.5581C67.7407 84.2541 67.3167 84.1021 66.8127 84.1021Z" fill="#FBFAFF"/>
<path d="M71.2889 89.3464V83.3941H72.201L72.261 84.4621C72.453 84.0861 72.729 83.7901 73.089 83.5741C73.4491 83.3581 73.8571 83.2501 74.3131 83.2501C75.0171 83.2501 75.5772 83.4661 75.9932 83.8981C76.4172 84.3221 76.6292 84.9781 76.6292 85.8662V89.3464H75.6212V85.9742C75.6212 84.7341 75.1092 84.1141 74.0851 84.1141C73.5731 84.1141 73.145 84.3021 72.801 84.6781C72.465 85.0461 72.297 85.5742 72.297 86.2622V89.3464H71.2889Z" fill="#FBFAFF"/>
<path d="M80.8286 89.3464C80.2846 89.3464 79.8566 89.2144 79.5446 88.9504C79.2326 88.6863 79.0765 88.2103 79.0765 87.5223V84.2461H78.0445V83.3941H79.0765L79.2085 81.966H80.0846V83.3941H81.8367V84.2461H80.0846V87.5223C80.0846 87.8983 80.1606 88.1543 80.3126 88.2903C80.4646 88.4183 80.7326 88.4823 81.1167 88.4823H81.7407V89.3464H80.8286Z" fill="#FBFAFF"/>
<path d="M85.4175 89.4904C84.9215 89.4904 84.5095 89.4064 84.1814 89.2384C83.8534 89.0704 83.6094 88.8464 83.4494 88.5663C83.2894 88.2863 83.2094 87.9823 83.2094 87.6543C83.2094 87.0463 83.4414 86.5782 83.9054 86.2502C84.3694 85.9222 85.0015 85.7582 85.8015 85.7582H87.4096V85.6862C87.4096 85.1662 87.2736 84.7741 87.0016 84.5101C86.7296 84.2381 86.3656 84.1021 85.9095 84.1021C85.5175 84.1021 85.1775 84.2021 84.8895 84.4021C84.6095 84.5941 84.4335 84.8781 84.3614 85.2542H83.3294C83.3694 84.8221 83.5134 84.4581 83.7614 84.1621C84.0174 83.8661 84.3334 83.6421 84.7095 83.4901C85.0855 83.3301 85.4855 83.2501 85.9095 83.2501C86.7416 83.2501 87.3656 83.4741 87.7816 83.9221C88.2057 84.3621 88.4177 84.9501 88.4177 85.6862V89.3464H87.5176L87.4576 88.2783C87.2896 88.6143 87.0416 88.9024 86.7136 89.1424C86.3936 89.3744 85.9615 89.4904 85.4175 89.4904ZM85.5735 88.6383C85.9575 88.6383 86.2855 88.5383 86.5576 88.3383C86.8376 88.1383 87.0496 87.8783 87.1936 87.5583C87.3376 87.2383 87.4096 86.9022 87.4096 86.5502V86.5382H85.8855C85.2935 86.5382 84.8735 86.6422 84.6255 86.8502C84.3855 87.0503 84.2654 87.3023 84.2654 87.6063C84.2654 87.9183 84.3774 88.1703 84.6015 88.3623C84.8335 88.5463 85.1575 88.6383 85.5735 88.6383Z" fill="#FBFAFF"/>
<path d="M92.438 89.3464C91.894 89.3464 91.466 89.2144 91.1539 88.9504C90.8419 88.6863 90.6859 88.2103 90.6859 87.5223V84.2461H89.6539V83.3941H90.6859L90.8179 81.966H91.694V83.3941H93.4461V84.2461H91.694V87.5223C91.694 87.8983 91.77 88.1543 91.922 88.2903C92.074 88.4183 92.342 88.4823 92.726 88.4823H93.3501V89.3464H92.438Z" fill="#FBFAFF"/>
<path d="M95.6588 82.074C95.4588 82.074 95.2908 82.01 95.1548 81.882C95.0268 81.746 94.9628 81.578 94.9628 81.378C94.9628 81.1859 95.0268 81.0259 95.1548 80.8979C95.2908 80.7699 95.4588 80.7059 95.6588 80.7059C95.8508 80.7059 96.0148 80.7699 96.1508 80.8979C96.2868 81.0259 96.3548 81.1859 96.3548 81.378C96.3548 81.578 96.2868 81.746 96.1508 81.882C96.0148 82.01 95.8508 82.074 95.6588 82.074ZM95.1548 89.3464V83.3941H96.1628V89.3464H95.1548Z" fill="#FBFAFF"/>
<path d="M100.95 89.4904C100.39 89.4904 99.8861 89.3624 99.4381 89.1064C98.9901 88.8504 98.6341 88.4903 98.37 88.0263C98.114 87.5543 97.986 87.0023 97.986 86.3702C97.986 85.7382 98.118 85.1902 98.382 84.7261C98.6461 84.2541 99.0021 83.8901 99.4501 83.6341C99.9061 83.3781 100.414 83.2501 100.974 83.2501C101.534 83.2501 102.038 83.3781 102.486 83.6341C102.934 83.8901 103.286 84.2541 103.542 84.7261C103.806 85.1902 103.938 85.7382 103.938 86.3702C103.938 87.0023 103.806 87.5543 103.542 88.0263C103.278 88.4903 102.918 88.8504 102.462 89.1064C102.014 89.3624 101.51 89.4904 100.95 89.4904ZM100.95 88.6263C101.294 88.6263 101.614 88.5423 101.91 88.3743C102.206 88.2063 102.446 87.9543 102.63 87.6183C102.814 87.2823 102.906 86.8662 102.906 86.3702C102.906 85.8742 102.814 85.4582 102.63 85.1222C102.454 84.7861 102.218 84.5341 101.922 84.3661C101.626 84.1981 101.31 84.1141 100.974 84.1141C100.63 84.1141 100.31 84.1981 100.014 84.3661C99.7181 84.5341 99.4781 84.7861 99.2941 85.1222C99.1101 85.4582 99.0181 85.8742 99.0181 86.3702C99.0181 86.8662 99.1101 87.2823 99.2941 87.6183C99.4781 87.9543 99.7141 88.2063 100.002 88.3743C100.298 88.5423 100.614 88.6263 100.95 88.6263Z" fill="#FBFAFF"/>
<path d="M105.66 89.3464V83.3941H106.572L106.632 84.4621C106.824 84.0861 107.1 83.7901 107.46 83.5741C107.82 83.3581 108.228 83.2501 108.684 83.2501C109.388 83.2501 109.948 83.4661 110.364 83.8981C110.788 84.3221 111 84.9781 111 85.8662V89.3464H109.992V85.9742C109.992 84.7341 109.48 84.1141 108.456 84.1141C107.944 84.1141 107.516 84.3021 107.172 84.6781C106.836 85.0461 106.668 85.5742 106.668 86.2622V89.3464H105.66Z" fill="#FBFAFF"/>
</svg>
