<svg width="182" height="15" viewBox="0 0 182 15" fill="none" xmlns="http://www.w3.org/2000/svg">
<path d="M1.60272 2.34784V5.21586H4.97686V6.52334H1.60272V9.51789H5.39862V10.8254H0V1.04036H5.39862V2.34784H1.60272Z" fill="black" fill-opacity="0.6"/>
<path d="M11.6024 2.95237C12.2116 2.95237 12.7553 3.0789 13.2333 3.33196C13.7206 3.58502 14.1002 3.95993 14.372 4.45668C14.6438 4.95343 14.7797 5.55327 14.7797 6.25622V10.8254H13.1911V6.49522C13.1911 5.80165 13.0177 5.27209 12.6709 4.90656C12.3241 4.53166 11.8508 4.34421 11.2509 4.34421C10.6511 4.34421 10.1731 4.53166 9.81694 4.90656C9.47015 5.27209 9.29676 5.80165 9.29676 6.49522V10.8254H7.69404V3.0789H9.29676V3.96461C9.55919 3.64595 9.89192 3.39757 10.2949 3.21949C10.7073 3.04141 11.1432 2.95237 11.6024 2.95237Z" fill="black" fill-opacity="0.6"/>
<path d="M19.0153 4.38638V8.67435C19.0153 8.9649 19.0809 9.17579 19.2121 9.307C19.3527 9.42885 19.587 9.48977 19.9151 9.48977H20.8992V10.8254H19.6339C18.9122 10.8254 18.3592 10.6567 17.9749 10.3192C17.5906 9.98183 17.3985 9.43353 17.3985 8.67435V4.38638H16.4847V3.0789H17.3985V1.15283H19.0153V3.0789H20.8992V4.38638H19.0153Z" fill="black" fill-opacity="0.6"/>
<path d="M29.7974 6.76234C29.7974 7.05289 29.7787 7.31532 29.7412 7.54964H23.8224C23.8693 8.16823 24.0989 8.66498 24.5113 9.03988C24.9237 9.41479 25.4298 9.60224 26.0297 9.60224C26.8919 9.60224 27.5012 9.24139 27.8573 8.5197H29.5866C29.3522 9.23202 28.9258 9.81781 28.3072 10.2771C27.698 10.727 26.9388 10.9519 26.0297 10.9519C25.2892 10.9519 24.6238 10.7879 24.0333 10.4598C23.4522 10.1224 22.9929 9.65379 22.6555 9.05394C22.3275 8.44472 22.1635 7.74178 22.1635 6.9451C22.1635 6.14843 22.3228 5.45017 22.6415 4.85033C22.9695 4.24111 23.4241 3.77248 24.0052 3.44443C24.5956 3.11639 25.2705 2.95237 26.0297 2.95237C26.7607 2.95237 27.4121 3.11171 27.9838 3.43038C28.5556 3.74904 29.0008 4.19893 29.3194 4.78003C29.6381 5.35176 29.7974 6.01253 29.7974 6.76234ZM28.1244 6.25622C28.1151 5.66574 27.9042 5.19243 27.4918 4.83627C27.0794 4.48011 26.5686 4.30203 25.9594 4.30203C25.4064 4.30203 24.9331 4.48011 24.5394 4.83627C24.1458 5.18305 23.9114 5.65637 23.8365 6.25622H28.1244Z" fill="black" fill-opacity="0.6"/>
<path d="M33.2987 4.20362C33.5331 3.80997 33.8424 3.50536 34.2266 3.28979C34.6203 3.06484 35.0842 2.95237 35.6185 2.95237V4.61132H35.2108C34.5828 4.61132 34.1048 4.77066 33.7768 5.08933C33.4581 5.408 33.2987 5.96098 33.2987 6.74828V10.8254H31.696V3.0789H33.2987V4.20362Z" fill="black" fill-opacity="0.6"/>
<path d="M48.3596 3.0789L43.6077 14.4666H41.9488L43.5234 10.6988L40.4726 3.0789H42.2581L44.4372 8.98365L46.7007 3.0789H48.3596Z" fill="black" fill-opacity="0.6"/>
<path d="M53.2506 10.9519C52.5195 10.9519 51.8587 10.7879 51.2683 10.4598C50.6778 10.1224 50.2138 9.65379 49.8764 9.05394C49.539 8.44472 49.3703 7.74178 49.3703 6.9451C49.3703 6.15781 49.5437 5.45955 49.8905 4.85033C50.2373 4.24111 50.7106 3.77248 51.3104 3.44443C51.9103 3.11639 52.5804 2.95237 53.3209 2.95237C54.0613 2.95237 54.7314 3.11639 55.3313 3.44443C55.9311 3.77248 56.4044 4.24111 56.7512 4.85033C57.098 5.45955 57.2714 6.15781 57.2714 6.9451C57.2714 7.7324 57.0933 8.43066 56.7372 9.03988C56.381 9.6491 55.8936 10.1224 55.275 10.4598C54.6658 10.7879 53.991 10.9519 53.2506 10.9519ZM53.2506 9.56006C53.663 9.56006 54.0472 9.46165 54.4034 9.26483C54.7689 9.068 55.0642 8.77276 55.2891 8.37911C55.514 7.98546 55.6265 7.50746 55.6265 6.9451C55.6265 6.38275 55.5187 5.90943 55.3032 5.52515C55.0876 5.1315 54.8017 4.83627 54.4456 4.63944C54.0894 4.44262 53.7051 4.34421 53.2927 4.34421C52.8803 4.34421 52.4961 4.44262 52.1399 4.63944C51.7931 4.83627 51.5166 5.1315 51.3104 5.52515C51.1042 5.90943 51.0011 6.38275 51.0011 6.9451C51.0011 7.77927 51.212 8.42598 51.6338 8.88524C52.0649 9.33512 52.6039 9.56006 53.2506 9.56006Z" fill="black" fill-opacity="0.6"/>
<path d="M66.1925 3.0789V10.8254H64.5898V9.91154C64.3368 10.2302 64.004 10.4833 63.5916 10.6707C63.1886 10.8488 62.7575 10.9378 62.2982 10.9378C61.689 10.9378 61.1407 10.8113 60.6533 10.5582C60.1753 10.3052 59.7957 9.93028 59.5145 9.43353C59.2427 8.93678 59.1068 8.33694 59.1068 7.63399V3.0789H60.6955V7.39499C60.6955 8.08856 60.8689 8.6228 61.2157 8.99771C61.5625 9.36324 62.0358 9.546 62.6356 9.546C63.2355 9.546 63.7088 9.36324 64.0556 8.99771C64.4117 8.6228 64.5898 8.08856 64.5898 7.39499V3.0789H66.1925Z" fill="black" fill-opacity="0.6"/>
<path d="M70.2312 4.20362C70.4656 3.80997 70.7749 3.50536 71.1591 3.28979C71.5528 3.06484 72.0167 2.95237 72.551 2.95237V4.61132H72.1433C71.5153 4.61132 71.0373 4.77066 70.7092 5.08933C70.3906 5.408 70.2312 5.96098 70.2312 6.74828V10.8254H68.6285V3.0789H70.2312V4.20362Z" fill="black" fill-opacity="0.6"/>
<path d="M85.4187 6.76234C85.4187 7.05289 85.3999 7.31532 85.3624 7.54964H79.4436C79.4905 8.16823 79.7201 8.66498 80.1325 9.03988C80.5449 9.41479 81.051 9.60224 81.6509 9.60224C82.5131 9.60224 83.1224 9.24139 83.4785 8.5197H85.2078C84.9735 9.23202 84.547 9.81781 83.9284 10.2771C83.3192 10.727 82.56 10.9519 81.6509 10.9519C80.9104 10.9519 80.245 10.7879 79.6545 10.4598C79.0734 10.1224 78.6141 9.65379 78.2767 9.05394C77.9487 8.44472 77.7847 7.74178 77.7847 6.9451C77.7847 6.14843 77.944 5.45017 78.2627 4.85033C78.5907 4.24111 79.0453 3.77248 79.6264 3.44443C80.2169 3.11639 80.8917 2.95237 81.6509 2.95237C82.3819 2.95237 83.0333 3.11171 83.6051 3.43038C84.1768 3.74904 84.622 4.19893 84.9406 4.78003C85.2593 5.35176 85.4187 6.01253 85.4187 6.76234ZM83.7456 6.25622C83.7363 5.66574 83.5254 5.19243 83.113 4.83627C82.7006 4.48011 82.1898 4.30203 81.5806 4.30203C81.0276 4.30203 80.5543 4.48011 80.1606 4.83627C79.767 5.18305 79.5327 5.65637 79.4577 6.25622H83.7456Z" fill="black" fill-opacity="0.6"/>
<path d="M96.6945 2.95237C97.3038 2.95237 97.8474 3.0789 98.3254 3.33196C98.8127 3.58502 99.1923 3.95993 99.4641 4.45668C99.7453 4.95343 99.8859 5.55327 99.8859 6.25622V10.8254H98.2973V6.49522C98.2973 5.80165 98.1239 5.27209 97.7771 4.90656C97.4303 4.53166 96.957 4.34421 96.3571 4.34421C95.7573 4.34421 95.2793 4.53166 94.9231 4.90656C94.5763 5.27209 94.4029 5.80165 94.4029 6.49522V10.8254H92.8143V6.49522C92.8143 5.80165 92.6409 5.27209 92.2941 4.90656C91.9473 4.53166 91.474 4.34421 90.8741 4.34421C90.2743 4.34421 89.7963 4.53166 89.4401 4.90656C89.0933 5.27209 88.92 5.80165 88.92 6.49522V10.8254H87.3172V3.0789H88.92V3.96461C89.1824 3.64595 89.5151 3.39757 89.9181 3.21949C90.3212 3.04141 90.7523 2.95237 91.2116 2.95237C91.8301 2.95237 92.3831 3.08359 92.8705 3.34602C93.3579 3.60846 93.7328 3.98805 93.9952 4.48479C94.2295 4.01616 94.5951 3.64595 95.0918 3.37414C95.5886 3.09296 96.1228 2.95237 96.6945 2.95237Z" fill="black" fill-opacity="0.6"/>
<path d="M101.712 6.91699C101.712 6.13906 101.872 5.45017 102.19 4.85033C102.518 4.25048 102.959 3.78654 103.512 3.45849C104.074 3.12108 104.693 2.95237 105.368 2.95237C105.977 2.95237 106.507 3.07422 106.956 3.3179C107.416 3.55222 107.781 3.84746 108.053 4.20362V3.0789H109.67V10.8254H108.053V9.67253C107.781 10.0381 107.411 10.3427 106.942 10.5864C106.474 10.8301 105.939 10.9519 105.34 10.9519C104.674 10.9519 104.065 10.7832 103.512 10.4458C102.959 10.099 102.518 9.62099 102.19 9.01177C101.872 8.39317 101.712 7.69491 101.712 6.91699ZM108.053 6.9451C108.053 6.41087 107.941 5.94692 107.716 5.55327C107.5 5.15962 107.214 4.8597 106.858 4.6535C106.502 4.4473 106.118 4.34421 105.705 4.34421C105.293 4.34421 104.909 4.4473 104.552 4.6535C104.196 4.85033 103.906 5.14556 103.681 5.53921C103.465 5.92349 103.357 6.38275 103.357 6.91699C103.357 7.45123 103.465 7.91986 103.681 8.32288C103.906 8.7259 104.196 9.0352 104.552 9.25077C104.918 9.45697 105.302 9.56006 105.705 9.56006C106.118 9.56006 106.502 9.45697 106.858 9.25077C107.214 9.04457 107.5 8.74465 107.716 8.351C107.941 7.94797 108.053 7.47934 108.053 6.9451Z" fill="black" fill-opacity="0.6"/>
<path d="M112.912 2.0526C112.621 2.0526 112.377 1.95419 112.181 1.75736C111.984 1.56054 111.885 1.31685 111.885 1.0263C111.885 0.73575 111.984 0.492062 112.181 0.295238C112.377 0.0984128 112.621 0 112.912 0C113.193 0 113.432 0.0984128 113.629 0.295238C113.825 0.492062 113.924 0.73575 113.924 1.0263C113.924 1.31685 113.825 1.56054 113.629 1.75736C113.432 1.95419 113.193 2.0526 112.912 2.0526ZM113.699 3.0789V10.8254H112.096V3.0789H113.699Z" fill="black" fill-opacity="0.6"/>
<path d="M117.727 0.421768V10.8254H116.125V0.421768H117.727Z" fill="black" fill-opacity="0.6"/>
<path d="M123.592 6.91699C123.592 6.13906 123.751 5.45017 124.07 4.85033C124.398 4.25048 124.838 3.78654 125.391 3.45849C125.954 3.12108 126.572 2.95237 127.247 2.95237C127.856 2.95237 128.386 3.07422 128.836 3.3179C129.295 3.55222 129.661 3.84746 129.933 4.20362V3.0789H131.549V10.8254H129.933V9.67253C129.661 10.0381 129.29 10.3427 128.822 10.5864C128.353 10.8301 127.819 10.9519 127.219 10.9519C126.554 10.9519 125.944 10.7832 125.391 10.4458C124.838 10.099 124.398 9.62099 124.07 9.01177C123.751 8.39317 123.592 7.69491 123.592 6.91699ZM129.933 6.9451C129.933 6.41087 129.82 5.94692 129.595 5.55327C129.38 5.15962 129.094 4.8597 128.738 4.6535C128.381 4.4473 127.997 4.34421 127.585 4.34421C127.172 4.34421 126.788 4.4473 126.432 4.6535C126.076 4.85033 125.785 5.14556 125.56 5.53921C125.345 5.92349 125.237 6.38275 125.237 6.91699C125.237 7.45123 125.345 7.91986 125.56 8.32288C125.785 8.7259 126.076 9.0352 126.432 9.25077C126.797 9.45697 127.182 9.56006 127.585 9.56006C127.997 9.56006 128.381 9.45697 128.738 9.25077C129.094 9.04457 129.38 8.74465 129.595 8.351C129.82 7.94797 129.933 7.47934 129.933 6.9451Z" fill="black" fill-opacity="0.6"/>
<path d="M133.441 6.91699C133.441 6.13906 133.601 5.45017 133.919 4.85033C134.248 4.25048 134.688 3.78654 135.241 3.45849C135.803 3.12108 136.427 2.95237 137.111 2.95237C137.617 2.95237 138.114 3.06484 138.601 3.28979C139.098 3.50536 139.492 3.79591 139.782 4.16144V0.421768H141.399V10.8254H139.782V9.65848C139.52 10.0334 139.154 10.3427 138.685 10.5864C138.226 10.8301 137.697 10.9519 137.097 10.9519C136.422 10.9519 135.803 10.7832 135.241 10.4458C134.688 10.099 134.248 9.62099 133.919 9.01177C133.601 8.39317 133.441 7.69491 133.441 6.91699ZM139.782 6.9451C139.782 6.41087 139.67 5.94692 139.445 5.55327C139.229 5.15962 138.943 4.8597 138.587 4.6535C138.231 4.4473 137.847 4.34421 137.434 4.34421C137.022 4.34421 136.638 4.4473 136.281 4.6535C135.925 4.85033 135.635 5.14556 135.41 5.53921C135.194 5.92349 135.086 6.38275 135.086 6.91699C135.086 7.45123 135.194 7.91986 135.41 8.32288C135.635 8.7259 135.925 9.0352 136.281 9.25077C136.647 9.45697 137.031 9.56006 137.434 9.56006C137.847 9.56006 138.231 9.45697 138.587 9.25077C138.943 9.04457 139.229 8.74465 139.445 8.351C139.67 7.94797 139.782 7.47934 139.782 6.9451Z" fill="black" fill-opacity="0.6"/>
<path d="M143.291 6.91699C143.291 6.13906 143.45 5.45017 143.769 4.85033C144.097 4.25048 144.538 3.78654 145.091 3.45849C145.653 3.12108 146.276 2.95237 146.96 2.95237C147.467 2.95237 147.963 3.06484 148.451 3.28979C148.947 3.50536 149.341 3.79591 149.632 4.16144V0.421768H151.248V10.8254H149.632V9.65848C149.369 10.0334 149.004 10.3427 148.535 10.5864C148.076 10.8301 147.546 10.9519 146.946 10.9519C146.272 10.9519 145.653 10.7832 145.091 10.4458C144.538 10.099 144.097 9.62099 143.769 9.01177C143.45 8.39317 143.291 7.69491 143.291 6.91699ZM149.632 6.9451C149.632 6.41087 149.519 5.94692 149.294 5.55327C149.079 5.15962 148.793 4.8597 148.437 4.6535C148.08 4.4473 147.696 4.34421 147.284 4.34421C146.871 4.34421 146.487 4.4473 146.131 4.6535C145.775 4.85033 145.484 5.14556 145.259 5.53921C145.044 5.92349 144.936 6.38275 144.936 6.91699C144.936 7.45123 145.044 7.91986 145.259 8.32288C145.484 8.7259 145.775 9.0352 146.131 9.25077C146.496 9.45697 146.881 9.56006 147.284 9.56006C147.696 9.56006 148.08 9.45697 148.437 9.25077C148.793 9.04457 149.079 8.74465 149.294 8.351C149.519 7.94797 149.632 7.47934 149.632 6.9451Z" fill="black" fill-opacity="0.6"/>
<path d="M155.278 4.20362C155.512 3.80997 155.821 3.50536 156.205 3.28979C156.599 3.06484 157.063 2.95237 157.597 2.95237V4.61132H157.19C156.562 4.61132 156.084 4.77066 155.756 5.08933C155.437 5.408 155.278 5.96098 155.278 6.74828V10.8254H153.675V3.0789H155.278V4.20362Z" fill="black" fill-opacity="0.6"/>
<path d="M166.492 6.76234C166.492 7.05289 166.473 7.31532 166.435 7.54964H160.517C160.563 8.16823 160.793 8.66498 161.205 9.03988C161.618 9.41479 162.124 9.60224 162.724 9.60224C163.586 9.60224 164.195 9.24139 164.551 8.5197H166.281C166.046 9.23202 165.62 9.81781 165.001 10.2771C164.392 10.727 163.633 10.9519 162.724 10.9519C161.983 10.9519 161.318 10.7879 160.727 10.4598C160.146 10.1224 159.687 9.65379 159.35 9.05394C159.022 8.44472 158.858 7.74178 158.858 6.9451C158.858 6.14843 159.017 5.45017 159.336 4.85033C159.664 4.24111 160.118 3.77248 160.699 3.44443C161.29 3.11639 161.965 2.95237 162.724 2.95237C163.455 2.95237 164.106 3.11171 164.678 3.43038C165.25 3.74904 165.695 4.19893 166.014 4.78003C166.332 5.35176 166.492 6.01253 166.492 6.76234ZM164.819 6.25622C164.809 5.66574 164.598 5.19243 164.186 4.83627C163.774 4.48011 163.263 4.30203 162.654 4.30203C162.101 4.30203 161.627 4.48011 161.234 4.83627C160.84 5.18305 160.606 5.65637 160.531 6.25622H164.819Z" fill="black" fill-opacity="0.6"/>
<path d="M171.202 10.9519C170.593 10.9519 170.044 10.8441 169.557 10.6285C169.079 10.4036 168.699 10.1037 168.418 9.72877C168.137 9.34449 167.987 8.91804 167.968 8.44941H169.627C169.655 8.77745 169.81 9.05394 170.091 9.27889C170.382 9.49445 170.743 9.60224 171.174 9.60224C171.624 9.60224 171.971 9.51789 172.214 9.34918C172.467 9.1711 172.594 8.94616 172.594 8.67435C172.594 8.3838 172.453 8.16823 172.172 8.02764C171.9 7.88705 171.464 7.7324 170.865 7.5637C170.283 7.40436 169.81 7.24972 169.445 7.09975C169.079 6.94979 168.76 6.72016 168.489 6.41087C168.226 6.10157 168.095 5.69386 168.095 5.18774C168.095 4.77535 168.217 4.40044 168.46 4.06303C168.704 3.71624 169.051 3.44443 169.501 3.24761C169.96 3.05079 170.485 2.95237 171.075 2.95237C171.956 2.95237 172.664 3.17732 173.198 3.6272C173.742 4.06771 174.032 4.67225 174.07 5.4408H172.467C172.439 5.09401 172.299 4.81752 172.046 4.61132C171.792 4.40513 171.45 4.30203 171.019 4.30203C170.597 4.30203 170.274 4.3817 170.049 4.54103C169.824 4.70036 169.712 4.91125 169.712 5.17368C169.712 5.37988 169.787 5.55327 169.937 5.69386C170.087 5.83445 170.269 5.94692 170.485 6.03128C170.701 6.10626 171.019 6.20467 171.441 6.32651C172.003 6.47647 172.463 6.63112 172.819 6.79046C173.184 6.94042 173.498 7.16536 173.761 7.46529C174.023 7.76521 174.159 8.16354 174.168 8.66029C174.168 9.10081 174.047 9.49446 173.803 9.84124C173.559 10.188 173.212 10.4598 172.763 10.6567C172.322 10.8535 171.802 10.9519 171.202 10.9519Z" fill="black" fill-opacity="0.6"/>
<path d="M179.033 10.9519C178.424 10.9519 177.876 10.8441 177.388 10.6285C176.91 10.4036 176.531 10.1037 176.25 9.72877C175.968 9.34449 175.819 8.91804 175.8 8.44941H177.459C177.487 8.77745 177.641 9.05394 177.923 9.27889C178.213 9.49445 178.574 9.60224 179.005 9.60224C179.455 9.60224 179.802 9.51789 180.046 9.34918C180.299 9.1711 180.425 8.94616 180.425 8.67435C180.425 8.3838 180.285 8.16823 180.003 8.02764C179.732 7.88705 179.296 7.7324 178.696 7.5637C178.115 7.40436 177.641 7.24972 177.276 7.09975C176.91 6.94979 176.592 6.72016 176.32 6.41087C176.057 6.10157 175.926 5.69386 175.926 5.18774C175.926 4.77535 176.048 4.40044 176.292 4.06303C176.535 3.71624 176.882 3.44443 177.332 3.24761C177.791 3.05079 178.316 2.95237 178.907 2.95237C179.788 2.95237 180.495 3.17732 181.03 3.6272C181.573 4.06771 181.864 4.67225 181.901 5.4408H180.299C180.27 5.09401 180.13 4.81752 179.877 4.61132C179.624 4.40513 179.282 4.30203 178.851 4.30203C178.429 4.30203 178.105 4.3817 177.88 4.54103C177.656 4.70036 177.543 4.91125 177.543 5.17368C177.543 5.37988 177.618 5.55327 177.768 5.69386C177.918 5.83445 178.101 5.94692 178.316 6.03128C178.532 6.10626 178.851 6.20467 179.272 6.32651C179.835 6.47647 180.294 6.63112 180.65 6.79046C181.016 6.94042 181.33 7.16536 181.592 7.46529C181.854 7.76521 181.99 8.16354 182 8.66029C182 9.10081 181.878 9.49446 181.634 9.84124C181.391 10.188 181.044 10.4598 180.594 10.6567C180.153 10.8535 179.633 10.9519 179.033 10.9519Z" fill="black" fill-opacity="0.6"/>
</svg>
