<svg width="39" height="39" viewBox="0 0 39 39" fill="none" xmlns="http://www.w3.org/2000/svg">
<path fill-rule="evenodd" clip-rule="evenodd" d="M21.4468 19.4995C21.4468 18.4287 20.5726 17.556 19.5001 17.556C18.426 17.556 17.5534 18.4287 17.5534 19.4995C17.5534 20.572 18.426 21.4446 19.5001 21.4446C20.5726 21.4446 21.4468 20.572 21.4468 19.4995ZM14.1677 19.4995C14.1677 18.4287 13.295 17.5561 12.2209 17.5561C11.1484 17.5561 10.2742 18.4287 10.2742 19.4995C10.2742 20.572 11.1484 21.4447 12.2209 21.4447C13.295 21.4447 14.1677 20.572 14.1677 19.4995ZM26.7785 17.5561C27.8526 17.5561 28.7252 18.4287 28.7252 19.4996C28.7252 20.572 27.8526 21.4447 26.7785 21.4447C25.706 21.4447 24.8317 20.572 24.8317 19.4996C24.8317 18.4287 25.706 17.5561 26.7785 17.5561Z" fill="white"/>
</svg>
