<svg width="17" height="17" viewBox="0 0 17 17" fill="none" xmlns="http://www.w3.org/2000/svg">
<path d="M14.0836 3.45746L13.5623 2.93617C13.4149 2.78884 13.143 2.81151 12.9729 3.01548L11.1595 4.81745C10.3434 4.46616 9.44819 4.29616 8.50748 4.29616C5.70806 4.30745 3.28288 5.93943 2.11547 8.28557C2.04745 8.4329 2.04745 8.61418 2.11547 8.73884C2.65942 9.84952 3.47547 10.7675 4.49547 11.4588L3.01081 12.9662C2.84081 13.1362 2.81814 13.4081 2.9315 13.5555L3.4528 14.0768C3.60012 14.2241 3.87211 14.2014 4.04212 13.9975L13.9927 4.04687C14.2081 3.87697 14.2307 3.605 14.0834 3.45765L14.0836 3.45746ZM9.10814 6.88005C8.91547 6.8347 8.7115 6.77807 8.51882 6.77807C7.55545 6.77807 6.78487 7.54875 6.78487 8.51202C6.78487 8.70469 6.83021 8.90865 6.88685 9.10134L6.12743 9.84936C5.9008 9.45272 5.77614 9.01065 5.77614 8.51204C5.77614 7.00472 6.98882 5.79204 8.49614 5.79204C8.99485 5.79204 9.43683 5.9167 9.83346 6.14333L9.10814 6.88005Z" fill="black"/>
<path d="M14.8993 8.28554C14.5027 7.49217 13.9813 6.77822 13.3354 6.2002L11.2273 8.28554V8.51217C11.2273 10.0195 10.0146 11.2322 8.50732 11.2322H8.28068L6.94336 12.5695C7.44207 12.6715 7.96336 12.7395 8.47336 12.7395C11.2728 12.7395 13.698 11.1075 14.8654 8.75007C14.9674 8.59136 14.9674 8.43276 14.8993 8.28542L14.8993 8.28554Z" fill="black"/>
</svg>
