<svg width="71" height="91" viewBox="0 0 71 91" fill="none" xmlns="http://www.w3.org/2000/svg">
<path d="M9.89105 3.82362H8.4715C8.38755 3.41531 8.24063 3.05661 8.03076 2.74751C7.82469 2.43842 7.57284 2.17893 7.27519 1.96905C6.98136 1.75536 6.65509 1.59508 6.29639 1.48824C5.93768 1.38139 5.56372 1.32797 5.17449 1.32797C4.46471 1.32797 3.82172 1.50732 3.2455 1.86602C2.6731 2.22472 2.21709 2.75324 1.87747 3.45157C1.54166 4.14989 1.37376 5.00658 1.37376 6.02164C1.37376 7.03669 1.54166 7.89338 1.87747 8.59171C2.21709 9.29003 2.6731 9.81855 3.2455 10.1773C3.82172 10.536 4.46471 10.7153 5.17449 10.7153C5.56372 10.7153 5.93768 10.6619 6.29639 10.555C6.65509 10.4482 6.98136 10.2898 7.27519 10.0799C7.57284 9.86625 7.82469 9.60485 8.03076 9.29576C8.24063 8.98284 8.38755 8.62414 8.4715 8.21965H9.89105C9.7842 8.81876 9.58959 9.3549 9.3072 9.82809C9.02482 10.3013 8.67375 10.7039 8.25399 11.0358C7.83423 11.364 7.36296 11.614 6.84017 11.7857C6.32119 11.9574 5.76596 12.0433 5.17449 12.0433C4.1747 12.0433 3.28557 11.799 2.50711 11.3106C1.72864 10.8222 1.11618 10.1276 0.669707 9.22707C0.223236 8.32649 0 7.25802 0 6.02164C0 4.78525 0.223236 3.71678 0.669707 2.8162C1.11618 1.91563 1.72864 1.22112 2.50711 0.732671C3.28557 0.244224 4.1747 0 5.17449 0C5.76596 0 6.32119 0.0858599 6.84017 0.25758C7.36296 0.429299 7.83423 0.681155 8.25399 1.01315C8.67375 1.34132 9.02482 1.742 9.3072 2.21518C9.58959 2.68455 9.7842 3.2207 9.89105 3.82362Z" fill="black"/>
<path d="M15.5735 12.0662C14.7798 12.0662 14.0834 11.8773 13.4843 11.4995C12.889 11.1217 12.4234 10.5932 12.0876 9.91395C11.7556 9.2347 11.5896 8.44097 11.5896 7.53277C11.5896 6.61693 11.7556 5.81748 12.0876 5.13442C12.4234 4.45135 12.889 3.92093 13.4843 3.54315C14.0834 3.16537 14.7798 2.97647 15.5735 2.97647C16.3673 2.97647 17.0618 3.16537 17.6571 3.54315C18.2562 3.92093 18.7217 4.45135 19.0537 5.13442C19.3895 5.81748 19.5574 6.61693 19.5574 7.53277C19.5574 8.44097 19.3895 9.2347 19.0537 9.91395C18.7217 10.5932 18.2562 11.1217 17.6571 11.4995C17.0618 11.8773 16.3673 12.0662 15.5735 12.0662ZM15.5735 10.8527C16.1765 10.8527 16.6725 10.6981 17.0618 10.389C17.451 10.0799 17.7391 9.67354 17.9261 9.16983C18.1131 8.66612 18.2066 8.12043 18.2066 7.53277C18.2066 6.94511 18.1131 6.39751 17.9261 5.88998C17.7391 5.38246 17.451 4.97224 17.0618 4.65933C16.6725 4.34641 16.1765 4.18996 15.5735 4.18996C14.9706 4.18996 14.4745 4.34641 14.0853 4.65933C13.6961 4.97224 13.408 5.38246 13.221 5.88998C13.034 6.39751 12.9405 6.94511 12.9405 7.53277C12.9405 8.12043 13.034 8.66612 13.221 9.16983C13.408 9.67354 13.6961 10.0799 14.0853 10.389C14.4745 10.6981 14.9706 10.8527 15.5735 10.8527Z" fill="black"/>
<path d="M21.6195 11.883V3.09095H22.9246V4.46471H23.0391C23.2222 3.99534 23.518 3.63092 23.9263 3.37143C24.3346 3.10813 24.8249 2.97647 25.3973 2.97647C25.9774 2.97647 26.4601 3.10813 26.8455 3.37143C27.2347 3.63092 27.5381 3.99534 27.7556 4.46471H27.8472C28.0723 4.01061 28.4101 3.65 28.8603 3.38288C29.3106 3.11194 29.8506 2.97647 30.4802 2.97647C31.2663 2.97647 31.9093 3.22261 32.4092 3.71487C32.9091 4.20331 33.1591 4.9646 33.1591 5.99874V11.883H31.8082V5.99874C31.8082 5.35002 31.6308 4.88638 31.2759 4.60781C30.921 4.32924 30.5031 4.18996 30.0223 4.18996C29.4041 4.18996 28.9252 4.37694 28.5856 4.75091C28.246 5.12106 28.0762 5.59043 28.0762 6.15901V11.883H26.7024V5.86136C26.7024 5.36147 26.5402 4.95888 26.2159 4.6536C25.8915 4.34451 25.4737 4.18996 24.9623 4.18996C24.6112 4.18996 24.2831 4.28345 23.9778 4.47043C23.6763 4.65742 23.4321 4.91691 23.2451 5.2489C23.0619 5.57707 22.9704 5.95676 22.9704 6.38797V11.883H21.6195Z" fill="black"/>
<path d="M35.629 15.18V3.09095H36.934V4.48761H37.0943C37.1935 4.33497 37.3309 4.14035 37.5064 3.90376C37.6858 3.66335 37.9415 3.44966 38.2734 3.26267C38.6092 3.07187 39.0634 2.97647 39.6358 2.97647C40.3761 2.97647 41.0286 3.16155 41.5934 3.5317C42.1581 3.90185 42.5989 4.42655 42.9156 5.1058C43.2323 5.78504 43.3907 6.5864 43.3907 7.50987C43.3907 8.44097 43.2323 9.24806 42.9156 9.93112C42.5989 10.6104 42.16 11.137 41.5991 11.5109C41.0381 11.8811 40.3913 12.0662 39.6586 12.0662C39.0939 12.0662 38.6417 11.9727 38.3021 11.7857C37.9624 11.5949 37.701 11.3793 37.5179 11.1389C37.3347 10.8947 37.1935 10.6924 37.0943 10.5321H36.9798V15.18H35.629ZM36.9569 7.48698C36.9569 8.15096 37.0542 8.73671 37.2489 9.24424C37.4435 9.74795 37.7278 10.1429 38.1017 10.4291C38.4757 10.7115 38.9336 10.8527 39.4755 10.8527C40.0403 10.8527 40.5115 10.7039 40.8893 10.4062C41.2709 10.1047 41.5571 9.70025 41.7479 9.19272C41.9425 8.68138 42.0398 8.1128 42.0398 7.48698C42.0398 6.86879 41.9444 6.31165 41.7536 5.81557C41.5666 5.31568 41.2824 4.92072 40.9008 4.63071C40.523 4.33687 40.0479 4.18996 39.4755 4.18996C38.926 4.18996 38.4642 4.32924 38.0903 4.60781C37.7163 4.88256 37.4339 5.26798 37.2431 5.76406C37.0523 6.25632 36.9569 6.83063 36.9569 7.48698Z" fill="black"/>
<path d="M48.0386 12.0891C47.4814 12.0891 46.9758 11.9841 46.5217 11.7742C46.0676 11.5605 45.707 11.2534 45.4399 10.8527C45.1728 10.4482 45.0392 9.95974 45.0392 9.38734C45.0392 8.88363 45.1384 8.47532 45.3368 8.16241C45.5353 7.84568 45.8005 7.59764 46.1325 7.41829C46.4645 7.23894 46.8308 7.10538 47.2315 7.01761C47.636 6.92603 48.0424 6.85352 48.4507 6.8001C48.9849 6.73141 49.4181 6.67989 49.75 6.64555C50.0858 6.60739 50.3301 6.54443 50.4827 6.45666C50.6392 6.36889 50.7174 6.21625 50.7174 5.99874V5.95295C50.7174 5.38818 50.5628 4.94934 50.2538 4.63643C49.9485 4.32352 49.4848 4.16706 48.8628 4.16706C48.2179 4.16706 47.7123 4.30826 47.346 4.59064C46.9796 4.87302 46.7221 5.17448 46.5732 5.49503L45.2911 5.03711C45.52 4.50287 45.8253 4.08693 46.2069 3.78928C46.5923 3.48782 47.0121 3.27794 47.4662 3.15964C47.9241 3.03753 48.3744 2.97647 48.817 2.97647C49.0994 2.97647 49.4238 3.01082 49.7901 3.07951C50.1603 3.14438 50.5171 3.27984 50.8605 3.48591C51.2077 3.69197 51.4959 4.00298 51.7248 4.41892C51.9538 4.83486 52.0683 5.392 52.0683 6.09032V11.883H50.7174V10.6924H50.6487C50.5571 10.8832 50.4045 11.0874 50.1908 11.3049C49.9771 11.5224 49.6928 11.7075 49.3379 11.8601C48.983 12.0127 48.5499 12.0891 48.0386 12.0891ZM48.2446 10.8756C48.7789 10.8756 49.2292 10.7706 49.5955 10.5608C49.9656 10.3509 50.2442 10.0799 50.4312 9.74795C50.622 9.41596 50.7174 9.0668 50.7174 8.70046V7.46408C50.6602 7.53277 50.5342 7.59573 50.3396 7.65297C50.1488 7.7064 49.9275 7.7541 49.6756 7.79607C49.4276 7.83423 49.1853 7.86857 48.9487 7.8991C48.7159 7.92581 48.527 7.94871 48.382 7.96779C48.0309 8.01358 47.7028 8.08799 47.3975 8.19103C47.096 8.29024 46.8518 8.44097 46.6648 8.64322C46.4816 8.84165 46.3901 9.11259 46.3901 9.45603C46.3901 9.92539 46.5637 10.2803 46.9109 10.5207C47.262 10.7573 47.7066 10.8756 48.2446 10.8756Z" fill="black"/>
<path d="M55.8847 6.59403V11.883H54.5339V3.09095H55.8389V4.46471H55.9534C56.1595 4.01824 56.4724 3.65954 56.8921 3.3886C57.3119 3.11385 57.8538 2.97647 58.5178 2.97647C59.1131 2.97647 59.6339 3.09859 60.0804 3.34281C60.5269 3.58322 60.8741 3.94955 61.1222 4.44181C61.3702 4.93026 61.4942 5.54845 61.4942 6.29639V11.883H60.1434V6.38797C60.1434 5.69728 59.964 5.15922 59.6053 4.77381C59.2466 4.38458 58.7544 4.18996 58.1285 4.18996C57.6973 4.18996 57.3119 4.28345 56.9723 4.47043C56.6365 4.65742 56.3713 4.93026 56.1766 5.28896C55.982 5.64767 55.8847 6.08269 55.8847 6.59403Z" fill="black"/>
<path d="M64.5179 15.18C64.289 15.18 64.0848 15.1609 63.9055 15.1228C63.7261 15.0884 63.6021 15.0541 63.5334 15.0197L63.8768 13.8292C64.205 13.9131 64.495 13.9436 64.7469 13.9207C64.9987 13.8978 65.222 13.7853 65.4166 13.583C65.615 13.3846 65.7963 13.0621 65.9604 12.6157L66.2122 11.9288L62.961 3.09095H64.4263L66.8533 10.0971H66.9449L69.3719 3.09095H70.8372L67.1052 13.1652C66.9373 13.6193 66.7293 13.9952 66.4813 14.2928C66.2332 14.5943 65.9451 14.8175 65.6169 14.9625C65.2926 15.1075 64.9262 15.18 64.5179 15.18Z" fill="black"/>
<path d="M4.58778 29.6046H5.82988V36.9371C5.82988 37.5915 5.70968 38.1475 5.46927 38.6049C5.22886 39.0623 4.88996 39.4096 4.45255 39.6467C4.01514 39.8837 3.49926 40.0023 2.90492 40.0023C2.34397 40.0023 1.84479 39.9004 1.40739 39.6967C0.969977 39.4897 0.626061 39.1959 0.375637 38.8153C0.125212 38.4346 0 37.9822 0 37.458H1.22207C1.22207 37.7484 1.29386 38.0022 1.43744 38.2192C1.58435 38.4329 1.78469 38.5999 2.03846 38.7201C2.29222 38.8403 2.58104 38.9004 2.90492 38.9004C3.2622 38.9004 3.56604 38.8253 3.81647 38.675C4.06689 38.5248 4.25722 38.3044 4.38744 38.0139C4.521 37.7201 4.58778 37.3611 4.58778 36.9371V29.6046Z" fill="#E2E2E2"/>
<path d="M11.2841 40.0223C10.5896 40.0223 9.98025 39.857 9.45603 39.5265C8.93514 39.1959 8.52779 38.7334 8.23396 38.1391C7.94346 37.5448 7.79822 36.8503 7.79822 36.0556C7.79822 35.2542 7.94346 34.5547 8.23396 33.957C8.52779 33.3593 8.93514 32.8952 9.45603 32.5647C9.98025 32.2341 10.5896 32.0688 11.2841 32.0688C11.9786 32.0688 12.5863 32.2341 13.1072 32.5647C13.6314 32.8952 14.0388 33.3593 14.3293 33.957C14.6231 34.5547 14.77 35.2542 14.77 36.0556C14.77 36.8503 14.6231 37.5448 14.3293 38.1391C14.0388 38.7334 13.6314 39.1959 13.1072 39.5265C12.5863 39.857 11.9786 40.0223 11.2841 40.0223ZM11.2841 38.9605C11.8117 38.9605 12.2458 38.8253 12.5863 38.5548C12.9269 38.2844 13.179 37.9288 13.3426 37.488C13.5062 37.0473 13.588 36.5698 13.588 36.0556C13.588 35.5414 13.5062 35.0622 13.3426 34.6181C13.179 34.1741 12.9269 33.8151 12.5863 33.5413C12.2458 33.2675 11.8117 33.1306 11.2841 33.1306C10.7566 33.1306 10.3225 33.2675 9.98192 33.5413C9.64134 33.8151 9.38925 34.1741 9.22564 34.6181C9.06203 35.0622 8.98022 35.5414 8.98022 36.0556C8.98022 36.5698 9.06203 37.0473 9.22564 37.488C9.38925 37.9288 9.64134 38.2844 9.98192 38.5548C10.3225 38.8253 10.7566 38.9605 11.2841 38.9605Z" fill="#E2E2E2"/>
<path d="M16.5743 39.862V32.169H17.7563V39.862H16.5743ZM17.1754 30.8868C16.945 30.8868 16.7463 30.8083 16.5794 30.6514C16.4157 30.4945 16.3339 30.3058 16.3339 30.0855C16.3339 29.8651 16.4157 29.6764 16.5794 29.5195C16.7463 29.3626 16.945 29.2841 17.1754 29.2841C17.4058 29.2841 17.6028 29.3626 17.7664 29.5195C17.9333 29.6764 18.0168 29.8651 18.0168 30.0855C18.0168 30.3058 17.9333 30.4945 17.7664 30.6514C17.6028 30.8083 17.4058 30.8868 17.1754 30.8868Z" fill="#E2E2E2"/>
<path d="M21.1033 35.2342V39.862H19.9213V32.169H21.0632V33.371H21.1634C21.3437 32.9804 21.6175 32.6665 21.9848 32.4294C22.3521 32.189 22.8262 32.0688 23.4072 32.0688C23.9281 32.0688 24.3838 32.1757 24.7745 32.3894C25.1652 32.5997 25.469 32.9203 25.686 33.351C25.9031 33.7784 26.0116 34.3193 26.0116 34.9737V39.862H24.8296V35.0539C24.8296 34.4495 24.6727 33.9787 24.3588 33.6415C24.0449 33.3009 23.6142 33.1306 23.0666 33.1306C22.6893 33.1306 22.3521 33.2124 22.0549 33.376C21.7611 33.5396 21.529 33.7784 21.3587 34.0922C21.1884 34.4061 21.1033 34.7868 21.1033 35.2342Z" fill="#E2E2E2"/>
<path d="M36.9864 36.7167V32.169H38.1684V39.862H36.9864V38.5598H36.9063C36.726 38.9505 36.4455 39.2827 36.0649 39.5565C35.6842 39.827 35.2034 39.9622 34.6224 39.9622C34.1416 39.9622 33.7142 39.857 33.3403 39.6467C32.9663 39.433 32.6725 39.1124 32.4588 38.685C32.2451 38.2543 32.1382 37.7117 32.1382 37.0573V32.169H33.3202V36.9771C33.3202 37.5381 33.4772 37.9855 33.791 38.3194C34.1082 38.6533 34.5122 38.8203 35.0031 38.8203C35.2969 38.8203 35.5958 38.7451 35.8996 38.5949C36.2068 38.4446 36.4639 38.2142 36.6709 37.9037C36.8813 37.5932 36.9864 37.1975 36.9864 36.7167Z" fill="#E2E2E2"/>
<path d="M45.7826 33.8919L44.7208 34.1924C44.654 34.0155 44.5555 33.8435 44.4253 33.6765C44.2984 33.5063 44.1248 33.366 43.9044 33.2558C43.684 33.1456 43.4019 33.0906 43.058 33.0906C42.5872 33.0906 42.1949 33.1991 41.881 33.4161C41.5705 33.6298 41.4152 33.9019 41.4152 34.2325C41.4152 34.5263 41.522 34.7584 41.7357 34.9287C41.9494 35.099 42.2833 35.2409 42.7374 35.3544L43.8794 35.6349C44.5672 35.8018 45.0797 36.0572 45.417 36.4012C45.7542 36.7417 45.9228 37.1808 45.9228 37.7184C45.9228 38.1591 45.796 38.5531 45.5422 38.9004C45.2918 39.2477 44.9412 39.5215 44.4904 39.7218C44.0396 39.9221 43.5154 40.0223 42.9177 40.0223C42.1331 40.0223 41.4836 39.852 40.9694 39.5114C40.4552 39.1709 40.1297 38.6733 39.9928 38.0189L41.1147 37.7384C41.2215 38.1525 41.4235 38.463 41.7207 38.67C42.0212 38.877 42.4136 38.9805 42.8977 38.9805C43.4486 38.9805 43.8861 38.8637 44.2099 38.6299C44.5372 38.3929 44.7008 38.1091 44.7008 37.7785C44.7008 37.5114 44.6073 37.2877 44.4203 37.1074C44.2333 36.9237 43.9462 36.7868 43.5588 36.6967L42.2767 36.3962C41.5721 36.2292 41.0546 35.9704 40.724 35.6198C40.3968 35.2659 40.2332 34.8235 40.2332 34.2926C40.2332 33.8585 40.3551 33.4745 40.5988 33.1406C40.8459 32.8067 41.1815 32.5446 41.6055 32.3543C42.0329 32.164 42.5171 32.0688 43.058 32.0688C43.8193 32.0688 44.417 32.2358 44.851 32.5697C45.2884 32.9036 45.599 33.3443 45.7826 33.8919Z" fill="#E2E2E2"/>
<path d="M1.24211 54.1258V64.3832H0V54.1258H1.24211Z" fill="#E2E2E2"/>
<path d="M4.75431 59.7553V64.3832H3.5723V56.6901H4.71424V57.8922H4.81441C4.99472 57.5015 5.26851 57.1877 5.6358 56.9506C6.00309 56.7102 6.47723 56.59 7.05821 56.59C7.5791 56.59 8.03487 56.6968 8.42553 56.9105C8.81619 57.1209 9.12004 57.4414 9.33708 57.8722C9.55411 58.2995 9.66263 58.8405 9.66263 59.4949V64.3832H8.48062V59.575C8.48062 58.9707 8.32369 58.4999 8.00983 58.1626C7.69596 57.8221 7.26523 57.6518 6.71764 57.6518C6.34033 57.6518 6.00309 57.7336 5.70592 57.8972C5.41209 58.0608 5.18003 58.2995 5.00974 58.6134C4.83945 58.9273 4.75431 59.3079 4.75431 59.7553Z" fill="#E2E2E2"/>
<path d="M17.8377 56.6901L14.9929 64.3832H13.7909L10.9461 56.6901H12.2282L14.3518 62.8205H14.432L16.5556 56.6901H17.8377Z" fill="#E2E2E2"/>
<path d="M22.3479 64.5435C21.6066 64.5435 20.9672 64.3799 20.4296 64.0526C19.8954 63.7221 19.483 63.2613 19.1925 62.6703C18.9054 62.0759 18.7618 61.3848 18.7618 60.5968C18.7618 59.8088 18.9054 59.1143 19.1925 58.5132C19.483 57.9089 19.887 57.4381 20.4046 57.1008C20.9255 56.7603 21.5332 56.59 22.2277 56.59C22.6284 56.59 23.024 56.6568 23.4147 56.7903C23.8053 56.9239 24.161 57.1409 24.4815 57.4414C24.802 57.7386 25.0575 58.1326 25.2478 58.6234C25.4381 59.1143 25.5333 59.7186 25.5333 60.4365V60.9373H19.6032V59.9156H24.3312C24.3312 59.4815 24.2444 59.0942 24.0708 58.7536C23.9005 58.4131 23.6568 58.1443 23.3396 57.9473C23.0257 57.7503 22.6551 57.6518 22.2277 57.6518C21.7569 57.6518 21.3495 57.7686 21.0056 58.0024C20.665 58.2328 20.4029 58.5333 20.2193 58.9039C20.0356 59.2745 19.9438 59.6719 19.9438 60.0959V60.7771C19.9438 61.3581 20.044 61.8506 20.2443 62.2546C20.448 62.6553 20.7301 62.9608 21.0907 63.1711C21.4514 63.3782 21.8704 63.4817 22.3479 63.4817C22.6584 63.4817 22.9389 63.4383 23.1893 63.3514C23.4431 63.2613 23.6618 63.1277 23.8454 62.9508C24.0291 62.7705 24.171 62.5467 24.2711 62.2796L25.4131 62.6002C25.2929 62.9875 25.0909 63.3281 24.807 63.6219C24.5232 63.9124 24.1726 64.1394 23.7553 64.3031C23.3379 64.4633 22.8688 64.5435 22.3479 64.5435Z" fill="#E2E2E2"/>
<path d="M32.7806 58.4131L31.7188 58.7136C31.652 58.5366 31.5535 58.3647 31.4233 58.1977C31.2964 58.0274 31.1228 57.8872 30.9024 57.777C30.682 57.6668 30.3999 57.6117 30.0559 57.6117C29.5851 57.6117 29.1928 57.7202 28.8789 57.9373C28.5684 58.151 28.4132 58.4231 28.4132 58.7536C28.4132 59.0475 28.52 59.2795 28.7337 59.4498C28.9474 59.6201 29.2813 59.762 29.7354 59.8755L30.8773 60.156C31.5652 60.323 32.0777 60.5784 32.4149 60.9223C32.7522 61.2629 32.9208 61.702 32.9208 62.2396C32.9208 62.6803 32.7939 63.0743 32.5402 63.4216C32.2897 63.7688 31.9391 64.0426 31.4884 64.243C31.0376 64.4433 30.5134 64.5435 29.9157 64.5435C29.131 64.5435 28.4816 64.3732 27.9674 64.0326C27.4532 63.692 27.1276 63.1945 26.9907 62.5401L28.1127 62.2596C28.2195 62.6736 28.4215 62.9842 28.7187 63.1912C29.0192 63.3982 29.4115 63.5017 29.8957 63.5017C30.4466 63.5017 30.884 63.3848 31.2079 63.1511C31.5351 62.914 31.6987 62.6302 31.6987 62.2997C31.6987 62.0325 31.6052 61.8088 31.4183 61.6285C31.2313 61.4449 30.9441 61.308 30.5568 61.2178L29.2746 60.9173C28.5701 60.7504 28.0525 60.4916 27.722 60.141C27.3948 59.7871 27.2312 59.3446 27.2312 58.8137C27.2312 58.3797 27.353 57.9957 27.5968 57.6618C27.8439 57.3279 28.1794 57.0658 28.6035 56.8755C29.0309 56.6851 29.515 56.59 30.0559 56.59C30.8172 56.59 31.4149 56.7569 31.849 57.0908C32.2864 57.4247 32.5969 57.8655 32.7806 58.4131Z" fill="#E2E2E2"/>
<path d="M38.0457 56.6901V57.6918H34.059V56.6901H38.0457ZM35.2209 54.847H36.403V62.1795C36.403 62.5134 36.4514 62.7638 36.5482 62.9307C36.6484 63.0943 36.7752 63.2045 36.9288 63.2613C37.0858 63.3147 37.2511 63.3414 37.4247 63.3414C37.5549 63.3414 37.6618 63.3347 37.7452 63.3214C37.8287 63.3047 37.8955 63.2913 37.9456 63.2813L38.186 64.3431C38.1058 64.3732 37.994 64.4032 37.8504 64.4333C37.7068 64.4667 37.5249 64.4834 37.3045 64.4834C36.9706 64.4834 36.6434 64.4116 36.3228 64.268C36.0056 64.1244 35.7418 63.9057 35.5315 63.6119C35.3245 63.3181 35.2209 62.9474 35.2209 62.5V54.847Z" fill="#E2E2E2"/>
<path d="M0 88.1725V78.6478H3.32993C3.99344 78.6478 4.54067 78.7625 4.97164 78.9919C5.40261 79.2183 5.72351 79.5237 5.93434 79.9081C6.14518 80.2895 6.25059 80.7127 6.25059 81.1778C6.25059 81.587 6.17773 81.925 6.03201 82.1916C5.88939 82.4583 5.70026 82.6691 5.46462 82.8241C5.23208 82.9792 4.97939 83.0939 4.70655 83.1683V83.2613C4.998 83.2799 5.29099 83.3822 5.58554 83.5683C5.88009 83.7543 6.12658 84.0209 6.32501 84.3682C6.52344 84.7154 6.62265 85.1402 6.62265 85.6425C6.62265 86.12 6.51414 86.5494 6.2971 86.9307C6.08007 87.3121 5.73746 87.6144 5.26929 87.8376C4.80111 88.0609 4.19187 88.1725 3.44155 88.1725H0ZM1.15338 87.1493H3.44155C4.19497 87.1493 4.7298 87.0036 5.04605 86.7122C5.3654 86.4176 5.52508 86.061 5.52508 85.6425C5.52508 85.32 5.44292 85.0224 5.27859 84.7495C5.11426 84.4736 4.88018 84.2535 4.57633 84.0891C4.27248 83.9217 3.91282 83.838 3.49736 83.838H1.15338V87.1493ZM1.15338 82.8334H3.29272C3.63998 82.8334 3.95313 82.7652 4.23217 82.6288C4.51432 82.4924 4.73755 82.3002 4.90188 82.0521C5.06931 81.8041 5.15302 81.5126 5.15302 81.1778C5.15302 80.7592 5.0073 80.4042 4.71585 80.1128C4.4244 79.8182 3.96243 79.6709 3.32993 79.6709H1.15338V82.8334Z" fill="#E2E2E2"/>
<path d="M9.46658 78.6478V88.1725H8.36901V78.6478H9.46658Z" fill="#E2E2E2"/>
<path d="M14.3789 88.3213C13.734 88.3213 13.1682 88.1678 12.6814 87.8609C12.1977 87.5539 11.8195 87.1245 11.5466 86.5726C11.2769 86.0207 11.142 85.3758 11.142 84.6379C11.142 83.8938 11.2769 83.2443 11.5466 82.6893C11.8195 82.1343 12.1977 81.7033 12.6814 81.3964C13.1682 81.0894 13.734 80.9359 14.3789 80.9359C15.0238 80.9359 15.5881 81.0894 16.0718 81.3964C16.5586 81.7033 16.9368 82.1343 17.2066 82.6893C17.4794 83.2443 17.6158 83.8938 17.6158 84.6379C17.6158 85.3758 17.4794 86.0207 17.2066 86.5726C16.9368 87.1245 16.5586 87.5539 16.0718 87.8609C15.5881 88.1678 15.0238 88.3213 14.3789 88.3213ZM14.3789 87.3354C14.8688 87.3354 15.2719 87.2098 15.5881 86.9586C15.9044 86.7075 16.1385 86.3773 16.2904 85.968C16.4423 85.5588 16.5183 85.1154 16.5183 84.6379C16.5183 84.1604 16.4423 83.7155 16.2904 83.3032C16.1385 82.8908 15.9044 82.5575 15.5881 82.3033C15.2719 82.049 14.8688 81.9219 14.3789 81.9219C13.889 81.9219 13.486 82.049 13.1697 82.3033C12.8535 82.5575 12.6194 82.8908 12.4675 83.3032C12.3155 83.7155 12.2396 84.1604 12.2396 84.6379C12.2396 85.1154 12.3155 85.5588 12.4675 85.968C12.6194 86.3773 12.8535 86.7075 13.1697 86.9586C13.486 87.2098 13.889 87.3354 14.3789 87.3354Z" fill="#E2E2E2"/>
<path d="M22.1747 91.0001C21.6445 91.0001 21.1888 90.9319 20.8074 90.7955C20.426 90.6622 20.1083 90.4855 19.854 90.2653C19.6029 90.0483 19.4029 89.8157 19.2541 89.5677L20.1284 88.9538C20.2276 89.084 20.3532 89.2329 20.5051 89.4003C20.657 89.5708 20.8648 89.7181 21.1283 89.8421C21.395 89.9692 21.7438 90.0328 22.1747 90.0328C22.7514 90.0328 23.2273 89.8933 23.6025 89.6142C23.9777 89.3352 24.1652 88.898 24.1652 88.3027V86.8517H24.0722C23.9916 86.9819 23.8769 87.1431 23.7281 87.3354C23.5824 87.5245 23.3715 87.6935 23.0956 87.8423C22.8227 87.988 22.4538 88.0609 21.9887 88.0609C21.412 88.0609 20.8942 87.9244 20.4354 87.6516C19.9796 87.3788 19.6184 86.9819 19.3517 86.461C19.0882 85.9401 18.9564 85.3076 18.9564 84.5635C18.9564 83.8318 19.0851 83.1946 19.3424 82.6521C19.5998 82.1064 19.9579 81.6847 20.4167 81.3871C20.8756 81.0863 21.4058 80.9359 22.0073 80.9359C22.4724 80.9359 22.8413 81.0134 23.1142 81.1685C23.3901 81.3204 23.601 81.494 23.7467 81.6894C23.8955 81.8816 24.0102 82.0397 24.0908 82.1637H24.2025V81.0289H25.2628V88.3771C25.2628 88.991 25.1233 89.4902 24.8443 89.8747C24.5683 90.2622 24.1963 90.5459 23.7281 90.7257C23.263 90.9087 22.7452 91.0001 22.1747 91.0001ZM22.1375 87.0749C22.5778 87.0749 22.9499 86.9741 23.2537 86.7726C23.5575 86.5711 23.7885 86.2812 23.9467 85.9029C24.1048 85.5247 24.1838 85.072 24.1838 84.5449C24.1838 84.0302 24.1063 83.576 23.9513 83.1822C23.7963 82.7885 23.5669 82.48 23.263 82.2567C22.9592 82.0335 22.584 81.9219 22.1375 81.9219C21.6724 81.9219 21.2849 82.0397 20.9748 82.2753C20.6679 82.511 20.4369 82.8272 20.2819 83.2241C20.13 83.621 20.054 84.0612 20.054 84.5449C20.054 85.041 20.1315 85.4797 20.2865 85.8611C20.4447 86.2393 20.6772 86.537 20.9841 86.754C21.2942 86.9679 21.6786 87.0749 22.1375 87.0749Z" fill="#E2E2E2"/>
</svg>
