<svg width="236" height="239" viewBox="0 0 236 239" fill="none" xmlns="http://www.w3.org/2000/svg">
<path d="M220.273 97.8145C222.291 91.7492 223.321 85.3987 223.322 79.0064C223.321 68.429 220.503 58.0426 215.159 48.9148C204.419 30.221 184.497 18.6796 162.937 18.6796C158.689 18.6797 154.453 19.1283 150.3 20.018C144.713 13.7238 137.856 8.68535 130.18 5.23485C122.504 1.78435 114.184 0.000183959 105.768 0H105.39L105.248 0.000833937C79.1341 0.000833937 55.9754 16.8515 47.9477 41.6931C39.638 43.395 31.7877 46.8525 24.9223 51.834C18.057 56.8156 12.3351 63.2062 8.13952 70.5782C2.81117 79.7609 0.00326056 90.1883 0 100.805C0.00203631 115.725 5.54057 130.114 15.5431 141.186C13.524 147.251 12.4943 153.601 12.4934 159.994C12.4943 170.571 15.3118 180.957 20.6563 190.085C27.0118 201.151 36.7175 209.912 48.3739 215.105C60.0302 220.299 73.0347 221.656 85.5122 218.981C91.0994 225.275 97.9573 230.314 105.634 233.765C113.31 237.215 121.631 239 130.047 239H130.425L130.579 238.999C156.707 238.999 179.858 222.148 187.886 197.284C196.196 195.581 204.046 192.123 210.911 187.142C217.777 182.16 223.499 175.769 227.695 168.398C233.017 159.223 235.82 148.804 235.818 138.198C235.816 123.277 230.278 108.889 220.275 97.8178L220.273 97.8145ZM130.44 223.375H130.378C119.923 223.372 109.8 219.704 101.77 213.009C102.246 212.753 102.718 212.486 103.183 212.208L150.77 184.721C151.958 184.045 152.945 183.067 153.632 181.885C154.319 180.704 154.681 179.362 154.682 177.996V110.861L174.796 122.475C174.901 122.528 174.992 122.606 175.061 122.702C175.129 122.798 175.172 122.91 175.187 123.027V178.586C175.16 203.287 155.143 223.325 130.44 223.375ZM34.2102 182.275C30.2795 175.479 28.2085 167.767 28.2059 159.915C28.2059 157.354 28.4295 154.787 28.8651 152.264C29.2189 152.476 29.8363 152.853 30.2794 153.107L77.8666 180.595C79.053 181.287 80.4022 181.652 81.776 181.652C83.1498 181.652 84.4988 181.286 85.6849 180.593L143.784 147.046V170.275L143.785 170.315C143.785 170.427 143.759 170.537 143.709 170.637C143.659 170.737 143.586 170.824 143.497 170.892L95.3906 198.667C88.5838 202.585 80.8682 204.647 73.0146 204.65C65.1527 204.649 57.4291 202.581 50.6184 198.653C43.8077 194.726 38.1492 189.077 34.2102 182.273V182.275ZM21.6909 78.3881C26.9175 69.3099 35.1702 62.3588 45.0048 58.7515C45.0048 59.1611 44.9814 59.8871 44.9814 60.391V115.367L44.9806 115.412C44.9808 116.777 45.3423 118.118 46.0282 119.298C46.7142 120.478 47.7003 121.456 48.8864 122.131L106.985 155.673L86.8722 167.287C86.773 167.353 86.6592 167.392 86.5408 167.403C86.4225 167.414 86.3033 167.395 86.1939 167.349L38.0826 139.55C31.2814 135.61 25.6351 129.952 21.7097 123.142C17.7843 116.333 15.7176 108.611 15.7167 100.751C15.7197 92.903 17.7805 85.1932 21.6934 78.3906L21.6909 78.3881ZM186.947 116.845L128.848 83.2985L148.962 71.6887C149.061 71.6233 149.175 71.5834 149.294 71.5726C149.412 71.5618 149.531 71.5805 149.64 71.627L197.751 99.4024C204.558 103.336 210.21 108.991 214.14 115.8C218.07 122.609 220.14 130.332 220.142 138.194C220.142 156.959 208.433 173.749 190.827 180.23V123.611C190.83 123.59 190.83 123.568 190.83 123.547C190.829 122.187 190.47 120.851 189.788 119.675C189.107 118.498 188.127 117.522 186.947 116.845ZM206.967 86.7137C206.499 86.4271 206.028 86.1462 205.553 85.871L157.966 58.3826C156.78 57.6913 155.431 57.3268 154.058 57.3263C152.685 57.3268 151.336 57.6913 150.149 58.3826L92.0497 91.9295V68.7008L92.0488 68.6607C92.0488 68.4338 92.1565 68.2202 92.3375 68.0842L140.444 40.3322C147.248 36.4093 154.965 34.3441 162.819 34.3437C187.554 34.3437 207.613 54.4026 207.613 79.1374C207.611 81.6757 207.395 84.2093 206.967 86.7112V86.7137ZM81.1141 128.115L60.996 116.501C60.8904 116.448 60.7994 116.37 60.7312 116.274C60.6629 116.178 60.6194 116.066 60.6046 115.949V60.3894C60.6155 35.6679 80.6743 15.6257 105.398 15.6257C115.87 15.6279 126.01 19.2962 134.059 25.9939C133.697 26.1917 133.065 26.5404 132.646 26.7949L85.0583 54.2824C83.8709 54.958 82.8836 55.9358 82.1967 57.1166C81.5098 58.2974 81.1477 59.6391 81.1475 61.0051V61.0494L81.1141 128.115ZM92.0405 104.557L117.917 89.6116L143.793 104.547V134.429L117.917 149.365L92.0405 134.429V104.557Z" fill="black"/>
</svg>
