<svg width="64" height="14" viewBox="0 0 64 14" fill="none" xmlns="http://www.w3.org/2000/svg">
<path d="M1.23923 0V10.2337H0V0H1.23923Z" fill="#E2E2E2"/>
<path d="M4.74331 5.61652V10.2337H3.56404V2.55842H4.70334V3.75767H4.80328C4.98316 3.36791 5.25633 3.05477 5.62277 2.81825C5.98921 2.5784 6.46225 2.45848 7.04189 2.45848C7.56157 2.45848 8.01628 2.56508 8.40604 2.77828C8.7958 2.98815 9.09895 3.30795 9.31548 3.73769C9.53201 4.16409 9.64028 4.70375 9.64028 5.35668V10.2337H8.46101V5.43663C8.46101 4.83367 8.30444 4.36396 7.9913 4.02751C7.67816 3.68772 7.24843 3.51782 6.7021 3.51782C6.32566 3.51782 5.98921 3.59944 5.69272 3.76267C5.39957 3.9259 5.16805 4.16409 4.99815 4.47723C4.82826 4.79037 4.74331 5.17013 4.74331 5.61652Z" fill="#E2E2E2"/>
<path d="M17.2318 4.27735L16.1725 4.57717C16.1059 4.40061 16.0076 4.22905 15.8777 4.06248C15.7511 3.89259 15.5779 3.75268 15.358 3.64274C15.1381 3.53281 14.8566 3.47785 14.5135 3.47785C14.0438 3.47785 13.6524 3.58611 13.3392 3.80264C13.0294 4.01585 12.8745 4.28734 12.8745 4.61714C12.8745 4.91029 12.9811 5.14181 13.1943 5.31171C13.4075 5.4816 13.7407 5.62318 14.1937 5.73645L15.333 6.01627C16.0192 6.18284 16.5306 6.43768 16.8671 6.7808C17.2035 7.12059 17.3717 7.55865 17.3717 8.09499C17.3717 8.53471 17.2452 8.9278 16.992 9.27426C16.7421 9.62071 16.3923 9.89387 15.9426 10.0937C15.4929 10.2936 14.9699 10.3936 14.3736 10.3936C13.5907 10.3936 12.9428 10.2237 12.4298 9.88388C11.9168 9.54409 11.592 9.04773 11.4554 8.3948L12.5747 8.11497C12.6813 8.52805 12.8829 8.83786 13.1793 9.0444C13.4792 9.25094 13.8706 9.35421 14.3536 9.35421C14.9033 9.35421 15.3397 9.23761 15.6628 9.00442C15.9893 8.7679 16.1525 8.48474 16.1525 8.15495C16.1525 7.88845 16.0592 7.66525 15.8727 7.48536C15.6861 7.30214 15.3996 7.16556 15.0132 7.07562L13.734 6.7758C13.0311 6.60924 12.5147 6.35107 12.185 6.00128C11.8585 5.64817 11.6953 5.20678 11.6953 4.6771C11.6953 4.24404 11.8168 3.86094 12.06 3.52782C12.3065 3.19469 12.6413 2.93318 13.0644 2.7433C13.4908 2.55342 13.9738 2.45848 14.5135 2.45848C15.273 2.45848 15.8693 2.62504 16.3024 2.95817C16.7388 3.29129 17.0486 3.73102 17.2318 4.27735Z" fill="#E2E2E2"/>
<path d="M22.4848 2.55842V3.5578H18.5073V2.55842H22.4848ZM19.6666 0.719555H20.8458V8.03502C20.8458 8.36815 20.8941 8.618 20.9907 8.78456C21.0907 8.94779 21.2173 9.05772 21.3705 9.11435C21.5271 9.16765 21.692 9.19431 21.8652 9.19431C21.9951 9.19431 22.1017 9.18764 22.185 9.17432C22.2683 9.15766 22.3349 9.14434 22.3849 9.13434L22.6247 10.1937C22.5448 10.2237 22.4332 10.2536 22.2899 10.2836C22.1467 10.3169 21.9651 10.3336 21.7453 10.3336C21.4122 10.3336 21.0857 10.262 20.7659 10.1187C20.4494 9.97549 20.1862 9.75729 19.9764 9.46414C19.7698 9.17099 19.6666 8.80122 19.6666 8.35482V0.719555Z" fill="#E2E2E2"/>
<path d="M26.5173 10.4136C26.031 10.4136 25.5896 10.3219 25.1931 10.1387C24.7967 9.95217 24.4819 9.684 24.2487 9.33422C24.0155 8.9811 23.8989 8.5547 23.8989 8.05501C23.8989 7.61528 23.9856 7.25884 24.1588 6.98567C24.332 6.70918 24.5635 6.49265 24.8534 6.33608C25.1432 6.17951 25.463 6.06291 25.8128 5.98629C26.1659 5.90634 26.5207 5.84305 26.8771 5.79641C27.3435 5.73645 27.7216 5.69148 28.0114 5.66149C28.3046 5.62818 28.5178 5.57321 28.651 5.4966C28.7876 5.41998 28.8559 5.28673 28.8559 5.09684V5.05687C28.8559 4.56384 28.721 4.18074 28.4511 3.90758C28.1846 3.63442 27.7799 3.49783 27.2369 3.49783C26.6739 3.49783 26.2325 3.62109 25.9127 3.8676C25.5929 4.11412 25.368 4.37729 25.2381 4.65712L24.1188 4.25736C24.3187 3.79099 24.5852 3.42788 24.9183 3.16804C25.2548 2.90487 25.6212 2.72165 26.0176 2.61838C26.4174 2.51178 26.8105 2.45848 27.1969 2.45848C27.4434 2.45848 27.7266 2.48846 28.0464 2.54842C28.3695 2.60505 28.681 2.72331 28.9808 2.9032C29.2839 3.08309 29.5355 3.35459 29.7353 3.7177C29.9352 4.08081 30.0351 4.56717 30.0351 5.17679V10.2337H28.8559V9.19431H28.7959C28.716 9.36087 28.5827 9.53909 28.3962 9.72897C28.2096 9.91886 27.9614 10.0804 27.6516 10.2137C27.3418 10.3469 26.9637 10.4136 26.5173 10.4136ZM26.6972 9.35421C27.1636 9.35421 27.5567 9.2626 27.8765 9.07938C28.1996 8.89616 28.4428 8.65964 28.606 8.36982C28.7726 8.08 28.8559 7.77518 28.8559 7.45538V6.37605C28.8059 6.43601 28.696 6.49098 28.5261 6.54095C28.3595 6.58759 28.1663 6.62923 27.9464 6.66587C27.7299 6.69918 27.5184 6.72917 27.3118 6.75582C27.1086 6.77914 26.9437 6.79912 26.8171 6.81578C26.5107 6.85575 26.2242 6.92071 25.9577 7.01066C25.6945 7.09727 25.4813 7.22886 25.3181 7.40541C25.1582 7.57864 25.0782 7.81516 25.0782 8.11497C25.0782 8.52472 25.2298 8.83453 25.5329 9.0444C25.8394 9.25094 26.2275 9.35421 26.6972 9.35421Z" fill="#E2E2E2"/>
<path d="M35.2856 13.2718C34.716 13.2718 34.2263 13.1985 33.8166 13.0519C33.4068 12.9087 33.0654 12.7188 32.7922 12.4823C32.5224 12.2491 32.3075 11.9992 32.1476 11.7327L33.087 11.0731C33.1936 11.2131 33.3285 11.373 33.4918 11.5528C33.655 11.7361 33.8782 11.8943 34.1613 12.0276C34.4478 12.1641 34.8226 12.2324 35.2856 12.2324C35.9053 12.2324 36.4166 12.0825 36.8197 11.7827C37.2228 11.4829 37.4243 11.0132 37.4243 10.3736V8.81454H37.3244C37.2378 8.95445 37.1145 9.12768 36.9546 9.33422C36.798 9.53743 36.5715 9.71898 36.275 9.87888C35.9819 10.0355 35.5855 10.1137 35.0858 10.1137C34.4661 10.1137 33.9098 9.96716 33.4168 9.67401C32.9271 9.38086 32.539 8.95445 32.2525 8.3948C31.9694 7.83515 31.8278 7.15557 31.8278 6.35606C31.8278 5.56988 31.966 4.88531 32.2425 4.30234C32.519 3.71603 32.9038 3.26298 33.3968 2.94318C33.8898 2.62004 34.4595 2.45848 35.1058 2.45848C35.6054 2.45848 36.0019 2.54176 36.295 2.70832C36.5915 2.87155 36.818 3.05811 36.9746 3.26798C37.1345 3.47451 37.2578 3.64441 37.3444 3.77766H37.4643V2.55842H38.6036V10.4535C38.6036 11.1131 38.4537 11.6495 38.1539 12.0625C37.8574 12.4789 37.4576 12.7837 36.9546 12.977C36.4549 13.1735 35.8986 13.2718 35.2856 13.2718ZM35.2457 9.05439C35.7187 9.05439 36.1185 8.94613 36.4449 8.72959C36.7714 8.51306 37.0196 8.20159 37.1895 7.79517C37.3594 7.38876 37.4443 6.90239 37.4443 6.33608C37.4443 5.78309 37.361 5.29505 37.1945 4.87198C37.0279 4.44891 36.7814 4.11745 36.4549 3.8776C36.1285 3.63775 35.7254 3.51782 35.2457 3.51782C34.746 3.51782 34.3296 3.64441 33.9964 3.89759C33.6666 4.15076 33.4185 4.49055 33.2519 4.91695C33.0887 5.34336 33.0071 5.8164 33.0071 6.33608C33.0071 6.86908 33.0903 7.34045 33.2569 7.7502C33.4268 8.15662 33.6766 8.47642 34.0064 8.70961C34.3396 8.93946 34.7526 9.05439 35.2457 9.05439Z" fill="#E2E2E2"/>
<path d="M40.7623 10.2337V2.55842H41.9015V3.7177H41.9815C42.1214 3.33793 42.3746 3.02979 42.741 2.79327C43.1075 2.55675 43.5205 2.43849 43.9803 2.43849C44.0669 2.43849 44.1751 2.44016 44.3051 2.44349C44.435 2.44682 44.5332 2.45182 44.5999 2.45848V3.65773C44.5599 3.64774 44.4683 3.63275 44.325 3.61276C44.1851 3.58944 44.0369 3.57778 43.8803 3.57778C43.5072 3.57778 43.1741 3.65607 42.8809 3.81264C42.5911 3.96588 42.3613 4.17908 42.1914 4.45224C42.0248 4.72208 41.9415 5.03022 41.9415 5.37667V10.2337H40.7623Z" fill="#E2E2E2"/>
<path d="M48.2564 10.4136C47.77 10.4136 47.3286 10.3219 46.9322 10.1387C46.5358 9.95217 46.2209 9.684 45.9878 9.33422C45.7546 8.9811 45.638 8.5547 45.638 8.05501C45.638 7.61528 45.7246 7.25884 45.8978 6.98567C46.071 6.70918 46.3026 6.49265 46.5924 6.33608C46.8822 6.17951 47.202 6.06291 47.5518 5.98629C47.9049 5.90634 48.2597 5.84305 48.6161 5.79641C49.0825 5.73645 49.4606 5.69148 49.7504 5.66149C50.0436 5.62818 50.2568 5.57321 50.39 5.4966C50.5266 5.41998 50.5949 5.28673 50.5949 5.09684V5.05687C50.5949 4.56384 50.46 4.18074 50.1902 3.90758C49.9237 3.63442 49.5189 3.49783 48.9759 3.49783C48.4129 3.49783 47.9715 3.62109 47.6517 3.8676C47.3319 4.11412 47.1071 4.37729 46.9771 4.65712L45.8578 4.25736C46.0577 3.79099 46.3242 3.42788 46.6573 3.16804C46.9938 2.90487 47.3602 2.72165 47.7567 2.61838C48.1564 2.51178 48.5495 2.45848 48.9359 2.45848C49.1825 2.45848 49.4656 2.48846 49.7854 2.54842C50.1085 2.60505 50.42 2.72331 50.7198 2.9032C51.023 3.08309 51.2745 3.35459 51.4744 3.7177C51.6742 4.08081 51.7742 4.56717 51.7742 5.17679V10.2337H50.5949V9.19431H50.5349C50.455 9.36087 50.3217 9.53909 50.1352 9.72897C49.9486 9.91886 49.7005 10.0804 49.3907 10.2137C49.0808 10.3469 48.7027 10.4136 48.2564 10.4136ZM48.4362 9.35421C48.9026 9.35421 49.2957 9.2626 49.6155 9.07938C49.9386 8.89616 50.1818 8.65964 50.3451 8.36982C50.5116 8.08 50.5949 7.77518 50.5949 7.45538V6.37605C50.5449 6.43601 50.435 6.49098 50.2651 6.54095C50.0986 6.58759 49.9053 6.62923 49.6855 6.66587C49.4689 6.69918 49.2574 6.72917 49.0509 6.75582C48.8477 6.77914 48.6828 6.79912 48.5562 6.81578C48.2497 6.85575 47.9632 6.92071 47.6967 7.01066C47.4335 7.09727 47.2203 7.22886 47.0571 7.40541C46.8972 7.57864 46.8173 7.81516 46.8173 8.11497C46.8173 8.52472 46.9688 8.83453 47.272 9.0444C47.5784 9.25094 47.9665 9.35421 48.4362 9.35421Z" fill="#E2E2E2"/>
<path d="M53.9266 10.2337V2.55842H55.0659V3.75767H55.1658C55.3257 3.34793 55.5839 3.02979 55.9403 2.80326C56.2968 2.57341 56.7249 2.45848 57.2246 2.45848C57.7309 2.45848 58.1523 2.57341 58.4888 2.80326C58.8286 3.02979 59.0934 3.34793 59.2833 3.75767H59.3632C59.5598 3.36125 59.8546 3.04645 60.2477 2.81326C60.6408 2.57674 61.1121 2.45848 61.6618 2.45848C62.348 2.45848 62.9094 2.67334 63.3458 3.10308C63.7822 3.52948 64.0004 4.19407 64.0004 5.09684V10.2337H62.8211V5.09684C62.8211 4.53053 62.6662 4.12578 62.3564 3.88259C62.0466 3.63941 61.6818 3.51782 61.2621 3.51782C60.7224 3.51782 60.3043 3.68105 60.0078 4.00752C59.7113 4.33065 59.5631 4.7404 59.5631 5.23676V10.2337H58.3638V4.97692C58.3638 4.54052 58.2223 4.18907 57.9391 3.92257C57.656 3.65274 57.2912 3.51782 56.8448 3.51782C56.5383 3.51782 56.2518 3.59944 55.9853 3.76267C55.7221 3.9259 55.5089 4.15243 55.3457 4.44225C55.1858 4.72874 55.1059 5.0602 55.1059 5.43663V10.2337H53.9266Z" fill="#E2E2E2"/>
</svg>
