<svg width="17" height="18" viewBox="0 0 17 18" fill="none" xmlns="http://www.w3.org/2000/svg">
<path fill-rule="evenodd" clip-rule="evenodd" d="M14.4 10.4274V7.2C14.4 4.3047 12.4335 1.8657 9.7695 1.1322C9.5058 0.468 8.8614 0 8.1 0C7.3386 0 6.6942 0.468 6.4305 1.1322C3.7665 1.8666 1.8 4.3047 1.8 7.2V10.4274L0.2637 11.9637C0.0945 12.132 0 12.3606 0 12.6V14.4C0 14.8977 0.4023 15.3 0.9 15.3H15.3C15.7977 15.3 16.2 14.8977 16.2 14.4V12.6C16.2 12.3606 16.1055 12.132 15.9363 11.9637L14.4 10.4274ZM14.4 13.5H1.8V12.9726L3.3363 11.4363C3.5055 11.268 3.6 11.0394 3.6 10.8V7.2C3.6 4.7187 5.6187 2.7 8.1 2.7C10.5813 2.7 12.6 4.7187 12.6 7.2V10.8C12.6 11.0394 12.6945 11.268 12.8637 11.4363L14.4 12.9726V13.5ZM8.1 18C9.2799 18 10.2663 17.2494 10.6362 16.2H5.5638C5.9337 17.2494 6.9201 18 8.1 18Z" fill="#435971"/>
<path fill-rule="evenodd" clip-rule="evenodd" d="M14.4 10.4274V7.2C14.4 4.3047 12.4335 1.8657 9.7695 1.1322C9.5058 0.468 8.8614 0 8.1 0C7.3386 0 6.6942 0.468 6.4305 1.1322C3.7665 1.8666 1.8 4.3047 1.8 7.2V10.4274L0.2637 11.9637C0.0945 12.132 0 12.3606 0 12.6V14.4C0 14.8977 0.4023 15.3 0.9 15.3H15.3C15.7977 15.3 16.2 14.8977 16.2 14.4V12.6C16.2 12.3606 16.1055 12.132 15.9363 11.9637L14.4 10.4274ZM14.4 13.5H1.8V12.9726L3.3363 11.4363C3.5055 11.268 3.6 11.0394 3.6 10.8V7.2C3.6 4.7187 5.6187 2.7 8.1 2.7C10.5813 2.7 12.6 4.7187 12.6 7.2V10.8C12.6 11.0394 12.6945 11.268 12.8637 11.4363L14.4 12.9726V13.5ZM8.1 18C9.2799 18 10.2663 17.2494 10.6362 16.2H5.5638C5.9337 17.2494 6.9201 18 8.1 18Z" fill="white" fill-opacity="0.2"/>
</svg>
