<svg width="20" height="20" viewBox="0 0 20 20" fill="none" xmlns="http://www.w3.org/2000/svg">
<path fill-rule="evenodd" clip-rule="evenodd" d="M3.3335 6.66675C2.87326 6.66675 2.50016 7.03984 2.50016 7.50008V15.8334C2.50016 16.2937 2.87326 16.6667 3.3335 16.6667H16.6668C17.1271 16.6667 17.5002 16.2937 17.5002 15.8334V7.50008C17.5002 7.03984 17.1271 6.66675 16.6668 6.66675H3.3335ZM0.833496 7.50008C0.833496 6.11937 1.95278 5.00008 3.3335 5.00008H16.6668C18.0475 5.00008 19.1668 6.11937 19.1668 7.50008V15.8334C19.1668 17.2141 18.0475 18.3334 16.6668 18.3334H3.3335C1.95278 18.3334 0.833496 17.2141 0.833496 15.8334V7.50008Z" fill="#1565D8"/>
<path fill-rule="evenodd" clip-rule="evenodd" d="M6.56573 2.39898C7.03457 1.93014 7.67045 1.66675 8.3335 1.66675H11.6668C12.3299 1.66675 12.9658 1.93014 13.4346 2.39898C13.9034 2.86782 14.1668 3.50371 14.1668 4.16675V17.5001C14.1668 17.9603 13.7937 18.3334 13.3335 18.3334C12.8733 18.3334 12.5002 17.9603 12.5002 17.5001V4.16675C12.5002 3.94573 12.4124 3.73377 12.2561 3.57749C12.0998 3.42121 11.8878 3.33341 11.6668 3.33341H8.3335C8.11248 3.33341 7.90052 3.42121 7.74424 3.57749C7.58796 3.73377 7.50016 3.94573 7.50016 4.16675V17.5001C7.50016 17.9603 7.12707 18.3334 6.66683 18.3334C6.20659 18.3334 5.8335 17.9603 5.8335 17.5001V4.16675C5.8335 3.50371 6.09689 2.86782 6.56573 2.39898Z" fill="#1565D8"/>
</svg>
