<svg width="40" height="40" viewBox="0 0 40 40" fill="none" xmlns="http://www.w3.org/2000/svg">
<g clip-path="url(#clip0_1682_1729)">
<path d="M37.3404 20.518C37.1795 20.1887 37.1795 19.811 37.3404 19.4818L38.8323 16.4299C39.6629 14.7306 39.0048 12.7052 37.334 11.8187L34.3332 10.2266C34.0095 10.0548 33.7875 9.74922 33.7242 9.38836L33.1373 6.04237C32.8105 4.17941 31.0872 2.92754 29.2148 3.19246L25.8513 3.66824C25.4883 3.71949 25.1293 3.60277 24.8659 3.34801L22.4245 0.986146C21.065 -0.329002 18.9354 -0.32908 17.576 0.986146L15.1344 3.34824C14.871 3.60308 14.512 3.71957 14.1491 3.66847L10.7856 3.1927C8.91253 2.92762 7.18988 4.17964 6.86309 6.0426L6.27621 9.38844C6.21285 9.74938 5.9909 10.0549 5.66723 10.2267L2.66647 11.8189C0.995698 12.7053 0.337576 14.7308 1.1682 16.4301L2.65998 19.482C2.82092 19.8113 2.82092 20.1889 2.65998 20.5181L1.16812 23.57C0.337498 25.2693 0.995619 27.2947 2.66639 28.1811L5.66715 29.7733C5.9909 29.945 6.21285 30.2507 6.27621 30.6115L6.86309 33.9575C7.16058 35.6534 8.61479 36.8428 10.2861 36.8427C10.4507 36.8427 10.6178 36.8311 10.7856 36.8073L14.1491 36.3316C14.5119 36.2801 14.8711 36.397 15.1345 36.6518L17.576 39.0137C18.2558 39.6713 19.1279 40.0001 20.0002 40C20.8723 39.9999 21.7449 39.6712 22.4244 39.0137L24.8659 36.6518C25.1294 36.397 25.4884 36.2806 25.8513 36.3316L29.2148 36.8073C31.0881 37.0723 32.8105 35.8204 33.1373 33.9574L33.7243 30.6116C33.7876 30.2507 34.0096 29.9451 34.3332 29.7733L37.334 28.1811C39.0048 27.2947 39.6629 25.2692 38.8323 23.5699L37.3404 20.518ZM36.2527 26.1431L33.2519 27.7353C32.2952 28.243 31.639 29.146 31.4519 30.2128L30.8651 33.5588C30.7545 34.1891 30.1718 34.6124 29.538 34.523L26.1745 34.0472C25.1018 33.8952 24.0404 34.2405 23.2619 34.9935L20.8203 37.3553C20.3605 37.8001 19.64 37.8001 19.18 37.3553L16.7385 34.9934C16.0805 34.357 15.2204 34.012 14.3224 34.012C14.1579 34.012 13.992 34.0236 13.8259 34.0471L10.4624 34.5229C9.82916 34.6124 9.24596 34.189 9.13534 33.5587L8.54839 30.2127C8.3612 29.1458 7.70511 28.2428 6.74832 27.7352L3.74756 26.143C3.18225 25.8431 2.95959 25.1579 3.24061 24.583L4.73247 21.531C5.2081 20.5579 5.2081 19.4418 4.73247 18.4687L3.24061 15.4168C2.95959 14.8418 3.18225 14.1566 3.74756 13.8567L6.74832 12.2645C7.70503 11.7568 8.3612 10.8538 8.54831 9.78695L9.13518 6.44104C9.24581 5.81073 9.82846 5.38729 10.4623 5.47682L13.8258 5.9526C14.898 6.1044 15.9598 5.75932 16.7383 5.00628L19.1799 2.64442C19.6397 2.19958 20.3603 2.19958 20.8203 2.64442L23.2617 5.00628C24.0403 5.7594 25.1019 6.1044 26.1743 5.9526L29.5378 5.47682C30.1712 5.38721 30.7544 5.81073 30.8649 6.44104L31.4518 9.78703C31.639 10.8539 32.295 11.7569 33.2518 12.2645L36.2526 13.8567C36.8179 14.1566 37.0406 14.8418 36.7596 15.4168L35.2677 18.4686C34.7921 19.4417 34.7921 20.5579 35.2677 21.5309L36.7596 24.5828C37.0406 25.1579 36.818 25.8432 36.2527 26.1431Z" fill="#04B200"/>
<path d="M28.4284 11.5715C27.978 11.121 27.2476 11.121 26.7971 11.5715L11.5715 26.7972C11.121 27.2477 11.121 27.978 11.5715 28.4285C11.7967 28.6537 12.092 28.7664 12.3871 28.7664C12.6823 28.7664 12.9776 28.6538 13.2027 28.4285L28.4284 13.2029C28.879 12.7523 28.879 12.022 28.4284 11.5715Z" fill="#04B200"/>
<path d="M15.3862 9.61841C13.054 9.61841 11.1566 11.5158 11.1566 13.848C11.1566 16.1802 13.054 18.0776 15.3862 18.0776C17.7184 18.0776 19.6158 16.1802 19.6158 13.848C19.6158 11.5158 17.7184 9.61841 15.3862 9.61841ZM15.3862 15.7705C14.3261 15.7705 13.4637 14.9081 13.4637 13.8479C13.4637 12.7878 14.3261 11.9254 15.3862 11.9254C16.4463 11.9254 17.3088 12.7878 17.3088 13.8479C17.3087 14.9081 16.4463 15.7705 15.3862 15.7705Z" fill="#04B200"/>
<path d="M22.1292 22.7294C20.242 24.0996 19.8213 26.7498 21.1915 28.637C22.5616 30.5243 25.2118 30.9449 27.099 29.5748C28.9863 28.2046 29.4069 25.5544 28.0368 23.6672C26.6666 21.7799 24.0164 21.3593 22.1292 22.7294ZM25.7436 27.7078C24.8858 28.3306 23.6811 28.1395 23.0583 27.2816C22.4355 26.4238 22.6267 25.2192 23.4846 24.5964C24.3425 23.9736 25.547 24.1648 26.1698 25.0226C26.7926 25.8805 26.6014 27.085 25.7436 27.7078Z" fill="#04B200"/>
</g>
<defs>
<clipPath id="clip0_1682_1729">
<rect width="40" height="40" fill="white"/>
</clipPath>
</defs>
</svg>
