<svg width="91" height="100" viewBox="0 0 91 100" fill="none" xmlns="http://www.w3.org/2000/svg">
<path d="M0 11.6735V0H1.41358V10.4195H6.83992V11.6735H0Z" fill="black"/>
<path d="M12.5171 11.8559C11.6735 11.8559 10.9458 11.6697 10.334 11.2973C9.72599 10.9211 9.2567 10.3967 8.9261 9.72409C8.5993 9.0477 8.43591 8.26111 8.43591 7.36432C8.43591 6.46753 8.5993 5.67714 8.9261 4.99314C9.2567 4.30535 9.71649 3.76956 10.3055 3.38576C10.8983 2.99817 11.5899 2.80437 12.3803 2.80437C12.8363 2.80437 13.2866 2.88037 13.7311 3.03237C14.1757 3.18436 14.5804 3.43136 14.9452 3.77336C15.31 4.11155 15.6007 4.55995 15.8173 5.11854C16.0339 5.67714 16.1422 6.36493 16.1422 7.18192V7.75191H9.3935V6.58913H14.7742C14.7742 6.09513 14.6754 5.65434 14.4778 5.26674C14.284 4.87915 14.0066 4.57325 13.6456 4.34905C13.2885 4.12485 12.8667 4.01276 12.3803 4.01276C11.8445 4.01276 11.3809 4.14575 10.9895 4.41175C10.6019 4.67395 10.3036 5.01594 10.0946 5.43774C9.88559 5.85953 9.78109 6.31173 9.78109 6.79433V7.56952C9.78109 8.23071 9.89509 8.7912 10.1231 9.251C10.3549 9.70699 10.676 10.0547 11.0864 10.2941C11.4968 10.5297 11.9737 10.6475 12.5171 10.6475C12.8705 10.6475 13.1897 10.5981 13.4747 10.4993C13.7634 10.3967 14.0123 10.2447 14.2213 10.0433C14.4303 9.83809 14.5918 9.58349 14.7058 9.2795L16.0054 9.64429C15.8686 10.0851 15.6387 10.4727 15.3157 10.8071C14.9927 11.1377 14.5937 11.3961 14.1187 11.5823C13.6437 11.7647 13.1099 11.8559 12.5171 11.8559Z" fill="black"/>
<path d="M21.7225 15.139C21.0727 15.139 20.5141 15.0554 20.0467 14.8882C19.5793 14.7248 19.1898 14.5082 18.8782 14.2384C18.5704 13.9724 18.3253 13.6874 18.1429 13.3835L19.2145 12.6311C19.3361 12.7907 19.49 12.9731 19.6762 13.1783C19.8624 13.3873 20.117 13.5677 20.44 13.7197C20.7668 13.8755 21.1943 13.9534 21.7225 13.9534C22.4293 13.9534 23.0125 13.7824 23.4723 13.4405C23.9321 13.0985 24.162 12.5627 24.162 11.8331V10.0547H24.048C23.9492 10.2143 23.8086 10.4119 23.6262 10.6475C23.4476 10.8793 23.1892 11.0864 22.851 11.2688C22.5166 11.4474 22.0645 11.5367 21.4945 11.5367C20.7877 11.5367 20.1531 11.3695 19.5907 11.0351C19.0321 10.7007 18.5894 10.2143 18.2626 9.57589C17.9396 8.9375 17.7781 8.16231 17.7781 7.25032C17.7781 6.35353 17.9358 5.57264 18.2512 4.90765C18.5666 4.23885 19.0055 3.72206 19.5679 3.35726C20.1303 2.98867 20.7801 2.80437 21.5173 2.80437C22.0873 2.80437 22.5394 2.89937 22.8738 3.08937C23.212 3.27556 23.4704 3.48836 23.649 3.72776C23.8314 3.96336 23.972 4.15715 24.0708 4.30915H24.2076V2.91837H25.5072V11.9243C25.5072 12.6767 25.3362 13.2885 24.9942 13.7596C24.656 14.2346 24.2 14.5823 23.6262 14.8027C23.0562 15.0269 22.4216 15.139 21.7225 15.139ZM21.6769 10.3283C22.2165 10.3283 22.6724 10.2048 23.0448 9.95779C23.4172 9.71079 23.7003 9.3555 23.8941 8.8919C24.0879 8.42831 24.1848 7.87351 24.1848 7.22752C24.1848 6.59673 24.0898 6.04003 23.8998 5.55744C23.7098 5.07484 23.4286 4.69675 23.0562 4.42315C22.6838 4.14955 22.2241 4.01276 21.6769 4.01276C21.1069 4.01276 20.6319 4.15715 20.2519 4.44595C19.8757 4.73475 19.5926 5.12234 19.4026 5.60874C19.2164 6.09513 19.1233 6.63473 19.1233 7.22752C19.1233 7.83551 19.2183 8.37321 19.4083 8.8406C19.6021 9.3042 19.8871 9.66899 20.2633 9.93499C20.6433 10.1972 21.1145 10.3283 21.6769 10.3283Z" fill="black"/>
<path d="M30.546 11.8787C29.9912 11.8787 29.4877 11.7742 29.0355 11.5652C28.5833 11.3524 28.2242 11.0465 27.9582 10.6475C27.6922 10.2447 27.5592 9.75829 27.5592 9.1883C27.5592 8.6867 27.658 8.28011 27.8556 7.96851C28.0532 7.65312 28.3173 7.40612 28.6479 7.22752C28.9785 7.04892 29.3433 6.91592 29.7423 6.82852C30.1451 6.73733 30.5498 6.66513 30.9564 6.61193C31.4883 6.54353 31.9196 6.49223 32.2502 6.45803C32.5846 6.42003 32.8278 6.35733 32.9798 6.26993C33.1356 6.18253 33.2135 6.03053 33.2135 5.81393V5.76834C33.2135 5.20594 33.0596 4.76895 32.7518 4.45735C32.4478 4.14575 31.9861 3.98996 31.3667 3.98996C30.7246 3.98996 30.2211 4.13055 29.8563 4.41175C29.4915 4.69295 29.235 4.99314 29.0868 5.31234L27.81 4.85635C28.038 4.32435 28.342 3.91016 28.722 3.61376C29.1058 3.31356 29.5238 3.10457 29.976 2.98677C30.432 2.86517 30.8804 2.80437 31.3212 2.80437C31.6024 2.80437 31.9253 2.83857 32.2901 2.90697C32.6587 2.97157 33.014 3.10647 33.356 3.31166C33.7018 3.51686 33.9887 3.82656 34.2167 4.24075C34.4447 4.65495 34.5587 5.20974 34.5587 5.90513V11.6735H33.2135V10.4879H33.1451C33.0539 10.6779 32.9019 10.8812 32.6891 11.0978C32.4763 11.3144 32.1932 11.4987 31.8398 11.6507C31.4865 11.8027 31.0552 11.8787 30.546 11.8787ZM30.7512 10.6703C31.2832 10.6703 31.7315 10.5658 32.0963 10.3568C32.4649 10.1478 32.7423 9.87799 32.9285 9.54739C33.1185 9.2168 33.2135 8.8691 33.2135 8.50431V7.27312C33.1565 7.34152 33.0311 7.40422 32.8373 7.46122C32.6473 7.51442 32.4269 7.56192 32.1761 7.60372C31.9291 7.64172 31.6878 7.67591 31.4522 7.70631C31.2205 7.73291 31.0324 7.75571 30.888 7.77471C30.5384 7.82031 30.2116 7.89441 29.9076 7.99701C29.6074 8.09581 29.3642 8.24591 29.178 8.44731C28.9956 8.6449 28.9044 8.9147 28.9044 9.2567C28.9044 9.72409 29.0773 10.0775 29.4231 10.3169C29.7727 10.5525 30.2154 10.6703 30.7512 10.6703Z" fill="black"/>
<path d="M38.3591 0V11.6735H37.014V0H38.3591Z" fill="black"/>
<path d="M0 41.7234V31.5092H3.45131C4.25263 31.5092 4.90765 31.6538 5.41637 31.9431C5.92841 32.229 6.30746 32.6164 6.5535 33.1051C6.79955 33.5939 6.92257 34.1392 6.92257 34.741C6.92257 35.3428 6.79955 35.8898 6.5535 36.3819C6.31078 36.874 5.93506 37.2663 5.42634 37.5589C4.91762 37.8482 4.26593 37.9928 3.47126 37.9928H0.997489V36.8956H3.43136C3.97998 36.8956 4.42054 36.8008 4.75304 36.6113C5.08553 36.4218 5.32659 36.1658 5.47621 35.8433C5.62916 35.5174 5.70564 35.15 5.70564 34.741C5.70564 34.3321 5.62916 33.9663 5.47621 33.6438C5.32659 33.3213 5.08387 33.0686 4.74805 32.8857C4.41223 32.6995 3.96668 32.6064 3.41141 32.6064H1.23689V41.7234H0Z" fill="#E2E2E2"/>
<path d="M8.75546 41.7234V34.0627H9.8926V35.2198H9.9724C10.112 34.8408 10.3647 34.5332 10.7305 34.2971C11.0962 34.0611 11.5085 33.943 11.9674 33.943C12.0538 33.943 12.1619 33.9447 12.2916 33.948C12.4212 33.9513 12.5193 33.9563 12.5858 33.963V35.16C12.5459 35.15 12.4545 35.135 12.3115 35.1151C12.1719 35.0918 12.0239 35.0802 11.8676 35.0802C11.4952 35.0802 11.1627 35.1583 10.8701 35.3146C10.5809 35.4675 10.3514 35.6803 10.1819 35.953C10.0156 36.2223 9.9325 36.5299 9.9325 36.8757V41.7234H8.75546Z" fill="#E2E2E2"/>
<path d="M13.9811 41.7234V34.0627H15.1581V41.7234H13.9811ZM14.5795 32.7859C14.3501 32.7859 14.1523 32.7078 13.986 32.5515C13.8231 32.3953 13.7417 32.2074 13.7417 31.988C13.7417 31.7685 13.8231 31.5806 13.986 31.4244C14.1523 31.2681 14.3501 31.19 14.5795 31.19C14.809 31.19 15.0051 31.2681 15.1681 31.4244C15.3343 31.5806 15.4174 31.7685 15.4174 31.988C15.4174 32.2074 15.3343 32.3953 15.1681 32.5515C15.0051 32.7078 14.809 32.7859 14.5795 32.7859Z" fill="#E2E2E2"/>
<path d="M23.5781 34.0627L20.7453 41.7234H19.5483L16.7154 34.0627H17.9922L20.1069 40.1674H20.1867L22.3014 34.0627H23.5781Z" fill="#E2E2E2"/>
<path d="M27.1529 41.903C26.6674 41.903 26.2269 41.8116 25.8312 41.6287C25.4356 41.4425 25.1213 41.1748 24.8886 40.8257C24.6558 40.4733 24.5395 40.0477 24.5395 39.5489C24.5395 39.11 24.6259 38.7543 24.7988 38.4816C24.9717 38.2056 25.2028 37.9895 25.4921 37.8332C25.7813 37.677 26.1005 37.5606 26.4497 37.4841C26.8021 37.4043 27.1562 37.3411 27.512 37.2946C27.9775 37.2347 28.3549 37.1899 28.6441 37.1599C28.9367 37.1267 29.1495 37.0718 29.2825 36.9953C29.4189 36.9189 29.487 36.7859 29.487 36.5964V36.5565C29.487 36.0644 29.3524 35.682 29.083 35.4093C28.817 35.1367 28.4131 35.0004 27.8711 35.0004C27.3092 35.0004 26.8686 35.1234 26.5494 35.3694C26.2302 35.6155 26.0058 35.8782 25.8761 36.1575L24.7589 35.7585C24.9584 35.293 25.2244 34.9305 25.5569 34.6712C25.8927 34.4085 26.2585 34.2257 26.6542 34.1226C27.0531 34.0162 27.4455 33.963 27.8312 33.963C28.0772 33.963 28.3599 33.9929 28.6791 34.0528C29.0016 34.1093 29.3125 34.2273 29.6117 34.4069C29.9143 34.5864 30.1653 34.8574 30.3648 35.2198C30.5643 35.5822 30.6641 36.0677 30.6641 36.6762V41.7234H29.487V40.6861H29.4272C29.3474 40.8523 29.2144 41.0302 29.0282 41.2197C28.842 41.4092 28.5943 41.5705 28.285 41.7035C27.9758 41.8365 27.5984 41.903 27.1529 41.903ZM27.3324 40.8457C27.7979 40.8457 28.1903 40.7542 28.5095 40.5713C28.832 40.3885 29.0747 40.1524 29.2376 39.8631C29.4039 39.5739 29.487 39.2696 29.487 38.9504V37.8731C29.4371 37.933 29.3274 37.9879 29.1578 38.0377C28.9916 38.0843 28.7988 38.1258 28.5793 38.1624C28.3632 38.1957 28.152 38.2256 27.9459 38.2522C27.7431 38.2755 27.5785 38.2954 27.4521 38.312C27.1462 38.3519 26.8603 38.4168 26.5943 38.5065C26.3316 38.593 26.1188 38.7243 25.9559 38.9006C25.7963 39.0735 25.7165 39.3095 25.7165 39.6088C25.7165 40.0177 25.8678 40.327 26.1704 40.5364C26.4763 40.7426 26.8636 40.8457 27.3324 40.8457Z" fill="#E2E2E2"/>
<path d="M35.9246 41.883C35.2064 41.883 34.5879 41.7135 34.0692 41.3743C33.5505 41.0352 33.1515 40.568 32.8722 39.9729C32.5929 39.3777 32.4533 38.6977 32.4533 37.933C32.4533 37.1549 32.5963 36.4683 32.8822 35.8732C33.1715 35.2747 33.5738 34.8075 34.0892 34.4717C34.6079 34.1326 35.213 33.963 35.9046 33.963C36.4433 33.963 36.9287 34.0627 37.3609 34.2622C37.7932 34.4617 38.1473 34.741 38.4233 35.1001C38.6992 35.4592 38.8705 35.8782 38.937 36.357H37.7599C37.6702 36.0078 37.4707 35.6986 37.1614 35.4293C36.8556 35.1566 36.4433 35.0203 35.9246 35.0203C35.4657 35.0203 35.0634 35.14 34.7176 35.3794C34.3751 35.6155 34.1075 35.9496 33.9146 36.3819C33.7251 36.8108 33.6303 37.3145 33.6303 37.8931C33.6303 38.4849 33.7234 39.0003 33.9096 39.4392C34.0992 39.8781 34.3652 40.2189 34.7076 40.4616C35.0534 40.7043 35.4591 40.8257 35.9246 40.8257C36.2305 40.8257 36.5081 40.7725 36.7575 40.6661C37.0068 40.5597 37.218 40.4068 37.3909 40.2073C37.5638 40.0078 37.6868 39.7684 37.7599 39.4891H38.937C38.8705 39.9413 38.7059 40.3486 38.4432 40.711C38.1839 41.0701 37.8397 41.356 37.4108 41.5688C36.9852 41.7783 36.4898 41.883 35.9246 41.883Z" fill="#E2E2E2"/>
<path d="M41.4157 44.5962C41.2162 44.5962 41.0384 44.5796 40.8821 44.5463C40.7258 44.5164 40.6177 44.4865 40.5579 44.4566L40.8571 43.4192C41.1431 43.4923 41.3958 43.5189 41.6152 43.499C41.8347 43.479 42.0292 43.3809 42.1988 43.2047C42.3717 43.0318 42.5296 42.7509 42.6726 42.3618L42.892 41.7633L40.0592 34.0627H41.3359L43.4506 40.1674H43.5304L45.6451 34.0627H46.9219L43.6701 42.8406C43.5238 43.2363 43.3426 43.5638 43.1264 43.8232C42.9103 44.0858 42.6593 44.2803 42.3733 44.4067C42.0907 44.533 41.7715 44.5962 41.4157 44.5962Z" fill="#E2E2E2"/>
<path d="M52.5851 41.7234V31.5092H56.0364C56.8377 31.5092 57.4928 31.6538 58.0015 31.9431C58.5135 32.229 58.8926 32.6164 59.1386 33.1051C59.3847 33.5939 59.5077 34.1392 59.5077 34.741C59.5077 35.3428 59.3847 35.8898 59.1386 36.3819C58.8959 36.874 58.5202 37.2663 58.0115 37.5589C57.5027 37.8482 56.851 37.9928 56.0564 37.9928H53.5826V36.8956H56.0165C56.5651 36.8956 57.0057 36.8008 57.3382 36.6113C57.6707 36.4218 57.9117 36.1658 58.0613 35.8433C58.2143 35.5174 58.2908 35.15 58.2908 34.741C58.2908 34.3321 58.2143 33.9663 58.0613 33.6438C57.9117 33.3213 57.669 33.0686 57.3332 32.8857C56.9973 32.6995 56.5518 32.6064 55.9965 32.6064H53.822V41.7234H52.5851Z" fill="#E2E2E2"/>
<path d="M64.3705 41.883C63.6789 41.883 63.0721 41.7185 62.55 41.3893C62.0313 41.0601 61.6257 40.5996 61.3331 40.0078C61.0438 39.4159 60.8992 38.7243 60.8992 37.933C60.8992 37.135 61.0438 36.4384 61.3331 35.8433C61.6257 35.2481 62.0313 34.7859 62.55 34.4567C63.0721 34.1276 63.6789 33.963 64.3705 33.963C65.062 33.963 65.6672 34.1276 66.1859 34.4567C66.7079 34.7859 67.1135 35.2481 67.4028 35.8433C67.6954 36.4384 67.8417 37.135 67.8417 37.933C67.8417 38.7243 67.6954 39.4159 67.4028 40.0078C67.1135 40.5996 66.7079 41.0601 66.1859 41.3893C65.6672 41.7185 65.062 41.883 64.3705 41.883ZM64.3705 40.8257C64.8958 40.8257 65.328 40.691 65.6672 40.4217C66.0063 40.1524 66.2574 39.7983 66.4203 39.3594C66.5832 38.9205 66.6647 38.445 66.6647 37.933C66.6647 37.4209 66.5832 36.9438 66.4203 36.5016C66.2574 36.0594 66.0063 35.7019 65.6672 35.4293C65.328 35.1566 64.8958 35.0203 64.3705 35.0203C63.8451 35.0203 63.4129 35.1566 63.0737 35.4293C62.7346 35.7019 62.4835 36.0594 62.3206 36.5016C62.1577 36.9438 62.0762 37.4209 62.0762 37.933C62.0762 38.445 62.1577 38.9205 62.3206 39.3594C62.4835 39.7983 62.7346 40.1524 63.0737 40.4217C63.4129 40.691 63.8451 40.8257 64.3705 40.8257Z" fill="#E2E2E2"/>
<path d="M70.8155 31.5092V41.7234H69.6384V31.5092H70.8155Z" fill="#E2E2E2"/>
<path d="M72.9713 41.7234V34.0627H74.1483V41.7234H72.9713ZM73.5698 32.7859C73.3404 32.7859 73.1425 32.7078 72.9763 32.5515C72.8134 32.3953 72.7319 32.2074 72.7319 31.988C72.7319 31.7685 72.8134 31.5806 72.9763 31.4244C73.1425 31.2681 73.3404 31.19 73.5698 31.19C73.7992 31.19 73.9954 31.2681 74.1583 31.4244C74.3246 31.5806 74.4077 31.7685 74.4077 31.988C74.4077 32.2074 74.3246 32.3953 74.1583 32.5515C73.9954 32.7078 73.7992 32.7859 73.5698 32.7859Z" fill="#E2E2E2"/>
<path d="M79.4163 41.883C78.6981 41.883 78.0797 41.7135 77.561 41.3743C77.0423 41.0352 76.6433 40.568 76.364 39.9729C76.0847 39.3777 75.9451 38.6977 75.9451 37.933C75.9451 37.1549 76.088 36.4683 76.374 35.8732C76.6633 35.2747 77.0656 34.8075 77.5809 34.4717C78.0996 34.1326 78.7048 33.963 79.3964 33.963C79.935 33.963 80.4205 34.0627 80.8527 34.2622C81.285 34.4617 81.6391 34.741 81.915 35.1001C82.191 35.4592 82.3622 35.8782 82.4287 36.357H81.2517C81.1619 36.0078 80.9624 35.6986 80.6532 35.4293C80.3473 35.1566 79.935 35.0203 79.4163 35.0203C78.9575 35.0203 78.5552 35.14 78.2094 35.3794C77.8669 35.6155 77.5992 35.9496 77.4064 36.3819C77.2169 36.8108 77.1221 37.3145 77.1221 37.8931C77.1221 38.4849 77.2152 39.0003 77.4014 39.4392C77.5909 39.8781 77.8569 40.2189 78.1994 40.4616C78.5452 40.7043 78.9508 40.8257 79.4163 40.8257C79.7222 40.8257 79.9999 40.7725 80.2492 40.6661C80.4986 40.5597 80.7097 40.4068 80.8826 40.2073C81.0555 40.0078 81.1786 39.7684 81.2517 39.4891H82.4287C82.3622 39.9413 82.1977 40.3486 81.935 40.711C81.6756 41.0701 81.3315 41.356 80.9026 41.5688C80.477 41.7783 79.9816 41.883 79.4163 41.883Z" fill="#E2E2E2"/>
<path d="M84.9075 44.5962C84.708 44.5962 84.5301 44.5796 84.3738 44.5463C84.2176 44.5164 84.1095 44.4865 84.0497 44.4566L84.3489 43.4192C84.6349 43.4923 84.8876 43.5189 85.107 43.499C85.3264 43.479 85.521 43.3809 85.6905 43.2047C85.8634 43.0318 86.0214 42.7509 86.1643 42.3618L86.3838 41.7633L83.5509 34.0627H84.8277L86.9424 40.1674H87.0222L89.1369 34.0627H90.4136L87.1618 42.8406C87.0155 43.2363 86.8343 43.5638 86.6182 43.8232C86.4021 44.0858 86.151 44.2803 85.8651 44.4067C85.5825 44.533 85.2633 44.5962 84.9075 44.5962Z" fill="#E2E2E2"/>
<path d="M8.00271 63.9077H6.85417C6.78625 63.5774 6.66738 63.2872 6.49757 63.0371C6.33085 62.787 6.12708 62.577 5.88625 62.4072C5.64852 62.2343 5.38454 62.1047 5.09432 62.0182C4.8041 61.9318 4.50153 61.8885 4.1866 61.8885C3.61234 61.8885 3.0921 62.0336 2.62589 62.3239C2.16277 62.6141 1.79382 63.0417 1.51903 63.6067C1.24734 64.1717 1.11149 64.8648 1.11149 65.6861C1.11149 66.5074 1.24734 67.2005 1.51903 67.7655C1.79382 68.3305 2.16277 68.7581 2.62589 69.0484C3.0921 69.3386 3.61234 69.4837 4.1866 69.4837C4.50153 69.4837 4.8041 69.4405 5.09432 69.354C5.38454 69.2676 5.64852 69.1394 5.88625 68.9696C6.12708 68.7967 6.33085 68.5852 6.49757 68.3352C6.66738 68.082 6.78625 67.7918 6.85417 67.4645H8.00271C7.91626 67.9492 7.7588 68.383 7.53033 68.7659C7.30186 69.1487 7.01781 69.4744 6.67819 69.743C6.33857 70.0086 5.95727 70.2108 5.53428 70.3497C5.11439 70.4887 4.66516 70.5581 4.1866 70.5581C3.37769 70.5581 2.65831 70.3605 2.02847 69.9653C1.39862 69.5701 0.903084 69.0082 0.54185 68.2796C0.180617 67.5509 0 66.6865 0 65.6861C0 64.6858 0.180617 63.8213 0.54185 63.0926C0.903084 62.364 1.39862 61.8021 2.02847 61.4069C2.65831 61.0117 3.37769 60.8141 4.1866 60.8141C4.66516 60.8141 5.11439 60.8836 5.53428 61.0225C5.95727 61.1614 6.33857 61.3652 6.67819 61.6338C7.01781 61.8993 7.30186 62.2235 7.53033 62.6064C7.7588 62.9861 7.91626 63.4199 8.00271 63.9077Z" fill="#E2E2E2"/>
<path d="M12.6003 70.5767C11.9581 70.5767 11.3947 70.4238 10.9099 70.1182C10.4283 69.8125 10.0516 69.3849 9.77993 68.8353C9.51132 68.2858 9.37702 67.6436 9.37702 66.9088C9.37702 66.1678 9.51132 65.5209 9.77993 64.9683C10.0516 64.4156 10.4283 63.9865 10.9099 63.6808C11.3947 63.3751 11.9581 63.2223 12.6003 63.2223C13.2425 63.2223 13.8044 63.3751 14.2861 63.6808C14.7708 63.9865 15.1475 64.4156 15.4161 64.9683C15.6878 65.5209 15.8236 66.1678 15.8236 66.9088C15.8236 67.6436 15.6878 68.2858 15.4161 68.8353C15.1475 69.3849 14.7708 69.8125 14.2861 70.1182C13.8044 70.4238 13.2425 70.5767 12.6003 70.5767ZM12.6003 69.5948C13.0882 69.5948 13.4895 69.4698 13.8044 69.2197C14.1194 68.9696 14.3525 68.6408 14.5038 68.2333C14.655 67.8257 14.7307 67.3842 14.7307 66.9088C14.7307 66.4333 14.655 65.9902 14.5038 65.5796C14.3525 65.169 14.1194 64.8371 13.8044 64.5839C13.4895 64.3307 13.0882 64.2041 12.6003 64.2041C12.1125 64.2041 11.7111 64.3307 11.3962 64.5839C11.0813 64.8371 10.8482 65.169 10.6969 65.5796C10.5456 65.9902 10.47 66.4333 10.47 66.9088C10.47 67.3842 10.5456 67.8257 10.6969 68.2333C10.8482 68.6408 11.0813 68.9696 11.3962 69.2197C11.7111 69.4698 12.1125 69.5948 12.6003 69.5948Z" fill="#E2E2E2"/>
<path d="M20.3819 70.5767C19.7397 70.5767 19.1762 70.4238 18.6915 70.1182C18.2099 69.8125 17.8332 69.3849 17.5615 68.8353C17.2929 68.2858 17.1586 67.6436 17.1586 66.9088C17.1586 66.1678 17.2929 65.5209 17.5615 64.9683C17.8332 64.4156 18.2099 63.9865 18.6915 63.6808C19.1762 63.3751 19.7397 63.2223 20.3819 63.2223C21.0241 63.2223 21.586 63.3751 22.0677 63.6808C22.5524 63.9865 22.9291 64.4156 23.1977 64.9683C23.4694 65.5209 23.6052 66.1678 23.6052 66.9088C23.6052 67.6436 23.4694 68.2858 23.1977 68.8353C22.9291 69.3849 22.5524 69.8125 22.0677 70.1182C21.586 70.4238 21.0241 70.5767 20.3819 70.5767ZM20.3819 69.5948C20.8697 69.5948 21.2711 69.4698 21.586 69.2197C21.9009 68.9696 22.134 68.6408 22.2853 68.2333C22.4366 67.8257 22.5123 67.3842 22.5123 66.9088C22.5123 66.4333 22.4366 65.9902 22.2853 65.5796C22.134 65.169 21.9009 64.8371 21.586 64.5839C21.2711 64.3307 20.8697 64.2041 20.3819 64.2041C19.8941 64.2041 19.4927 64.3307 19.1778 64.5839C18.8629 64.8371 18.6298 65.169 18.4785 65.5796C18.3272 65.9902 18.2516 66.4333 18.2516 66.9088C18.2516 67.3842 18.3272 67.8257 18.4785 68.2333C18.6298 68.6408 18.8629 68.9696 19.1778 69.2197C19.4927 69.4698 19.8941 69.5948 20.3819 69.5948Z" fill="#E2E2E2"/>
<path d="M26.2925 67.835L26.2739 66.4827H26.4962L29.6084 63.3149H30.9607L27.6448 66.6679H27.5522L26.2925 67.835ZM25.2736 70.4285V60.9438H26.3666V70.4285H25.2736ZM29.7937 70.4285L27.0149 66.9088L27.793 66.1492L31.183 70.4285H29.7937Z" fill="#E2E2E2"/>
<path d="M32.3674 70.4285V63.3149H33.4604V70.4285H32.3674ZM32.9232 62.1294C32.7102 62.1294 32.5264 62.0568 32.3721 61.9117C32.2208 61.7666 32.1451 61.5921 32.1451 61.3884C32.1451 61.1846 32.2208 61.0101 32.3721 60.865C32.5264 60.7199 32.7102 60.6474 32.9232 60.6474C33.1362 60.6474 33.3184 60.7199 33.4697 60.865C33.624 61.0101 33.7012 61.1846 33.7012 61.3884C33.7012 61.5921 33.624 61.7666 33.4697 61.9117C33.3184 62.0568 33.1362 62.1294 32.9232 62.1294Z" fill="#E2E2E2"/>
<path d="M38.4447 70.5767C37.7593 70.5767 37.1681 70.4254 36.671 70.1228C36.177 69.8171 35.7957 69.3911 35.5271 68.8446C35.2616 68.295 35.1288 67.6559 35.1288 66.9273C35.1288 66.1986 35.2616 65.5564 35.5271 65.0007C35.7957 64.4419 36.1693 64.0065 36.6478 63.6947C37.1295 63.3798 37.6914 63.2223 38.3336 63.2223C38.7041 63.2223 39.0699 63.2841 39.4312 63.4076C39.7924 63.5311 40.1212 63.7317 40.4176 64.0096C40.714 64.2844 40.9502 64.6487 41.1262 65.1026C41.3022 65.5564 41.3902 66.1153 41.3902 66.7791V67.2422H35.9068V66.2974H40.2787C40.2787 65.8961 40.1984 65.5379 40.0379 65.223C39.8804 64.9081 39.655 64.6595 39.3617 64.4774C39.0715 64.2952 38.7288 64.2041 38.3336 64.2041C37.8983 64.2041 37.5216 64.3122 37.2036 64.5283C36.8887 64.7413 36.6463 65.0192 36.4765 65.3619C36.3067 65.7046 36.2218 66.072 36.2218 66.4642V67.094C36.2218 67.6312 36.3144 68.0866 36.4996 68.4602C36.688 68.8307 36.9489 69.1132 37.2823 69.3077C37.6158 69.4991 38.0032 69.5948 38.4447 69.5948C38.7319 69.5948 38.9912 69.5547 39.2228 69.4744C39.4574 69.3911 39.6597 69.2676 39.8295 69.1039C39.9993 68.9372 40.1305 68.7304 40.2231 68.4834L41.279 68.7798C41.1679 69.1379 40.9811 69.4528 40.7187 69.7245C40.4562 69.9931 40.132 70.2031 39.7461 70.3544C39.3602 70.5026 38.9264 70.5767 38.4447 70.5767Z" fill="#E2E2E2"/>
<path d="M46.8689 70.4285V60.9438H50.0737C50.8178 60.9438 51.426 61.0781 51.8984 61.3467C52.3738 61.6122 52.7258 61.9719 52.9543 62.4258C53.1828 62.8796 53.297 63.386 53.297 63.9448C53.297 64.5036 53.1828 65.0115 52.9543 65.4684C52.7289 65.9254 52.38 66.2897 51.9076 66.5614C51.4352 66.83 50.8301 66.9643 50.0922 66.9643H47.7951V65.9455H50.0551C50.5646 65.9455 50.9737 65.8575 51.2824 65.6815C51.5912 65.5055 51.815 65.2678 51.9539 64.9683C52.096 64.6657 52.167 64.3245 52.167 63.9448C52.167 63.565 52.096 63.2254 51.9539 62.9259C51.815 62.6264 51.5896 62.3918 51.2778 62.222C50.9659 62.0491 50.5522 61.9626 50.0366 61.9626H48.0174V70.4285H46.8689Z" fill="#E2E2E2"/>
<path d="M57.8124 70.5767C57.1702 70.5767 56.6068 70.4238 56.122 70.1182C55.6404 69.8125 55.2637 69.3849 54.992 68.8353C54.7234 68.2858 54.5891 67.6436 54.5891 66.9088C54.5891 66.1678 54.7234 65.5209 54.992 64.9683C55.2637 64.4156 55.6404 63.9865 56.122 63.6808C56.6068 63.3751 57.1702 63.2223 57.8124 63.2223C58.4546 63.2223 59.0165 63.3751 59.4982 63.6808C59.9829 63.9865 60.3596 64.4156 60.6282 64.9683C60.8999 65.5209 61.0357 66.1678 61.0357 66.9088C61.0357 67.6436 60.8999 68.2858 60.6282 68.8353C60.3596 69.3849 59.9829 69.8125 59.4982 70.1182C59.0165 70.4238 58.4546 70.5767 57.8124 70.5767ZM57.8124 69.5948C58.3002 69.5948 58.7016 69.4698 59.0165 69.2197C59.3314 68.9696 59.5645 68.6408 59.7158 68.2333C59.8671 67.8257 59.9428 67.3842 59.9428 66.9088C59.9428 66.4333 59.8671 65.9902 59.7158 65.5796C59.5645 65.169 59.3314 64.8371 59.0165 64.5839C58.7016 64.3307 58.3002 64.2041 57.8124 64.2041C57.3246 64.2041 56.9232 64.3307 56.6083 64.5839C56.2934 64.8371 56.0603 65.169 55.909 65.5796C55.7577 65.9902 55.6821 66.4333 55.6821 66.9088C55.6821 67.3842 55.7577 67.8257 55.909 68.2333C56.0603 68.6408 56.2934 68.9696 56.6083 69.2197C56.9232 69.4698 57.3246 69.5948 57.8124 69.5948Z" fill="#E2E2E2"/>
<path d="M63.7971 60.9438V70.4285H62.7041V60.9438H63.7971Z" fill="#E2E2E2"/>
<path d="M65.7989 70.4285V63.3149H66.8919V70.4285H65.7989ZM66.3547 62.1294C66.1416 62.1294 65.9579 62.0568 65.8035 61.9117C65.6523 61.7666 65.5766 61.5921 65.5766 61.3884C65.5766 61.1846 65.6523 61.0101 65.8035 60.865C65.9579 60.7199 66.1416 60.6474 66.3547 60.6474C66.5677 60.6474 66.7499 60.7199 66.9011 60.865C67.0555 61.0101 67.1327 61.1846 67.1327 61.3884C67.1327 61.5921 67.0555 61.7666 66.9011 61.9117C66.7499 62.0568 66.5677 62.1294 66.3547 62.1294Z" fill="#E2E2E2"/>
<path d="M71.7836 70.5767C71.1167 70.5767 70.5424 70.4192 70.0608 70.1043C69.5791 69.7894 69.2086 69.3556 68.9493 68.8029C68.6899 68.2503 68.5603 67.6189 68.5603 66.9088C68.5603 66.1863 68.693 65.5487 68.9585 64.9961C69.2272 64.4403 69.6007 64.0065 70.0793 63.6947C70.5609 63.3798 71.1229 63.2223 71.7651 63.2223C72.2652 63.2223 72.716 63.3149 73.1174 63.5002C73.5187 63.6854 73.8475 63.9448 74.1038 64.2782C74.3601 64.6117 74.5191 65.0007 74.5808 65.4453H73.4879C73.4045 65.1211 73.2193 64.834 72.9321 64.5839C72.6481 64.3307 72.2652 64.2041 71.7836 64.2041C71.3575 64.2041 70.9839 64.3153 70.6628 64.5376C70.3448 64.7568 70.0963 65.0671 69.9172 65.4684C69.7412 65.8667 69.6532 66.3345 69.6532 66.8717C69.6532 67.4213 69.7397 67.8998 69.9126 68.3074C70.0886 68.7149 70.3356 69.0314 70.6536 69.2568C70.9747 69.4822 71.3513 69.5948 71.7836 69.5948C72.0676 69.5948 72.3254 69.5454 72.557 69.4466C72.7886 69.3478 72.9846 69.2058 73.1452 69.0206C73.3057 68.8353 73.4199 68.613 73.4879 68.3537H74.5808C74.5191 68.7736 74.3662 69.1518 74.1223 69.4883C73.8815 69.8218 73.562 70.0873 73.1637 70.2849C72.7685 70.4794 72.3084 70.5767 71.7836 70.5767Z" fill="#E2E2E2"/>
<path d="M76.8825 73.096C76.6973 73.096 76.5321 73.0806 76.387 73.0497C76.2419 73.0219 76.1415 72.9941 76.086 72.9664L76.3638 72.0031C76.6294 72.071 76.864 72.0957 77.0678 72.0772C77.2715 72.0586 77.4522 71.9676 77.6096 71.8039C77.7702 71.6434 77.9168 71.3825 78.0496 71.0213L78.2534 70.4655L75.6228 63.3149H76.8084L78.7721 68.9835H78.8462L80.8098 63.3149H81.9954L78.9758 71.4658C78.84 71.8333 78.6717 72.1374 78.471 72.3782C78.2703 72.6221 78.0372 72.8027 77.7717 72.92C77.5093 73.0374 77.2129 73.096 76.8825 73.096Z" fill="#E2E2E2"/>
<path d="M0 90.7232V89.6259H7.66071V90.7232H4.4488V99.8402H3.21191V90.7232H0Z" fill="#E2E2E2"/>
<path d="M11.511 99.9998C10.7729 99.9998 10.1361 99.8369 9.60083 99.5111C9.06884 99.1819 8.6582 98.723 8.36893 98.1345C8.08299 97.5427 7.94001 96.8544 7.94001 96.0697C7.94001 95.285 8.08299 94.5934 8.36893 93.9949C8.6582 93.3931 9.06052 92.9243 9.57589 92.5885C10.0946 92.2493 10.6997 92.0798 11.3913 92.0798C11.7903 92.0798 12.1843 92.1463 12.5733 92.2793C12.9624 92.4123 13.3165 92.6284 13.6357 92.9276C13.9549 93.2235 14.2092 93.6159 14.3988 94.1047C14.5883 94.5934 14.683 95.1953 14.683 95.9101V96.4089H8.7779V95.3914H13.4861C13.4861 94.9592 13.3996 94.5735 13.2267 94.2343C13.0571 93.8952 12.8144 93.6275 12.4985 93.4314C12.186 93.2352 11.8169 93.1371 11.3913 93.1371C10.9225 93.1371 10.5169 93.2535 10.1744 93.4862C9.83524 93.7156 9.57423 94.0149 9.39136 94.384C9.20849 94.753 9.11705 95.1487 9.11705 95.571V96.2493C9.11705 96.8278 9.2168 97.3182 9.4163 97.7206C9.61912 98.1196 9.90008 98.4238 10.2592 98.6333C10.6183 98.8394 11.0356 98.9425 11.511 98.9425C11.8202 98.9425 12.0995 98.8993 12.3489 98.8128C12.6016 98.723 12.8194 98.59 13.0023 98.4138C13.1851 98.2343 13.3265 98.0115 13.4262 97.7455L14.5633 98.0647C14.4436 98.4504 14.2425 98.7895 13.9599 99.0821C13.6772 99.3714 13.3281 99.5975 12.9125 99.7604C12.4969 99.92 12.0297 99.9998 11.511 99.9998Z" fill="#E2E2E2"/>
<path d="M16.4735 99.8402V92.1795H17.6107V93.3366H17.6905C17.8301 92.9576 18.0828 92.65 18.4486 92.4139C18.8143 92.1778 19.2266 92.0598 19.6854 92.0598C19.7719 92.0598 19.88 92.0615 20.0096 92.0648C20.1393 92.0681 20.2374 92.0731 20.3039 92.0798V93.2767C20.264 93.2668 20.1726 93.2518 20.0296 93.2319C19.8899 93.2086 19.742 93.1969 19.5857 93.1969C19.2133 93.1969 18.8808 93.2751 18.5882 93.4314C18.2989 93.5843 18.0695 93.7971 17.8999 94.0698C17.7337 94.3391 17.6506 94.6466 17.6506 94.9924V99.8402H16.4735Z" fill="#E2E2E2"/>
<path d="M21.6991 99.8402V92.1795H22.8363V93.3765H22.936C23.0956 92.9675 23.3533 92.65 23.7091 92.4239C24.0648 92.1945 24.4921 92.0798 24.9908 92.0798C25.4962 92.0798 25.9168 92.1945 26.2527 92.4239C26.5918 92.65 26.8561 92.9675 27.0457 93.3765H27.1255C27.3216 92.9808 27.6159 92.6666 28.0082 92.4339C28.4006 92.1978 28.8711 92.0798 29.4197 92.0798C30.1046 92.0798 30.6649 92.2942 31.1005 92.7231C31.536 93.1487 31.7538 93.8121 31.7538 94.7131V99.8402H30.5768V94.7131C30.5768 94.1479 30.4222 93.7439 30.1129 93.5012C29.8037 93.2585 29.4396 93.1371 29.0207 93.1371C28.4821 93.1371 28.0648 93.3 27.7688 93.6259C27.4729 93.9484 27.325 94.3574 27.325 94.8528V99.8402H26.128V94.5934C26.128 94.1579 25.9867 93.8071 25.704 93.5411C25.4214 93.2718 25.0573 93.1371 24.6118 93.1371C24.3059 93.1371 24.02 93.2186 23.754 93.3815C23.4913 93.5444 23.2785 93.7705 23.1156 94.0598C22.956 94.3457 22.8762 94.6766 22.8762 95.0523V99.8402H21.6991Z" fill="#E2E2E2"/>
<path d="M39.3322 93.8952L38.2749 94.1944C38.2084 94.0182 38.1103 93.847 37.9806 93.6807C37.8543 93.5112 37.6814 93.3715 37.4619 93.2618C37.2425 93.1521 36.9615 93.0972 36.6191 93.0972C36.1502 93.0972 35.7596 93.2053 35.447 93.4214C35.1378 93.6342 34.9832 93.9052 34.9832 94.2343C34.9832 94.5269 35.0896 94.758 35.3024 94.9276C35.5152 95.0972 35.8477 95.2385 36.2999 95.3515L37.437 95.6308C38.1219 95.7971 38.6323 96.0514 38.9682 96.3939C39.304 96.733 39.4719 97.1703 39.4719 97.7056C39.4719 98.1445 39.3455 98.5368 39.0928 98.8826C38.8435 99.2284 38.4943 99.5011 38.0455 99.7006C37.5966 99.9001 37.0746 99.9998 36.4794 99.9998C35.6981 99.9998 35.0513 99.8302 34.5393 99.4911C34.0273 99.152 33.7031 98.6565 33.5667 98.0048L34.6839 97.7255C34.7903 98.1378 34.9915 98.4471 35.2874 98.6532C35.5867 98.8594 35.9773 98.9624 36.4595 98.9624C37.0081 98.9624 37.4437 98.8461 37.7662 98.6133C38.092 98.3772 38.2549 98.0946 38.2549 97.7654C38.2549 97.4995 38.1618 97.2767 37.9756 97.0971C37.7894 96.9143 37.5035 96.7779 37.1178 96.6882L35.841 96.3889C35.1395 96.2227 34.6241 95.965 34.2949 95.6159C33.9691 95.2634 33.8061 94.8229 33.8061 94.2942C33.8061 93.8619 33.9275 93.4796 34.1702 93.1471C34.4163 92.8146 34.7504 92.5536 35.1727 92.364C35.5983 92.1745 36.0804 92.0798 36.6191 92.0798C37.3772 92.0798 37.9723 92.246 38.4046 92.5785C38.8401 92.911 39.1494 93.3499 39.3322 93.8952Z" fill="#E2E2E2"/>
<path d="M48.3059 99.9998C47.6143 99.9998 47.0075 99.8352 46.4855 99.5061C45.9668 99.1769 45.5611 98.7164 45.2685 98.1245C44.9793 97.5327 44.8346 96.8411 44.8346 96.0498C44.8346 95.2518 44.9793 94.5552 45.2685 93.96C45.5611 93.3649 45.9668 92.9027 46.4855 92.5735C47.0075 92.2443 47.6143 92.0798 48.3059 92.0798C48.9975 92.0798 49.6026 92.2443 50.1213 92.5735C50.6433 92.9027 51.049 93.3649 51.3383 93.96C51.6309 94.5552 51.7772 95.2518 51.7772 96.0498C51.7772 96.8411 51.6309 97.5327 51.3383 98.1245C51.049 98.7164 50.6433 99.1769 50.1213 99.5061C49.6026 99.8352 48.9975 99.9998 48.3059 99.9998ZM48.3059 98.9425C48.8312 98.9425 49.2635 98.8078 49.6026 98.5385C49.9418 98.2692 50.1928 97.9151 50.3557 97.4762C50.5187 97.0373 50.6001 96.5618 50.6001 96.0498C50.6001 95.5377 50.5187 95.0606 50.3557 94.6184C50.1928 94.1762 49.9418 93.8187 49.6026 93.5461C49.2635 93.2734 48.8312 93.1371 48.3059 93.1371C47.7806 93.1371 47.3483 93.2734 47.0092 93.5461C46.67 93.8187 46.419 94.1762 46.2561 94.6184C46.0931 95.0606 46.0117 95.5377 46.0117 96.0498C46.0117 96.5618 46.0931 97.0373 46.2561 97.4762C46.419 97.9151 46.67 98.2692 47.0092 98.5385C47.3483 98.8078 47.7806 98.9425 48.3059 98.9425Z" fill="#E2E2E2"/>
<path d="M56.9853 92.1795V93.177H52.8557V92.1795H56.9853ZM54.0926 99.8402V91.1222C54.0926 90.6833 54.1956 90.3175 54.4018 90.0249C54.6079 89.7323 54.8756 89.5129 55.2048 89.3666C55.5339 89.2203 55.8814 89.1471 56.2472 89.1471C56.5364 89.1471 56.7725 89.1704 56.9554 89.217C57.1382 89.2635 57.2746 89.3067 57.3643 89.3466L57.0252 90.3641C56.9653 90.3441 56.8822 90.3192 56.7758 90.2893C56.6727 90.2593 56.5364 90.2444 56.3669 90.2444C55.9778 90.2444 55.6969 90.3425 55.524 90.5386C55.3544 90.7348 55.2696 91.0224 55.2696 91.4015V99.8402H54.0926Z" fill="#E2E2E2"/>
<path d="M67.4128 96.7081V92.1795H68.5898V99.8402H67.4128V98.5435H67.333C67.1534 98.9325 66.8741 99.2633 66.4951 99.536C66.1161 99.8053 65.6373 99.94 65.0587 99.94C64.5799 99.94 64.1543 99.8352 63.7819 99.6258C63.4095 99.413 63.1169 99.0938 62.9041 98.6682C62.6913 98.2393 62.5849 97.6989 62.5849 97.0473V92.1795H63.762V96.9675C63.762 97.526 63.9183 97.9716 64.2308 98.3041C64.5467 98.6366 64.949 98.8028 65.4378 98.8028C65.7304 98.8028 66.0279 98.728 66.3305 98.5784C66.6364 98.4288 66.8924 98.1994 67.0986 97.8901C67.3081 97.5809 67.4128 97.1869 67.4128 96.7081Z" fill="#E2E2E2"/>
<path d="M76.172 93.8952L75.1147 94.1944C75.0482 94.0182 74.9501 93.847 74.8204 93.6807C74.694 93.5112 74.5211 93.3715 74.3017 93.2618C74.0822 93.1521 73.8013 93.0972 73.4588 93.0972C72.99 93.0972 72.5993 93.2053 72.2868 93.4214C71.9776 93.6342 71.8229 93.9052 71.8229 94.2343C71.8229 94.5269 71.9293 94.758 72.1421 94.9276C72.3549 95.0972 72.6874 95.2385 73.1396 95.3515L74.2768 95.6308C74.9617 95.7971 75.4721 96.0514 75.8079 96.3939C76.1437 96.733 76.3116 97.1703 76.3116 97.7056C76.3116 98.1445 76.1853 98.5368 75.9326 98.8826C75.6832 99.2284 75.3341 99.5011 74.8852 99.7006C74.4364 99.9001 73.9143 99.9998 73.3192 99.9998C72.5378 99.9998 71.8911 99.8302 71.3791 99.4911C70.867 99.152 70.5428 98.6565 70.4065 98.0048L71.5237 97.7255C71.6301 98.1378 71.8313 98.4471 72.1272 98.6532C72.4264 98.8594 72.8171 98.9624 73.2992 98.9624C73.8478 98.9624 74.2834 98.8461 74.6059 98.6133C74.9318 98.3772 75.0947 98.0946 75.0947 97.7654C75.0947 97.4995 75.0016 97.2767 74.8154 97.0971C74.6292 96.9143 74.3433 96.7779 73.9576 96.6882L72.6808 96.3889C71.9792 96.2227 71.4638 95.965 71.1347 95.6159C70.8088 95.2634 70.6459 94.8229 70.6459 94.2942C70.6459 93.8619 70.7673 93.4796 71.01 93.1471C71.256 92.8146 71.5902 92.5536 72.0125 92.364C72.4381 92.1745 72.9202 92.0798 73.4588 92.0798C74.2169 92.0798 74.8121 92.246 75.2443 92.5785C75.6799 92.911 75.9891 93.3499 76.172 93.8952Z" fill="#E2E2E2"/>
<path d="M81.2953 99.9998C80.5572 99.9998 79.9205 99.8369 79.3852 99.5111C78.8532 99.1819 78.4425 98.723 78.1532 98.1345C77.8673 97.5427 77.7243 96.8544 77.7243 96.0697C77.7243 95.285 77.8673 94.5934 78.1532 93.9949C78.4425 93.3931 78.8448 92.9243 79.3602 92.5885C79.8789 92.2493 80.4841 92.0798 81.1756 92.0798C81.5746 92.0798 81.9686 92.1463 82.3577 92.2793C82.7467 92.4123 83.1008 92.6284 83.42 92.9276C83.7392 93.2235 83.9936 93.6159 84.1831 94.1047C84.3726 94.5934 84.4674 95.1953 84.4674 95.9101V96.4089H78.5622V95.3914H83.2704C83.2704 94.9592 83.1839 94.5735 83.011 94.2343C82.8414 93.8952 82.5987 93.6275 82.2829 93.4314C81.9703 93.2352 81.6012 93.1371 81.1756 93.1371C80.7068 93.1371 80.3012 93.2535 79.9587 93.4862C79.6196 93.7156 79.3586 94.0149 79.1757 94.384C78.9928 94.753 78.9014 95.1487 78.9014 95.571V96.2493C78.9014 96.8278 79.0011 97.3182 79.2006 97.7206C79.4034 98.1196 79.6844 98.4238 80.0435 98.6333C80.4026 98.8394 80.8199 98.9425 81.2953 98.9425C81.6046 98.9425 81.8839 98.8993 82.1332 98.8128C82.3859 98.723 82.6037 98.59 82.7866 98.4138C82.9695 98.2343 83.1108 98.0115 83.2105 97.7455L84.3477 98.0647C84.228 98.4504 84.0268 98.7895 83.7442 99.0821C83.4616 99.3714 83.1124 99.5975 82.6968 99.7604C82.2812 99.92 81.814 99.9998 81.2953 99.9998Z" fill="#E2E2E2"/>
</svg>
