<svg width="87" height="31" viewBox="0 0 87 31" fill="none" xmlns="http://www.w3.org/2000/svg">
<path d="M7.33845 3.47336C7.08601 2.94235 6.72039 2.5332 6.2416 2.24593C5.76282 1.94996 5.20569 1.80197 4.57021 1.80197C3.93473 1.80197 3.36019 1.94996 2.84659 2.24593C2.34169 2.5332 1.94125 2.95105 1.64528 3.49948C1.35801 4.0392 1.21437 4.66597 1.21437 5.37979C1.21437 6.09362 1.35801 6.72039 1.64528 7.26011C1.94125 7.79983 2.34169 8.21768 2.84659 8.51365C3.36019 8.80092 3.93473 8.94456 4.57021 8.94456C5.45814 8.94456 6.18937 8.67905 6.76392 8.14804C7.33846 7.61702 7.6736 6.89884 7.76936 5.99351H4.13931V5.02723H9.03596V5.94128C8.96632 6.68992 8.73128 7.37763 8.33084 8.0044C7.93041 8.62247 7.40374 9.11431 6.75086 9.47993C6.09797 9.83684 5.37109 10.0153 4.57021 10.0153C3.72581 10.0153 2.9554 9.81943 2.25899 9.4277C1.56258 9.02726 1.0098 8.47448 0.600656 7.76936C0.200218 7.06424 0 6.26772 0 5.37979C0 4.49187 0.200218 3.69534 0.600656 2.99022C1.0098 2.2764 1.56258 1.72362 2.25899 1.33189C2.9554 0.931453 3.72581 0.731234 4.57021 0.731234C5.53648 0.731234 6.38959 0.970626 7.12953 1.44941C7.87818 1.92819 8.42225 2.60284 8.76175 3.47336H7.33845Z" fill="black"/>
<path d="M17.1359 6.08491C17.1359 6.31125 17.1229 6.55064 17.0968 6.80309H11.3775C11.421 7.50821 11.6604 8.06098 12.0957 8.46142C12.5396 8.85315 13.075 9.04902 13.7018 9.04902C14.2154 9.04902 14.6419 8.9315 14.9814 8.69646C15.3296 8.45272 15.5734 8.13062 15.7127 7.73019H16.9923C16.8008 8.4179 16.4178 8.97938 15.8432 9.41464C15.2687 9.84119 14.5549 10.0545 13.7018 10.0545C13.0228 10.0545 12.4134 9.90213 11.8737 9.59745C11.3427 9.29277 10.9248 8.86186 10.6201 8.30473C10.3155 7.73889 10.1631 7.08601 10.1631 6.34607C10.1631 5.60613 10.3111 4.95759 10.6071 4.40046C10.903 3.84333 11.3165 3.41678 11.8476 3.1208C12.3873 2.81612 13.0053 2.66378 13.7018 2.66378C14.3808 2.66378 14.9814 2.81177 15.5037 3.10775C16.026 3.40372 16.4265 3.81286 16.705 4.33517C16.9923 4.84878 17.1359 5.43202 17.1359 6.08491ZM15.9085 5.83681C15.9085 5.38415 15.8084 4.99677 15.6082 4.67467C15.408 4.34388 15.1338 4.09578 14.7856 3.93038C14.4461 3.75628 14.0674 3.66923 13.6495 3.66923C13.0489 3.66923 12.5353 3.86074 12.1087 4.24377C11.6909 4.6268 11.4515 5.15781 11.3905 5.83681H15.9085Z" fill="black"/>
<path d="M20.1538 3.76063V7.97829C20.1538 8.32649 20.2278 8.57459 20.3758 8.72258C20.5238 8.86186 20.7806 8.9315 21.1462 8.9315H22.0211V9.93695H20.9503C20.2887 9.93695 19.7926 9.78461 19.4618 9.47993C19.131 9.17525 18.9656 8.6747 18.9656 7.97829V3.76063H18.0385V2.7813H18.9656V0.979331H20.1538V2.7813H22.0211V3.76063H20.1538Z" fill="black"/>
<path d="M29.4752 10.0545C28.9268 10.0545 28.4349 9.96306 27.9997 9.78025C27.5644 9.58874 27.2206 9.32759 26.9681 8.99679C26.7157 8.65729 26.5764 8.26991 26.5503 7.83465H27.7777C27.8125 8.19156 27.9779 8.48318 28.2739 8.70952C28.5786 8.93585 28.9747 9.04902 29.4622 9.04902C29.9148 9.04902 30.2717 8.94891 30.5329 8.74869C30.794 8.54847 30.9246 8.29602 30.9246 7.99134C30.9246 7.67796 30.7853 7.44727 30.5068 7.29928C30.2282 7.14259 29.7973 6.99025 29.2141 6.84226C28.683 6.70298 28.2478 6.5637 27.9083 6.42441C27.5775 6.27642 27.2902 6.06315 27.0465 5.78458C26.8114 5.49731 26.6939 5.12299 26.6939 4.66162C26.6939 4.296 26.8027 3.96085 27.0204 3.65617C27.238 3.35149 27.547 3.1121 27.9475 2.93799C28.3479 2.75519 28.8049 2.66378 29.3185 2.66378C30.1107 2.66378 30.7505 2.864 31.238 3.26444C31.7255 3.66487 31.9867 4.2133 32.0215 4.90971H30.8332C30.8071 4.53539 30.6548 4.23506 30.3762 4.00873C30.1063 3.78239 29.7407 3.66923 29.2793 3.66923C28.8528 3.66923 28.5133 3.76063 28.2608 3.94344C28.0084 4.12625 27.8822 4.36564 27.8822 4.66162C27.8822 4.89666 27.9562 5.09252 28.1042 5.24921C28.2608 5.3972 28.4524 5.51908 28.6787 5.61483C28.9137 5.70188 29.2358 5.80199 29.645 5.91516C30.1586 6.05444 30.5764 6.19373 30.8985 6.33301C31.2206 6.46359 31.4948 6.66381 31.7211 6.93367C31.9562 7.20353 32.0781 7.55608 32.0868 7.99134C32.0868 8.38308 31.978 8.73563 31.7603 9.04902C31.5427 9.36241 31.2337 9.6105 30.8332 9.79331C30.4415 9.96742 29.9888 10.0545 29.4752 10.0545Z" fill="black"/>
<path d="M35.2136 3.76063V7.97829C35.2136 8.32649 35.2876 8.57459 35.4356 8.72258C35.5836 8.86186 35.8404 8.9315 36.206 8.9315H37.0808V9.93695H36.0101C35.3485 9.93695 34.8523 9.78461 34.5215 9.47993C34.1907 9.17525 34.0253 8.6747 34.0253 7.97829V3.76063H33.0982V2.7813H34.0253V0.979331H35.2136V2.7813H37.0808V3.76063H35.2136Z" fill="black"/>
<path d="M38.0766 6.33301C38.0766 5.60177 38.2246 4.96194 38.5206 4.41352C38.8165 3.85639 39.2213 3.42548 39.7349 3.1208C40.2572 2.81612 40.8361 2.66378 41.4716 2.66378C42.0984 2.66378 42.6425 2.79871 43.1038 3.06857C43.5652 3.33843 43.9091 3.67793 44.1354 4.08708V2.7813H45.3367V9.93695H44.1354V8.60506C43.9004 9.02291 43.5478 9.37111 43.0777 9.64968C42.6164 9.91954 42.0766 10.0545 41.4586 10.0545C40.8231 10.0545 40.2485 9.89777 39.7349 9.58439C39.2213 9.271 38.8165 8.83139 38.5206 8.26556C38.2246 7.69972 38.0766 7.05554 38.0766 6.33301ZM44.1354 6.34607C44.1354 5.80635 44.0266 5.33627 43.809 4.93583C43.5913 4.53539 43.2954 4.23071 42.921 4.02179C42.5554 3.80416 42.1506 3.69534 41.7067 3.69534C41.2627 3.69534 40.8579 3.79981 40.4923 4.00873C40.1267 4.21765 39.835 4.52233 39.6174 4.92277C39.3998 5.32321 39.291 5.79329 39.291 6.33301C39.291 6.88143 39.3998 7.36022 39.6174 7.76936C39.835 8.1698 40.1267 8.47883 40.4923 8.69646C40.8579 8.90539 41.2627 9.00985 41.7067 9.00985C42.1506 9.00985 42.5554 8.90539 42.921 8.69646C43.2954 8.47883 43.5913 8.1698 43.809 7.76936C44.0266 7.36022 44.1354 6.88579 44.1354 6.34607Z" fill="black"/>
<path d="M48.533 3.94344C48.7419 3.5343 49.0379 3.21656 49.4209 2.99022C49.8127 2.76389 50.2871 2.65072 50.8442 2.65072V3.87815H50.5308C49.1989 3.87815 48.533 4.60068 48.533 6.04574V9.93695H47.3447V2.7813H48.533V3.94344Z" fill="black"/>
<path d="M53.6653 3.76063V7.97829C53.6653 8.32649 53.7393 8.57459 53.8873 8.72258C54.0353 8.86186 54.2921 8.9315 54.6577 8.9315H55.5326V9.93695H54.4618C53.8002 9.93695 53.304 9.78461 52.9732 9.47993C52.6424 9.17525 52.4771 8.6747 52.4771 7.97829V3.76063H51.55V2.7813H52.4771V0.979331H53.6653V2.7813H55.5326V3.76063H53.6653Z" fill="black"/>
<path d="M63.5012 6.08491C63.5012 6.31125 63.4881 6.55064 63.462 6.80309H57.7427C57.7862 7.50821 58.0256 8.06098 58.4609 8.46142C58.9048 8.85315 59.4402 9.04902 60.067 9.04902C60.5806 9.04902 61.0071 8.9315 61.3466 8.69646C61.6948 8.45272 61.9386 8.13062 62.0779 7.73019H63.3575C63.166 8.4179 62.783 8.97938 62.2084 9.41464C61.6339 9.84119 60.9201 10.0545 60.067 10.0545C59.388 10.0545 58.7786 9.90213 58.2389 9.59745C57.7079 9.29277 57.29 8.86186 56.9853 8.30473C56.6807 7.73889 56.5283 7.08601 56.5283 6.34607C56.5283 5.60613 56.6763 4.95759 56.9723 4.40046C57.2683 3.84333 57.6818 3.41678 58.2128 3.1208C58.7525 2.81612 59.3706 2.66378 60.067 2.66378C60.746 2.66378 61.3466 2.81177 61.8689 3.10775C62.3913 3.40372 62.7917 3.81286 63.0703 4.33517C63.3575 4.84878 63.5012 5.43202 63.5012 6.08491ZM62.2737 5.83681C62.2737 5.38415 62.1736 4.99677 61.9734 4.67467C61.7732 4.34388 61.499 4.09578 61.1508 3.93038C60.8113 3.75628 60.4326 3.66923 60.0147 3.66923C59.4141 3.66923 58.9005 3.86074 58.4739 4.24377C58.0561 4.6268 57.8167 5.15781 57.7558 5.83681H62.2737Z" fill="black"/>
<path d="M64.6257 6.33301C64.6257 5.60177 64.7736 4.96194 65.0696 4.41352C65.3656 3.85639 65.7704 3.42548 66.284 3.1208C66.8063 2.81612 67.3896 2.66378 68.0337 2.66378C68.5909 2.66378 69.1088 2.79436 69.5876 3.05551C70.0664 3.30796 70.432 3.64311 70.6845 4.06096V0.274213H71.8858V9.93695H70.6845V8.592C70.4494 9.01855 70.1012 9.37111 69.6398 9.64968C69.1785 9.91954 68.6387 10.0545 68.0207 10.0545C67.3852 10.0545 66.8063 9.89777 66.284 9.58439C65.7704 9.271 65.3656 8.83139 65.0696 8.26556C64.7736 7.69972 64.6257 7.05554 64.6257 6.33301ZM70.6845 6.34607C70.6845 5.80635 70.5756 5.33627 70.358 4.93583C70.1404 4.53539 69.8444 4.23071 69.4701 4.02179C69.1045 3.80416 68.6997 3.69534 68.2557 3.69534C67.8117 3.69534 67.407 3.79981 67.0413 4.00873C66.6757 4.21765 66.3841 4.52233 66.1665 4.92277C65.9488 5.32321 65.84 5.79329 65.84 6.33301C65.84 6.88143 65.9488 7.36022 66.1665 7.76936C66.3841 8.1698 66.6757 8.47883 67.0413 8.69646C67.407 8.90539 67.8117 9.00985 68.2557 9.00985C68.6997 9.00985 69.1045 8.90539 69.4701 8.69646C69.8444 8.47883 70.1404 8.1698 70.358 7.76936C70.5756 7.36022 70.6845 6.88579 70.6845 6.34607Z" fill="black"/>
<path d="M77.9887 1.61916C77.7624 1.61916 77.5709 1.54081 77.4142 1.38412C77.2575 1.22743 77.1792 1.03591 77.1792 0.80958C77.1792 0.583246 77.2575 0.391733 77.4142 0.23504C77.5709 0.0783466 77.7624 0 77.9887 0C78.2064 0 78.3892 0.0783466 78.5372 0.23504C78.6938 0.391733 78.7722 0.583246 78.7722 0.80958C78.7722 1.03591 78.6938 1.22743 78.5372 1.38412C78.3892 1.54081 78.2064 1.61916 77.9887 1.61916ZM78.5633 2.7813V9.93695H77.375V2.7813H78.5633Z" fill="black"/>
<path d="M84.0749 2.65072C84.9454 2.65072 85.6505 2.91623 86.1902 3.44725C86.7299 3.96956 86.9998 4.72691 86.9998 5.71929V9.93695H85.8246V5.88905C85.8246 5.17522 85.6462 4.63115 85.2892 4.25683C84.9323 3.8738 84.4448 3.68229 83.8268 3.68229C83.2 3.68229 82.6995 3.87815 82.3251 4.26988C81.9595 4.66162 81.7767 5.2318 81.7767 5.98045V9.93695H80.5885V2.7813H81.7767V3.7998C82.0117 3.43419 82.3295 3.15127 82.7299 2.95105C83.1391 2.75083 83.5874 2.65072 84.0749 2.65072Z" fill="black"/>
<path d="M26.7739 22.7396C27.331 22.7396 27.8272 22.8571 28.2625 23.0921C28.6977 23.3185 29.0416 23.6623 29.294 24.1237C29.5465 24.5851 29.6727 25.1465 29.6727 25.8081V30.0258H28.4975V25.9779C28.4975 25.2641 28.3191 24.72 27.9621 24.3457C27.6139 23.9626 27.1395 23.7711 26.5389 23.7711C25.9208 23.7711 25.4289 23.9713 25.0633 24.3718C24.6977 24.7635 24.5149 25.3337 24.5149 26.0824V30.0258H23.3397V25.9779C23.3397 25.2641 23.1613 24.72 22.8043 24.3457C22.4561 23.9626 21.9817 23.7711 21.381 23.7711C20.763 23.7711 20.2711 23.9713 19.9055 24.3718C19.5399 24.7635 19.3571 25.3337 19.3571 26.0824V30.0258H18.1688V22.8701H19.3571V23.9017C19.5921 23.5274 19.9055 23.2401 20.2972 23.0399C20.6977 22.8397 21.1373 22.7396 21.6161 22.7396C22.2167 22.7396 22.7478 22.8745 23.2091 23.1444C23.6705 23.4142 24.0144 23.8103 24.2407 24.3326C24.4409 23.8277 24.7717 23.436 25.2331 23.1574C25.6945 22.8788 26.2081 22.7396 26.7739 22.7396Z" fill="black"/>
<path d="M32.2356 21.708C32.0093 21.708 31.8178 21.6297 31.6611 21.473C31.5044 21.3163 31.426 21.1248 31.426 20.8984C31.426 20.6721 31.5044 20.4806 31.6611 20.3239C31.8178 20.1672 32.0093 20.0888 32.2356 20.0888C32.4532 20.0888 32.636 20.1672 32.784 20.3239C32.9407 20.4806 33.0191 20.6721 33.0191 20.8984C33.0191 21.1248 32.9407 21.3163 32.784 21.473C32.636 21.6297 32.4532 21.708 32.2356 21.708ZM32.8101 22.8701V30.0258H31.6219V22.8701H32.8101Z" fill="black"/>
<path d="M38.3217 22.7396C39.1923 22.7396 39.8974 23.0051 40.4371 23.5361C40.9768 24.0584 41.2467 24.8158 41.2467 25.8081V30.0258H40.0715V25.9779C40.0715 25.2641 39.893 24.72 39.5361 24.3457C39.1792 23.9626 38.6917 23.7711 38.0736 23.7711C37.4469 23.7711 36.9463 23.967 36.572 24.3587C36.2064 24.7505 36.0236 25.3207 36.0236 26.0693V30.0258H34.8353V22.8701H36.0236V23.8887C36.2586 23.523 36.5764 23.2401 36.9768 23.0399C37.3859 22.8397 37.8343 22.7396 38.3217 22.7396Z" fill="black"/>
<path d="M49.5338 22.8701V30.0258H48.3455V28.9681C48.1192 29.3337 47.8014 29.621 47.3923 29.8299C46.9918 30.0301 46.5479 30.1303 46.0604 30.1303C45.5033 30.1303 45.0027 30.0171 44.5588 29.7908C44.1148 29.5557 43.7622 29.2075 43.5011 28.7461C43.2486 28.2848 43.1224 27.7233 43.1224 27.0617V22.8701H44.2976V26.905C44.2976 27.6101 44.4761 28.1542 44.833 28.5372C45.1899 28.9115 45.6774 29.0987 46.2954 29.0987C46.9309 29.0987 47.4315 28.9028 47.7971 28.5111C48.1627 28.1194 48.3455 27.5492 48.3455 26.8005V22.8701H49.5338Z" fill="black"/>
<path d="M52.9895 23.8495V28.0671C52.9895 28.4153 53.0635 28.6634 53.2115 28.8114C53.3594 28.9507 53.6162 29.0203 53.9819 29.0203H54.8567V30.0258H53.786C53.1244 30.0258 52.6282 29.8735 52.2974 29.5688C51.9666 29.2641 51.8012 28.7635 51.8012 28.0671V23.8495H50.8741V22.8701H51.8012V21.0682H52.9895V22.8701H54.8567V23.8495H52.9895Z" fill="black"/>
<path d="M62.8253 26.1738C62.8253 26.4001 62.8123 26.6395 62.7861 26.8919H57.0669C57.1104 27.597 57.3498 28.1498 57.785 28.5503C58.229 28.942 58.7644 29.1379 59.3911 29.1379C59.9047 29.1379 60.3313 29.0203 60.6708 28.7853C61.019 28.5416 61.2627 28.2195 61.402 27.819H62.6817C62.4902 28.5067 62.1071 29.0682 61.5326 29.5035C60.9581 29.93 60.2442 30.1433 59.3911 30.1433C58.7121 30.1433 58.1028 29.991 57.563 29.6863C57.032 29.3816 56.6142 28.9507 56.3095 28.3936C56.0048 27.8277 55.8525 27.1748 55.8525 26.4349C55.8525 25.695 56.0005 25.0464 56.2964 24.4893C56.5924 23.9322 57.0059 23.5056 57.5369 23.2096C58.0767 22.905 58.6947 22.7526 59.3911 22.7526C60.0701 22.7526 60.6708 22.9006 61.1931 23.1966C61.7154 23.4926 62.1159 23.9017 62.3944 24.424C62.6817 24.9376 62.8253 25.5209 62.8253 26.1738ZM61.5979 25.9257C61.5979 25.473 61.4978 25.0856 61.2976 24.7635C61.0973 24.4327 60.8231 24.1846 60.4749 24.0192C60.1354 23.8451 59.7567 23.7581 59.3389 23.7581C58.7382 23.7581 58.2246 23.9496 57.7981 24.3326C57.3802 24.7156 57.1408 25.2467 57.0799 25.9257H61.5979Z" fill="black"/>
<path d="M66.927 30.1433C66.3786 30.1433 65.8867 30.0519 65.4515 29.8691C65.0162 29.6776 64.6723 29.4164 64.4199 29.0856C64.1674 28.7461 64.0282 28.3588 64.002 27.9235H65.2295C65.2643 28.2804 65.4297 28.572 65.7257 28.7984C66.0304 29.0247 66.4264 29.1379 66.9139 29.1379C67.3666 29.1379 67.7235 29.0378 67.9847 28.8375C68.2458 28.6373 68.3764 28.3849 68.3764 28.0802C68.3764 27.7668 68.2371 27.5361 67.9586 27.3881C67.68 27.2314 67.2491 27.0791 66.6658 26.9311C66.1348 26.7918 65.6996 26.6525 65.3601 26.5133C65.0293 26.3653 64.742 26.152 64.4982 25.8734C64.2632 25.5862 64.1457 25.2118 64.1457 24.7505C64.1457 24.3848 64.2545 24.0497 64.4721 23.745C64.6898 23.4403 64.9988 23.2009 65.3992 23.0268C65.7997 22.844 66.2567 22.7526 66.7703 22.7526C67.5625 22.7526 68.2023 22.9528 68.6898 23.3533C69.1773 23.7537 69.4384 24.3021 69.4732 24.9986H68.285C68.2589 24.6242 68.1065 24.3239 67.828 24.0976C67.5581 23.8712 67.1925 23.7581 66.7311 23.7581C66.3046 23.7581 65.9651 23.8495 65.7126 24.0323C65.4602 24.2151 65.3339 24.4545 65.3339 24.7505C65.3339 24.9855 65.4079 25.1814 65.5559 25.3381C65.7126 25.486 65.9041 25.6079 66.1305 25.7037C66.3655 25.7907 66.6876 25.8908 67.0967 26.004C67.6103 26.1433 68.0282 26.2826 68.3503 26.4219C68.6724 26.5524 68.9466 26.7526 69.1729 27.0225C69.408 27.2924 69.5298 27.6449 69.5385 28.0802C69.5385 28.4719 69.4297 28.8245 69.2121 29.1379C68.9945 29.4513 68.6854 29.6993 68.285 29.8822C67.8933 30.0563 67.4406 30.1433 66.927 30.1433Z" fill="black"/>
</svg>
